<?xml version="1.0" encoding="utf-8" standalone="no"?>
<!DOCTYPE svg PUBLIC "-//W3C//DTD SVG 1.1//EN"
  "http://www.w3.org/Graphics/SVG/1.1/DTD/svg11.dtd">
<svg xmlns:xlink="http://www.w3.org/1999/xlink" width="839.334772pt" height="336.24pt" viewBox="0 0 839.334772 336.24" xmlns="http://www.w3.org/2000/svg" version="1.1">
 <metadata>
  <rdf:RDF xmlns:dc="http://purl.org/dc/elements/1.1/" xmlns:cc="http://creativecommons.org/ns#" xmlns:rdf="http://www.w3.org/1999/02/22-rdf-syntax-ns#">
   <cc:Work>
    <dc:type rdf:resource="http://purl.org/dc/dcmitype/StillImage"/>
    <dc:date>2026-06-07T13:23:48.765725</dc:date>
    <dc:format>image/svg+xml</dc:format>
    <dc:creator>
     <cc:Agent>
      <dc:title>Matplotlib v3.10.9, https://matplotlib.org/</dc:title>
     </cc:Agent>
    </dc:creator>
   </cc:Work>
  </rdf:RDF>
 </metadata>
 <defs>
  <style type="text/css">*{stroke-linejoin: round; stroke-linecap: butt}</style>
 </defs>
 <g id="figure_1">
  <g id="patch_1">
   <path d="M 0 336.24 
L 839.334772 336.24 
L 839.334772 0 
L 0 0 
L 0 336.24 
z
" style="fill: none"/>
  </g>
  <g id="axes_1">
   <g id="patch_2">
    <path d="M 26.404375 306.851562 
L 839.334772 306.851562 
L 839.334772 16.637812 
L 26.404375 16.637812 
L 26.404375 306.851562 
z
" style="fill: none"/>
   </g>
   <g id="patch_3">
    <path d="M 63.355757 306.851562 
L 66.12365 306.851562 
L 66.12365 276.141113 
L 63.355757 276.141113 
z
" clip-path="url(#p3da60967de)" style="fill: #4361ee; opacity: 0.45"/>
   </g>
   <g id="patch_4">
    <path d="M 67.230808 306.851562 
L 69.998702 306.851562 
L 69.998702 214.720213 
L 67.230808 214.720213 
z
" clip-path="url(#p3da60967de)" style="fill: #4361ee; opacity: 0.45"/>
   </g>
   <g id="patch_5">
    <path d="M 71.105859 306.851562 
L 73.873753 306.851562 
L 73.873753 245.430663 
L 71.105859 245.430663 
z
" clip-path="url(#p3da60967de)" style="fill: #4361ee; opacity: 0.45"/>
   </g>
   <g id="patch_6">
    <path d="M 74.98091 306.851562 
L 77.748804 306.851562 
L 77.748804 276.141113 
L 74.98091 276.141113 
z
" clip-path="url(#p3da60967de)" style="fill: #4361ee; opacity: 0.45"/>
   </g>
   <g id="patch_7">
    <path d="M 78.855962 306.851562 
L 81.623856 306.851562 
L 81.623856 153.299314 
L 78.855962 153.299314 
z
" clip-path="url(#p3da60967de)" style="fill: #4361ee; opacity: 0.45"/>
   </g>
   <g id="patch_8">
    <path d="M 90.481116 306.851562 
L 93.249009 306.851562 
L 93.249009 276.141113 
L 90.481116 276.141113 
z
" clip-path="url(#p3da60967de)" style="fill: #4361ee; opacity: 0.45"/>
   </g>
   <g id="patch_9">
    <path d="M 98.231218 306.851562 
L 100.999112 306.851562 
L 100.999112 214.720213 
L 98.231218 214.720213 
z
" clip-path="url(#p3da60967de)" style="fill: #4361ee; opacity: 0.45"/>
   </g>
   <g id="patch_10">
    <path d="M 102.106269 306.851562 
L 104.874163 306.851562 
L 104.874163 245.430663 
L 102.106269 245.430663 
z
" clip-path="url(#p3da60967de)" style="fill: #4361ee; opacity: 0.45"/>
   </g>
   <g id="patch_11">
    <path d="M 105.981321 306.851562 
L 108.749214 306.851562 
L 108.749214 276.141113 
L 105.981321 276.141113 
z
" clip-path="url(#p3da60967de)" style="fill: #4361ee; opacity: 0.45"/>
   </g>
   <g id="patch_12">
    <path d="M 109.856372 306.851562 
L 112.624266 306.851562 
L 112.624266 245.430663 
L 109.856372 245.430663 
z
" clip-path="url(#p3da60967de)" style="fill: #4361ee; opacity: 0.45"/>
   </g>
   <g id="patch_13">
    <path d="M 113.731423 306.851562 
L 116.499317 306.851562 
L 116.499317 276.141113 
L 113.731423 276.141113 
z
" clip-path="url(#p3da60967de)" style="fill: #4361ee; opacity: 0.45"/>
   </g>
   <g id="patch_14">
    <path d="M 121.481526 306.851562 
L 124.249419 306.851562 
L 124.249419 276.141113 
L 121.481526 276.141113 
z
" clip-path="url(#p3da60967de)" style="fill: #4361ee; opacity: 0.45"/>
   </g>
   <g id="patch_15">
    <path d="M 125.356577 306.851562 
L 128.124471 306.851562 
L 128.124471 214.720213 
L 125.356577 214.720213 
z
" clip-path="url(#p3da60967de)" style="fill: #4361ee; opacity: 0.45"/>
   </g>
   <g id="patch_16">
    <path d="M 133.106679 306.851562 
L 135.874573 306.851562 
L 135.874573 214.720213 
L 133.106679 214.720213 
z
" clip-path="url(#p3da60967de)" style="fill: #4361ee; opacity: 0.45"/>
   </g>
   <g id="patch_17">
    <path d="M 144.731833 306.851562 
L 147.499727 306.851562 
L 147.499727 276.141113 
L 144.731833 276.141113 
z
" clip-path="url(#p3da60967de)" style="fill: #4361ee; opacity: 0.45"/>
   </g>
   <g id="patch_18">
    <path d="M 148.606884 306.851562 
L 151.374778 306.851562 
L 151.374778 245.430663 
L 148.606884 245.430663 
z
" clip-path="url(#p3da60967de)" style="fill: #4361ee; opacity: 0.45"/>
   </g>
   <g id="patch_19">
    <path d="M 152.481936 306.851562 
L 155.24983 306.851562 
L 155.24983 276.141113 
L 152.481936 276.141113 
z
" clip-path="url(#p3da60967de)" style="fill: #4361ee; opacity: 0.45"/>
   </g>
   <g id="patch_20">
    <path d="M 156.356987 306.851562 
L 159.124881 306.851562 
L 159.124881 122.588864 
L 156.356987 122.588864 
z
" clip-path="url(#p3da60967de)" style="fill: #4361ee; opacity: 0.45"/>
   </g>
   <g id="patch_21">
    <path d="M 160.232038 306.851562 
L 162.999932 306.851562 
L 162.999932 245.430663 
L 160.232038 245.430663 
z
" clip-path="url(#p3da60967de)" style="fill: #4361ee; opacity: 0.45"/>
   </g>
   <g id="patch_22">
    <path d="M 164.10709 306.851562 
L 166.874983 306.851562 
L 166.874983 276.141113 
L 164.10709 276.141113 
z
" clip-path="url(#p3da60967de)" style="fill: #4361ee; opacity: 0.45"/>
   </g>
   <g id="patch_23">
    <path d="M 175.732243 306.851562 
L 178.500137 306.851562 
L 178.500137 214.720213 
L 175.732243 214.720213 
z
" clip-path="url(#p3da60967de)" style="fill: #4361ee; opacity: 0.45"/>
   </g>
   <g id="patch_24">
    <path d="M 179.607295 306.851562 
L 182.375188 306.851562 
L 182.375188 214.720213 
L 179.607295 214.720213 
z
" clip-path="url(#p3da60967de)" style="fill: #4361ee; opacity: 0.45"/>
   </g>
   <g id="patch_25">
    <path d="M 183.482346 306.851562 
L 186.25024 306.851562 
L 186.25024 245.430663 
L 183.482346 245.430663 
z
" clip-path="url(#p3da60967de)" style="fill: #4361ee; opacity: 0.45"/>
   </g>
   <g id="patch_26">
    <path d="M 191.232448 306.851562 
L 194.000342 306.851562 
L 194.000342 276.141113 
L 191.232448 276.141113 
z
" clip-path="url(#p3da60967de)" style="fill: #4361ee; opacity: 0.45"/>
   </g>
   <g id="patch_27">
    <path d="M 198.982551 306.851562 
L 201.750445 306.851562 
L 201.750445 214.720213 
L 198.982551 214.720213 
z
" clip-path="url(#p3da60967de)" style="fill: #4361ee; opacity: 0.45"/>
   </g>
   <g id="patch_28">
    <path d="M 202.857602 306.851562 
L 205.625496 306.851562 
L 205.625496 276.141113 
L 202.857602 276.141113 
z
" clip-path="url(#p3da60967de)" style="fill: #4361ee; opacity: 0.45"/>
   </g>
   <g id="patch_29">
    <path d="M 206.732653 306.851562 
L 209.500547 306.851562 
L 209.500547 276.141113 
L 206.732653 276.141113 
z
" clip-path="url(#p3da60967de)" style="fill: #4361ee; opacity: 0.45"/>
   </g>
   <g id="patch_30">
    <path d="M 210.607705 306.851562 
L 213.375598 306.851562 
L 213.375598 245.430663 
L 210.607705 245.430663 
z
" clip-path="url(#p3da60967de)" style="fill: #4361ee; opacity: 0.45"/>
   </g>
   <g id="patch_31">
    <path d="M 214.482756 306.851562 
L 217.25065 306.851562 
L 217.25065 245.430663 
L 214.482756 245.430663 
z
" clip-path="url(#p3da60967de)" style="fill: #4361ee; opacity: 0.45"/>
   </g>
   <g id="patch_32">
    <path d="M 218.357807 306.851562 
L 221.125701 306.851562 
L 221.125701 153.299314 
L 218.357807 153.299314 
z
" clip-path="url(#p3da60967de)" style="fill: #4361ee; opacity: 0.45"/>
   </g>
   <g id="patch_33">
    <path d="M 222.232858 306.851562 
L 225.000752 306.851562 
L 225.000752 153.299314 
L 222.232858 153.299314 
z
" clip-path="url(#p3da60967de)" style="fill: #4361ee; opacity: 0.45"/>
   </g>
   <g id="patch_34">
    <path d="M 226.10791 306.851562 
L 228.875804 306.851562 
L 228.875804 245.430663 
L 226.10791 245.430663 
z
" clip-path="url(#p3da60967de)" style="fill: #4361ee; opacity: 0.45"/>
   </g>
   <g id="patch_35">
    <path d="M 241.608115 306.851562 
L 244.376009 306.851562 
L 244.376009 245.430663 
L 241.608115 245.430663 
z
" clip-path="url(#p3da60967de)" style="fill: #4361ee; opacity: 0.45"/>
   </g>
   <g id="patch_36">
    <path d="M 245.483166 306.851562 
L 248.25106 306.851562 
L 248.25106 153.299314 
L 245.483166 153.299314 
z
" clip-path="url(#p3da60967de)" style="fill: #4361ee; opacity: 0.45"/>
   </g>
   <g id="patch_37">
    <path d="M 249.358217 306.851562 
L 252.126111 306.851562 
L 252.126111 276.141113 
L 249.358217 276.141113 
z
" clip-path="url(#p3da60967de)" style="fill: #4361ee; opacity: 0.45"/>
   </g>
   <g id="patch_38">
    <path d="M 253.233269 306.851562 
L 256.001162 306.851562 
L 256.001162 214.720213 
L 253.233269 214.720213 
z
" clip-path="url(#p3da60967de)" style="fill: #4361ee; opacity: 0.45"/>
   </g>
   <g id="patch_39">
    <path d="M 257.10832 306.851562 
L 259.876214 306.851562 
L 259.876214 276.141113 
L 257.10832 276.141113 
z
" clip-path="url(#p3da60967de)" style="fill: #4361ee; opacity: 0.45"/>
   </g>
   <g id="patch_40">
    <path d="M 260.983371 306.851562 
L 263.751265 306.851562 
L 263.751265 245.430663 
L 260.983371 245.430663 
z
" clip-path="url(#p3da60967de)" style="fill: #4361ee; opacity: 0.45"/>
   </g>
   <g id="patch_41">
    <path d="M 264.858422 306.851562 
L 267.626316 306.851562 
L 267.626316 245.430663 
L 264.858422 245.430663 
z
" clip-path="url(#p3da60967de)" style="fill: #4361ee; opacity: 0.45"/>
   </g>
   <g id="patch_42">
    <path d="M 268.733474 306.851562 
L 271.501367 306.851562 
L 271.501367 245.430663 
L 268.733474 245.430663 
z
" clip-path="url(#p3da60967de)" style="fill: #4361ee; opacity: 0.45"/>
   </g>
   <g id="patch_43">
    <path d="M 272.608525 306.851562 
L 275.376419 306.851562 
L 275.376419 276.141113 
L 272.608525 276.141113 
z
" clip-path="url(#p3da60967de)" style="fill: #4361ee; opacity: 0.45"/>
   </g>
   <g id="patch_44">
    <path d="M 276.483576 306.851562 
L 279.25147 306.851562 
L 279.25147 245.430663 
L 276.483576 245.430663 
z
" clip-path="url(#p3da60967de)" style="fill: #4361ee; opacity: 0.45"/>
   </g>
   <g id="patch_45">
    <path d="M 280.358627 306.851562 
L 283.126521 306.851562 
L 283.126521 276.141113 
L 280.358627 276.141113 
z
" clip-path="url(#p3da60967de)" style="fill: #4361ee; opacity: 0.45"/>
   </g>
   <g id="patch_46">
    <path d="M 284.233679 306.851562 
L 287.001572 306.851562 
L 287.001572 214.720213 
L 284.233679 214.720213 
z
" clip-path="url(#p3da60967de)" style="fill: #4361ee; opacity: 0.45"/>
   </g>
   <g id="patch_47">
    <path d="M 295.858832 306.851562 
L 298.626726 306.851562 
L 298.626726 214.720213 
L 295.858832 214.720213 
z
" clip-path="url(#p3da60967de)" style="fill: #4361ee; opacity: 0.45"/>
   </g>
   <g id="patch_48">
    <path d="M 299.733884 306.851562 
L 302.501778 306.851562 
L 302.501778 276.141113 
L 299.733884 276.141113 
z
" clip-path="url(#p3da60967de)" style="fill: #4361ee; opacity: 0.45"/>
   </g>
   <g id="patch_49">
    <path d="M 303.608935 306.851562 
L 306.376829 306.851562 
L 306.376829 214.720213 
L 303.608935 214.720213 
z
" clip-path="url(#p3da60967de)" style="fill: #4361ee; opacity: 0.45"/>
   </g>
   <g id="patch_50">
    <path d="M 315.234089 306.851562 
L 318.001983 306.851562 
L 318.001983 122.588864 
L 315.234089 122.588864 
z
" clip-path="url(#p3da60967de)" style="fill: #4361ee; opacity: 0.45"/>
   </g>
   <g id="patch_51">
    <path d="M 319.10914 306.851562 
L 321.877034 306.851562 
L 321.877034 276.141113 
L 319.10914 276.141113 
z
" clip-path="url(#p3da60967de)" style="fill: #4361ee; opacity: 0.45"/>
   </g>
   <g id="patch_52">
    <path d="M 326.859243 306.851562 
L 329.627136 306.851562 
L 329.627136 276.141113 
L 326.859243 276.141113 
z
" clip-path="url(#p3da60967de)" style="fill: #4361ee; opacity: 0.45"/>
   </g>
   <g id="patch_53">
    <path d="M 330.734294 306.851562 
L 333.502188 306.851562 
L 333.502188 245.430663 
L 330.734294 245.430663 
z
" clip-path="url(#p3da60967de)" style="fill: #4361ee; opacity: 0.45"/>
   </g>
   <g id="patch_54">
    <path d="M 334.609345 306.851562 
L 337.377239 306.851562 
L 337.377239 245.430663 
L 334.609345 245.430663 
z
" clip-path="url(#p3da60967de)" style="fill: #4361ee; opacity: 0.45"/>
   </g>
   <g id="patch_55">
    <path d="M 338.484396 306.851562 
L 341.25229 306.851562 
L 341.25229 184.009764 
L 338.484396 184.009764 
z
" clip-path="url(#p3da60967de)" style="fill: #4361ee; opacity: 0.45"/>
   </g>
   <g id="patch_56">
    <path d="M 342.359448 306.851562 
L 345.127341 306.851562 
L 345.127341 276.141113 
L 342.359448 276.141113 
z
" clip-path="url(#p3da60967de)" style="fill: #4361ee; opacity: 0.45"/>
   </g>
   <g id="patch_57">
    <path d="M 346.234499 306.851562 
L 349.002393 306.851562 
L 349.002393 276.141113 
L 346.234499 276.141113 
z
" clip-path="url(#p3da60967de)" style="fill: #4361ee; opacity: 0.45"/>
   </g>
   <g id="patch_58">
    <path d="M 350.10955 306.851562 
L 352.877444 306.851562 
L 352.877444 184.009764 
L 350.10955 184.009764 
z
" clip-path="url(#p3da60967de)" style="fill: #4361ee; opacity: 0.45"/>
   </g>
   <g id="patch_59">
    <path d="M 353.984601 306.851562 
L 356.752495 306.851562 
L 356.752495 153.299314 
L 353.984601 153.299314 
z
" clip-path="url(#p3da60967de)" style="fill: #4361ee; opacity: 0.45"/>
   </g>
   <g id="patch_60">
    <path d="M 357.859653 306.851562 
L 360.627546 306.851562 
L 360.627546 91.878414 
L 357.859653 91.878414 
z
" clip-path="url(#p3da60967de)" style="fill: #4361ee; opacity: 0.45"/>
   </g>
   <g id="patch_61">
    <path d="M 365.609755 306.851562 
L 368.377649 306.851562 
L 368.377649 61.167965 
L 365.609755 61.167965 
z
" clip-path="url(#p3da60967de)" style="fill: #4361ee; opacity: 0.45"/>
   </g>
   <g id="patch_62">
    <path d="M 369.484806 306.851562 
L 372.2527 306.851562 
L 372.2527 245.430663 
L 369.484806 245.430663 
z
" clip-path="url(#p3da60967de)" style="fill: #4361ee; opacity: 0.45"/>
   </g>
   <g id="patch_63">
    <path d="M 373.359858 306.851562 
L 376.127752 306.851562 
L 376.127752 276.141113 
L 373.359858 276.141113 
z
" clip-path="url(#p3da60967de)" style="fill: #4361ee; opacity: 0.45"/>
   </g>
   <g id="patch_64">
    <path d="M 377.234909 306.851562 
L 380.002803 306.851562 
L 380.002803 276.141113 
L 377.234909 276.141113 
z
" clip-path="url(#p3da60967de)" style="fill: #4361ee; opacity: 0.45"/>
   </g>
   <g id="patch_65">
    <path d="M 381.10996 306.851562 
L 383.877854 306.851562 
L 383.877854 214.720213 
L 381.10996 214.720213 
z
" clip-path="url(#p3da60967de)" style="fill: #4361ee; opacity: 0.45"/>
   </g>
   <g id="patch_66">
    <path d="M 384.985012 306.851562 
L 387.752905 306.851562 
L 387.752905 245.430663 
L 384.985012 245.430663 
z
" clip-path="url(#p3da60967de)" style="fill: #4361ee; opacity: 0.45"/>
   </g>
   <g id="patch_67">
    <path d="M 388.860063 306.851562 
L 391.627957 306.851562 
L 391.627957 184.009764 
L 388.860063 184.009764 
z
" clip-path="url(#p3da60967de)" style="fill: #4361ee; opacity: 0.45"/>
   </g>
   <g id="patch_68">
    <path d="M 392.735114 306.851562 
L 395.503008 306.851562 
L 395.503008 276.141113 
L 392.735114 276.141113 
z
" clip-path="url(#p3da60967de)" style="fill: #4361ee; opacity: 0.45"/>
   </g>
   <g id="patch_69">
    <path d="M 396.610165 306.851562 
L 399.378059 306.851562 
L 399.378059 276.141113 
L 396.610165 276.141113 
z
" clip-path="url(#p3da60967de)" style="fill: #4361ee; opacity: 0.45"/>
   </g>
   <g id="patch_70">
    <path d="M 400.485217 306.851562 
L 403.25311 306.851562 
L 403.25311 91.878414 
L 400.485217 91.878414 
z
" clip-path="url(#p3da60967de)" style="fill: #4361ee; opacity: 0.45"/>
   </g>
   <g id="patch_71">
    <path d="M 404.360268 306.851562 
L 407.128162 306.851562 
L 407.128162 276.141113 
L 404.360268 276.141113 
z
" clip-path="url(#p3da60967de)" style="fill: #4361ee; opacity: 0.45"/>
   </g>
   <g id="patch_72">
    <path d="M 408.235319 306.851562 
L 411.003213 306.851562 
L 411.003213 214.720213 
L 408.235319 214.720213 
z
" clip-path="url(#p3da60967de)" style="fill: #4361ee; opacity: 0.45"/>
   </g>
   <g id="patch_73">
    <path d="M 412.11037 306.851562 
L 414.878264 306.851562 
L 414.878264 61.167965 
L 412.11037 61.167965 
z
" clip-path="url(#p3da60967de)" style="fill: #4361ee; opacity: 0.45"/>
   </g>
   <g id="patch_74">
    <path d="M 415.985422 306.851562 
L 418.753315 306.851562 
L 418.753315 184.009764 
L 415.985422 184.009764 
z
" clip-path="url(#p3da60967de)" style="fill: #4361ee; opacity: 0.45"/>
   </g>
   <g id="patch_75">
    <path d="M 419.860473 306.851562 
L 422.628367 306.851562 
L 422.628367 245.430663 
L 419.860473 245.430663 
z
" clip-path="url(#p3da60967de)" style="fill: #4361ee; opacity: 0.45"/>
   </g>
   <g id="patch_76">
    <path d="M 423.735524 306.851562 
L 426.503418 306.851562 
L 426.503418 30.457515 
L 423.735524 30.457515 
z
" clip-path="url(#p3da60967de)" style="fill: #4361ee; opacity: 0.45"/>
   </g>
   <g id="patch_77">
    <path d="M 427.610575 306.851562 
L 430.378469 306.851562 
L 430.378469 276.141113 
L 427.610575 276.141113 
z
" clip-path="url(#p3da60967de)" style="fill: #4361ee; opacity: 0.45"/>
   </g>
   <g id="patch_78">
    <path d="M 431.485627 306.851562 
L 434.25352 306.851562 
L 434.25352 122.588864 
L 431.485627 122.588864 
z
" clip-path="url(#p3da60967de)" style="fill: #4361ee; opacity: 0.45"/>
   </g>
   <g id="patch_79">
    <path d="M 435.360678 306.851562 
L 438.128572 306.851562 
L 438.128572 122.588864 
L 435.360678 122.588864 
z
" clip-path="url(#p3da60967de)" style="fill: #4361ee; opacity: 0.45"/>
   </g>
   <g id="patch_80">
    <path d="M 443.11078 306.851562 
L 445.878674 306.851562 
L 445.878674 91.878414 
L 443.11078 91.878414 
z
" clip-path="url(#p3da60967de)" style="fill: #4361ee; opacity: 0.45"/>
   </g>
   <g id="patch_81">
    <path d="M 446.985832 306.851562 
L 449.753726 306.851562 
L 449.753726 153.299314 
L 446.985832 153.299314 
z
" clip-path="url(#p3da60967de)" style="fill: #4361ee; opacity: 0.45"/>
   </g>
   <g id="patch_82">
    <path d="M 450.860883 306.851562 
L 453.628777 306.851562 
L 453.628777 276.141113 
L 450.860883 276.141113 
z
" clip-path="url(#p3da60967de)" style="fill: #4361ee; opacity: 0.45"/>
   </g>
   <g id="patch_83">
    <path d="M 454.735934 306.851562 
L 457.503828 306.851562 
L 457.503828 153.299314 
L 454.735934 153.299314 
z
" clip-path="url(#p3da60967de)" style="fill: #4361ee; opacity: 0.45"/>
   </g>
   <g id="patch_84">
    <path d="M 458.610986 306.851562 
L 461.378879 306.851562 
L 461.378879 184.009764 
L 458.610986 184.009764 
z
" clip-path="url(#p3da60967de)" style="fill: #4361ee; opacity: 0.45"/>
   </g>
   <g id="patch_85">
    <path d="M 462.486037 306.851562 
L 465.253931 306.851562 
L 465.253931 61.167965 
L 462.486037 61.167965 
z
" clip-path="url(#p3da60967de)" style="fill: #4361ee; opacity: 0.45"/>
   </g>
   <g id="patch_86">
    <path d="M 466.361088 306.851562 
L 469.128982 306.851562 
L 469.128982 245.430663 
L 466.361088 245.430663 
z
" clip-path="url(#p3da60967de)" style="fill: #4361ee; opacity: 0.45"/>
   </g>
   <g id="patch_87">
    <path d="M 470.236139 306.851562 
L 473.004033 306.851562 
L 473.004033 245.430663 
L 470.236139 245.430663 
z
" clip-path="url(#p3da60967de)" style="fill: #4361ee; opacity: 0.45"/>
   </g>
   <g id="patch_88">
    <path d="M 474.111191 306.851562 
L 476.879084 306.851562 
L 476.879084 276.141113 
L 474.111191 276.141113 
z
" clip-path="url(#p3da60967de)" style="fill: #4361ee; opacity: 0.45"/>
   </g>
   <g id="patch_89">
    <path d="M 477.986242 306.851562 
L 480.754136 306.851562 
L 480.754136 276.141113 
L 477.986242 276.141113 
z
" clip-path="url(#p3da60967de)" style="fill: #4361ee; opacity: 0.45"/>
   </g>
   <g id="patch_90">
    <path d="M 481.861293 306.851562 
L 484.629187 306.851562 
L 484.629187 214.720213 
L 481.861293 214.720213 
z
" clip-path="url(#p3da60967de)" style="fill: #4361ee; opacity: 0.45"/>
   </g>
   <g id="patch_91">
    <path d="M 485.736344 306.851562 
L 488.504238 306.851562 
L 488.504238 122.588864 
L 485.736344 122.588864 
z
" clip-path="url(#p3da60967de)" style="fill: #4361ee; opacity: 0.45"/>
   </g>
   <g id="patch_92">
    <path d="M 489.611396 306.851562 
L 492.379289 306.851562 
L 492.379289 153.299314 
L 489.611396 153.299314 
z
" clip-path="url(#p3da60967de)" style="fill: #4361ee; opacity: 0.45"/>
   </g>
   <g id="patch_93">
    <path d="M 493.486447 306.851562 
L 496.254341 306.851562 
L 496.254341 245.430663 
L 493.486447 245.430663 
z
" clip-path="url(#p3da60967de)" style="fill: #4361ee; opacity: 0.45"/>
   </g>
   <g id="patch_94">
    <path d="M 497.361498 306.851562 
L 500.129392 306.851562 
L 500.129392 245.430663 
L 497.361498 245.430663 
z
" clip-path="url(#p3da60967de)" style="fill: #4361ee; opacity: 0.45"/>
   </g>
   <g id="patch_95">
    <path d="M 501.236549 306.851562 
L 504.004443 306.851562 
L 504.004443 245.430663 
L 501.236549 245.430663 
z
" clip-path="url(#p3da60967de)" style="fill: #4361ee; opacity: 0.45"/>
   </g>
   <g id="patch_96">
    <path d="M 505.111601 306.851562 
L 507.879494 306.851562 
L 507.879494 122.588864 
L 505.111601 122.588864 
z
" clip-path="url(#p3da60967de)" style="fill: #4361ee; opacity: 0.45"/>
   </g>
   <g id="patch_97">
    <path d="M 508.986652 306.851562 
L 511.754546 306.851562 
L 511.754546 276.141113 
L 508.986652 276.141113 
z
" clip-path="url(#p3da60967de)" style="fill: #4361ee; opacity: 0.45"/>
   </g>
   <g id="patch_98">
    <path d="M 516.736754 306.851562 
L 519.504648 306.851562 
L 519.504648 153.299314 
L 516.736754 153.299314 
z
" clip-path="url(#p3da60967de)" style="fill: #4361ee; opacity: 0.45"/>
   </g>
   <g id="patch_99">
    <path d="M 520.611806 306.851562 
L 523.3797 306.851562 
L 523.3797 153.299314 
L 520.611806 153.299314 
z
" clip-path="url(#p3da60967de)" style="fill: #4361ee; opacity: 0.45"/>
   </g>
   <g id="patch_100">
    <path d="M 524.486857 306.851562 
L 527.254751 306.851562 
L 527.254751 276.141113 
L 524.486857 276.141113 
z
" clip-path="url(#p3da60967de)" style="fill: #4361ee; opacity: 0.45"/>
   </g>
   <g id="patch_101">
    <path d="M 528.361908 306.851562 
L 531.129802 306.851562 
L 531.129802 184.009764 
L 528.361908 184.009764 
z
" clip-path="url(#p3da60967de)" style="fill: #4361ee; opacity: 0.45"/>
   </g>
   <g id="patch_102">
    <path d="M 532.23696 306.851562 
L 535.004853 306.851562 
L 535.004853 245.430663 
L 532.23696 245.430663 
z
" clip-path="url(#p3da60967de)" style="fill: #4361ee; opacity: 0.45"/>
   </g>
   <g id="patch_103">
    <path d="M 536.112011 306.851562 
L 538.879905 306.851562 
L 538.879905 122.588864 
L 536.112011 122.588864 
z
" clip-path="url(#p3da60967de)" style="fill: #4361ee; opacity: 0.45"/>
   </g>
   <g id="patch_104">
    <path d="M 539.987062 306.851562 
L 542.754956 306.851562 
L 542.754956 214.720213 
L 539.987062 214.720213 
z
" clip-path="url(#p3da60967de)" style="fill: #4361ee; opacity: 0.45"/>
   </g>
   <g id="patch_105">
    <path d="M 543.862113 306.851562 
L 546.630007 306.851562 
L 546.630007 214.720213 
L 543.862113 214.720213 
z
" clip-path="url(#p3da60967de)" style="fill: #4361ee; opacity: 0.45"/>
   </g>
   <g id="patch_106">
    <path d="M 547.737165 306.851562 
L 550.505058 306.851562 
L 550.505058 245.430663 
L 547.737165 245.430663 
z
" clip-path="url(#p3da60967de)" style="fill: #4361ee; opacity: 0.45"/>
   </g>
   <g id="patch_107">
    <path d="M 551.612216 306.851562 
L 554.38011 306.851562 
L 554.38011 61.167965 
L 551.612216 61.167965 
z
" clip-path="url(#p3da60967de)" style="fill: #4361ee; opacity: 0.45"/>
   </g>
   <g id="patch_108">
    <path d="M 555.487267 306.851562 
L 558.255161 306.851562 
L 558.255161 184.009764 
L 555.487267 184.009764 
z
" clip-path="url(#p3da60967de)" style="fill: #4361ee; opacity: 0.45"/>
   </g>
   <g id="patch_109">
    <path d="M 559.362318 306.851562 
L 562.130212 306.851562 
L 562.130212 214.720213 
L 559.362318 214.720213 
z
" clip-path="url(#p3da60967de)" style="fill: #4361ee; opacity: 0.45"/>
   </g>
   <g id="patch_110">
    <path d="M 563.23737 306.851562 
L 566.005263 306.851562 
L 566.005263 214.720213 
L 563.23737 214.720213 
z
" clip-path="url(#p3da60967de)" style="fill: #4361ee; opacity: 0.45"/>
   </g>
   <g id="patch_111">
    <path d="M 567.112421 306.851562 
L 569.880315 306.851562 
L 569.880315 122.588864 
L 567.112421 122.588864 
z
" clip-path="url(#p3da60967de)" style="fill: #4361ee; opacity: 0.45"/>
   </g>
   <g id="patch_112">
    <path d="M 570.987472 306.851562 
L 573.755366 306.851562 
L 573.755366 214.720213 
L 570.987472 214.720213 
z
" clip-path="url(#p3da60967de)" style="fill: #4361ee; opacity: 0.45"/>
   </g>
   <g id="patch_113">
    <path d="M 574.862523 306.851562 
L 577.630417 306.851562 
L 577.630417 153.299314 
L 574.862523 153.299314 
z
" clip-path="url(#p3da60967de)" style="fill: #4361ee; opacity: 0.45"/>
   </g>
   <g id="patch_114">
    <path d="M 586.487677 306.851562 
L 589.255571 306.851562 
L 589.255571 122.588864 
L 586.487677 122.588864 
z
" clip-path="url(#p3da60967de)" style="fill: #4361ee; opacity: 0.45"/>
   </g>
   <g id="patch_115">
    <path d="M 590.362729 306.851562 
L 593.130622 306.851562 
L 593.130622 184.009764 
L 590.362729 184.009764 
z
" clip-path="url(#p3da60967de)" style="fill: #4361ee; opacity: 0.45"/>
   </g>
   <g id="patch_116">
    <path d="M 594.23778 306.851562 
L 597.005674 306.851562 
L 597.005674 184.009764 
L 594.23778 184.009764 
z
" clip-path="url(#p3da60967de)" style="fill: #4361ee; opacity: 0.45"/>
   </g>
   <g id="patch_117">
    <path d="M 598.112831 306.851562 
L 600.880725 306.851562 
L 600.880725 214.720213 
L 598.112831 214.720213 
z
" clip-path="url(#p3da60967de)" style="fill: #4361ee; opacity: 0.45"/>
   </g>
   <g id="patch_118">
    <path d="M 601.987882 306.851562 
L 604.755776 306.851562 
L 604.755776 245.430663 
L 601.987882 245.430663 
z
" clip-path="url(#p3da60967de)" style="fill: #4361ee; opacity: 0.45"/>
   </g>
   <g id="patch_119">
    <path d="M 605.862934 306.851562 
L 608.630827 306.851562 
L 608.630827 276.141113 
L 605.862934 276.141113 
z
" clip-path="url(#p3da60967de)" style="fill: #4361ee; opacity: 0.45"/>
   </g>
   <g id="patch_120">
    <path d="M 609.737985 306.851562 
L 612.505879 306.851562 
L 612.505879 184.009764 
L 609.737985 184.009764 
z
" clip-path="url(#p3da60967de)" style="fill: #4361ee; opacity: 0.45"/>
   </g>
   <g id="patch_121">
    <path d="M 613.613036 306.851562 
L 616.38093 306.851562 
L 616.38093 276.141113 
L 613.613036 276.141113 
z
" clip-path="url(#p3da60967de)" style="fill: #4361ee; opacity: 0.45"/>
   </g>
   <g id="patch_122">
    <path d="M 617.488087 306.851562 
L 620.255981 306.851562 
L 620.255981 122.588864 
L 617.488087 122.588864 
z
" clip-path="url(#p3da60967de)" style="fill: #4361ee; opacity: 0.45"/>
   </g>
   <g id="patch_123">
    <path d="M 621.363139 306.851562 
L 624.131032 306.851562 
L 624.131032 184.009764 
L 621.363139 184.009764 
z
" clip-path="url(#p3da60967de)" style="fill: #4361ee; opacity: 0.45"/>
   </g>
   <g id="patch_124">
    <path d="M 625.23819 306.851562 
L 628.006084 306.851562 
L 628.006084 153.299314 
L 625.23819 153.299314 
z
" clip-path="url(#p3da60967de)" style="fill: #4361ee; opacity: 0.45"/>
   </g>
   <g id="patch_125">
    <path d="M 629.113241 306.851562 
L 631.881135 306.851562 
L 631.881135 276.141113 
L 629.113241 276.141113 
z
" clip-path="url(#p3da60967de)" style="fill: #4361ee; opacity: 0.45"/>
   </g>
   <g id="patch_126">
    <path d="M 632.988292 306.851562 
L 635.756186 306.851562 
L 635.756186 245.430663 
L 632.988292 245.430663 
z
" clip-path="url(#p3da60967de)" style="fill: #4361ee; opacity: 0.45"/>
   </g>
   <g id="patch_127">
    <path d="M 636.863344 306.851562 
L 639.631237 306.851562 
L 639.631237 184.009764 
L 636.863344 184.009764 
z
" clip-path="url(#p3da60967de)" style="fill: #4361ee; opacity: 0.45"/>
   </g>
   <g id="patch_128">
    <path d="M 640.738395 306.851562 
L 643.506289 306.851562 
L 643.506289 153.299314 
L 640.738395 153.299314 
z
" clip-path="url(#p3da60967de)" style="fill: #4361ee; opacity: 0.45"/>
   </g>
   <g id="patch_129">
    <path d="M 644.613446 306.851562 
L 647.38134 306.851562 
L 647.38134 214.720213 
L 644.613446 214.720213 
z
" clip-path="url(#p3da60967de)" style="fill: #4361ee; opacity: 0.45"/>
   </g>
   <g id="patch_130">
    <path d="M 648.488497 306.851562 
L 651.256391 306.851562 
L 651.256391 214.720213 
L 648.488497 214.720213 
z
" clip-path="url(#p3da60967de)" style="fill: #4361ee; opacity: 0.45"/>
   </g>
   <g id="patch_131">
    <path d="M 652.363549 306.851562 
L 655.131442 306.851562 
L 655.131442 184.009764 
L 652.363549 184.009764 
z
" clip-path="url(#p3da60967de)" style="fill: #4361ee; opacity: 0.45"/>
   </g>
   <g id="patch_132">
    <path d="M 656.2386 306.851562 
L 659.006494 306.851562 
L 659.006494 91.878414 
L 656.2386 91.878414 
z
" clip-path="url(#p3da60967de)" style="fill: #4361ee; opacity: 0.45"/>
   </g>
   <g id="patch_133">
    <path d="M 660.113651 306.851562 
L 662.881545 306.851562 
L 662.881545 153.299314 
L 660.113651 153.299314 
z
" clip-path="url(#p3da60967de)" style="fill: #4361ee; opacity: 0.45"/>
   </g>
   <g id="patch_134">
    <path d="M 663.988703 306.851562 
L 666.756596 306.851562 
L 666.756596 153.299314 
L 663.988703 153.299314 
z
" clip-path="url(#p3da60967de)" style="fill: #4361ee; opacity: 0.45"/>
   </g>
   <g id="patch_135">
    <path d="M 667.863754 306.851562 
L 670.631648 306.851562 
L 670.631648 184.009764 
L 667.863754 184.009764 
z
" clip-path="url(#p3da60967de)" style="fill: #4361ee; opacity: 0.45"/>
   </g>
   <g id="patch_136">
    <path d="M 671.738805 306.851562 
L 674.506699 306.851562 
L 674.506699 91.878414 
L 671.738805 91.878414 
z
" clip-path="url(#p3da60967de)" style="fill: #4361ee; opacity: 0.45"/>
   </g>
   <g id="patch_137">
    <path d="M 675.613856 306.851562 
L 678.38175 306.851562 
L 678.38175 214.720213 
L 675.613856 214.720213 
z
" clip-path="url(#p3da60967de)" style="fill: #4361ee; opacity: 0.45"/>
   </g>
   <g id="patch_138">
    <path d="M 679.488908 306.851562 
L 682.256801 306.851562 
L 682.256801 30.457515 
L 679.488908 30.457515 
z
" clip-path="url(#p3da60967de)" style="fill: #4361ee; opacity: 0.45"/>
   </g>
   <g id="patch_139">
    <path d="M 683.363959 306.851562 
L 686.131853 306.851562 
L 686.131853 91.878414 
L 683.363959 91.878414 
z
" clip-path="url(#p3da60967de)" style="fill: #4361ee; opacity: 0.45"/>
   </g>
   <g id="patch_140">
    <path d="M 687.23901 306.851562 
L 690.006904 306.851562 
L 690.006904 184.009764 
L 687.23901 184.009764 
z
" clip-path="url(#p3da60967de)" style="fill: #4361ee; opacity: 0.45"/>
   </g>
   <g id="patch_141">
    <path d="M 691.114061 306.851562 
L 693.881955 306.851562 
L 693.881955 184.009764 
L 691.114061 184.009764 
z
" clip-path="url(#p3da60967de)" style="fill: #4361ee; opacity: 0.45"/>
   </g>
   <g id="patch_142">
    <path d="M 694.989113 306.851562 
L 697.757006 306.851562 
L 697.757006 153.299314 
L 694.989113 153.299314 
z
" clip-path="url(#p3da60967de)" style="fill: #4361ee; opacity: 0.45"/>
   </g>
   <g id="patch_143">
    <path d="M 698.864164 306.851562 
L 701.632058 306.851562 
L 701.632058 184.009764 
L 698.864164 184.009764 
z
" clip-path="url(#p3da60967de)" style="fill: #4361ee; opacity: 0.45"/>
   </g>
   <g id="patch_144">
    <path d="M 706.614266 306.851562 
L 709.38216 306.851562 
L 709.38216 245.430663 
L 706.614266 245.430663 
z
" clip-path="url(#p3da60967de)" style="fill: #4361ee; opacity: 0.45"/>
   </g>
   <g id="patch_145">
    <path d="M 718.23942 306.851562 
L 721.007314 306.851562 
L 721.007314 214.720213 
L 718.23942 214.720213 
z
" clip-path="url(#p3da60967de)" style="fill: #4361ee; opacity: 0.45"/>
   </g>
   <g id="patch_146">
    <path d="M 722.114471 306.851562 
L 724.882365 306.851562 
L 724.882365 245.430663 
L 722.114471 245.430663 
z
" clip-path="url(#p3da60967de)" style="fill: #4361ee; opacity: 0.45"/>
   </g>
   <g id="patch_147">
    <path d="M 725.989523 306.851562 
L 728.757416 306.851562 
L 728.757416 153.299314 
L 725.989523 153.299314 
z
" clip-path="url(#p3da60967de)" style="fill: #4361ee; opacity: 0.45"/>
   </g>
   <g id="patch_148">
    <path d="M 729.864574 306.851562 
L 732.632468 306.851562 
L 732.632468 245.430663 
L 729.864574 245.430663 
z
" clip-path="url(#p3da60967de)" style="fill: #4361ee; opacity: 0.45"/>
   </g>
   <g id="patch_149">
    <path d="M 733.739625 306.851562 
L 736.507519 306.851562 
L 736.507519 153.299314 
L 733.739625 153.299314 
z
" clip-path="url(#p3da60967de)" style="fill: #4361ee; opacity: 0.45"/>
   </g>
   <g id="patch_150">
    <path d="M 737.614677 306.851562 
L 740.38257 306.851562 
L 740.38257 245.430663 
L 737.614677 245.430663 
z
" clip-path="url(#p3da60967de)" style="fill: #4361ee; opacity: 0.45"/>
   </g>
   <g id="patch_151">
    <path d="M 741.489728 306.851562 
L 744.257622 306.851562 
L 744.257622 276.141113 
L 741.489728 276.141113 
z
" clip-path="url(#p3da60967de)" style="fill: #4361ee; opacity: 0.45"/>
   </g>
   <g id="patch_152">
    <path d="M 745.364779 306.851562 
L 748.132673 306.851562 
L 748.132673 184.009764 
L 745.364779 184.009764 
z
" clip-path="url(#p3da60967de)" style="fill: #4361ee; opacity: 0.45"/>
   </g>
   <g id="patch_153">
    <path d="M 749.23983 306.851562 
L 752.007724 306.851562 
L 752.007724 184.009764 
L 749.23983 184.009764 
z
" clip-path="url(#p3da60967de)" style="fill: #4361ee; opacity: 0.45"/>
   </g>
   <g id="patch_154">
    <path d="M 753.114882 306.851562 
L 755.882775 306.851562 
L 755.882775 61.167965 
L 753.114882 61.167965 
z
" clip-path="url(#p3da60967de)" style="fill: #4361ee; opacity: 0.45"/>
   </g>
   <g id="patch_155">
    <path d="M 756.989933 306.851562 
L 759.757827 306.851562 
L 759.757827 245.430663 
L 756.989933 245.430663 
z
" clip-path="url(#p3da60967de)" style="fill: #4361ee; opacity: 0.45"/>
   </g>
   <g id="patch_156">
    <path d="M 760.864984 306.851562 
L 763.632878 306.851562 
L 763.632878 30.457515 
L 760.864984 30.457515 
z
" clip-path="url(#p3da60967de)" style="fill: #4361ee; opacity: 0.45"/>
   </g>
   <g id="patch_157">
    <path d="M 764.740035 306.851562 
L 767.507929 306.851562 
L 767.507929 122.588864 
L 764.740035 122.588864 
z
" clip-path="url(#p3da60967de)" style="fill: #4361ee; opacity: 0.45"/>
   </g>
   <g id="patch_158">
    <path d="M 768.615087 306.851562 
L 771.38298 306.851562 
L 771.38298 214.720213 
L 768.615087 214.720213 
z
" clip-path="url(#p3da60967de)" style="fill: #4361ee; opacity: 0.45"/>
   </g>
   <g id="patch_159">
    <path d="M 772.490138 306.851562 
L 775.258032 306.851562 
L 775.258032 122.588864 
L 772.490138 122.588864 
z
" clip-path="url(#p3da60967de)" style="fill: #4361ee; opacity: 0.45"/>
   </g>
   <g id="patch_160">
    <path d="M 776.365189 306.851562 
L 779.133083 306.851562 
L 779.133083 245.430663 
L 776.365189 245.430663 
z
" clip-path="url(#p3da60967de)" style="fill: #4361ee; opacity: 0.45"/>
   </g>
   <g id="patch_161">
    <path d="M 780.24024 306.851562 
L 783.008134 306.851562 
L 783.008134 184.009764 
L 780.24024 184.009764 
z
" clip-path="url(#p3da60967de)" style="fill: #4361ee; opacity: 0.45"/>
   </g>
   <g id="patch_162">
    <path d="M 784.115292 306.851562 
L 786.883185 306.851562 
L 786.883185 153.299314 
L 784.115292 153.299314 
z
" clip-path="url(#p3da60967de)" style="fill: #4361ee; opacity: 0.45"/>
   </g>
   <g id="patch_163">
    <path d="M 787.990343 306.851562 
L 790.758237 306.851562 
L 790.758237 153.299314 
L 787.990343 153.299314 
z
" clip-path="url(#p3da60967de)" style="fill: #4361ee; opacity: 0.45"/>
   </g>
   <g id="patch_164">
    <path d="M 791.865394 306.851562 
L 794.633288 306.851562 
L 794.633288 153.299314 
L 791.865394 153.299314 
z
" clip-path="url(#p3da60967de)" style="fill: #4361ee; opacity: 0.45"/>
   </g>
   <g id="patch_165">
    <path d="M 795.740445 306.851562 
L 798.508339 306.851562 
L 798.508339 122.588864 
L 795.740445 122.588864 
z
" clip-path="url(#p3da60967de)" style="fill: #4361ee; opacity: 0.45"/>
   </g>
   <g id="patch_166">
    <path d="M 799.615497 306.851562 
L 802.38339 306.851562 
L 802.38339 214.720213 
L 799.615497 214.720213 
z
" clip-path="url(#p3da60967de)" style="fill: #4361ee; opacity: 0.45"/>
   </g>
   <g id="matplotlib.axis_1">
    <g id="xtick_1">
     <g id="line2d_1">
      <defs>
       <path id="m6e3db60b55" d="M 0 0 
L 0 3.5 
" style="stroke: #ffffff; stroke-width: 0.8"/>
      </defs>
      <g>
       <use xlink:href="#m6e3db60b55" x="110.68674" y="306.851562" style="fill: #ffffff; stroke: #ffffff; stroke-width: 0.8"/>
      </g>
     </g>
     <g id="text_1">
      <text style="font-size: 9px; font-family: 'DejaVu Sans', 'Liberation Sans', 'Noto Sans', 'FreeSans', sans-serif; text-anchor: middle; fill: #ffffff" x="110.68674" y="320.690156" transform="rotate(-0 110.68674 320.690156)">2023-01</text>
     </g>
    </g>
    <g id="xtick_2">
     <g id="line2d_2">
      <g>
       <use xlink:href="#m6e3db60b55" x="210.884494" y="306.851562" style="fill: #ffffff; stroke: #ffffff; stroke-width: 0.8"/>
      </g>
     </g>
     <g id="text_2">
      <text style="font-size: 9px; font-family: 'DejaVu Sans', 'Liberation Sans', 'Noto Sans', 'FreeSans', sans-serif; text-anchor: middle; fill: #ffffff" x="210.884494" y="320.690156" transform="rotate(-0 210.884494 320.690156)">2023-07</text>
     </g>
    </g>
    <g id="xtick_3">
     <g id="line2d_3">
      <g>
       <use xlink:href="#m6e3db60b55" x="312.742984" y="306.851562" style="fill: #ffffff; stroke: #ffffff; stroke-width: 0.8"/>
      </g>
     </g>
     <g id="text_3">
      <text style="font-size: 9px; font-family: 'DejaVu Sans', 'Liberation Sans', 'Noto Sans', 'FreeSans', sans-serif; text-anchor: middle; fill: #ffffff" x="312.742984" y="320.690156" transform="rotate(-0 312.742984 320.690156)">2024-01</text>
     </g>
    </g>
    <g id="xtick_4">
     <g id="line2d_4">
      <g>
       <use xlink:href="#m6e3db60b55" x="413.494317" y="306.851562" style="fill: #ffffff; stroke: #ffffff; stroke-width: 0.8"/>
      </g>
     </g>
     <g id="text_4">
      <text style="font-size: 9px; font-family: 'DejaVu Sans', 'Liberation Sans', 'Noto Sans', 'FreeSans', sans-serif; text-anchor: middle; fill: #ffffff" x="413.494317" y="320.690156" transform="rotate(-0 413.494317 320.690156)">2024-07</text>
     </g>
    </g>
    <g id="xtick_5">
     <g id="line2d_5">
      <g>
       <use xlink:href="#m6e3db60b55" x="515.352808" y="306.851562" style="fill: #ffffff; stroke: #ffffff; stroke-width: 0.8"/>
      </g>
     </g>
     <g id="text_5">
      <text style="font-size: 9px; font-family: 'DejaVu Sans', 'Liberation Sans', 'Noto Sans', 'FreeSans', sans-serif; text-anchor: middle; fill: #ffffff" x="515.352808" y="320.690156" transform="rotate(-0 515.352808 320.690156)">2025-01</text>
     </g>
    </g>
    <g id="xtick_6">
     <g id="line2d_6">
      <g>
       <use xlink:href="#m6e3db60b55" x="615.550562" y="306.851562" style="fill: #ffffff; stroke: #ffffff; stroke-width: 0.8"/>
      </g>
     </g>
     <g id="text_6">
      <text style="font-size: 9px; font-family: 'DejaVu Sans', 'Liberation Sans', 'Noto Sans', 'FreeSans', sans-serif; text-anchor: middle; fill: #ffffff" x="615.550562" y="320.690156" transform="rotate(-0 615.550562 320.690156)">2025-07</text>
     </g>
    </g>
    <g id="xtick_7">
     <g id="line2d_7">
      <g>
       <use xlink:href="#m6e3db60b55" x="717.409052" y="306.851562" style="fill: #ffffff; stroke: #ffffff; stroke-width: 0.8"/>
      </g>
     </g>
     <g id="text_7">
      <text style="font-size: 9px; font-family: 'DejaVu Sans', 'Liberation Sans', 'Noto Sans', 'FreeSans', sans-serif; text-anchor: middle; fill: #ffffff" x="717.409052" y="320.690156" transform="rotate(-0 717.409052 320.690156)">2026-01</text>
     </g>
    </g>
    <g id="xtick_8">
     <g id="line2d_8">
      <g>
       <use xlink:href="#m6e3db60b55" x="817.606806" y="306.851562" style="fill: #ffffff; stroke: #ffffff; stroke-width: 0.8"/>
      </g>
     </g>
     <g id="text_8">
      <text style="font-size: 9px; font-family: 'DejaVu Sans', 'Liberation Sans', 'Noto Sans', 'FreeSans', sans-serif; text-anchor: middle; fill: #ffffff" x="817.606806" y="320.690156" transform="rotate(-0 817.606806 320.690156)">2026-07</text>
     </g>
    </g>
    <g id="text_9">
     <text style="font-size: 10px; font-family: 'DejaVu Sans', 'Liberation Sans', 'Noto Sans', 'FreeSans', sans-serif; text-anchor: middle; fill: #ffffff" x="432.869574" y="334.160312" transform="rotate(-0 432.869574 334.160312)">Date</text>
    </g>
   </g>
   <g id="matplotlib.axis_2">
    <g id="ytick_1">
     <g id="line2d_9">
      <defs>
       <path id="m644a73fa3f" d="M 0 0 
L -3.5 0 
" style="stroke: #ffffff; stroke-width: 0.8"/>
      </defs>
      <g>
       <use xlink:href="#m644a73fa3f" x="26.404375" y="306.851562" style="fill: #ffffff; stroke: #ffffff; stroke-width: 0.8"/>
      </g>
     </g>
     <g id="text_10">
      <text style="font-size: 9px; font-family: 'DejaVu Sans', 'Liberation Sans', 'Noto Sans', 'FreeSans', sans-serif; text-anchor: end; fill: #ffffff" x="19.404375" y="310.270859" transform="rotate(-0 19.404375 310.270859)">0</text>
     </g>
    </g>
    <g id="ytick_2">
     <g id="line2d_10">
      <g>
       <use xlink:href="#m644a73fa3f" x="26.404375" y="245.430663" style="fill: #ffffff; stroke: #ffffff; stroke-width: 0.8"/>
      </g>
     </g>
     <g id="text_11">
      <text style="font-size: 9px; font-family: 'DejaVu Sans', 'Liberation Sans', 'Noto Sans', 'FreeSans', sans-serif; text-anchor: end; fill: #ffffff" x="19.404375" y="248.84996" transform="rotate(-0 19.404375 248.84996)">2</text>
     </g>
    </g>
    <g id="ytick_3">
     <g id="line2d_11">
      <g>
       <use xlink:href="#m644a73fa3f" x="26.404375" y="184.009764" style="fill: #ffffff; stroke: #ffffff; stroke-width: 0.8"/>
      </g>
     </g>
     <g id="text_12">
      <text style="font-size: 9px; font-family: 'DejaVu Sans', 'Liberation Sans', 'Noto Sans', 'FreeSans', sans-serif; text-anchor: end; fill: #ffffff" x="19.404375" y="187.42906" transform="rotate(-0 19.404375 187.42906)">4</text>
     </g>
    </g>
    <g id="ytick_4">
     <g id="line2d_12">
      <g>
       <use xlink:href="#m644a73fa3f" x="26.404375" y="122.588864" style="fill: #ffffff; stroke: #ffffff; stroke-width: 0.8"/>
      </g>
     </g>
     <g id="text_13">
      <text style="font-size: 9px; font-family: 'DejaVu Sans', 'Liberation Sans', 'Noto Sans', 'FreeSans', sans-serif; text-anchor: end; fill: #ffffff" x="19.404375" y="126.008161" transform="rotate(-0 19.404375 126.008161)">6</text>
     </g>
    </g>
    <g id="ytick_5">
     <g id="line2d_13">
      <g>
       <use xlink:href="#m644a73fa3f" x="26.404375" y="61.167965" style="fill: #ffffff; stroke: #ffffff; stroke-width: 0.8"/>
      </g>
     </g>
     <g id="text_14">
      <text style="font-size: 9px; font-family: 'DejaVu Sans', 'Liberation Sans', 'Noto Sans', 'FreeSans', sans-serif; text-anchor: end; fill: #ffffff" x="19.404375" y="64.587261" transform="rotate(-0 19.404375 64.587261)">8</text>
     </g>
    </g>
    <g id="text_15">
     <text style="font-size: 10px; font-family: 'DejaVu Sans', 'Liberation Sans', 'Noto Sans', 'FreeSans', sans-serif; text-anchor: middle; fill: #ffffff" x="7.598438" y="161.744687" transform="rotate(-90 7.598438 161.744687)">Papers</text>
    </g>
   </g>
   <g id="line2d_14">
    <path d="M 64.739704 276.141113 
L 68.614755 245.430663 
L 72.489806 245.430663 
L 76.364857 253.108275 
L 80.239909 222.397826 
L 91.865062 237.753051 
L 99.615165 230.075438 
L 103.490216 222.397826 
L 107.365267 253.108275 
L 111.240319 245.430663 
L 115.11537 260.785888 
L 122.865473 268.4635 
L 126.740524 253.108275 
L 134.490626 245.430663 
L 146.11578 245.430663 
L 149.990831 237.753051 
L 153.865883 253.108275 
L 157.740934 230.075438 
L 161.615985 222.397826 
L 165.491036 230.075438 
L 177.11619 214.720213 
L 180.991241 237.753051 
L 200.366498 237.753051 
L 204.241549 253.108275 
L 208.1166 260.785888 
L 211.991652 253.108275 
L 215.866703 260.785888 
L 223.616805 199.364988 
L 246.867113 199.364988 
L 250.742164 230.075438 
L 254.617215 222.397826 
L 258.492267 230.075438 
L 262.367318 253.108275 
L 266.242369 245.430663 
L 270.117421 253.108275 
L 277.867523 253.108275 
L 281.742574 260.785888 
L 285.617626 253.108275 
L 297.242779 237.753051 
L 301.117831 245.430663 
L 304.992882 230.075438 
L 316.618036 207.042601 
L 320.493087 222.397826 
L 328.243189 222.397826 
L 332.118241 230.075438 
L 335.993292 260.785888 
L 339.868343 237.753051 
L 343.743395 237.753051 
L 347.618446 245.430663 
L 351.493497 230.075438 
L 355.368548 222.397826 
L 359.2436 176.332151 
L 366.993702 122.588864 
L 370.868753 137.944089 
L 374.743805 168.654539 
L 378.618856 214.720213 
L 382.493907 253.108275 
L 386.368958 253.108275 
L 390.24401 230.075438 
L 394.119061 230.075438 
L 397.994112 245.430663 
L 401.869163 207.042601 
L 405.744215 230.075438 
L 409.619266 214.720213 
L 413.494317 160.976926 
L 417.369369 184.009764 
L 421.24442 176.332151 
L 425.119471 130.266477 
L 428.994522 184.009764 
L 432.869574 168.654539 
L 436.744625 137.944089 
L 444.494727 153.299314 
L 448.369779 122.588864 
L 452.24483 160.976926 
L 456.119881 168.654539 
L 459.994932 191.687376 
L 463.869984 168.654539 
L 467.745035 160.976926 
L 475.495137 207.042601 
L 479.370189 260.785888 
L 483.24524 253.108275 
L 490.995343 191.687376 
L 494.870394 184.009764 
L 498.745445 191.687376 
L 502.620496 222.397826 
L 506.495548 214.720213 
L 510.370599 222.397826 
L 518.120701 199.364988 
L 521.995753 176.332151 
L 525.870804 214.720213 
L 529.745855 191.687376 
L 533.620906 214.720213 
L 537.495958 207.042601 
L 541.371009 191.687376 
L 545.24606 199.364988 
L 549.121111 199.364988 
L 552.996163 184.009764 
L 556.871214 176.332151 
L 560.746265 176.332151 
L 564.621317 168.654539 
L 568.496368 184.009764 
L 572.371419 191.687376 
L 576.24647 176.332151 
L 587.871624 153.299314 
L 591.746675 168.654539 
L 595.621727 160.976926 
L 599.496778 176.332151 
L 603.371829 207.042601 
L 607.24688 230.075438 
L 611.121932 230.075438 
L 614.996983 245.430663 
L 618.872034 214.720213 
L 622.747085 191.687376 
L 626.622137 184.009764 
L 630.497188 184.009764 
L 634.372239 214.720213 
L 642.122342 214.720213 
L 645.997393 199.364988 
L 649.872444 191.687376 
L 653.747496 191.687376 
L 665.372649 145.621701 
L 673.122752 145.621701 
L 676.997803 160.976926 
L 680.872854 130.266477 
L 684.747906 107.233639 
L 688.622957 130.266477 
L 692.498008 122.588864 
L 696.373059 153.299314 
L 700.248111 176.332151 
L 707.998213 191.687376 
L 719.623367 199.364988 
L 723.498418 222.397826 
L 727.37347 214.720213 
L 731.248521 214.720213 
L 735.123572 199.364988 
L 738.998623 199.364988 
L 742.873675 230.075438 
L 746.748726 214.720213 
L 750.623777 222.397826 
L 754.498828 176.332151 
L 758.37388 168.654539 
L 762.248931 130.266477 
L 766.123982 114.911252 
L 769.999033 153.299314 
L 773.874085 122.588864 
L 777.749136 176.332151 
L 781.624187 191.687376 
L 785.499239 176.332151 
L 789.37429 184.009764 
L 793.249341 160.976926 
L 797.124392 145.621701 
L 800.999444 160.976926 
L 800.999444 160.976926 
" clip-path="url(#p3da60967de)" style="fill: none; stroke: #f72585; stroke-width: 2; stroke-linecap: square"/>
   </g>
   <g id="patch_167">
    <path d="M 26.404375 306.851562 
L 26.404375 16.637812 
" style="fill: none; stroke: #ffffff; stroke-width: 0.8; stroke-linejoin: miter; stroke-linecap: square"/>
   </g>
   <g id="patch_168">
    <path d="M 26.404375 306.851562 
L 839.334772 306.851562 
" style="fill: none; stroke: #ffffff; stroke-width: 0.8; stroke-linejoin: miter; stroke-linecap: square"/>
   </g>
   <g id="text_16">
    <text style="font-size: 14px; font-family: 'DejaVu Sans', 'Liberation Sans', 'Noto Sans', 'FreeSans', sans-serif; text-anchor: middle; fill: #ffffff" x="432.869574" y="10.637812" transform="rotate(-0 432.869574 10.637812)">Papers shared per week</text>
   </g>
   <g id="legend_1">
    <g id="line2d_15">
     <path d="M 34.504375 28.426406 
L 43.504375 28.426406 
L 52.504375 28.426406 
" style="fill: none; stroke: #f72585; stroke-width: 2; stroke-linecap: square"/>
    </g>
    <g id="text_17">
     <text style="font-size: 9px; font-family: 'DejaVu Sans', 'Liberation Sans', 'Noto Sans', 'FreeSans', sans-serif; text-anchor: start; fill: #ffffff" x="59.704375" y="31.576406" transform="rotate(-0 59.704375 31.576406)">4-week average</text>
    </g>
    <g id="patch_169">
     <path d="M 34.504375 44.786719 
L 52.504375 44.786719 
L 52.504375 38.486719 
L 34.504375 38.486719 
z
" style="fill: #4361ee; opacity: 0.45"/>
    </g>
    <g id="text_18">
     <text style="font-size: 9px; font-family: 'DejaVu Sans', 'Liberation Sans', 'Noto Sans', 'FreeSans', sans-serif; text-anchor: start; fill: #ffffff" x="59.704375" y="44.786719" transform="rotate(-0 59.704375 44.786719)">Papers per week</text>
    </g>
   </g>
  </g>
 </g>
 <defs>
  <clipPath id="p3da60967de">
   <rect x="26.404375" y="16.637812" width="812.930397" height="290.21375"/>
  </clipPath>
 </defs>
</svg>
