<?xml version="1.0" encoding="utf-8" standalone="no"?>
<!DOCTYPE svg PUBLIC "-//W3C//DTD SVG 1.1//EN"
  "http://www.w3.org/Graphics/SVG/1.1/DTD/svg11.dtd">
<svg xmlns:xlink="http://www.w3.org/1999/xlink" width="840.24pt" height="336.24pt" viewBox="0 0 840.24 336.24" xmlns="http://www.w3.org/2000/svg" version="1.1">
 <metadata>
  <rdf:RDF xmlns:dc="http://purl.org/dc/elements/1.1/" xmlns:cc="http://creativecommons.org/ns#" xmlns:rdf="http://www.w3.org/1999/02/22-rdf-syntax-ns#">
   <cc:Work>
    <dc:type rdf:resource="http://purl.org/dc/dcmitype/StillImage"/>
    <dc:date>2026-07-15T23:26:47.577868</dc:date>
    <dc:format>image/svg+xml</dc:format>
    <dc:creator>
     <cc:Agent>
      <dc:title>Matplotlib v3.10.9, https://matplotlib.org/</dc:title>
     </cc:Agent>
    </dc:creator>
   </cc:Work>
  </rdf:RDF>
 </metadata>
 <defs>
  <style type="text/css">*{stroke-linejoin: round; stroke-linecap: butt}</style>
 </defs>
 <g id="figure_1">
  <g id="patch_1">
   <path d="M 0 336.24 
L 840.24 336.24 
L 840.24 0 
L 0 0 
L 0 336.24 
z
" style="fill: none"/>
  </g>
  <g id="axes_1">
   <g id="patch_2">
    <path d="M 32.130625 306.851562 
L 840.24 306.851562 
L 840.24 14.358281 
L 32.130625 14.358281 
L 32.130625 306.851562 
z
" style="fill: none"/>
   </g>
   <g id="patch_3">
    <path d="M 68.862869 306.851562 
L 71.389158 306.851562 
L 71.389158 306.851562 
L 68.862869 306.851562 
z
" clip-path="url(#p0c9339d08a)" style="fill: #4361ee; opacity: 0.45"/>
   </g>
   <g id="patch_4">
    <path d="M 72.399674 306.851562 
L 74.925963 306.851562 
L 74.925963 306.851562 
L 72.399674 306.851562 
z
" clip-path="url(#p0c9339d08a)" style="fill: #4361ee; opacity: 0.45"/>
   </g>
   <g id="patch_5">
    <path d="M 75.936479 306.851562 
L 78.462768 306.851562 
L 78.462768 306.851562 
L 75.936479 306.851562 
z
" clip-path="url(#p0c9339d08a)" style="fill: #4361ee; opacity: 0.45"/>
   </g>
   <g id="patch_6">
    <path d="M 79.473284 306.851562 
L 81.999573 306.851562 
L 81.999573 288.280561 
L 79.473284 288.280561 
z
" clip-path="url(#p0c9339d08a)" style="fill: #4361ee; opacity: 0.45"/>
   </g>
   <g id="patch_7">
    <path d="M 83.010089 306.851562 
L 85.536378 306.851562 
L 85.536378 306.851562 
L 83.010089 306.851562 
z
" clip-path="url(#p0c9339d08a)" style="fill: #4361ee; opacity: 0.45"/>
   </g>
   <g id="patch_8">
    <path d="M 86.546893 306.851562 
L 89.073183 306.851562 
L 89.073183 306.851562 
L 86.546893 306.851562 
z
" clip-path="url(#p0c9339d08a)" style="fill: #4361ee; opacity: 0.45"/>
   </g>
   <g id="patch_9">
    <path d="M 90.083698 306.851562 
L 92.609987 306.851562 
L 92.609987 306.851562 
L 90.083698 306.851562 
z
" clip-path="url(#p0c9339d08a)" style="fill: #4361ee; opacity: 0.45"/>
   </g>
   <g id="patch_10">
    <path d="M 93.620503 306.851562 
L 96.146792 306.851562 
L 96.146792 306.851562 
L 93.620503 306.851562 
z
" clip-path="url(#p0c9339d08a)" style="fill: #4361ee; opacity: 0.45"/>
   </g>
   <g id="patch_11">
    <path d="M 97.157308 306.851562 
L 99.683597 306.851562 
L 99.683597 269.709559 
L 97.157308 269.709559 
z
" clip-path="url(#p0c9339d08a)" style="fill: #4361ee; opacity: 0.45"/>
   </g>
   <g id="patch_12">
    <path d="M 100.694113 306.851562 
L 103.220402 306.851562 
L 103.220402 306.851562 
L 100.694113 306.851562 
z
" clip-path="url(#p0c9339d08a)" style="fill: #4361ee; opacity: 0.45"/>
   </g>
   <g id="patch_13">
    <path d="M 104.230917 306.851562 
L 106.757207 306.851562 
L 106.757207 306.851562 
L 104.230917 306.851562 
z
" clip-path="url(#p0c9339d08a)" style="fill: #4361ee; opacity: 0.45"/>
   </g>
   <g id="patch_14">
    <path d="M 107.767722 306.851562 
L 110.294011 306.851562 
L 110.294011 288.280561 
L 107.767722 288.280561 
z
" clip-path="url(#p0c9339d08a)" style="fill: #4361ee; opacity: 0.45"/>
   </g>
   <g id="patch_15">
    <path d="M 111.304527 306.851562 
L 113.830816 306.851562 
L 113.830816 251.138557 
L 111.304527 251.138557 
z
" clip-path="url(#p0c9339d08a)" style="fill: #4361ee; opacity: 0.45"/>
   </g>
   <g id="patch_16">
    <path d="M 114.841332 306.851562 
L 117.367621 306.851562 
L 117.367621 269.709559 
L 114.841332 269.709559 
z
" clip-path="url(#p0c9339d08a)" style="fill: #4361ee; opacity: 0.45"/>
   </g>
   <g id="patch_17">
    <path d="M 118.378137 306.851562 
L 120.904426 306.851562 
L 120.904426 306.851562 
L 118.378137 306.851562 
z
" clip-path="url(#p0c9339d08a)" style="fill: #4361ee; opacity: 0.45"/>
   </g>
   <g id="patch_18">
    <path d="M 121.914942 306.851562 
L 124.441231 306.851562 
L 124.441231 213.996553 
L 121.914942 213.996553 
z
" clip-path="url(#p0c9339d08a)" style="fill: #4361ee; opacity: 0.45"/>
   </g>
   <g id="patch_19">
    <path d="M 125.451746 306.851562 
L 127.978036 306.851562 
L 127.978036 306.851562 
L 125.451746 306.851562 
z
" clip-path="url(#p0c9339d08a)" style="fill: #4361ee; opacity: 0.45"/>
   </g>
   <g id="patch_20">
    <path d="M 128.988551 306.851562 
L 131.51484 306.851562 
L 131.51484 306.851562 
L 128.988551 306.851562 
z
" clip-path="url(#p0c9339d08a)" style="fill: #4361ee; opacity: 0.45"/>
   </g>
   <g id="patch_21">
    <path d="M 132.525356 306.851562 
L 135.051645 306.851562 
L 135.051645 288.280561 
L 132.525356 288.280561 
z
" clip-path="url(#p0c9339d08a)" style="fill: #4361ee; opacity: 0.45"/>
   </g>
   <g id="patch_22">
    <path d="M 136.062161 306.851562 
L 138.58845 306.851562 
L 138.58845 306.851562 
L 136.062161 306.851562 
z
" clip-path="url(#p0c9339d08a)" style="fill: #4361ee; opacity: 0.45"/>
   </g>
   <g id="patch_23">
    <path d="M 139.598966 306.851562 
L 142.125255 306.851562 
L 142.125255 251.138557 
L 139.598966 251.138557 
z
" clip-path="url(#p0c9339d08a)" style="fill: #4361ee; opacity: 0.45"/>
   </g>
   <g id="patch_24">
    <path d="M 143.13577 306.851562 
L 145.66206 306.851562 
L 145.66206 251.138557 
L 143.13577 251.138557 
z
" clip-path="url(#p0c9339d08a)" style="fill: #4361ee; opacity: 0.45"/>
   </g>
   <g id="patch_25">
    <path d="M 146.672575 306.851562 
L 149.198864 306.851562 
L 149.198864 288.280561 
L 146.672575 288.280561 
z
" clip-path="url(#p0c9339d08a)" style="fill: #4361ee; opacity: 0.45"/>
   </g>
   <g id="patch_26">
    <path d="M 150.20938 306.851562 
L 152.735669 306.851562 
L 152.735669 269.709559 
L 150.20938 269.709559 
z
" clip-path="url(#p0c9339d08a)" style="fill: #4361ee; opacity: 0.45"/>
   </g>
   <g id="patch_27">
    <path d="M 153.746185 306.851562 
L 156.272474 306.851562 
L 156.272474 288.280561 
L 153.746185 288.280561 
z
" clip-path="url(#p0c9339d08a)" style="fill: #4361ee; opacity: 0.45"/>
   </g>
   <g id="patch_28">
    <path d="M 157.28299 306.851562 
L 159.809279 306.851562 
L 159.809279 306.851562 
L 157.28299 306.851562 
z
" clip-path="url(#p0c9339d08a)" style="fill: #4361ee; opacity: 0.45"/>
   </g>
   <g id="patch_29">
    <path d="M 160.819795 306.851562 
L 163.346084 306.851562 
L 163.346084 288.280561 
L 160.819795 288.280561 
z
" clip-path="url(#p0c9339d08a)" style="fill: #4361ee; opacity: 0.45"/>
   </g>
   <g id="patch_30">
    <path d="M 164.356599 306.851562 
L 166.882889 306.851562 
L 166.882889 232.567555 
L 164.356599 232.567555 
z
" clip-path="url(#p0c9339d08a)" style="fill: #4361ee; opacity: 0.45"/>
   </g>
   <g id="patch_31">
    <path d="M 167.893404 306.851562 
L 170.419693 306.851562 
L 170.419693 306.851562 
L 167.893404 306.851562 
z
" clip-path="url(#p0c9339d08a)" style="fill: #4361ee; opacity: 0.45"/>
   </g>
   <g id="patch_32">
    <path d="M 171.430209 306.851562 
L 173.956498 306.851562 
L 173.956498 213.996553 
L 171.430209 213.996553 
z
" clip-path="url(#p0c9339d08a)" style="fill: #4361ee; opacity: 0.45"/>
   </g>
   <g id="patch_33">
    <path d="M 174.967014 306.851562 
L 177.493303 306.851562 
L 177.493303 306.851562 
L 174.967014 306.851562 
z
" clip-path="url(#p0c9339d08a)" style="fill: #4361ee; opacity: 0.45"/>
   </g>
   <g id="patch_34">
    <path d="M 178.503819 306.851562 
L 181.030108 306.851562 
L 181.030108 306.851562 
L 178.503819 306.851562 
z
" clip-path="url(#p0c9339d08a)" style="fill: #4361ee; opacity: 0.45"/>
   </g>
   <g id="patch_35">
    <path d="M 182.040623 306.851562 
L 184.566913 306.851562 
L 184.566913 288.280561 
L 182.040623 288.280561 
z
" clip-path="url(#p0c9339d08a)" style="fill: #4361ee; opacity: 0.45"/>
   </g>
   <g id="patch_36">
    <path d="M 185.577428 306.851562 
L 188.103717 306.851562 
L 188.103717 269.709559 
L 185.577428 269.709559 
z
" clip-path="url(#p0c9339d08a)" style="fill: #4361ee; opacity: 0.45"/>
   </g>
   <g id="patch_37">
    <path d="M 189.114233 306.851562 
L 191.640522 306.851562 
L 191.640522 288.280561 
L 189.114233 288.280561 
z
" clip-path="url(#p0c9339d08a)" style="fill: #4361ee; opacity: 0.45"/>
   </g>
   <g id="patch_38">
    <path d="M 192.651038 306.851562 
L 195.177327 306.851562 
L 195.177327 176.854549 
L 192.651038 176.854549 
z
" clip-path="url(#p0c9339d08a)" style="fill: #4361ee; opacity: 0.45"/>
   </g>
   <g id="patch_39">
    <path d="M 196.187843 306.851562 
L 198.714132 306.851562 
L 198.714132 251.138557 
L 196.187843 251.138557 
z
" clip-path="url(#p0c9339d08a)" style="fill: #4361ee; opacity: 0.45"/>
   </g>
   <g id="patch_40">
    <path d="M 199.724648 306.851562 
L 202.250937 306.851562 
L 202.250937 288.280561 
L 199.724648 288.280561 
z
" clip-path="url(#p0c9339d08a)" style="fill: #4361ee; opacity: 0.45"/>
   </g>
   <g id="patch_41">
    <path d="M 203.261452 306.851562 
L 205.787742 306.851562 
L 205.787742 288.280561 
L 203.261452 288.280561 
z
" clip-path="url(#p0c9339d08a)" style="fill: #4361ee; opacity: 0.45"/>
   </g>
   <g id="patch_42">
    <path d="M 206.798257 306.851562 
L 209.324546 306.851562 
L 209.324546 306.851562 
L 206.798257 306.851562 
z
" clip-path="url(#p0c9339d08a)" style="fill: #4361ee; opacity: 0.45"/>
   </g>
   <g id="patch_43">
    <path d="M 210.335062 306.851562 
L 212.861351 306.851562 
L 212.861351 269.709559 
L 210.335062 269.709559 
z
" clip-path="url(#p0c9339d08a)" style="fill: #4361ee; opacity: 0.45"/>
   </g>
   <g id="patch_44">
    <path d="M 213.871867 306.851562 
L 216.398156 306.851562 
L 216.398156 232.567555 
L 213.871867 232.567555 
z
" clip-path="url(#p0c9339d08a)" style="fill: #4361ee; opacity: 0.45"/>
   </g>
   <g id="patch_45">
    <path d="M 217.408672 306.851562 
L 219.934961 306.851562 
L 219.934961 269.709559 
L 217.408672 269.709559 
z
" clip-path="url(#p0c9339d08a)" style="fill: #4361ee; opacity: 0.45"/>
   </g>
   <g id="patch_46">
    <path d="M 220.945476 306.851562 
L 223.471766 306.851562 
L 223.471766 306.851562 
L 220.945476 306.851562 
z
" clip-path="url(#p0c9339d08a)" style="fill: #4361ee; opacity: 0.45"/>
   </g>
   <g id="patch_47">
    <path d="M 224.482281 306.851562 
L 227.00857 306.851562 
L 227.00857 288.280561 
L 224.482281 288.280561 
z
" clip-path="url(#p0c9339d08a)" style="fill: #4361ee; opacity: 0.45"/>
   </g>
   <g id="patch_48">
    <path d="M 228.019086 306.851562 
L 230.545375 306.851562 
L 230.545375 306.851562 
L 228.019086 306.851562 
z
" clip-path="url(#p0c9339d08a)" style="fill: #4361ee; opacity: 0.45"/>
   </g>
   <g id="patch_49">
    <path d="M 231.555891 306.851562 
L 234.08218 306.851562 
L 234.08218 251.138557 
L 231.555891 251.138557 
z
" clip-path="url(#p0c9339d08a)" style="fill: #4361ee; opacity: 0.45"/>
   </g>
   <g id="patch_50">
    <path d="M 235.092696 306.851562 
L 237.618985 306.851562 
L 237.618985 288.280561 
L 235.092696 288.280561 
z
" clip-path="url(#p0c9339d08a)" style="fill: #4361ee; opacity: 0.45"/>
   </g>
   <g id="patch_51">
    <path d="M 238.629501 306.851562 
L 241.15579 306.851562 
L 241.15579 269.709559 
L 238.629501 269.709559 
z
" clip-path="url(#p0c9339d08a)" style="fill: #4361ee; opacity: 0.45"/>
   </g>
   <g id="patch_52">
    <path d="M 242.166305 306.851562 
L 244.692595 306.851562 
L 244.692595 269.709559 
L 242.166305 269.709559 
z
" clip-path="url(#p0c9339d08a)" style="fill: #4361ee; opacity: 0.45"/>
   </g>
   <g id="patch_53">
    <path d="M 245.70311 306.851562 
L 248.229399 306.851562 
L 248.229399 269.709559 
L 245.70311 269.709559 
z
" clip-path="url(#p0c9339d08a)" style="fill: #4361ee; opacity: 0.45"/>
   </g>
   <g id="patch_54">
    <path d="M 249.239915 306.851562 
L 251.766204 306.851562 
L 251.766204 213.996553 
L 249.239915 213.996553 
z
" clip-path="url(#p0c9339d08a)" style="fill: #4361ee; opacity: 0.45"/>
   </g>
   <g id="patch_55">
    <path d="M 252.77672 306.851562 
L 255.303009 306.851562 
L 255.303009 158.283547 
L 252.77672 158.283547 
z
" clip-path="url(#p0c9339d08a)" style="fill: #4361ee; opacity: 0.45"/>
   </g>
   <g id="patch_56">
    <path d="M 256.313525 306.851562 
L 258.839814 306.851562 
L 258.839814 251.138557 
L 256.313525 251.138557 
z
" clip-path="url(#p0c9339d08a)" style="fill: #4361ee; opacity: 0.45"/>
   </g>
   <g id="patch_57">
    <path d="M 259.850329 306.851562 
L 262.376619 306.851562 
L 262.376619 306.851562 
L 259.850329 306.851562 
z
" clip-path="url(#p0c9339d08a)" style="fill: #4361ee; opacity: 0.45"/>
   </g>
   <g id="patch_58">
    <path d="M 263.387134 306.851562 
L 265.913423 306.851562 
L 265.913423 306.851562 
L 263.387134 306.851562 
z
" clip-path="url(#p0c9339d08a)" style="fill: #4361ee; opacity: 0.45"/>
   </g>
   <g id="patch_59">
    <path d="M 266.923939 306.851562 
L 269.450228 306.851562 
L 269.450228 288.280561 
L 266.923939 288.280561 
z
" clip-path="url(#p0c9339d08a)" style="fill: #4361ee; opacity: 0.45"/>
   </g>
   <g id="patch_60">
    <path d="M 270.460744 306.851562 
L 272.987033 306.851562 
L 272.987033 269.709559 
L 270.460744 269.709559 
z
" clip-path="url(#p0c9339d08a)" style="fill: #4361ee; opacity: 0.45"/>
   </g>
   <g id="patch_61">
    <path d="M 273.997549 306.851562 
L 276.523838 306.851562 
L 276.523838 195.425551 
L 273.997549 195.425551 
z
" clip-path="url(#p0c9339d08a)" style="fill: #4361ee; opacity: 0.45"/>
   </g>
   <g id="patch_62">
    <path d="M 277.534354 306.851562 
L 280.060643 306.851562 
L 280.060643 251.138557 
L 277.534354 251.138557 
z
" clip-path="url(#p0c9339d08a)" style="fill: #4361ee; opacity: 0.45"/>
   </g>
   <g id="patch_63">
    <path d="M 281.071158 306.851562 
L 283.597448 306.851562 
L 283.597448 251.138557 
L 281.071158 251.138557 
z
" clip-path="url(#p0c9339d08a)" style="fill: #4361ee; opacity: 0.45"/>
   </g>
   <g id="patch_64">
    <path d="M 284.607963 306.851562 
L 287.134252 306.851562 
L 287.134252 288.280561 
L 284.607963 288.280561 
z
" clip-path="url(#p0c9339d08a)" style="fill: #4361ee; opacity: 0.45"/>
   </g>
   <g id="patch_65">
    <path d="M 288.144768 306.851562 
L 290.671057 306.851562 
L 290.671057 251.138557 
L 288.144768 251.138557 
z
" clip-path="url(#p0c9339d08a)" style="fill: #4361ee; opacity: 0.45"/>
   </g>
   <g id="patch_66">
    <path d="M 291.681573 306.851562 
L 294.207862 306.851562 
L 294.207862 251.138557 
L 291.681573 251.138557 
z
" clip-path="url(#p0c9339d08a)" style="fill: #4361ee; opacity: 0.45"/>
   </g>
   <g id="patch_67">
    <path d="M 295.218378 306.851562 
L 297.744667 306.851562 
L 297.744667 269.709559 
L 295.218378 269.709559 
z
" clip-path="url(#p0c9339d08a)" style="fill: #4361ee; opacity: 0.45"/>
   </g>
   <g id="patch_68">
    <path d="M 298.755182 306.851562 
L 301.281472 306.851562 
L 301.281472 288.280561 
L 298.755182 288.280561 
z
" clip-path="url(#p0c9339d08a)" style="fill: #4361ee; opacity: 0.45"/>
   </g>
   <g id="patch_69">
    <path d="M 302.291987 306.851562 
L 304.818276 306.851562 
L 304.818276 269.709559 
L 302.291987 269.709559 
z
" clip-path="url(#p0c9339d08a)" style="fill: #4361ee; opacity: 0.45"/>
   </g>
   <g id="patch_70">
    <path d="M 305.828792 306.851562 
L 308.355081 306.851562 
L 308.355081 288.280561 
L 305.828792 288.280561 
z
" clip-path="url(#p0c9339d08a)" style="fill: #4361ee; opacity: 0.45"/>
   </g>
   <g id="patch_71">
    <path d="M 309.365597 306.851562 
L 311.891886 306.851562 
L 311.891886 232.567555 
L 309.365597 232.567555 
z
" clip-path="url(#p0c9339d08a)" style="fill: #4361ee; opacity: 0.45"/>
   </g>
   <g id="patch_72">
    <path d="M 312.902402 306.851562 
L 315.428691 306.851562 
L 315.428691 306.851562 
L 312.902402 306.851562 
z
" clip-path="url(#p0c9339d08a)" style="fill: #4361ee; opacity: 0.45"/>
   </g>
   <g id="patch_73">
    <path d="M 316.439207 306.851562 
L 318.965496 306.851562 
L 318.965496 288.280561 
L 316.439207 288.280561 
z
" clip-path="url(#p0c9339d08a)" style="fill: #4361ee; opacity: 0.45"/>
   </g>
   <g id="patch_74">
    <path d="M 319.976011 306.851562 
L 322.502301 306.851562 
L 322.502301 251.138557 
L 319.976011 251.138557 
z
" clip-path="url(#p0c9339d08a)" style="fill: #4361ee; opacity: 0.45"/>
   </g>
   <g id="patch_75">
    <path d="M 323.512816 306.851562 
L 326.039105 306.851562 
L 326.039105 269.709559 
L 323.512816 269.709559 
z
" clip-path="url(#p0c9339d08a)" style="fill: #4361ee; opacity: 0.45"/>
   </g>
   <g id="patch_76">
    <path d="M 327.049621 306.851562 
L 329.57591 306.851562 
L 329.57591 251.138557 
L 327.049621 251.138557 
z
" clip-path="url(#p0c9339d08a)" style="fill: #4361ee; opacity: 0.45"/>
   </g>
   <g id="patch_77">
    <path d="M 330.586426 306.851562 
L 333.112715 306.851562 
L 333.112715 306.851562 
L 330.586426 306.851562 
z
" clip-path="url(#p0c9339d08a)" style="fill: #4361ee; opacity: 0.45"/>
   </g>
   <g id="patch_78">
    <path d="M 334.123231 306.851562 
L 336.64952 306.851562 
L 336.64952 251.138557 
L 334.123231 251.138557 
z
" clip-path="url(#p0c9339d08a)" style="fill: #4361ee; opacity: 0.45"/>
   </g>
   <g id="patch_79">
    <path d="M 337.660035 306.851562 
L 340.186325 306.851562 
L 340.186325 213.996553 
L 337.660035 213.996553 
z
" clip-path="url(#p0c9339d08a)" style="fill: #4361ee; opacity: 0.45"/>
   </g>
   <g id="patch_80">
    <path d="M 341.19684 306.851562 
L 343.723129 306.851562 
L 343.723129 269.709559 
L 341.19684 269.709559 
z
" clip-path="url(#p0c9339d08a)" style="fill: #4361ee; opacity: 0.45"/>
   </g>
   <g id="patch_81">
    <path d="M 344.733645 306.851562 
L 347.259934 306.851562 
L 347.259934 306.851562 
L 344.733645 306.851562 
z
" clip-path="url(#p0c9339d08a)" style="fill: #4361ee; opacity: 0.45"/>
   </g>
   <g id="patch_82">
    <path d="M 348.27045 306.851562 
L 350.796739 306.851562 
L 350.796739 269.709559 
L 348.27045 269.709559 
z
" clip-path="url(#p0c9339d08a)" style="fill: #4361ee; opacity: 0.45"/>
   </g>
   <g id="patch_83">
    <path d="M 351.807255 306.851562 
L 354.333544 306.851562 
L 354.333544 232.567555 
L 351.807255 232.567555 
z
" clip-path="url(#p0c9339d08a)" style="fill: #4361ee; opacity: 0.45"/>
   </g>
   <g id="patch_84">
    <path d="M 355.34406 306.851562 
L 357.870349 306.851562 
L 357.870349 251.138557 
L 355.34406 251.138557 
z
" clip-path="url(#p0c9339d08a)" style="fill: #4361ee; opacity: 0.45"/>
   </g>
   <g id="patch_85">
    <path d="M 358.880864 306.851562 
L 361.407154 306.851562 
L 361.407154 195.425551 
L 358.880864 195.425551 
z
" clip-path="url(#p0c9339d08a)" style="fill: #4361ee; opacity: 0.45"/>
   </g>
   <g id="patch_86">
    <path d="M 362.417669 306.851562 
L 364.943958 306.851562 
L 364.943958 176.854549 
L 362.417669 176.854549 
z
" clip-path="url(#p0c9339d08a)" style="fill: #4361ee; opacity: 0.45"/>
   </g>
   <g id="patch_87">
    <path d="M 365.954474 306.851562 
L 368.480763 306.851562 
L 368.480763 269.709559 
L 365.954474 269.709559 
z
" clip-path="url(#p0c9339d08a)" style="fill: #4361ee; opacity: 0.45"/>
   </g>
   <g id="patch_88">
    <path d="M 369.491279 306.851562 
L 372.017568 306.851562 
L 372.017568 232.567555 
L 369.491279 232.567555 
z
" clip-path="url(#p0c9339d08a)" style="fill: #4361ee; opacity: 0.45"/>
   </g>
   <g id="patch_89">
    <path d="M 373.028084 306.851562 
L 375.554373 306.851562 
L 375.554373 195.425551 
L 373.028084 195.425551 
z
" clip-path="url(#p0c9339d08a)" style="fill: #4361ee; opacity: 0.45"/>
   </g>
   <g id="patch_90">
    <path d="M 376.564888 306.851562 
L 379.091178 306.851562 
L 379.091178 176.854549 
L 376.564888 176.854549 
z
" clip-path="url(#p0c9339d08a)" style="fill: #4361ee; opacity: 0.45"/>
   </g>
   <g id="patch_91">
    <path d="M 380.101693 306.851562 
L 382.627982 306.851562 
L 382.627982 306.851562 
L 380.101693 306.851562 
z
" clip-path="url(#p0c9339d08a)" style="fill: #4361ee; opacity: 0.45"/>
   </g>
   <g id="patch_92">
    <path d="M 383.638498 306.851562 
L 386.164787 306.851562 
L 386.164787 158.283547 
L 383.638498 158.283547 
z
" clip-path="url(#p0c9339d08a)" style="fill: #4361ee; opacity: 0.45"/>
   </g>
   <g id="patch_93">
    <path d="M 387.175303 306.851562 
L 389.701592 306.851562 
L 389.701592 269.709559 
L 387.175303 269.709559 
z
" clip-path="url(#p0c9339d08a)" style="fill: #4361ee; opacity: 0.45"/>
   </g>
   <g id="patch_94">
    <path d="M 390.712108 306.851562 
L 393.238397 306.851562 
L 393.238397 288.280561 
L 390.712108 288.280561 
z
" clip-path="url(#p0c9339d08a)" style="fill: #4361ee; opacity: 0.45"/>
   </g>
   <g id="patch_95">
    <path d="M 394.248913 306.851562 
L 396.775202 306.851562 
L 396.775202 288.280561 
L 394.248913 288.280561 
z
" clip-path="url(#p0c9339d08a)" style="fill: #4361ee; opacity: 0.45"/>
   </g>
   <g id="patch_96">
    <path d="M 397.785717 306.851562 
L 400.312006 306.851562 
L 400.312006 251.138557 
L 397.785717 251.138557 
z
" clip-path="url(#p0c9339d08a)" style="fill: #4361ee; opacity: 0.45"/>
   </g>
   <g id="patch_97">
    <path d="M 401.322522 306.851562 
L 403.848811 306.851562 
L 403.848811 269.709559 
L 401.322522 269.709559 
z
" clip-path="url(#p0c9339d08a)" style="fill: #4361ee; opacity: 0.45"/>
   </g>
   <g id="patch_98">
    <path d="M 404.859327 306.851562 
L 407.385616 306.851562 
L 407.385616 213.996553 
L 404.859327 213.996553 
z
" clip-path="url(#p0c9339d08a)" style="fill: #4361ee; opacity: 0.45"/>
   </g>
   <g id="patch_99">
    <path d="M 408.396132 306.851562 
L 410.922421 306.851562 
L 410.922421 288.280561 
L 408.396132 288.280561 
z
" clip-path="url(#p0c9339d08a)" style="fill: #4361ee; opacity: 0.45"/>
   </g>
   <g id="patch_100">
    <path d="M 411.932937 306.851562 
L 414.459226 306.851562 
L 414.459226 288.280561 
L 411.932937 288.280561 
z
" clip-path="url(#p0c9339d08a)" style="fill: #4361ee; opacity: 0.45"/>
   </g>
   <g id="patch_101">
    <path d="M 415.469741 306.851562 
L 417.996031 306.851562 
L 417.996031 176.854549 
L 415.469741 176.854549 
z
" clip-path="url(#p0c9339d08a)" style="fill: #4361ee; opacity: 0.45"/>
   </g>
   <g id="patch_102">
    <path d="M 419.006546 306.851562 
L 421.532835 306.851562 
L 421.532835 288.280561 
L 419.006546 288.280561 
z
" clip-path="url(#p0c9339d08a)" style="fill: #4361ee; opacity: 0.45"/>
   </g>
   <g id="patch_103">
    <path d="M 422.543351 306.851562 
L 425.06964 306.851562 
L 425.06964 251.138557 
L 422.543351 251.138557 
z
" clip-path="url(#p0c9339d08a)" style="fill: #4361ee; opacity: 0.45"/>
   </g>
   <g id="patch_104">
    <path d="M 426.080156 306.851562 
L 428.606445 306.851562 
L 428.606445 195.425551 
L 426.080156 195.425551 
z
" clip-path="url(#p0c9339d08a)" style="fill: #4361ee; opacity: 0.45"/>
   </g>
   <g id="patch_105">
    <path d="M 429.616961 306.851562 
L 432.14325 306.851562 
L 432.14325 213.996553 
L 429.616961 213.996553 
z
" clip-path="url(#p0c9339d08a)" style="fill: #4361ee; opacity: 0.45"/>
   </g>
   <g id="patch_106">
    <path d="M 433.153766 306.851562 
L 435.680055 306.851562 
L 435.680055 269.709559 
L 433.153766 269.709559 
z
" clip-path="url(#p0c9339d08a)" style="fill: #4361ee; opacity: 0.45"/>
   </g>
   <g id="patch_107">
    <path d="M 436.69057 306.851562 
L 439.216859 306.851562 
L 439.216859 139.712545 
L 436.69057 139.712545 
z
" clip-path="url(#p0c9339d08a)" style="fill: #4361ee; opacity: 0.45"/>
   </g>
   <g id="patch_108">
    <path d="M 440.227375 306.851562 
L 442.753664 306.851562 
L 442.753664 288.280561 
L 440.227375 288.280561 
z
" clip-path="url(#p0c9339d08a)" style="fill: #4361ee; opacity: 0.45"/>
   </g>
   <g id="patch_109">
    <path d="M 443.76418 306.851562 
L 446.290469 306.851562 
L 446.290469 213.996553 
L 443.76418 213.996553 
z
" clip-path="url(#p0c9339d08a)" style="fill: #4361ee; opacity: 0.45"/>
   </g>
   <g id="patch_110">
    <path d="M 447.300985 306.851562 
L 449.827274 306.851562 
L 449.827274 195.425551 
L 447.300985 195.425551 
z
" clip-path="url(#p0c9339d08a)" style="fill: #4361ee; opacity: 0.45"/>
   </g>
   <g id="patch_111">
    <path d="M 450.83779 306.851562 
L 453.364079 306.851562 
L 453.364079 306.851562 
L 450.83779 306.851562 
z
" clip-path="url(#p0c9339d08a)" style="fill: #4361ee; opacity: 0.45"/>
   </g>
   <g id="patch_112">
    <path d="M 454.374594 306.851562 
L 456.900884 306.851562 
L 456.900884 176.854549 
L 454.374594 176.854549 
z
" clip-path="url(#p0c9339d08a)" style="fill: #4361ee; opacity: 0.45"/>
   </g>
   <g id="patch_113">
    <path d="M 457.911399 306.851562 
L 460.437688 306.851562 
L 460.437688 213.996553 
L 457.911399 213.996553 
z
" clip-path="url(#p0c9339d08a)" style="fill: #4361ee; opacity: 0.45"/>
   </g>
   <g id="patch_114">
    <path d="M 461.448204 306.851562 
L 463.974493 306.851562 
L 463.974493 306.851562 
L 461.448204 306.851562 
z
" clip-path="url(#p0c9339d08a)" style="fill: #4361ee; opacity: 0.45"/>
   </g>
   <g id="patch_115">
    <path d="M 464.985009 306.851562 
L 467.511298 306.851562 
L 467.511298 195.425551 
L 464.985009 195.425551 
z
" clip-path="url(#p0c9339d08a)" style="fill: #4361ee; opacity: 0.45"/>
   </g>
   <g id="patch_116">
    <path d="M 468.521814 306.851562 
L 471.048103 306.851562 
L 471.048103 251.138557 
L 468.521814 251.138557 
z
" clip-path="url(#p0c9339d08a)" style="fill: #4361ee; opacity: 0.45"/>
   </g>
   <g id="patch_117">
    <path d="M 472.058619 306.851562 
L 474.584908 306.851562 
L 474.584908 158.283547 
L 472.058619 158.283547 
z
" clip-path="url(#p0c9339d08a)" style="fill: #4361ee; opacity: 0.45"/>
   </g>
   <g id="patch_118">
    <path d="M 475.595423 306.851562 
L 478.121712 306.851562 
L 478.121712 288.280561 
L 475.595423 288.280561 
z
" clip-path="url(#p0c9339d08a)" style="fill: #4361ee; opacity: 0.45"/>
   </g>
   <g id="patch_119">
    <path d="M 479.132228 306.851562 
L 481.658517 306.851562 
L 481.658517 251.138557 
L 479.132228 251.138557 
z
" clip-path="url(#p0c9339d08a)" style="fill: #4361ee; opacity: 0.45"/>
   </g>
   <g id="patch_120">
    <path d="M 482.669033 306.851562 
L 485.195322 306.851562 
L 485.195322 288.280561 
L 482.669033 288.280561 
z
" clip-path="url(#p0c9339d08a)" style="fill: #4361ee; opacity: 0.45"/>
   </g>
   <g id="patch_121">
    <path d="M 486.205838 306.851562 
L 488.732127 306.851562 
L 488.732127 251.138557 
L 486.205838 251.138557 
z
" clip-path="url(#p0c9339d08a)" style="fill: #4361ee; opacity: 0.45"/>
   </g>
   <g id="patch_122">
    <path d="M 489.742643 306.851562 
L 492.268932 306.851562 
L 492.268932 251.138557 
L 489.742643 251.138557 
z
" clip-path="url(#p0c9339d08a)" style="fill: #4361ee; opacity: 0.45"/>
   </g>
   <g id="patch_123">
    <path d="M 493.279447 306.851562 
L 495.805737 306.851562 
L 495.805737 195.425551 
L 493.279447 195.425551 
z
" clip-path="url(#p0c9339d08a)" style="fill: #4361ee; opacity: 0.45"/>
   </g>
   <g id="patch_124">
    <path d="M 496.816252 306.851562 
L 499.342541 306.851562 
L 499.342541 232.567555 
L 496.816252 232.567555 
z
" clip-path="url(#p0c9339d08a)" style="fill: #4361ee; opacity: 0.45"/>
   </g>
   <g id="patch_125">
    <path d="M 500.353057 306.851562 
L 502.879346 306.851562 
L 502.879346 251.138557 
L 500.353057 251.138557 
z
" clip-path="url(#p0c9339d08a)" style="fill: #4361ee; opacity: 0.45"/>
   </g>
   <g id="patch_126">
    <path d="M 503.889862 306.851562 
L 506.416151 306.851562 
L 506.416151 269.709559 
L 503.889862 269.709559 
z
" clip-path="url(#p0c9339d08a)" style="fill: #4361ee; opacity: 0.45"/>
   </g>
   <g id="patch_127">
    <path d="M 507.426667 306.851562 
L 509.952956 306.851562 
L 509.952956 269.709559 
L 507.426667 269.709559 
z
" clip-path="url(#p0c9339d08a)" style="fill: #4361ee; opacity: 0.45"/>
   </g>
   <g id="patch_128">
    <path d="M 510.963471 306.851562 
L 513.489761 306.851562 
L 513.489761 213.996553 
L 510.963471 213.996553 
z
" clip-path="url(#p0c9339d08a)" style="fill: #4361ee; opacity: 0.45"/>
   </g>
   <g id="patch_129">
    <path d="M 514.500276 306.851562 
L 517.026565 306.851562 
L 517.026565 288.280561 
L 514.500276 288.280561 
z
" clip-path="url(#p0c9339d08a)" style="fill: #4361ee; opacity: 0.45"/>
   </g>
   <g id="patch_130">
    <path d="M 518.037081 306.851562 
L 520.56337 306.851562 
L 520.56337 306.851562 
L 518.037081 306.851562 
z
" clip-path="url(#p0c9339d08a)" style="fill: #4361ee; opacity: 0.45"/>
   </g>
   <g id="patch_131">
    <path d="M 521.573886 306.851562 
L 524.100175 306.851562 
L 524.100175 176.854549 
L 521.573886 176.854549 
z
" clip-path="url(#p0c9339d08a)" style="fill: #4361ee; opacity: 0.45"/>
   </g>
   <g id="patch_132">
    <path d="M 525.110691 306.851562 
L 527.63698 306.851562 
L 527.63698 195.425551 
L 525.110691 195.425551 
z
" clip-path="url(#p0c9339d08a)" style="fill: #4361ee; opacity: 0.45"/>
   </g>
   <g id="patch_133">
    <path d="M 528.647496 306.851562 
L 531.173785 306.851562 
L 531.173785 251.138557 
L 528.647496 251.138557 
z
" clip-path="url(#p0c9339d08a)" style="fill: #4361ee; opacity: 0.45"/>
   </g>
   <g id="patch_134">
    <path d="M 532.1843 306.851562 
L 534.71059 306.851562 
L 534.71059 176.854549 
L 532.1843 176.854549 
z
" clip-path="url(#p0c9339d08a)" style="fill: #4361ee; opacity: 0.45"/>
   </g>
   <g id="patch_135">
    <path d="M 535.721105 306.851562 
L 538.247394 306.851562 
L 538.247394 251.138557 
L 535.721105 251.138557 
z
" clip-path="url(#p0c9339d08a)" style="fill: #4361ee; opacity: 0.45"/>
   </g>
   <g id="patch_136">
    <path d="M 539.25791 306.851562 
L 541.784199 306.851562 
L 541.784199 195.425551 
L 539.25791 195.425551 
z
" clip-path="url(#p0c9339d08a)" style="fill: #4361ee; opacity: 0.45"/>
   </g>
   <g id="patch_137">
    <path d="M 542.794715 306.851562 
L 545.321004 306.851562 
L 545.321004 232.567555 
L 542.794715 232.567555 
z
" clip-path="url(#p0c9339d08a)" style="fill: #4361ee; opacity: 0.45"/>
   </g>
   <g id="patch_138">
    <path d="M 546.33152 306.851562 
L 548.857809 306.851562 
L 548.857809 232.567555 
L 546.33152 232.567555 
z
" clip-path="url(#p0c9339d08a)" style="fill: #4361ee; opacity: 0.45"/>
   </g>
   <g id="patch_139">
    <path d="M 549.868324 306.851562 
L 552.394614 306.851562 
L 552.394614 269.709559 
L 549.868324 269.709559 
z
" clip-path="url(#p0c9339d08a)" style="fill: #4361ee; opacity: 0.45"/>
   </g>
   <g id="patch_140">
    <path d="M 553.405129 306.851562 
L 555.931418 306.851562 
L 555.931418 139.712545 
L 553.405129 139.712545 
z
" clip-path="url(#p0c9339d08a)" style="fill: #4361ee; opacity: 0.45"/>
   </g>
   <g id="patch_141">
    <path d="M 556.941934 306.851562 
L 559.468223 306.851562 
L 559.468223 195.425551 
L 556.941934 195.425551 
z
" clip-path="url(#p0c9339d08a)" style="fill: #4361ee; opacity: 0.45"/>
   </g>
   <g id="patch_142">
    <path d="M 560.478739 306.851562 
L 563.005028 306.851562 
L 563.005028 251.138557 
L 560.478739 251.138557 
z
" clip-path="url(#p0c9339d08a)" style="fill: #4361ee; opacity: 0.45"/>
   </g>
   <g id="patch_143">
    <path d="M 564.015544 306.851562 
L 566.541833 306.851562 
L 566.541833 213.996553 
L 564.015544 213.996553 
z
" clip-path="url(#p0c9339d08a)" style="fill: #4361ee; opacity: 0.45"/>
   </g>
   <g id="patch_144">
    <path d="M 567.552349 306.851562 
L 570.078638 306.851562 
L 570.078638 158.283547 
L 567.552349 158.283547 
z
" clip-path="url(#p0c9339d08a)" style="fill: #4361ee; opacity: 0.45"/>
   </g>
   <g id="patch_145">
    <path d="M 571.089153 306.851562 
L 573.615443 306.851562 
L 573.615443 195.425551 
L 571.089153 195.425551 
z
" clip-path="url(#p0c9339d08a)" style="fill: #4361ee; opacity: 0.45"/>
   </g>
   <g id="patch_146">
    <path d="M 574.625958 306.851562 
L 577.152247 306.851562 
L 577.152247 195.425551 
L 574.625958 195.425551 
z
" clip-path="url(#p0c9339d08a)" style="fill: #4361ee; opacity: 0.45"/>
   </g>
   <g id="patch_147">
    <path d="M 578.162763 306.851562 
L 580.689052 306.851562 
L 580.689052 269.709559 
L 578.162763 269.709559 
z
" clip-path="url(#p0c9339d08a)" style="fill: #4361ee; opacity: 0.45"/>
   </g>
   <g id="patch_148">
    <path d="M 581.699568 306.851562 
L 584.225857 306.851562 
L 584.225857 306.851562 
L 581.699568 306.851562 
z
" clip-path="url(#p0c9339d08a)" style="fill: #4361ee; opacity: 0.45"/>
   </g>
   <g id="patch_149">
    <path d="M 585.236373 306.851562 
L 587.762662 306.851562 
L 587.762662 176.854549 
L 585.236373 176.854549 
z
" clip-path="url(#p0c9339d08a)" style="fill: #4361ee; opacity: 0.45"/>
   </g>
   <g id="patch_150">
    <path d="M 588.773177 306.851562 
L 591.299467 306.851562 
L 591.299467 195.425551 
L 588.773177 195.425551 
z
" clip-path="url(#p0c9339d08a)" style="fill: #4361ee; opacity: 0.45"/>
   </g>
   <g id="patch_151">
    <path d="M 592.309982 306.851562 
L 594.836271 306.851562 
L 594.836271 232.567555 
L 592.309982 232.567555 
z
" clip-path="url(#p0c9339d08a)" style="fill: #4361ee; opacity: 0.45"/>
   </g>
   <g id="patch_152">
    <path d="M 595.846787 306.851562 
L 598.373076 306.851562 
L 598.373076 195.425551 
L 595.846787 195.425551 
z
" clip-path="url(#p0c9339d08a)" style="fill: #4361ee; opacity: 0.45"/>
   </g>
   <g id="patch_153">
    <path d="M 599.383592 306.851562 
L 601.909881 306.851562 
L 601.909881 269.709559 
L 599.383592 269.709559 
z
" clip-path="url(#p0c9339d08a)" style="fill: #4361ee; opacity: 0.45"/>
   </g>
   <g id="patch_154">
    <path d="M 602.920397 306.851562 
L 605.446686 306.851562 
L 605.446686 288.280561 
L 602.920397 288.280561 
z
" clip-path="url(#p0c9339d08a)" style="fill: #4361ee; opacity: 0.45"/>
   </g>
   <g id="patch_155">
    <path d="M 606.457202 306.851562 
L 608.983491 306.851562 
L 608.983491 232.567555 
L 606.457202 232.567555 
z
" clip-path="url(#p0c9339d08a)" style="fill: #4361ee; opacity: 0.45"/>
   </g>
   <g id="patch_156">
    <path d="M 609.994006 306.851562 
L 612.520296 306.851562 
L 612.520296 288.280561 
L 609.994006 288.280561 
z
" clip-path="url(#p0c9339d08a)" style="fill: #4361ee; opacity: 0.45"/>
   </g>
   <g id="patch_157">
    <path d="M 613.530811 306.851562 
L 616.0571 306.851562 
L 616.0571 195.425551 
L 613.530811 195.425551 
z
" clip-path="url(#p0c9339d08a)" style="fill: #4361ee; opacity: 0.45"/>
   </g>
   <g id="patch_158">
    <path d="M 617.067616 306.851562 
L 619.593905 306.851562 
L 619.593905 195.425551 
L 617.067616 195.425551 
z
" clip-path="url(#p0c9339d08a)" style="fill: #4361ee; opacity: 0.45"/>
   </g>
   <g id="patch_159">
    <path d="M 620.604421 306.851562 
L 623.13071 306.851562 
L 623.13071 121.141543 
L 620.604421 121.141543 
z
" clip-path="url(#p0c9339d08a)" style="fill: #4361ee; opacity: 0.45"/>
   </g>
   <g id="patch_160">
    <path d="M 624.141226 306.851562 
L 626.667515 306.851562 
L 626.667515 288.280561 
L 624.141226 288.280561 
z
" clip-path="url(#p0c9339d08a)" style="fill: #4361ee; opacity: 0.45"/>
   </g>
   <g id="patch_161">
    <path d="M 627.67803 306.851562 
L 630.20432 306.851562 
L 630.20432 269.709559 
L 627.67803 269.709559 
z
" clip-path="url(#p0c9339d08a)" style="fill: #4361ee; opacity: 0.45"/>
   </g>
   <g id="patch_162">
    <path d="M 631.214835 306.851562 
L 633.741124 306.851562 
L 633.741124 195.425551 
L 631.214835 195.425551 
z
" clip-path="url(#p0c9339d08a)" style="fill: #4361ee; opacity: 0.45"/>
   </g>
   <g id="patch_163">
    <path d="M 634.75164 306.851562 
L 637.277929 306.851562 
L 637.277929 158.283547 
L 634.75164 158.283547 
z
" clip-path="url(#p0c9339d08a)" style="fill: #4361ee; opacity: 0.45"/>
   </g>
   <g id="patch_164">
    <path d="M 638.288445 306.851562 
L 640.814734 306.851562 
L 640.814734 213.996553 
L 638.288445 213.996553 
z
" clip-path="url(#p0c9339d08a)" style="fill: #4361ee; opacity: 0.45"/>
   </g>
   <g id="patch_165">
    <path d="M 641.82525 306.851562 
L 644.351539 306.851562 
L 644.351539 232.567555 
L 641.82525 232.567555 
z
" clip-path="url(#p0c9339d08a)" style="fill: #4361ee; opacity: 0.45"/>
   </g>
   <g id="patch_166">
    <path d="M 645.362055 306.851562 
L 647.888344 306.851562 
L 647.888344 213.996553 
L 645.362055 213.996553 
z
" clip-path="url(#p0c9339d08a)" style="fill: #4361ee; opacity: 0.45"/>
   </g>
   <g id="patch_167">
    <path d="M 648.898859 306.851562 
L 651.425149 306.851562 
L 651.425149 176.854549 
L 648.898859 176.854549 
z
" clip-path="url(#p0c9339d08a)" style="fill: #4361ee; opacity: 0.45"/>
   </g>
   <g id="patch_168">
    <path d="M 652.435664 306.851562 
L 654.961953 306.851562 
L 654.961953 213.996553 
L 652.435664 213.996553 
z
" clip-path="url(#p0c9339d08a)" style="fill: #4361ee; opacity: 0.45"/>
   </g>
   <g id="patch_169">
    <path d="M 655.972469 306.851562 
L 658.498758 306.851562 
L 658.498758 195.425551 
L 655.972469 195.425551 
z
" clip-path="url(#p0c9339d08a)" style="fill: #4361ee; opacity: 0.45"/>
   </g>
   <g id="patch_170">
    <path d="M 659.509274 306.851562 
L 662.035563 306.851562 
L 662.035563 251.138557 
L 659.509274 251.138557 
z
" clip-path="url(#p0c9339d08a)" style="fill: #4361ee; opacity: 0.45"/>
   </g>
   <g id="patch_171">
    <path d="M 663.046079 306.851562 
L 665.572368 306.851562 
L 665.572368 139.712545 
L 663.046079 139.712545 
z
" clip-path="url(#p0c9339d08a)" style="fill: #4361ee; opacity: 0.45"/>
   </g>
   <g id="patch_172">
    <path d="M 666.582883 306.851562 
L 669.109173 306.851562 
L 669.109173 213.996553 
L 666.582883 213.996553 
z
" clip-path="url(#p0c9339d08a)" style="fill: #4361ee; opacity: 0.45"/>
   </g>
   <g id="patch_173">
    <path d="M 670.119688 306.851562 
L 672.645977 306.851562 
L 672.645977 83.999539 
L 670.119688 83.999539 
z
" clip-path="url(#p0c9339d08a)" style="fill: #4361ee; opacity: 0.45"/>
   </g>
   <g id="patch_174">
    <path d="M 673.656493 306.851562 
L 676.182782 306.851562 
L 676.182782 176.854549 
L 673.656493 176.854549 
z
" clip-path="url(#p0c9339d08a)" style="fill: #4361ee; opacity: 0.45"/>
   </g>
   <g id="patch_175">
    <path d="M 677.193298 306.851562 
L 679.719587 306.851562 
L 679.719587 232.567555 
L 677.193298 232.567555 
z
" clip-path="url(#p0c9339d08a)" style="fill: #4361ee; opacity: 0.45"/>
   </g>
   <g id="patch_176">
    <path d="M 680.730103 306.851562 
L 683.256392 306.851562 
L 683.256392 232.567555 
L 680.730103 232.567555 
z
" clip-path="url(#p0c9339d08a)" style="fill: #4361ee; opacity: 0.45"/>
   </g>
   <g id="patch_177">
    <path d="M 684.266908 306.851562 
L 686.793197 306.851562 
L 686.793197 195.425551 
L 684.266908 195.425551 
z
" clip-path="url(#p0c9339d08a)" style="fill: #4361ee; opacity: 0.45"/>
   </g>
   <g id="patch_178">
    <path d="M 687.803712 306.851562 
L 690.330002 306.851562 
L 690.330002 232.567555 
L 687.803712 232.567555 
z
" clip-path="url(#p0c9339d08a)" style="fill: #4361ee; opacity: 0.45"/>
   </g>
   <g id="patch_179">
    <path d="M 691.340517 306.851562 
L 693.866806 306.851562 
L 693.866806 288.280561 
L 691.340517 288.280561 
z
" clip-path="url(#p0c9339d08a)" style="fill: #4361ee; opacity: 0.45"/>
   </g>
   <g id="patch_180">
    <path d="M 694.877322 306.851562 
L 697.403611 306.851562 
L 697.403611 251.138557 
L 694.877322 251.138557 
z
" clip-path="url(#p0c9339d08a)" style="fill: #4361ee; opacity: 0.45"/>
   </g>
   <g id="patch_181">
    <path d="M 698.414127 306.851562 
L 700.940416 306.851562 
L 700.940416 288.280561 
L 698.414127 288.280561 
z
" clip-path="url(#p0c9339d08a)" style="fill: #4361ee; opacity: 0.45"/>
   </g>
   <g id="patch_182">
    <path d="M 701.950932 306.851562 
L 704.477221 306.851562 
L 704.477221 306.851562 
L 701.950932 306.851562 
z
" clip-path="url(#p0c9339d08a)" style="fill: #4361ee; opacity: 0.45"/>
   </g>
   <g id="patch_183">
    <path d="M 705.487736 306.851562 
L 708.014026 306.851562 
L 708.014026 251.138557 
L 705.487736 251.138557 
z
" clip-path="url(#p0c9339d08a)" style="fill: #4361ee; opacity: 0.45"/>
   </g>
   <g id="patch_184">
    <path d="M 709.024541 306.851562 
L 711.55083 306.851562 
L 711.55083 251.138557 
L 709.024541 251.138557 
z
" clip-path="url(#p0c9339d08a)" style="fill: #4361ee; opacity: 0.45"/>
   </g>
   <g id="patch_185">
    <path d="M 712.561346 306.851562 
L 715.087635 306.851562 
L 715.087635 213.996553 
L 712.561346 213.996553 
z
" clip-path="url(#p0c9339d08a)" style="fill: #4361ee; opacity: 0.45"/>
   </g>
   <g id="patch_186">
    <path d="M 716.098151 306.851562 
L 718.62444 306.851562 
L 718.62444 251.138557 
L 716.098151 251.138557 
z
" clip-path="url(#p0c9339d08a)" style="fill: #4361ee; opacity: 0.45"/>
   </g>
   <g id="patch_187">
    <path d="M 719.634956 306.851562 
L 722.161245 306.851562 
L 722.161245 158.283547 
L 719.634956 158.283547 
z
" clip-path="url(#p0c9339d08a)" style="fill: #4361ee; opacity: 0.45"/>
   </g>
   <g id="patch_188">
    <path d="M 723.171761 306.851562 
L 725.69805 306.851562 
L 725.69805 232.567555 
L 723.171761 232.567555 
z
" clip-path="url(#p0c9339d08a)" style="fill: #4361ee; opacity: 0.45"/>
   </g>
   <g id="patch_189">
    <path d="M 726.708565 306.851562 
L 729.234855 306.851562 
L 729.234855 288.280561 
L 726.708565 288.280561 
z
" clip-path="url(#p0c9339d08a)" style="fill: #4361ee; opacity: 0.45"/>
   </g>
   <g id="patch_190">
    <path d="M 730.24537 306.851562 
L 732.771659 306.851562 
L 732.771659 213.996553 
L 730.24537 213.996553 
z
" clip-path="url(#p0c9339d08a)" style="fill: #4361ee; opacity: 0.45"/>
   </g>
   <g id="patch_191">
    <path d="M 733.782175 306.851562 
L 736.308464 306.851562 
L 736.308464 213.996553 
L 733.782175 213.996553 
z
" clip-path="url(#p0c9339d08a)" style="fill: #4361ee; opacity: 0.45"/>
   </g>
   <g id="patch_192">
    <path d="M 737.31898 306.851562 
L 739.845269 306.851562 
L 739.845269 139.712545 
L 737.31898 139.712545 
z
" clip-path="url(#p0c9339d08a)" style="fill: #4361ee; opacity: 0.45"/>
   </g>
   <g id="patch_193">
    <path d="M 740.855785 306.851562 
L 743.382074 306.851562 
L 743.382074 251.138557 
L 740.855785 251.138557 
z
" clip-path="url(#p0c9339d08a)" style="fill: #4361ee; opacity: 0.45"/>
   </g>
   <g id="patch_194">
    <path d="M 744.392589 306.851562 
L 746.918879 306.851562 
L 746.918879 102.570541 
L 744.392589 102.570541 
z
" clip-path="url(#p0c9339d08a)" style="fill: #4361ee; opacity: 0.45"/>
   </g>
   <g id="patch_195">
    <path d="M 747.929394 306.851562 
L 750.455683 306.851562 
L 750.455683 139.712545 
L 747.929394 139.712545 
z
" clip-path="url(#p0c9339d08a)" style="fill: #4361ee; opacity: 0.45"/>
   </g>
   <g id="patch_196">
    <path d="M 751.466199 306.851562 
L 753.992488 306.851562 
L 753.992488 251.138557 
L 751.466199 251.138557 
z
" clip-path="url(#p0c9339d08a)" style="fill: #4361ee; opacity: 0.45"/>
   </g>
   <g id="patch_197">
    <path d="M 755.003004 306.851562 
L 757.529293 306.851562 
L 757.529293 176.854549 
L 755.003004 176.854549 
z
" clip-path="url(#p0c9339d08a)" style="fill: #4361ee; opacity: 0.45"/>
   </g>
   <g id="patch_198">
    <path d="M 758.539809 306.851562 
L 761.066098 306.851562 
L 761.066098 269.709559 
L 758.539809 269.709559 
z
" clip-path="url(#p0c9339d08a)" style="fill: #4361ee; opacity: 0.45"/>
   </g>
   <g id="patch_199">
    <path d="M 762.076614 306.851562 
L 764.602903 306.851562 
L 764.602903 213.996553 
L 762.076614 213.996553 
z
" clip-path="url(#p0c9339d08a)" style="fill: #4361ee; opacity: 0.45"/>
   </g>
   <g id="patch_200">
    <path d="M 765.613418 306.851562 
L 768.139708 306.851562 
L 768.139708 195.425551 
L 765.613418 195.425551 
z
" clip-path="url(#p0c9339d08a)" style="fill: #4361ee; opacity: 0.45"/>
   </g>
   <g id="patch_201">
    <path d="M 769.150223 306.851562 
L 771.676512 306.851562 
L 771.676512 213.996553 
L 769.150223 213.996553 
z
" clip-path="url(#p0c9339d08a)" style="fill: #4361ee; opacity: 0.45"/>
   </g>
   <g id="patch_202">
    <path d="M 772.687028 306.851562 
L 775.213317 306.851562 
L 775.213317 139.712545 
L 772.687028 139.712545 
z
" clip-path="url(#p0c9339d08a)" style="fill: #4361ee; opacity: 0.45"/>
   </g>
   <g id="patch_203">
    <path d="M 776.223833 306.851562 
L 778.750122 306.851562 
L 778.750122 195.425551 
L 776.223833 195.425551 
z
" clip-path="url(#p0c9339d08a)" style="fill: #4361ee; opacity: 0.45"/>
   </g>
   <g id="patch_204">
    <path d="M 779.760638 306.851562 
L 782.286927 306.851562 
L 782.286927 176.854549 
L 779.760638 176.854549 
z
" clip-path="url(#p0c9339d08a)" style="fill: #4361ee; opacity: 0.45"/>
   </g>
   <g id="patch_205">
    <path d="M 783.297442 306.851562 
L 785.823732 306.851562 
L 785.823732 251.138557 
L 783.297442 251.138557 
z
" clip-path="url(#p0c9339d08a)" style="fill: #4361ee; opacity: 0.45"/>
   </g>
   <g id="patch_206">
    <path d="M 786.834247 306.851562 
L 789.360536 306.851562 
L 789.360536 28.286533 
L 786.834247 28.286533 
z
" clip-path="url(#p0c9339d08a)" style="fill: #4361ee; opacity: 0.45"/>
   </g>
   <g id="patch_207">
    <path d="M 790.371052 306.851562 
L 792.897341 306.851562 
L 792.897341 269.709559 
L 790.371052 269.709559 
z
" clip-path="url(#p0c9339d08a)" style="fill: #4361ee; opacity: 0.45"/>
   </g>
   <g id="patch_208">
    <path d="M 793.907857 306.851562 
L 796.434146 306.851562 
L 796.434146 195.425551 
L 793.907857 195.425551 
z
" clip-path="url(#p0c9339d08a)" style="fill: #4361ee; opacity: 0.45"/>
   </g>
   <g id="patch_209">
    <path d="M 797.444662 306.851562 
L 799.970951 306.851562 
L 799.970951 195.425551 
L 797.444662 195.425551 
z
" clip-path="url(#p0c9339d08a)" style="fill: #4361ee; opacity: 0.45"/>
   </g>
   <g id="patch_210">
    <path d="M 800.981467 306.851562 
L 803.507756 306.851562 
L 803.507756 269.709559 
L 800.981467 269.709559 
z
" clip-path="url(#p0c9339d08a)" style="fill: #4361ee; opacity: 0.45"/>
   </g>
   <g id="matplotlib.axis_1">
    <g id="xtick_1">
     <g id="line2d_1">
      <defs>
       <path id="m2ed20429dd" d="M 0 0 
L 0 3.5 
" style="stroke: #ffffff; stroke-width: 0.8"/>
      </defs>
      <g>
       <use xlink:href="#m2ed20429dd" x="57.876395" y="306.851562" style="fill: #ffffff; stroke: #ffffff; stroke-width: 0.8"/>
      </g>
     </g>
     <g id="text_1">
      <text style="font-size: 9px; font-family: 'DejaVu Sans', 'Liberation Sans', 'Noto Sans', 'FreeSans', sans-serif; text-anchor: middle; fill: #ffffff" x="57.876395" y="320.690156" transform="rotate(-0 57.876395 320.690156)">2022-07</text>
     </g>
    </g>
    <g id="xtick_2">
     <g id="line2d_2">
      <g>
       <use xlink:href="#m2ed20429dd" x="150.843835" y="306.851562" style="fill: #ffffff; stroke: #ffffff; stroke-width: 0.8"/>
      </g>
     </g>
     <g id="text_2">
      <text style="font-size: 9px; font-family: 'DejaVu Sans', 'Liberation Sans', 'Noto Sans', 'FreeSans', sans-serif; text-anchor: middle; fill: #ffffff" x="150.843835" y="320.690156" transform="rotate(-0 150.843835 320.690156)">2023-01</text>
     </g>
    </g>
    <g id="xtick_3">
     <g id="line2d_3">
      <g>
       <use xlink:href="#m2ed20429dd" x="242.295503" y="306.851562" style="fill: #ffffff; stroke: #ffffff; stroke-width: 0.8"/>
      </g>
     </g>
     <g id="text_3">
      <text style="font-size: 9px; font-family: 'DejaVu Sans', 'Liberation Sans', 'Noto Sans', 'FreeSans', sans-serif; text-anchor: middle; fill: #ffffff" x="242.295503" y="320.690156" transform="rotate(-0 242.295503 320.690156)">2023-07</text>
     </g>
    </g>
    <g id="xtick_4">
     <g id="line2d_4">
      <g>
       <use xlink:href="#m2ed20429dd" x="335.262944" y="306.851562" style="fill: #ffffff; stroke: #ffffff; stroke-width: 0.8"/>
      </g>
     </g>
     <g id="text_4">
      <text style="font-size: 9px; font-family: 'DejaVu Sans', 'Liberation Sans', 'Noto Sans', 'FreeSans', sans-serif; text-anchor: middle; fill: #ffffff" x="335.262944" y="320.690156" transform="rotate(-0 335.262944 320.690156)">2024-01</text>
     </g>
    </g>
    <g id="xtick_5">
     <g id="line2d_5">
      <g>
       <use xlink:href="#m2ed20429dd" x="427.219869" y="306.851562" style="fill: #ffffff; stroke: #ffffff; stroke-width: 0.8"/>
      </g>
     </g>
     <g id="text_5">
      <text style="font-size: 9px; font-family: 'DejaVu Sans', 'Liberation Sans', 'Noto Sans', 'FreeSans', sans-serif; text-anchor: middle; fill: #ffffff" x="427.219869" y="320.690156" transform="rotate(-0 427.219869 320.690156)">2024-07</text>
     </g>
    </g>
    <g id="xtick_6">
     <g id="line2d_6">
      <g>
       <use xlink:href="#m2ed20429dd" x="520.18731" y="306.851562" style="fill: #ffffff; stroke: #ffffff; stroke-width: 0.8"/>
      </g>
     </g>
     <g id="text_6">
      <text style="font-size: 9px; font-family: 'DejaVu Sans', 'Liberation Sans', 'Noto Sans', 'FreeSans', sans-serif; text-anchor: middle; fill: #ffffff" x="520.18731" y="320.690156" transform="rotate(-0 520.18731 320.690156)">2025-01</text>
     </g>
    </g>
    <g id="xtick_7">
     <g id="line2d_7">
      <g>
       <use xlink:href="#m2ed20429dd" x="611.638977" y="306.851562" style="fill: #ffffff; stroke: #ffffff; stroke-width: 0.8"/>
      </g>
     </g>
     <g id="text_7">
      <text style="font-size: 9px; font-family: 'DejaVu Sans', 'Liberation Sans', 'Noto Sans', 'FreeSans', sans-serif; text-anchor: middle; fill: #ffffff" x="611.638977" y="320.690156" transform="rotate(-0 611.638977 320.690156)">2025-07</text>
     </g>
    </g>
    <g id="xtick_8">
     <g id="line2d_8">
      <g>
       <use xlink:href="#m2ed20429dd" x="704.606418" y="306.851562" style="fill: #ffffff; stroke: #ffffff; stroke-width: 0.8"/>
      </g>
     </g>
     <g id="text_8">
      <text style="font-size: 9px; font-family: 'DejaVu Sans', 'Liberation Sans', 'Noto Sans', 'FreeSans', sans-serif; text-anchor: middle; fill: #ffffff" x="704.606418" y="320.690156" transform="rotate(-0 704.606418 320.690156)">2026-01</text>
     </g>
    </g>
    <g id="xtick_9">
     <g id="line2d_9">
      <g>
       <use xlink:href="#m2ed20429dd" x="796.058086" y="306.851562" style="fill: #ffffff; stroke: #ffffff; stroke-width: 0.8"/>
      </g>
     </g>
     <g id="text_9">
      <text style="font-size: 9px; font-family: 'DejaVu Sans', 'Liberation Sans', 'Noto Sans', 'FreeSans', sans-serif; text-anchor: middle; fill: #ffffff" x="796.058086" y="320.690156" transform="rotate(-0 796.058086 320.690156)">2026-07</text>
     </g>
    </g>
    <g id="text_10">
     <text style="font-size: 10px; font-family: 'DejaVu Sans', 'Liberation Sans', 'Noto Sans', 'FreeSans', sans-serif; text-anchor: middle; fill: #ffffff" x="436.185312" y="334.160312" transform="rotate(-0 436.185312 334.160312)">Date</text>
    </g>
   </g>
   <g id="matplotlib.axis_2">
    <g id="ytick_1">
     <g id="line2d_10">
      <defs>
       <path id="me8a63df878" d="M 0 0 
L -3.5 0 
" style="stroke: #ffffff; stroke-width: 0.8"/>
      </defs>
      <g>
       <use xlink:href="#me8a63df878" x="32.130625" y="306.851562" style="fill: #ffffff; stroke: #ffffff; stroke-width: 0.8"/>
      </g>
     </g>
     <g id="text_11">
      <text style="font-size: 9px; font-family: 'DejaVu Sans', 'Liberation Sans', 'Noto Sans', 'FreeSans', sans-serif; text-anchor: end; fill: #ffffff" x="25.130625" y="310.270859" transform="rotate(-0 25.130625 310.270859)">0</text>
     </g>
    </g>
    <g id="ytick_2">
     <g id="line2d_11">
      <g>
       <use xlink:href="#me8a63df878" x="32.130625" y="269.709559" style="fill: #ffffff; stroke: #ffffff; stroke-width: 0.8"/>
      </g>
     </g>
     <g id="text_12">
      <text style="font-size: 9px; font-family: 'DejaVu Sans', 'Liberation Sans', 'Noto Sans', 'FreeSans', sans-serif; text-anchor: end; fill: #ffffff" x="25.130625" y="273.128855" transform="rotate(-0 25.130625 273.128855)">2</text>
     </g>
    </g>
    <g id="ytick_3">
     <g id="line2d_12">
      <g>
       <use xlink:href="#me8a63df878" x="32.130625" y="232.567555" style="fill: #ffffff; stroke: #ffffff; stroke-width: 0.8"/>
      </g>
     </g>
     <g id="text_13">
      <text style="font-size: 9px; font-family: 'DejaVu Sans', 'Liberation Sans', 'Noto Sans', 'FreeSans', sans-serif; text-anchor: end; fill: #ffffff" x="25.130625" y="235.986851" transform="rotate(-0 25.130625 235.986851)">4</text>
     </g>
    </g>
    <g id="ytick_4">
     <g id="line2d_13">
      <g>
       <use xlink:href="#me8a63df878" x="32.130625" y="195.425551" style="fill: #ffffff; stroke: #ffffff; stroke-width: 0.8"/>
      </g>
     </g>
     <g id="text_14">
      <text style="font-size: 9px; font-family: 'DejaVu Sans', 'Liberation Sans', 'Noto Sans', 'FreeSans', sans-serif; text-anchor: end; fill: #ffffff" x="25.130625" y="198.844847" transform="rotate(-0 25.130625 198.844847)">6</text>
     </g>
    </g>
    <g id="ytick_5">
     <g id="line2d_14">
      <g>
       <use xlink:href="#me8a63df878" x="32.130625" y="158.283547" style="fill: #ffffff; stroke: #ffffff; stroke-width: 0.8"/>
      </g>
     </g>
     <g id="text_15">
      <text style="font-size: 9px; font-family: 'DejaVu Sans', 'Liberation Sans', 'Noto Sans', 'FreeSans', sans-serif; text-anchor: end; fill: #ffffff" x="25.130625" y="161.702844" transform="rotate(-0 25.130625 161.702844)">8</text>
     </g>
    </g>
    <g id="ytick_6">
     <g id="line2d_15">
      <g>
       <use xlink:href="#me8a63df878" x="32.130625" y="121.141543" style="fill: #ffffff; stroke: #ffffff; stroke-width: 0.8"/>
      </g>
     </g>
     <g id="text_16">
      <text style="font-size: 9px; font-family: 'DejaVu Sans', 'Liberation Sans', 'Noto Sans', 'FreeSans', sans-serif; text-anchor: end; fill: #ffffff" x="25.130625" y="124.56084" transform="rotate(-0 25.130625 124.56084)">10</text>
     </g>
    </g>
    <g id="ytick_7">
     <g id="line2d_16">
      <g>
       <use xlink:href="#me8a63df878" x="32.130625" y="83.999539" style="fill: #ffffff; stroke: #ffffff; stroke-width: 0.8"/>
      </g>
     </g>
     <g id="text_17">
      <text style="font-size: 9px; font-family: 'DejaVu Sans', 'Liberation Sans', 'Noto Sans', 'FreeSans', sans-serif; text-anchor: end; fill: #ffffff" x="25.130625" y="87.418836" transform="rotate(-0 25.130625 87.418836)">12</text>
     </g>
    </g>
    <g id="ytick_8">
     <g id="line2d_17">
      <g>
       <use xlink:href="#me8a63df878" x="32.130625" y="46.857535" style="fill: #ffffff; stroke: #ffffff; stroke-width: 0.8"/>
      </g>
     </g>
     <g id="text_18">
      <text style="font-size: 9px; font-family: 'DejaVu Sans', 'Liberation Sans', 'Noto Sans', 'FreeSans', sans-serif; text-anchor: end; fill: #ffffff" x="25.130625" y="50.276832" transform="rotate(-0 25.130625 50.276832)">14</text>
     </g>
    </g>
    <g id="text_19">
     <text style="font-size: 10px; font-family: 'DejaVu Sans', 'Liberation Sans', 'Noto Sans', 'FreeSans', sans-serif; text-anchor: middle; fill: #ffffff" x="7.598438" y="160.604922" transform="rotate(-90 7.598438 160.604922)">Papers</text>
    </g>
   </g>
   <g id="line2d_18">
    <path d="M 70.126014 306.851562 
L 77.199624 306.851562 
L 80.736428 302.208812 
L 84.273233 303.137362 
L 87.810038 303.756396 
L 94.883648 304.530187 
L 98.420452 300.661229 
L 105.494062 301.786744 
L 109.030867 300.661229 
L 112.567672 296.018478 
L 116.104477 292.923311 
L 119.641281 292.923311 
L 123.178086 286.732977 
L 130.251696 286.732977 
L 133.788501 285.185394 
L 137.325305 285.185394 
L 140.86211 283.63781 
L 144.398915 278.99506 
L 151.472525 275.899893 
L 158.546134 282.090227 
L 162.082939 280.542643 
L 165.619744 282.090227 
L 169.156549 282.090227 
L 172.693354 274.352309 
L 176.230158 275.899893 
L 179.766963 275.899893 
L 183.303768 278.99506 
L 186.840573 280.542643 
L 190.377378 280.542643 
L 193.914183 272.804726 
L 197.450987 269.709559 
L 200.987792 268.161975 
L 204.524597 268.161975 
L 208.061402 274.352309 
L 211.598207 271.257142 
L 215.135011 272.804726 
L 218.671816 269.709559 
L 225.745426 269.709559 
L 229.282231 272.804726 
L 232.819035 269.709559 
L 236.35584 278.99506 
L 239.892645 280.542643 
L 246.966255 277.447476 
L 250.50306 269.709559 
L 254.039864 260.424058 
L 257.576669 261.971641 
L 261.113474 265.066808 
L 268.187084 265.066808 
L 271.723888 261.971641 
L 275.260693 257.328891 
L 278.797498 254.233724 
L 282.334303 252.68614 
L 285.871108 254.233724 
L 289.407913 252.68614 
L 292.944717 255.781307 
L 296.481522 265.066808 
L 300.018327 268.161975 
L 303.555132 265.066808 
L 307.091937 263.519225 
L 310.628741 258.876474 
L 314.165546 261.971641 
L 317.702351 269.709559 
L 321.239156 269.709559 
L 324.775961 271.257142 
L 328.312766 268.161975 
L 331.84957 272.804726 
L 335.386375 272.804726 
L 338.92318 268.161975 
L 342.459985 266.614392 
L 345.99679 269.709559 
L 349.533594 268.161975 
L 353.070399 268.161975 
L 356.607204 263.519225 
L 360.144009 255.781307 
L 363.680814 249.590973 
L 367.217619 249.590973 
L 370.754423 248.04339 
L 374.291228 238.757889 
L 377.828033 232.567555 
L 381.364838 240.305472 
L 384.901643 231.019971 
L 388.438447 227.924804 
L 391.975252 229.472388 
L 395.512057 234.115138 
L 399.048862 234.115138 
L 402.585667 240.305472 
L 406.122472 243.400639 
L 409.659276 244.948223 
L 413.196081 249.590973 
L 416.732886 248.04339 
L 420.269691 257.328891 
L 423.806496 252.68614 
L 427.3433 255.781307 
L 430.880105 251.138557 
L 434.41691 249.590973 
L 437.953715 237.210305 
L 441.49052 240.305472 
L 445.027325 235.662722 
L 448.564129 234.115138 
L 452.100934 235.662722 
L 455.637739 226.377221 
L 459.174544 229.472388 
L 462.711349 231.019971 
L 466.248153 226.377221 
L 469.784958 231.019971 
L 473.321763 226.377221 
L 476.858568 227.924804 
L 480.395373 237.210305 
L 483.932178 237.210305 
L 487.468982 240.305472 
L 491.005787 244.948223 
L 494.542592 235.662722 
L 498.079397 240.305472 
L 501.616202 243.400639 
L 505.153006 240.305472 
L 508.689811 246.495806 
L 512.226616 243.400639 
L 515.763421 254.233724 
L 519.300226 255.781307 
L 522.837031 249.590973 
L 526.373835 241.853056 
L 529.91064 241.853056 
L 533.447445 235.662722 
L 536.98425 240.305472 
L 540.521055 237.210305 
L 544.057859 235.662722 
L 547.594664 232.567555 
L 551.131469 232.567555 
L 554.668274 226.377221 
L 558.205079 218.639303 
L 561.741884 213.996553 
L 565.278688 217.09172 
L 568.815493 213.996553 
L 572.352298 209.353802 
L 579.425908 212.448969 
L 582.962712 221.73447 
L 586.499517 217.09172 
L 593.573127 210.901386 
L 597.109932 215.544136 
L 600.646737 221.73447 
L 604.183541 224.829637 
L 607.720346 226.377221 
L 611.257151 237.210305 
L 618.330761 237.210305 
L 621.867565 224.829637 
L 625.40437 223.282054 
L 628.941175 231.019971 
L 632.47798 231.019971 
L 636.014785 224.829637 
L 639.55159 226.377221 
L 643.088394 223.282054 
L 646.625199 217.09172 
L 650.162004 212.448969 
L 653.698809 206.258635 
L 657.235614 206.258635 
L 660.772418 210.901386 
L 664.309223 212.448969 
L 667.846028 206.258635 
L 671.382833 190.7828 
L 674.919638 189.235217 
L 678.456442 195.425551 
L 681.993247 196.973134 
L 685.530052 193.877967 
L 689.066857 195.425551 
L 692.603662 204.711052 
L 696.140467 207.806219 
L 699.677271 215.544136 
L 703.214076 220.186887 
L 706.750881 229.472388 
L 710.287686 232.567555 
L 713.824491 243.400639 
L 717.361295 249.590973 
L 720.8981 243.400639 
L 724.434905 243.400639 
L 727.97171 251.138557 
L 731.508515 249.590973 
L 735.04532 243.400639 
L 738.582124 234.115138 
L 742.118929 231.019971 
L 745.655734 213.996553 
L 749.192539 204.711052 
L 752.729344 204.711052 
L 756.266148 201.615885 
L 759.802953 203.163468 
L 763.339758 207.806219 
L 766.876563 204.711052 
L 773.950173 192.330384 
L 777.486977 190.7828 
L 781.023782 193.877967 
L 784.560587 193.877967 
L 788.097392 187.687633 
L 791.634197 198.520718 
L 795.171001 193.877967 
L 798.707806 195.425551 
L 802.244611 195.425551 
L 802.244611 195.425551 
" clip-path="url(#p0c9339d08a)" style="fill: none; stroke: #f72585; stroke-width: 2; stroke-linecap: square"/>
   </g>
   <g id="patch_211">
    <path d="M 32.130625 306.851562 
L 32.130625 14.358281 
" style="fill: none; stroke: #ffffff; stroke-width: 0.8; stroke-linejoin: miter; stroke-linecap: square"/>
   </g>
   <g id="patch_212">
    <path d="M 32.130625 306.851562 
L 840.24 306.851562 
" style="fill: none; stroke: #ffffff; stroke-width: 0.8; stroke-linejoin: miter; stroke-linecap: square"/>
   </g>
   <g id="text_20">
    <text style="font-size: 11px; font-family: 'DejaVu Sans', 'Liberation Sans', 'Noto Sans', 'FreeSans', sans-serif; text-anchor: middle; fill: #ffffff" x="436.185312" y="8.358281" transform="rotate(-0 436.185312 8.358281)">Papers shared per week</text>
   </g>
   <g id="legend_1">
    <g id="line2d_19">
     <path d="M 40.230625 26.146875 
L 49.230625 26.146875 
L 58.230625 26.146875 
" style="fill: none; stroke: #f72585; stroke-width: 2; stroke-linecap: square"/>
    </g>
    <g id="text_21">
     <text style="font-size: 9px; font-family: 'DejaVu Sans', 'Liberation Sans', 'Noto Sans', 'FreeSans', sans-serif; text-anchor: start; fill: #ffffff" x="65.430625" y="29.296875" transform="rotate(-0 65.430625 29.296875)">3-month average</text>
    </g>
    <g id="patch_213">
     <path d="M 40.230625 42.507187 
L 58.230625 42.507187 
L 58.230625 36.207187 
L 40.230625 36.207187 
z
" style="fill: #4361ee; opacity: 0.45"/>
    </g>
    <g id="text_22">
     <text style="font-size: 9px; font-family: 'DejaVu Sans', 'Liberation Sans', 'Noto Sans', 'FreeSans', sans-serif; text-anchor: start; fill: #ffffff" x="65.430625" y="42.507187" transform="rotate(-0 65.430625 42.507187)">Papers per week</text>
    </g>
   </g>
  </g>
 </g>
 <defs>
  <clipPath id="p0c9339d08a">
   <rect x="32.130625" y="14.358281" width="808.109375" height="292.493281"/>
  </clipPath>
 </defs>
</svg>
