<?xml version="1.0" encoding="utf-8" standalone="no"?>
<!DOCTYPE svg PUBLIC "-//W3C//DTD SVG 1.1//EN"
  "http://www.w3.org/Graphics/SVG/1.1/DTD/svg11.dtd">
<svg xmlns:xlink="http://www.w3.org/1999/xlink" width="840.123892pt" height="336.24pt" viewBox="0 0 840.123892 336.24" xmlns="http://www.w3.org/2000/svg" version="1.1">
 <metadata>
  <rdf:RDF xmlns:dc="http://purl.org/dc/elements/1.1/" xmlns:cc="http://creativecommons.org/ns#" xmlns:rdf="http://www.w3.org/1999/02/22-rdf-syntax-ns#">
   <cc:Work>
    <dc:type rdf:resource="http://purl.org/dc/dcmitype/StillImage"/>
    <dc:date>2026-06-07T21:30:08.239594</dc:date>
    <dc:format>image/svg+xml</dc:format>
    <dc:creator>
     <cc:Agent>
      <dc:title>Matplotlib v3.10.9, https://matplotlib.org/</dc:title>
     </cc:Agent>
    </dc:creator>
   </cc:Work>
  </rdf:RDF>
 </metadata>
 <defs>
  <style type="text/css">*{stroke-linejoin: round; stroke-linecap: butt}</style>
 </defs>
 <g id="figure_1">
  <g id="patch_1">
   <path d="M 0 336.24 
L 840.123892 336.24 
L 840.123892 0 
L 0 0 
L 0 336.24 
z
" style="fill: none"/>
  </g>
  <g id="axes_1">
   <g id="patch_2">
    <path d="M 32.130625 306.851562 
L 840.123892 306.851562 
L 840.123892 16.637812 
L 32.130625 16.637812 
L 32.130625 306.851562 
z
" style="fill: none"/>
   </g>
   <g id="patch_3">
    <path d="M 68.857592 306.851562 
L 71.458652 306.851562 
L 71.458652 306.851562 
L 68.857592 306.851562 
z
" clip-path="url(#pbed1259297)" style="fill: #4361ee; opacity: 0.45"/>
   </g>
   <g id="patch_4">
    <path d="M 72.499076 306.851562 
L 75.100136 306.851562 
L 75.100136 306.851562 
L 72.499076 306.851562 
z
" clip-path="url(#pbed1259297)" style="fill: #4361ee; opacity: 0.45"/>
   </g>
   <g id="patch_5">
    <path d="M 76.14056 306.851562 
L 78.74162 306.851562 
L 78.74162 306.851562 
L 76.14056 306.851562 
z
" clip-path="url(#pbed1259297)" style="fill: #4361ee; opacity: 0.45"/>
   </g>
   <g id="patch_6">
    <path d="M 79.782043 306.851562 
L 82.383103 306.851562 
L 82.383103 283.818725 
L 79.782043 283.818725 
z
" clip-path="url(#pbed1259297)" style="fill: #4361ee; opacity: 0.45"/>
   </g>
   <g id="patch_7">
    <path d="M 83.423527 306.851562 
L 86.024587 306.851562 
L 86.024587 306.851562 
L 83.423527 306.851562 
z
" clip-path="url(#pbed1259297)" style="fill: #4361ee; opacity: 0.45"/>
   </g>
   <g id="patch_8">
    <path d="M 87.065011 306.851562 
L 89.666071 306.851562 
L 89.666071 306.851562 
L 87.065011 306.851562 
z
" clip-path="url(#pbed1259297)" style="fill: #4361ee; opacity: 0.45"/>
   </g>
   <g id="patch_9">
    <path d="M 90.706495 306.851562 
L 93.307555 306.851562 
L 93.307555 306.851562 
L 90.706495 306.851562 
z
" clip-path="url(#pbed1259297)" style="fill: #4361ee; opacity: 0.45"/>
   </g>
   <g id="patch_10">
    <path d="M 94.347979 306.851562 
L 96.949039 306.851562 
L 96.949039 306.851562 
L 94.347979 306.851562 
z
" clip-path="url(#pbed1259297)" style="fill: #4361ee; opacity: 0.45"/>
   </g>
   <g id="patch_11">
    <path d="M 97.989463 306.851562 
L 100.590523 306.851562 
L 100.590523 260.785888 
L 97.989463 260.785888 
z
" clip-path="url(#pbed1259297)" style="fill: #4361ee; opacity: 0.45"/>
   </g>
   <g id="patch_12">
    <path d="M 101.630947 306.851562 
L 104.232007 306.851562 
L 104.232007 306.851562 
L 101.630947 306.851562 
z
" clip-path="url(#pbed1259297)" style="fill: #4361ee; opacity: 0.45"/>
   </g>
   <g id="patch_13">
    <path d="M 105.272431 306.851562 
L 107.873491 306.851562 
L 107.873491 306.851562 
L 105.272431 306.851562 
z
" clip-path="url(#pbed1259297)" style="fill: #4361ee; opacity: 0.45"/>
   </g>
   <g id="patch_14">
    <path d="M 108.913915 306.851562 
L 111.514975 306.851562 
L 111.514975 283.818725 
L 108.913915 283.818725 
z
" clip-path="url(#pbed1259297)" style="fill: #4361ee; opacity: 0.45"/>
   </g>
   <g id="patch_15">
    <path d="M 112.555399 306.851562 
L 115.156459 306.851562 
L 115.156459 237.753051 
L 112.555399 237.753051 
z
" clip-path="url(#pbed1259297)" style="fill: #4361ee; opacity: 0.45"/>
   </g>
   <g id="patch_16">
    <path d="M 116.196883 306.851562 
L 118.797943 306.851562 
L 118.797943 260.785888 
L 116.196883 260.785888 
z
" clip-path="url(#pbed1259297)" style="fill: #4361ee; opacity: 0.45"/>
   </g>
   <g id="patch_17">
    <path d="M 119.838367 306.851562 
L 122.439427 306.851562 
L 122.439427 306.851562 
L 119.838367 306.851562 
z
" clip-path="url(#pbed1259297)" style="fill: #4361ee; opacity: 0.45"/>
   </g>
   <g id="patch_18">
    <path d="M 123.479851 306.851562 
L 126.080911 306.851562 
L 126.080911 191.687376 
L 123.479851 191.687376 
z
" clip-path="url(#pbed1259297)" style="fill: #4361ee; opacity: 0.45"/>
   </g>
   <g id="patch_19">
    <path d="M 127.121335 306.851562 
L 129.722395 306.851562 
L 129.722395 306.851562 
L 127.121335 306.851562 
z
" clip-path="url(#pbed1259297)" style="fill: #4361ee; opacity: 0.45"/>
   </g>
   <g id="patch_20">
    <path d="M 130.762819 306.851562 
L 133.363879 306.851562 
L 133.363879 306.851562 
L 130.762819 306.851562 
z
" clip-path="url(#pbed1259297)" style="fill: #4361ee; opacity: 0.45"/>
   </g>
   <g id="patch_21">
    <path d="M 134.404303 306.851562 
L 137.005363 306.851562 
L 137.005363 283.818725 
L 134.404303 283.818725 
z
" clip-path="url(#pbed1259297)" style="fill: #4361ee; opacity: 0.45"/>
   </g>
   <g id="patch_22">
    <path d="M 138.045787 306.851562 
L 140.646847 306.851562 
L 140.646847 306.851562 
L 138.045787 306.851562 
z
" clip-path="url(#pbed1259297)" style="fill: #4361ee; opacity: 0.45"/>
   </g>
   <g id="patch_23">
    <path d="M 141.687271 306.851562 
L 144.288331 306.851562 
L 144.288331 237.753051 
L 141.687271 237.753051 
z
" clip-path="url(#pbed1259297)" style="fill: #4361ee; opacity: 0.45"/>
   </g>
   <g id="patch_24">
    <path d="M 145.328755 306.851562 
L 147.929814 306.851562 
L 147.929814 237.753051 
L 145.328755 237.753051 
z
" clip-path="url(#pbed1259297)" style="fill: #4361ee; opacity: 0.45"/>
   </g>
   <g id="patch_25">
    <path d="M 148.970238 306.851562 
L 151.571298 306.851562 
L 151.571298 283.818725 
L 148.970238 283.818725 
z
" clip-path="url(#pbed1259297)" style="fill: #4361ee; opacity: 0.45"/>
   </g>
   <g id="patch_26">
    <path d="M 152.611722 306.851562 
L 155.212782 306.851562 
L 155.212782 260.785888 
L 152.611722 260.785888 
z
" clip-path="url(#pbed1259297)" style="fill: #4361ee; opacity: 0.45"/>
   </g>
   <g id="patch_27">
    <path d="M 156.253206 306.851562 
L 158.854266 306.851562 
L 158.854266 283.818725 
L 156.253206 283.818725 
z
" clip-path="url(#pbed1259297)" style="fill: #4361ee; opacity: 0.45"/>
   </g>
   <g id="patch_28">
    <path d="M 159.89469 306.851562 
L 162.49575 306.851562 
L 162.49575 306.851562 
L 159.89469 306.851562 
z
" clip-path="url(#pbed1259297)" style="fill: #4361ee; opacity: 0.45"/>
   </g>
   <g id="patch_29">
    <path d="M 163.536174 306.851562 
L 166.137234 306.851562 
L 166.137234 283.818725 
L 163.536174 283.818725 
z
" clip-path="url(#pbed1259297)" style="fill: #4361ee; opacity: 0.45"/>
   </g>
   <g id="patch_30">
    <path d="M 167.177658 306.851562 
L 169.778718 306.851562 
L 169.778718 237.753051 
L 167.177658 237.753051 
z
" clip-path="url(#pbed1259297)" style="fill: #4361ee; opacity: 0.45"/>
   </g>
   <g id="patch_31">
    <path d="M 170.819142 306.851562 
L 173.420202 306.851562 
L 173.420202 306.851562 
L 170.819142 306.851562 
z
" clip-path="url(#pbed1259297)" style="fill: #4361ee; opacity: 0.45"/>
   </g>
   <g id="patch_32">
    <path d="M 174.460626 306.851562 
L 177.061686 306.851562 
L 177.061686 191.687376 
L 174.460626 191.687376 
z
" clip-path="url(#pbed1259297)" style="fill: #4361ee; opacity: 0.45"/>
   </g>
   <g id="patch_33">
    <path d="M 178.10211 306.851562 
L 180.70317 306.851562 
L 180.70317 306.851562 
L 178.10211 306.851562 
z
" clip-path="url(#pbed1259297)" style="fill: #4361ee; opacity: 0.45"/>
   </g>
   <g id="patch_34">
    <path d="M 181.743594 306.851562 
L 184.344654 306.851562 
L 184.344654 306.851562 
L 181.743594 306.851562 
z
" clip-path="url(#pbed1259297)" style="fill: #4361ee; opacity: 0.45"/>
   </g>
   <g id="patch_35">
    <path d="M 185.385078 306.851562 
L 187.986138 306.851562 
L 187.986138 283.818725 
L 185.385078 283.818725 
z
" clip-path="url(#pbed1259297)" style="fill: #4361ee; opacity: 0.45"/>
   </g>
   <g id="patch_36">
    <path d="M 189.026562 306.851562 
L 191.627622 306.851562 
L 191.627622 260.785888 
L 189.026562 260.785888 
z
" clip-path="url(#pbed1259297)" style="fill: #4361ee; opacity: 0.45"/>
   </g>
   <g id="patch_37">
    <path d="M 192.668046 306.851562 
L 195.269106 306.851562 
L 195.269106 283.818725 
L 192.668046 283.818725 
z
" clip-path="url(#pbed1259297)" style="fill: #4361ee; opacity: 0.45"/>
   </g>
   <g id="patch_38">
    <path d="M 196.30953 306.851562 
L 198.91059 306.851562 
L 198.91059 145.621701 
L 196.30953 145.621701 
z
" clip-path="url(#pbed1259297)" style="fill: #4361ee; opacity: 0.45"/>
   </g>
   <g id="patch_39">
    <path d="M 199.951014 306.851562 
L 202.552074 306.851562 
L 202.552074 237.753051 
L 199.951014 237.753051 
z
" clip-path="url(#pbed1259297)" style="fill: #4361ee; opacity: 0.45"/>
   </g>
   <g id="patch_40">
    <path d="M 203.592498 306.851562 
L 206.193558 306.851562 
L 206.193558 283.818725 
L 203.592498 283.818725 
z
" clip-path="url(#pbed1259297)" style="fill: #4361ee; opacity: 0.45"/>
   </g>
   <g id="patch_41">
    <path d="M 207.233982 306.851562 
L 209.835042 306.851562 
L 209.835042 283.818725 
L 207.233982 283.818725 
z
" clip-path="url(#pbed1259297)" style="fill: #4361ee; opacity: 0.45"/>
   </g>
   <g id="patch_42">
    <path d="M 210.875466 306.851562 
L 213.476526 306.851562 
L 213.476526 306.851562 
L 210.875466 306.851562 
z
" clip-path="url(#pbed1259297)" style="fill: #4361ee; opacity: 0.45"/>
   </g>
   <g id="patch_43">
    <path d="M 214.51695 306.851562 
L 217.118009 306.851562 
L 217.118009 260.785888 
L 214.51695 260.785888 
z
" clip-path="url(#pbed1259297)" style="fill: #4361ee; opacity: 0.45"/>
   </g>
   <g id="patch_44">
    <path d="M 218.158433 306.851562 
L 220.759493 306.851562 
L 220.759493 237.753051 
L 218.158433 237.753051 
z
" clip-path="url(#pbed1259297)" style="fill: #4361ee; opacity: 0.45"/>
   </g>
   <g id="patch_45">
    <path d="M 221.799917 306.851562 
L 224.400977 306.851562 
L 224.400977 260.785888 
L 221.799917 260.785888 
z
" clip-path="url(#pbed1259297)" style="fill: #4361ee; opacity: 0.45"/>
   </g>
   <g id="patch_46">
    <path d="M 225.441401 306.851562 
L 228.042461 306.851562 
L 228.042461 306.851562 
L 225.441401 306.851562 
z
" clip-path="url(#pbed1259297)" style="fill: #4361ee; opacity: 0.45"/>
   </g>
   <g id="patch_47">
    <path d="M 229.082885 306.851562 
L 231.683945 306.851562 
L 231.683945 283.818725 
L 229.082885 283.818725 
z
" clip-path="url(#pbed1259297)" style="fill: #4361ee; opacity: 0.45"/>
   </g>
   <g id="patch_48">
    <path d="M 232.724369 306.851562 
L 235.325429 306.851562 
L 235.325429 306.851562 
L 232.724369 306.851562 
z
" clip-path="url(#pbed1259297)" style="fill: #4361ee; opacity: 0.45"/>
   </g>
   <g id="patch_49">
    <path d="M 236.365853 306.851562 
L 238.966913 306.851562 
L 238.966913 237.753051 
L 236.365853 237.753051 
z
" clip-path="url(#pbed1259297)" style="fill: #4361ee; opacity: 0.45"/>
   </g>
   <g id="patch_50">
    <path d="M 240.007337 306.851562 
L 242.608397 306.851562 
L 242.608397 283.818725 
L 240.007337 283.818725 
z
" clip-path="url(#pbed1259297)" style="fill: #4361ee; opacity: 0.45"/>
   </g>
   <g id="patch_51">
    <path d="M 243.648821 306.851562 
L 246.249881 306.851562 
L 246.249881 260.785888 
L 243.648821 260.785888 
z
" clip-path="url(#pbed1259297)" style="fill: #4361ee; opacity: 0.45"/>
   </g>
   <g id="patch_52">
    <path d="M 247.290305 306.851562 
L 249.891365 306.851562 
L 249.891365 260.785888 
L 247.290305 260.785888 
z
" clip-path="url(#pbed1259297)" style="fill: #4361ee; opacity: 0.45"/>
   </g>
   <g id="patch_53">
    <path d="M 250.931789 306.851562 
L 253.532849 306.851562 
L 253.532849 260.785888 
L 250.931789 260.785888 
z
" clip-path="url(#pbed1259297)" style="fill: #4361ee; opacity: 0.45"/>
   </g>
   <g id="patch_54">
    <path d="M 254.573273 306.851562 
L 257.174333 306.851562 
L 257.174333 191.687376 
L 254.573273 191.687376 
z
" clip-path="url(#pbed1259297)" style="fill: #4361ee; opacity: 0.45"/>
   </g>
   <g id="patch_55">
    <path d="M 258.214757 306.851562 
L 260.815817 306.851562 
L 260.815817 122.588864 
L 258.214757 122.588864 
z
" clip-path="url(#pbed1259297)" style="fill: #4361ee; opacity: 0.45"/>
   </g>
   <g id="patch_56">
    <path d="M 261.856241 306.851562 
L 264.457301 306.851562 
L 264.457301 237.753051 
L 261.856241 237.753051 
z
" clip-path="url(#pbed1259297)" style="fill: #4361ee; opacity: 0.45"/>
   </g>
   <g id="patch_57">
    <path d="M 265.497725 306.851562 
L 268.098785 306.851562 
L 268.098785 306.851562 
L 265.497725 306.851562 
z
" clip-path="url(#pbed1259297)" style="fill: #4361ee; opacity: 0.45"/>
   </g>
   <g id="patch_58">
    <path d="M 269.139209 306.851562 
L 271.740269 306.851562 
L 271.740269 306.851562 
L 269.139209 306.851562 
z
" clip-path="url(#pbed1259297)" style="fill: #4361ee; opacity: 0.45"/>
   </g>
   <g id="patch_59">
    <path d="M 272.780693 306.851562 
L 275.381753 306.851562 
L 275.381753 283.818725 
L 272.780693 283.818725 
z
" clip-path="url(#pbed1259297)" style="fill: #4361ee; opacity: 0.45"/>
   </g>
   <g id="patch_60">
    <path d="M 276.422177 306.851562 
L 279.023237 306.851562 
L 279.023237 260.785888 
L 276.422177 260.785888 
z
" clip-path="url(#pbed1259297)" style="fill: #4361ee; opacity: 0.45"/>
   </g>
   <g id="patch_61">
    <path d="M 280.063661 306.851562 
L 282.664721 306.851562 
L 282.664721 168.654539 
L 280.063661 168.654539 
z
" clip-path="url(#pbed1259297)" style="fill: #4361ee; opacity: 0.45"/>
   </g>
   <g id="patch_62">
    <path d="M 283.705144 306.851562 
L 286.306204 306.851562 
L 286.306204 237.753051 
L 283.705144 237.753051 
z
" clip-path="url(#pbed1259297)" style="fill: #4361ee; opacity: 0.45"/>
   </g>
   <g id="patch_63">
    <path d="M 287.346628 306.851562 
L 289.947688 306.851562 
L 289.947688 237.753051 
L 287.346628 237.753051 
z
" clip-path="url(#pbed1259297)" style="fill: #4361ee; opacity: 0.45"/>
   </g>
   <g id="patch_64">
    <path d="M 290.988112 306.851562 
L 293.589172 306.851562 
L 293.589172 283.818725 
L 290.988112 283.818725 
z
" clip-path="url(#pbed1259297)" style="fill: #4361ee; opacity: 0.45"/>
   </g>
   <g id="patch_65">
    <path d="M 294.629596 306.851562 
L 297.230656 306.851562 
L 297.230656 237.753051 
L 294.629596 237.753051 
z
" clip-path="url(#pbed1259297)" style="fill: #4361ee; opacity: 0.45"/>
   </g>
   <g id="patch_66">
    <path d="M 298.27108 306.851562 
L 300.87214 306.851562 
L 300.87214 237.753051 
L 298.27108 237.753051 
z
" clip-path="url(#pbed1259297)" style="fill: #4361ee; opacity: 0.45"/>
   </g>
   <g id="patch_67">
    <path d="M 301.912564 306.851562 
L 304.513624 306.851562 
L 304.513624 260.785888 
L 301.912564 260.785888 
z
" clip-path="url(#pbed1259297)" style="fill: #4361ee; opacity: 0.45"/>
   </g>
   <g id="patch_68">
    <path d="M 305.554048 306.851562 
L 308.155108 306.851562 
L 308.155108 283.818725 
L 305.554048 283.818725 
z
" clip-path="url(#pbed1259297)" style="fill: #4361ee; opacity: 0.45"/>
   </g>
   <g id="patch_69">
    <path d="M 309.195532 306.851562 
L 311.796592 306.851562 
L 311.796592 260.785888 
L 309.195532 260.785888 
z
" clip-path="url(#pbed1259297)" style="fill: #4361ee; opacity: 0.45"/>
   </g>
   <g id="patch_70">
    <path d="M 312.837016 306.851562 
L 315.438076 306.851562 
L 315.438076 283.818725 
L 312.837016 283.818725 
z
" clip-path="url(#pbed1259297)" style="fill: #4361ee; opacity: 0.45"/>
   </g>
   <g id="patch_71">
    <path d="M 316.4785 306.851562 
L 319.07956 306.851562 
L 319.07956 214.720213 
L 316.4785 214.720213 
z
" clip-path="url(#pbed1259297)" style="fill: #4361ee; opacity: 0.45"/>
   </g>
   <g id="patch_72">
    <path d="M 320.119984 306.851562 
L 322.721044 306.851562 
L 322.721044 306.851562 
L 320.119984 306.851562 
z
" clip-path="url(#pbed1259297)" style="fill: #4361ee; opacity: 0.45"/>
   </g>
   <g id="patch_73">
    <path d="M 323.761468 306.851562 
L 326.362528 306.851562 
L 326.362528 283.818725 
L 323.761468 283.818725 
z
" clip-path="url(#pbed1259297)" style="fill: #4361ee; opacity: 0.45"/>
   </g>
   <g id="patch_74">
    <path d="M 327.402952 306.851562 
L 330.004012 306.851562 
L 330.004012 237.753051 
L 327.402952 237.753051 
z
" clip-path="url(#pbed1259297)" style="fill: #4361ee; opacity: 0.45"/>
   </g>
   <g id="patch_75">
    <path d="M 331.044436 306.851562 
L 333.645496 306.851562 
L 333.645496 260.785888 
L 331.044436 260.785888 
z
" clip-path="url(#pbed1259297)" style="fill: #4361ee; opacity: 0.45"/>
   </g>
   <g id="patch_76">
    <path d="M 334.68592 306.851562 
L 337.28698 306.851562 
L 337.28698 237.753051 
L 334.68592 237.753051 
z
" clip-path="url(#pbed1259297)" style="fill: #4361ee; opacity: 0.45"/>
   </g>
   <g id="patch_77">
    <path d="M 338.327404 306.851562 
L 340.928464 306.851562 
L 340.928464 306.851562 
L 338.327404 306.851562 
z
" clip-path="url(#pbed1259297)" style="fill: #4361ee; opacity: 0.45"/>
   </g>
   <g id="patch_78">
    <path d="M 341.968888 306.851562 
L 344.569948 306.851562 
L 344.569948 237.753051 
L 341.968888 237.753051 
z
" clip-path="url(#pbed1259297)" style="fill: #4361ee; opacity: 0.45"/>
   </g>
   <g id="patch_79">
    <path d="M 345.610372 306.851562 
L 348.211432 306.851562 
L 348.211432 191.687376 
L 345.610372 191.687376 
z
" clip-path="url(#pbed1259297)" style="fill: #4361ee; opacity: 0.45"/>
   </g>
   <g id="patch_80">
    <path d="M 349.251856 306.851562 
L 351.852915 306.851562 
L 351.852915 260.785888 
L 349.251856 260.785888 
z
" clip-path="url(#pbed1259297)" style="fill: #4361ee; opacity: 0.45"/>
   </g>
   <g id="patch_81">
    <path d="M 352.893339 306.851562 
L 355.494399 306.851562 
L 355.494399 306.851562 
L 352.893339 306.851562 
z
" clip-path="url(#pbed1259297)" style="fill: #4361ee; opacity: 0.45"/>
   </g>
   <g id="patch_82">
    <path d="M 356.534823 306.851562 
L 359.135883 306.851562 
L 359.135883 260.785888 
L 356.534823 260.785888 
z
" clip-path="url(#pbed1259297)" style="fill: #4361ee; opacity: 0.45"/>
   </g>
   <g id="patch_83">
    <path d="M 360.176307 306.851562 
L 362.777367 306.851562 
L 362.777367 214.720213 
L 360.176307 214.720213 
z
" clip-path="url(#pbed1259297)" style="fill: #4361ee; opacity: 0.45"/>
   </g>
   <g id="patch_84">
    <path d="M 363.817791 306.851562 
L 366.418851 306.851562 
L 366.418851 237.753051 
L 363.817791 237.753051 
z
" clip-path="url(#pbed1259297)" style="fill: #4361ee; opacity: 0.45"/>
   </g>
   <g id="patch_85">
    <path d="M 367.459275 306.851562 
L 370.060335 306.851562 
L 370.060335 168.654539 
L 367.459275 168.654539 
z
" clip-path="url(#pbed1259297)" style="fill: #4361ee; opacity: 0.45"/>
   </g>
   <g id="patch_86">
    <path d="M 371.100759 306.851562 
L 373.701819 306.851562 
L 373.701819 145.621701 
L 371.100759 145.621701 
z
" clip-path="url(#pbed1259297)" style="fill: #4361ee; opacity: 0.45"/>
   </g>
   <g id="patch_87">
    <path d="M 374.742243 306.851562 
L 377.343303 306.851562 
L 377.343303 260.785888 
L 374.742243 260.785888 
z
" clip-path="url(#pbed1259297)" style="fill: #4361ee; opacity: 0.45"/>
   </g>
   <g id="patch_88">
    <path d="M 378.383727 306.851562 
L 380.984787 306.851562 
L 380.984787 214.720213 
L 378.383727 214.720213 
z
" clip-path="url(#pbed1259297)" style="fill: #4361ee; opacity: 0.45"/>
   </g>
   <g id="patch_89">
    <path d="M 382.025211 306.851562 
L 384.626271 306.851562 
L 384.626271 168.654539 
L 382.025211 168.654539 
z
" clip-path="url(#pbed1259297)" style="fill: #4361ee; opacity: 0.45"/>
   </g>
   <g id="patch_90">
    <path d="M 385.666695 306.851562 
L 388.267755 306.851562 
L 388.267755 145.621701 
L 385.666695 145.621701 
z
" clip-path="url(#pbed1259297)" style="fill: #4361ee; opacity: 0.45"/>
   </g>
   <g id="patch_91">
    <path d="M 389.308179 306.851562 
L 391.909239 306.851562 
L 391.909239 306.851562 
L 389.308179 306.851562 
z
" clip-path="url(#pbed1259297)" style="fill: #4361ee; opacity: 0.45"/>
   </g>
   <g id="patch_92">
    <path d="M 392.949663 306.851562 
L 395.550723 306.851562 
L 395.550723 122.588864 
L 392.949663 122.588864 
z
" clip-path="url(#pbed1259297)" style="fill: #4361ee; opacity: 0.45"/>
   </g>
   <g id="patch_93">
    <path d="M 396.591147 306.851562 
L 399.192207 306.851562 
L 399.192207 260.785888 
L 396.591147 260.785888 
z
" clip-path="url(#pbed1259297)" style="fill: #4361ee; opacity: 0.45"/>
   </g>
   <g id="patch_94">
    <path d="M 400.232631 306.851562 
L 402.833691 306.851562 
L 402.833691 283.818725 
L 400.232631 283.818725 
z
" clip-path="url(#pbed1259297)" style="fill: #4361ee; opacity: 0.45"/>
   </g>
   <g id="patch_95">
    <path d="M 403.874115 306.851562 
L 406.475175 306.851562 
L 406.475175 283.818725 
L 403.874115 283.818725 
z
" clip-path="url(#pbed1259297)" style="fill: #4361ee; opacity: 0.45"/>
   </g>
   <g id="patch_96">
    <path d="M 407.515599 306.851562 
L 410.116659 306.851562 
L 410.116659 237.753051 
L 407.515599 237.753051 
z
" clip-path="url(#pbed1259297)" style="fill: #4361ee; opacity: 0.45"/>
   </g>
   <g id="patch_97">
    <path d="M 411.157083 306.851562 
L 413.758143 306.851562 
L 413.758143 260.785888 
L 411.157083 260.785888 
z
" clip-path="url(#pbed1259297)" style="fill: #4361ee; opacity: 0.45"/>
   </g>
   <g id="patch_98">
    <path d="M 414.798567 306.851562 
L 417.399627 306.851562 
L 417.399627 191.687376 
L 414.798567 191.687376 
z
" clip-path="url(#pbed1259297)" style="fill: #4361ee; opacity: 0.45"/>
   </g>
   <g id="patch_99">
    <path d="M 418.440051 306.851562 
L 421.04111 306.851562 
L 421.04111 283.818725 
L 418.440051 283.818725 
z
" clip-path="url(#pbed1259297)" style="fill: #4361ee; opacity: 0.45"/>
   </g>
   <g id="patch_100">
    <path d="M 422.081534 306.851562 
L 424.682594 306.851562 
L 424.682594 283.818725 
L 422.081534 283.818725 
z
" clip-path="url(#pbed1259297)" style="fill: #4361ee; opacity: 0.45"/>
   </g>
   <g id="patch_101">
    <path d="M 425.723018 306.851562 
L 428.324078 306.851562 
L 428.324078 145.621701 
L 425.723018 145.621701 
z
" clip-path="url(#pbed1259297)" style="fill: #4361ee; opacity: 0.45"/>
   </g>
   <g id="patch_102">
    <path d="M 429.364502 306.851562 
L 431.965562 306.851562 
L 431.965562 283.818725 
L 429.364502 283.818725 
z
" clip-path="url(#pbed1259297)" style="fill: #4361ee; opacity: 0.45"/>
   </g>
   <g id="patch_103">
    <path d="M 433.005986 306.851562 
L 435.607046 306.851562 
L 435.607046 237.753051 
L 433.005986 237.753051 
z
" clip-path="url(#pbed1259297)" style="fill: #4361ee; opacity: 0.45"/>
   </g>
   <g id="patch_104">
    <path d="M 436.64747 306.851562 
L 439.24853 306.851562 
L 439.24853 168.654539 
L 436.64747 168.654539 
z
" clip-path="url(#pbed1259297)" style="fill: #4361ee; opacity: 0.45"/>
   </g>
   <g id="patch_105">
    <path d="M 440.288954 306.851562 
L 442.890014 306.851562 
L 442.890014 191.687376 
L 440.288954 191.687376 
z
" clip-path="url(#pbed1259297)" style="fill: #4361ee; opacity: 0.45"/>
   </g>
   <g id="patch_106">
    <path d="M 443.930438 306.851562 
L 446.531498 306.851562 
L 446.531498 260.785888 
L 443.930438 260.785888 
z
" clip-path="url(#pbed1259297)" style="fill: #4361ee; opacity: 0.45"/>
   </g>
   <g id="patch_107">
    <path d="M 447.571922 306.851562 
L 450.172982 306.851562 
L 450.172982 99.556027 
L 447.571922 99.556027 
z
" clip-path="url(#pbed1259297)" style="fill: #4361ee; opacity: 0.45"/>
   </g>
   <g id="patch_108">
    <path d="M 451.213406 306.851562 
L 453.814466 306.851562 
L 453.814466 283.818725 
L 451.213406 283.818725 
z
" clip-path="url(#pbed1259297)" style="fill: #4361ee; opacity: 0.45"/>
   </g>
   <g id="patch_109">
    <path d="M 454.85489 306.851562 
L 457.45595 306.851562 
L 457.45595 191.687376 
L 454.85489 191.687376 
z
" clip-path="url(#pbed1259297)" style="fill: #4361ee; opacity: 0.45"/>
   </g>
   <g id="patch_110">
    <path d="M 458.496374 306.851562 
L 461.097434 306.851562 
L 461.097434 168.654539 
L 458.496374 168.654539 
z
" clip-path="url(#pbed1259297)" style="fill: #4361ee; opacity: 0.45"/>
   </g>
   <g id="patch_111">
    <path d="M 462.137858 306.851562 
L 464.738918 306.851562 
L 464.738918 306.851562 
L 462.137858 306.851562 
z
" clip-path="url(#pbed1259297)" style="fill: #4361ee; opacity: 0.45"/>
   </g>
   <g id="patch_112">
    <path d="M 465.779342 306.851562 
L 468.380402 306.851562 
L 468.380402 145.621701 
L 465.779342 145.621701 
z
" clip-path="url(#pbed1259297)" style="fill: #4361ee; opacity: 0.45"/>
   </g>
   <g id="patch_113">
    <path d="M 469.420826 306.851562 
L 472.021886 306.851562 
L 472.021886 191.687376 
L 469.420826 191.687376 
z
" clip-path="url(#pbed1259297)" style="fill: #4361ee; opacity: 0.45"/>
   </g>
   <g id="patch_114">
    <path d="M 473.06231 306.851562 
L 475.66337 306.851562 
L 475.66337 306.851562 
L 473.06231 306.851562 
z
" clip-path="url(#pbed1259297)" style="fill: #4361ee; opacity: 0.45"/>
   </g>
   <g id="patch_115">
    <path d="M 476.703794 306.851562 
L 479.304854 306.851562 
L 479.304854 168.654539 
L 476.703794 168.654539 
z
" clip-path="url(#pbed1259297)" style="fill: #4361ee; opacity: 0.45"/>
   </g>
   <g id="patch_116">
    <path d="M 480.345278 306.851562 
L 482.946338 306.851562 
L 482.946338 237.753051 
L 480.345278 237.753051 
z
" clip-path="url(#pbed1259297)" style="fill: #4361ee; opacity: 0.45"/>
   </g>
   <g id="patch_117">
    <path d="M 483.986762 306.851562 
L 486.587822 306.851562 
L 486.587822 122.588864 
L 483.986762 122.588864 
z
" clip-path="url(#pbed1259297)" style="fill: #4361ee; opacity: 0.45"/>
   </g>
   <g id="patch_118">
    <path d="M 487.628245 306.851562 
L 490.229305 306.851562 
L 490.229305 283.818725 
L 487.628245 283.818725 
z
" clip-path="url(#pbed1259297)" style="fill: #4361ee; opacity: 0.45"/>
   </g>
   <g id="patch_119">
    <path d="M 491.269729 306.851562 
L 493.870789 306.851562 
L 493.870789 237.753051 
L 491.269729 237.753051 
z
" clip-path="url(#pbed1259297)" style="fill: #4361ee; opacity: 0.45"/>
   </g>
   <g id="patch_120">
    <path d="M 494.911213 306.851562 
L 497.512273 306.851562 
L 497.512273 283.818725 
L 494.911213 283.818725 
z
" clip-path="url(#pbed1259297)" style="fill: #4361ee; opacity: 0.45"/>
   </g>
   <g id="patch_121">
    <path d="M 498.552697 306.851562 
L 501.153757 306.851562 
L 501.153757 237.753051 
L 498.552697 237.753051 
z
" clip-path="url(#pbed1259297)" style="fill: #4361ee; opacity: 0.45"/>
   </g>
   <g id="patch_122">
    <path d="M 502.194181 306.851562 
L 504.795241 306.851562 
L 504.795241 237.753051 
L 502.194181 237.753051 
z
" clip-path="url(#pbed1259297)" style="fill: #4361ee; opacity: 0.45"/>
   </g>
   <g id="patch_123">
    <path d="M 505.835665 306.851562 
L 508.436725 306.851562 
L 508.436725 168.654539 
L 505.835665 168.654539 
z
" clip-path="url(#pbed1259297)" style="fill: #4361ee; opacity: 0.45"/>
   </g>
   <g id="patch_124">
    <path d="M 509.477149 306.851562 
L 512.078209 306.851562 
L 512.078209 214.720213 
L 509.477149 214.720213 
z
" clip-path="url(#pbed1259297)" style="fill: #4361ee; opacity: 0.45"/>
   </g>
   <g id="patch_125">
    <path d="M 513.118633 306.851562 
L 515.719693 306.851562 
L 515.719693 237.753051 
L 513.118633 237.753051 
z
" clip-path="url(#pbed1259297)" style="fill: #4361ee; opacity: 0.45"/>
   </g>
   <g id="patch_126">
    <path d="M 516.760117 306.851562 
L 519.361177 306.851562 
L 519.361177 260.785888 
L 516.760117 260.785888 
z
" clip-path="url(#pbed1259297)" style="fill: #4361ee; opacity: 0.45"/>
   </g>
   <g id="patch_127">
    <path d="M 520.401601 306.851562 
L 523.002661 306.851562 
L 523.002661 260.785888 
L 520.401601 260.785888 
z
" clip-path="url(#pbed1259297)" style="fill: #4361ee; opacity: 0.45"/>
   </g>
   <g id="patch_128">
    <path d="M 524.043085 306.851562 
L 526.644145 306.851562 
L 526.644145 191.687376 
L 524.043085 191.687376 
z
" clip-path="url(#pbed1259297)" style="fill: #4361ee; opacity: 0.45"/>
   </g>
   <g id="patch_129">
    <path d="M 527.684569 306.851562 
L 530.285629 306.851562 
L 530.285629 283.818725 
L 527.684569 283.818725 
z
" clip-path="url(#pbed1259297)" style="fill: #4361ee; opacity: 0.45"/>
   </g>
   <g id="patch_130">
    <path d="M 531.326053 306.851562 
L 533.927113 306.851562 
L 533.927113 306.851562 
L 531.326053 306.851562 
z
" clip-path="url(#pbed1259297)" style="fill: #4361ee; opacity: 0.45"/>
   </g>
   <g id="patch_131">
    <path d="M 534.967537 306.851562 
L 537.568597 306.851562 
L 537.568597 145.621701 
L 534.967537 145.621701 
z
" clip-path="url(#pbed1259297)" style="fill: #4361ee; opacity: 0.45"/>
   </g>
   <g id="patch_132">
    <path d="M 538.609021 306.851562 
L 541.210081 306.851562 
L 541.210081 168.654539 
L 538.609021 168.654539 
z
" clip-path="url(#pbed1259297)" style="fill: #4361ee; opacity: 0.45"/>
   </g>
   <g id="patch_133">
    <path d="M 542.250505 306.851562 
L 544.851565 306.851562 
L 544.851565 237.753051 
L 542.250505 237.753051 
z
" clip-path="url(#pbed1259297)" style="fill: #4361ee; opacity: 0.45"/>
   </g>
   <g id="patch_134">
    <path d="M 545.891989 306.851562 
L 548.493049 306.851562 
L 548.493049 145.621701 
L 545.891989 145.621701 
z
" clip-path="url(#pbed1259297)" style="fill: #4361ee; opacity: 0.45"/>
   </g>
   <g id="patch_135">
    <path d="M 549.533473 306.851562 
L 552.134533 306.851562 
L 552.134533 237.753051 
L 549.533473 237.753051 
z
" clip-path="url(#pbed1259297)" style="fill: #4361ee; opacity: 0.45"/>
   </g>
   <g id="patch_136">
    <path d="M 553.174957 306.851562 
L 555.776016 306.851562 
L 555.776016 168.654539 
L 553.174957 168.654539 
z
" clip-path="url(#pbed1259297)" style="fill: #4361ee; opacity: 0.45"/>
   </g>
   <g id="patch_137">
    <path d="M 556.81644 306.851562 
L 559.4175 306.851562 
L 559.4175 214.720213 
L 556.81644 214.720213 
z
" clip-path="url(#pbed1259297)" style="fill: #4361ee; opacity: 0.45"/>
   </g>
   <g id="patch_138">
    <path d="M 560.457924 306.851562 
L 563.058984 306.851562 
L 563.058984 214.720213 
L 560.457924 214.720213 
z
" clip-path="url(#pbed1259297)" style="fill: #4361ee; opacity: 0.45"/>
   </g>
   <g id="patch_139">
    <path d="M 564.099408 306.851562 
L 566.700468 306.851562 
L 566.700468 260.785888 
L 564.099408 260.785888 
z
" clip-path="url(#pbed1259297)" style="fill: #4361ee; opacity: 0.45"/>
   </g>
   <g id="patch_140">
    <path d="M 567.740892 306.851562 
L 570.341952 306.851562 
L 570.341952 99.556027 
L 567.740892 99.556027 
z
" clip-path="url(#pbed1259297)" style="fill: #4361ee; opacity: 0.45"/>
   </g>
   <g id="patch_141">
    <path d="M 571.382376 306.851562 
L 573.983436 306.851562 
L 573.983436 168.654539 
L 571.382376 168.654539 
z
" clip-path="url(#pbed1259297)" style="fill: #4361ee; opacity: 0.45"/>
   </g>
   <g id="patch_142">
    <path d="M 575.02386 306.851562 
L 577.62492 306.851562 
L 577.62492 237.753051 
L 575.02386 237.753051 
z
" clip-path="url(#pbed1259297)" style="fill: #4361ee; opacity: 0.45"/>
   </g>
   <g id="patch_143">
    <path d="M 578.665344 306.851562 
L 581.266404 306.851562 
L 581.266404 191.687376 
L 578.665344 191.687376 
z
" clip-path="url(#pbed1259297)" style="fill: #4361ee; opacity: 0.45"/>
   </g>
   <g id="patch_144">
    <path d="M 582.306828 306.851562 
L 584.907888 306.851562 
L 584.907888 122.588864 
L 582.306828 122.588864 
z
" clip-path="url(#pbed1259297)" style="fill: #4361ee; opacity: 0.45"/>
   </g>
   <g id="patch_145">
    <path d="M 585.948312 306.851562 
L 588.549372 306.851562 
L 588.549372 168.654539 
L 585.948312 168.654539 
z
" clip-path="url(#pbed1259297)" style="fill: #4361ee; opacity: 0.45"/>
   </g>
   <g id="patch_146">
    <path d="M 589.589796 306.851562 
L 592.190856 306.851562 
L 592.190856 168.654539 
L 589.589796 168.654539 
z
" clip-path="url(#pbed1259297)" style="fill: #4361ee; opacity: 0.45"/>
   </g>
   <g id="patch_147">
    <path d="M 593.23128 306.851562 
L 595.83234 306.851562 
L 595.83234 260.785888 
L 593.23128 260.785888 
z
" clip-path="url(#pbed1259297)" style="fill: #4361ee; opacity: 0.45"/>
   </g>
   <g id="patch_148">
    <path d="M 596.872764 306.851562 
L 599.473824 306.851562 
L 599.473824 306.851562 
L 596.872764 306.851562 
z
" clip-path="url(#pbed1259297)" style="fill: #4361ee; opacity: 0.45"/>
   </g>
   <g id="patch_149">
    <path d="M 600.514248 306.851562 
L 603.115308 306.851562 
L 603.115308 145.621701 
L 600.514248 145.621701 
z
" clip-path="url(#pbed1259297)" style="fill: #4361ee; opacity: 0.45"/>
   </g>
   <g id="patch_150">
    <path d="M 604.155732 306.851562 
L 606.756792 306.851562 
L 606.756792 168.654539 
L 604.155732 168.654539 
z
" clip-path="url(#pbed1259297)" style="fill: #4361ee; opacity: 0.45"/>
   </g>
   <g id="patch_151">
    <path d="M 607.797216 306.851562 
L 610.398276 306.851562 
L 610.398276 214.720213 
L 607.797216 214.720213 
z
" clip-path="url(#pbed1259297)" style="fill: #4361ee; opacity: 0.45"/>
   </g>
   <g id="patch_152">
    <path d="M 611.4387 306.851562 
L 614.03976 306.851562 
L 614.03976 168.654539 
L 611.4387 168.654539 
z
" clip-path="url(#pbed1259297)" style="fill: #4361ee; opacity: 0.45"/>
   </g>
   <g id="patch_153">
    <path d="M 615.080184 306.851562 
L 617.681244 306.851562 
L 617.681244 260.785888 
L 615.080184 260.785888 
z
" clip-path="url(#pbed1259297)" style="fill: #4361ee; opacity: 0.45"/>
   </g>
   <g id="patch_154">
    <path d="M 618.721668 306.851562 
L 621.322728 306.851562 
L 621.322728 283.818725 
L 618.721668 283.818725 
z
" clip-path="url(#pbed1259297)" style="fill: #4361ee; opacity: 0.45"/>
   </g>
   <g id="patch_155">
    <path d="M 622.363152 306.851562 
L 624.964211 306.851562 
L 624.964211 214.720213 
L 622.363152 214.720213 
z
" clip-path="url(#pbed1259297)" style="fill: #4361ee; opacity: 0.45"/>
   </g>
   <g id="patch_156">
    <path d="M 626.004635 306.851562 
L 628.605695 306.851562 
L 628.605695 283.818725 
L 626.004635 283.818725 
z
" clip-path="url(#pbed1259297)" style="fill: #4361ee; opacity: 0.45"/>
   </g>
   <g id="patch_157">
    <path d="M 629.646119 306.851562 
L 632.247179 306.851562 
L 632.247179 168.654539 
L 629.646119 168.654539 
z
" clip-path="url(#pbed1259297)" style="fill: #4361ee; opacity: 0.45"/>
   </g>
   <g id="patch_158">
    <path d="M 633.287603 306.851562 
L 635.888663 306.851562 
L 635.888663 168.654539 
L 633.287603 168.654539 
z
" clip-path="url(#pbed1259297)" style="fill: #4361ee; opacity: 0.45"/>
   </g>
   <g id="patch_159">
    <path d="M 636.929087 306.851562 
L 639.530147 306.851562 
L 639.530147 76.523189 
L 636.929087 76.523189 
z
" clip-path="url(#pbed1259297)" style="fill: #4361ee; opacity: 0.45"/>
   </g>
   <g id="patch_160">
    <path d="M 640.570571 306.851562 
L 643.171631 306.851562 
L 643.171631 283.818725 
L 640.570571 283.818725 
z
" clip-path="url(#pbed1259297)" style="fill: #4361ee; opacity: 0.45"/>
   </g>
   <g id="patch_161">
    <path d="M 644.212055 306.851562 
L 646.813115 306.851562 
L 646.813115 260.785888 
L 644.212055 260.785888 
z
" clip-path="url(#pbed1259297)" style="fill: #4361ee; opacity: 0.45"/>
   </g>
   <g id="patch_162">
    <path d="M 647.853539 306.851562 
L 650.454599 306.851562 
L 650.454599 168.654539 
L 647.853539 168.654539 
z
" clip-path="url(#pbed1259297)" style="fill: #4361ee; opacity: 0.45"/>
   </g>
   <g id="patch_163">
    <path d="M 651.495023 306.851562 
L 654.096083 306.851562 
L 654.096083 122.588864 
L 651.495023 122.588864 
z
" clip-path="url(#pbed1259297)" style="fill: #4361ee; opacity: 0.45"/>
   </g>
   <g id="patch_164">
    <path d="M 655.136507 306.851562 
L 657.737567 306.851562 
L 657.737567 191.687376 
L 655.136507 191.687376 
z
" clip-path="url(#pbed1259297)" style="fill: #4361ee; opacity: 0.45"/>
   </g>
   <g id="patch_165">
    <path d="M 658.777991 306.851562 
L 661.379051 306.851562 
L 661.379051 214.720213 
L 658.777991 214.720213 
z
" clip-path="url(#pbed1259297)" style="fill: #4361ee; opacity: 0.45"/>
   </g>
   <g id="patch_166">
    <path d="M 662.419475 306.851562 
L 665.020535 306.851562 
L 665.020535 191.687376 
L 662.419475 191.687376 
z
" clip-path="url(#pbed1259297)" style="fill: #4361ee; opacity: 0.45"/>
   </g>
   <g id="patch_167">
    <path d="M 666.060959 306.851562 
L 668.662019 306.851562 
L 668.662019 145.621701 
L 666.060959 145.621701 
z
" clip-path="url(#pbed1259297)" style="fill: #4361ee; opacity: 0.45"/>
   </g>
   <g id="patch_168">
    <path d="M 669.702443 306.851562 
L 672.303503 306.851562 
L 672.303503 191.687376 
L 669.702443 191.687376 
z
" clip-path="url(#pbed1259297)" style="fill: #4361ee; opacity: 0.45"/>
   </g>
   <g id="patch_169">
    <path d="M 673.343927 306.851562 
L 675.944987 306.851562 
L 675.944987 168.654539 
L 673.343927 168.654539 
z
" clip-path="url(#pbed1259297)" style="fill: #4361ee; opacity: 0.45"/>
   </g>
   <g id="patch_170">
    <path d="M 676.985411 306.851562 
L 679.586471 306.851562 
L 679.586471 237.753051 
L 676.985411 237.753051 
z
" clip-path="url(#pbed1259297)" style="fill: #4361ee; opacity: 0.45"/>
   </g>
   <g id="patch_171">
    <path d="M 680.626895 306.851562 
L 683.227955 306.851562 
L 683.227955 99.556027 
L 680.626895 99.556027 
z
" clip-path="url(#pbed1259297)" style="fill: #4361ee; opacity: 0.45"/>
   </g>
   <g id="patch_172">
    <path d="M 684.268379 306.851562 
L 686.869439 306.851562 
L 686.869439 191.687376 
L 684.268379 191.687376 
z
" clip-path="url(#pbed1259297)" style="fill: #4361ee; opacity: 0.45"/>
   </g>
   <g id="patch_173">
    <path d="M 687.909863 306.851562 
L 690.510923 306.851562 
L 690.510923 30.457515 
L 687.909863 30.457515 
z
" clip-path="url(#pbed1259297)" style="fill: #4361ee; opacity: 0.45"/>
   </g>
   <g id="patch_174">
    <path d="M 691.551346 306.851562 
L 694.152406 306.851562 
L 694.152406 145.621701 
L 691.551346 145.621701 
z
" clip-path="url(#pbed1259297)" style="fill: #4361ee; opacity: 0.45"/>
   </g>
   <g id="patch_175">
    <path d="M 695.19283 306.851562 
L 697.79389 306.851562 
L 697.79389 214.720213 
L 695.19283 214.720213 
z
" clip-path="url(#pbed1259297)" style="fill: #4361ee; opacity: 0.45"/>
   </g>
   <g id="patch_176">
    <path d="M 698.834314 306.851562 
L 701.435374 306.851562 
L 701.435374 214.720213 
L 698.834314 214.720213 
z
" clip-path="url(#pbed1259297)" style="fill: #4361ee; opacity: 0.45"/>
   </g>
   <g id="patch_177">
    <path d="M 702.475798 306.851562 
L 705.076858 306.851562 
L 705.076858 168.654539 
L 702.475798 168.654539 
z
" clip-path="url(#pbed1259297)" style="fill: #4361ee; opacity: 0.45"/>
   </g>
   <g id="patch_178">
    <path d="M 706.117282 306.851562 
L 708.718342 306.851562 
L 708.718342 214.720213 
L 706.117282 214.720213 
z
" clip-path="url(#pbed1259297)" style="fill: #4361ee; opacity: 0.45"/>
   </g>
   <g id="patch_179">
    <path d="M 709.758766 306.851562 
L 712.359826 306.851562 
L 712.359826 283.818725 
L 709.758766 283.818725 
z
" clip-path="url(#pbed1259297)" style="fill: #4361ee; opacity: 0.45"/>
   </g>
   <g id="patch_180">
    <path d="M 713.40025 306.851562 
L 716.00131 306.851562 
L 716.00131 237.753051 
L 713.40025 237.753051 
z
" clip-path="url(#pbed1259297)" style="fill: #4361ee; opacity: 0.45"/>
   </g>
   <g id="patch_181">
    <path d="M 717.041734 306.851562 
L 719.642794 306.851562 
L 719.642794 283.818725 
L 717.041734 283.818725 
z
" clip-path="url(#pbed1259297)" style="fill: #4361ee; opacity: 0.45"/>
   </g>
   <g id="patch_182">
    <path d="M 720.683218 306.851562 
L 723.284278 306.851562 
L 723.284278 306.851562 
L 720.683218 306.851562 
z
" clip-path="url(#pbed1259297)" style="fill: #4361ee; opacity: 0.45"/>
   </g>
   <g id="patch_183">
    <path d="M 724.324702 306.851562 
L 726.925762 306.851562 
L 726.925762 237.753051 
L 724.324702 237.753051 
z
" clip-path="url(#pbed1259297)" style="fill: #4361ee; opacity: 0.45"/>
   </g>
   <g id="patch_184">
    <path d="M 727.966186 306.851562 
L 730.567246 306.851562 
L 730.567246 237.753051 
L 727.966186 237.753051 
z
" clip-path="url(#pbed1259297)" style="fill: #4361ee; opacity: 0.45"/>
   </g>
   <g id="patch_185">
    <path d="M 731.60767 306.851562 
L 734.20873 306.851562 
L 734.20873 191.687376 
L 731.60767 191.687376 
z
" clip-path="url(#pbed1259297)" style="fill: #4361ee; opacity: 0.45"/>
   </g>
   <g id="patch_186">
    <path d="M 735.249154 306.851562 
L 737.850214 306.851562 
L 737.850214 237.753051 
L 735.249154 237.753051 
z
" clip-path="url(#pbed1259297)" style="fill: #4361ee; opacity: 0.45"/>
   </g>
   <g id="patch_187">
    <path d="M 738.890638 306.851562 
L 741.491698 306.851562 
L 741.491698 122.588864 
L 738.890638 122.588864 
z
" clip-path="url(#pbed1259297)" style="fill: #4361ee; opacity: 0.45"/>
   </g>
   <g id="patch_188">
    <path d="M 742.532122 306.851562 
L 745.133182 306.851562 
L 745.133182 214.720213 
L 742.532122 214.720213 
z
" clip-path="url(#pbed1259297)" style="fill: #4361ee; opacity: 0.45"/>
   </g>
   <g id="patch_189">
    <path d="M 746.173606 306.851562 
L 748.774666 306.851562 
L 748.774666 283.818725 
L 746.173606 283.818725 
z
" clip-path="url(#pbed1259297)" style="fill: #4361ee; opacity: 0.45"/>
   </g>
   <g id="patch_190">
    <path d="M 749.81509 306.851562 
L 752.41615 306.851562 
L 752.41615 191.687376 
L 749.81509 191.687376 
z
" clip-path="url(#pbed1259297)" style="fill: #4361ee; opacity: 0.45"/>
   </g>
   <g id="patch_191">
    <path d="M 753.456574 306.851562 
L 756.057634 306.851562 
L 756.057634 191.687376 
L 753.456574 191.687376 
z
" clip-path="url(#pbed1259297)" style="fill: #4361ee; opacity: 0.45"/>
   </g>
   <g id="patch_192">
    <path d="M 757.098058 306.851562 
L 759.699117 306.851562 
L 759.699117 99.556027 
L 757.098058 99.556027 
z
" clip-path="url(#pbed1259297)" style="fill: #4361ee; opacity: 0.45"/>
   </g>
   <g id="patch_193">
    <path d="M 760.739541 306.851562 
L 763.340601 306.851562 
L 763.340601 237.753051 
L 760.739541 237.753051 
z
" clip-path="url(#pbed1259297)" style="fill: #4361ee; opacity: 0.45"/>
   </g>
   <g id="patch_194">
    <path d="M 764.381025 306.851562 
L 766.982085 306.851562 
L 766.982085 53.490352 
L 764.381025 53.490352 
z
" clip-path="url(#pbed1259297)" style="fill: #4361ee; opacity: 0.45"/>
   </g>
   <g id="patch_195">
    <path d="M 768.022509 306.851562 
L 770.623569 306.851562 
L 770.623569 99.556027 
L 768.022509 99.556027 
z
" clip-path="url(#pbed1259297)" style="fill: #4361ee; opacity: 0.45"/>
   </g>
   <g id="patch_196">
    <path d="M 771.663993 306.851562 
L 774.265053 306.851562 
L 774.265053 237.753051 
L 771.663993 237.753051 
z
" clip-path="url(#pbed1259297)" style="fill: #4361ee; opacity: 0.45"/>
   </g>
   <g id="patch_197">
    <path d="M 775.305477 306.851562 
L 777.906537 306.851562 
L 777.906537 145.621701 
L 775.305477 145.621701 
z
" clip-path="url(#pbed1259297)" style="fill: #4361ee; opacity: 0.45"/>
   </g>
   <g id="patch_198">
    <path d="M 778.946961 306.851562 
L 781.548021 306.851562 
L 781.548021 260.785888 
L 778.946961 260.785888 
z
" clip-path="url(#pbed1259297)" style="fill: #4361ee; opacity: 0.45"/>
   </g>
   <g id="patch_199">
    <path d="M 782.588445 306.851562 
L 785.189505 306.851562 
L 785.189505 191.687376 
L 782.588445 191.687376 
z
" clip-path="url(#pbed1259297)" style="fill: #4361ee; opacity: 0.45"/>
   </g>
   <g id="patch_200">
    <path d="M 786.229929 306.851562 
L 788.830989 306.851562 
L 788.830989 168.654539 
L 786.229929 168.654539 
z
" clip-path="url(#pbed1259297)" style="fill: #4361ee; opacity: 0.45"/>
   </g>
   <g id="patch_201">
    <path d="M 789.871413 306.851562 
L 792.472473 306.851562 
L 792.472473 191.687376 
L 789.871413 191.687376 
z
" clip-path="url(#pbed1259297)" style="fill: #4361ee; opacity: 0.45"/>
   </g>
   <g id="patch_202">
    <path d="M 793.512897 306.851562 
L 796.113957 306.851562 
L 796.113957 99.556027 
L 793.512897 99.556027 
z
" clip-path="url(#pbed1259297)" style="fill: #4361ee; opacity: 0.45"/>
   </g>
   <g id="patch_203">
    <path d="M 797.154381 306.851562 
L 799.755441 306.851562 
L 799.755441 168.654539 
L 797.154381 168.654539 
z
" clip-path="url(#pbed1259297)" style="fill: #4361ee; opacity: 0.45"/>
   </g>
   <g id="patch_204">
    <path d="M 800.795865 306.851562 
L 803.396925 306.851562 
L 803.396925 145.621701 
L 800.795865 145.621701 
z
" clip-path="url(#pbed1259297)" style="fill: #4361ee; opacity: 0.45"/>
   </g>
   <g id="matplotlib.axis_1">
    <g id="xtick_1">
     <g id="line2d_1">
      <defs>
       <path id="m76a6cbb4e9" d="M 0 0 
L 0 3.5 
" style="stroke: #ffffff; stroke-width: 0.8"/>
      </defs>
      <g>
       <use xlink:href="#m76a6cbb4e9" x="57.545949" y="306.851562" style="fill: #ffffff; stroke: #ffffff; stroke-width: 0.8"/>
      </g>
     </g>
     <g id="text_1">
      <text style="font-size: 9px; font-family: 'DejaVu Sans', 'Liberation Sans', 'Noto Sans', 'FreeSans', sans-serif; text-anchor: middle; fill: #ffffff" x="57.545949" y="320.690156" transform="rotate(-0 57.545949 320.690156)">2022-07</text>
     </g>
    </g>
    <g id="xtick_2">
     <g id="line2d_2">
      <g>
       <use xlink:href="#m76a6cbb4e9" x="153.264956" y="306.851562" style="fill: #ffffff; stroke: #ffffff; stroke-width: 0.8"/>
      </g>
     </g>
     <g id="text_2">
      <text style="font-size: 9px; font-family: 'DejaVu Sans', 'Liberation Sans', 'Noto Sans', 'FreeSans', sans-serif; text-anchor: middle; fill: #ffffff" x="153.264956" y="320.690156" transform="rotate(-0 153.264956 320.690156)">2023-01</text>
     </g>
    </g>
    <g id="xtick_3">
     <g id="line2d_3">
      <g>
       <use xlink:href="#m76a6cbb4e9" x="247.423326" y="306.851562" style="fill: #ffffff; stroke: #ffffff; stroke-width: 0.8"/>
      </g>
     </g>
     <g id="text_3">
      <text style="font-size: 9px; font-family: 'DejaVu Sans', 'Liberation Sans', 'Noto Sans', 'FreeSans', sans-serif; text-anchor: middle; fill: #ffffff" x="247.423326" y="320.690156" transform="rotate(-0 247.423326 320.690156)">2023-07</text>
     </g>
    </g>
    <g id="xtick_4">
     <g id="line2d_4">
      <g>
       <use xlink:href="#m76a6cbb4e9" x="343.142333" y="306.851562" style="fill: #ffffff; stroke: #ffffff; stroke-width: 0.8"/>
      </g>
     </g>
     <g id="text_4">
      <text style="font-size: 9px; font-family: 'DejaVu Sans', 'Liberation Sans', 'Noto Sans', 'FreeSans', sans-serif; text-anchor: middle; fill: #ffffff" x="343.142333" y="320.690156" transform="rotate(-0 343.142333 320.690156)">2024-01</text>
     </g>
    </g>
    <g id="xtick_5">
     <g id="line2d_5">
      <g>
       <use xlink:href="#m76a6cbb4e9" x="437.820916" y="306.851562" style="fill: #ffffff; stroke: #ffffff; stroke-width: 0.8"/>
      </g>
     </g>
     <g id="text_5">
      <text style="font-size: 9px; font-family: 'DejaVu Sans', 'Liberation Sans', 'Noto Sans', 'FreeSans', sans-serif; text-anchor: middle; fill: #ffffff" x="437.820916" y="320.690156" transform="rotate(-0 437.820916 320.690156)">2024-07</text>
     </g>
    </g>
    <g id="xtick_6">
     <g id="line2d_6">
      <g>
       <use xlink:href="#m76a6cbb4e9" x="533.539922" y="306.851562" style="fill: #ffffff; stroke: #ffffff; stroke-width: 0.8"/>
      </g>
     </g>
     <g id="text_6">
      <text style="font-size: 9px; font-family: 'DejaVu Sans', 'Liberation Sans', 'Noto Sans', 'FreeSans', sans-serif; text-anchor: middle; fill: #ffffff" x="533.539922" y="320.690156" transform="rotate(-0 533.539922 320.690156)">2025-01</text>
     </g>
    </g>
    <g id="xtick_7">
     <g id="line2d_7">
      <g>
       <use xlink:href="#m76a6cbb4e9" x="627.698293" y="306.851562" style="fill: #ffffff; stroke: #ffffff; stroke-width: 0.8"/>
      </g>
     </g>
     <g id="text_7">
      <text style="font-size: 9px; font-family: 'DejaVu Sans', 'Liberation Sans', 'Noto Sans', 'FreeSans', sans-serif; text-anchor: middle; fill: #ffffff" x="627.698293" y="320.690156" transform="rotate(-0 627.698293 320.690156)">2025-07</text>
     </g>
    </g>
    <g id="xtick_8">
     <g id="line2d_8">
      <g>
       <use xlink:href="#m76a6cbb4e9" x="723.417299" y="306.851562" style="fill: #ffffff; stroke: #ffffff; stroke-width: 0.8"/>
      </g>
     </g>
     <g id="text_8">
      <text style="font-size: 9px; font-family: 'DejaVu Sans', 'Liberation Sans', 'Noto Sans', 'FreeSans', sans-serif; text-anchor: middle; fill: #ffffff" x="723.417299" y="320.690156" transform="rotate(-0 723.417299 320.690156)">2026-01</text>
     </g>
    </g>
    <g id="xtick_9">
     <g id="line2d_9">
      <g>
       <use xlink:href="#m76a6cbb4e9" x="817.57567" y="306.851562" style="fill: #ffffff; stroke: #ffffff; stroke-width: 0.8"/>
      </g>
     </g>
     <g id="text_9">
      <text style="font-size: 9px; font-family: 'DejaVu Sans', 'Liberation Sans', 'Noto Sans', 'FreeSans', sans-serif; text-anchor: middle; fill: #ffffff" x="817.57567" y="320.690156" transform="rotate(-0 817.57567 320.690156)">2026-07</text>
     </g>
    </g>
    <g id="text_10">
     <text style="font-size: 10px; font-family: 'DejaVu Sans', 'Liberation Sans', 'Noto Sans', 'FreeSans', sans-serif; text-anchor: middle; fill: #ffffff" x="436.127258" y="334.160312" transform="rotate(-0 436.127258 334.160312)">Date</text>
    </g>
   </g>
   <g id="matplotlib.axis_2">
    <g id="ytick_1">
     <g id="line2d_10">
      <defs>
       <path id="m75617d11d1" d="M 0 0 
L -3.5 0 
" style="stroke: #ffffff; stroke-width: 0.8"/>
      </defs>
      <g>
       <use xlink:href="#m75617d11d1" x="32.130625" y="306.851562" style="fill: #ffffff; stroke: #ffffff; stroke-width: 0.8"/>
      </g>
     </g>
     <g id="text_11">
      <text style="font-size: 9px; font-family: 'DejaVu Sans', 'Liberation Sans', 'Noto Sans', 'FreeSans', sans-serif; text-anchor: end; fill: #ffffff" x="25.130625" y="310.270859" transform="rotate(-0 25.130625 310.270859)">0</text>
     </g>
    </g>
    <g id="ytick_2">
     <g id="line2d_11">
      <g>
       <use xlink:href="#m75617d11d1" x="32.130625" y="260.785888" style="fill: #ffffff; stroke: #ffffff; stroke-width: 0.8"/>
      </g>
     </g>
     <g id="text_12">
      <text style="font-size: 9px; font-family: 'DejaVu Sans', 'Liberation Sans', 'Noto Sans', 'FreeSans', sans-serif; text-anchor: end; fill: #ffffff" x="25.130625" y="264.205185" transform="rotate(-0 25.130625 264.205185)">2</text>
     </g>
    </g>
    <g id="ytick_3">
     <g id="line2d_12">
      <g>
       <use xlink:href="#m75617d11d1" x="32.130625" y="214.720213" style="fill: #ffffff; stroke: #ffffff; stroke-width: 0.8"/>
      </g>
     </g>
     <g id="text_13">
      <text style="font-size: 9px; font-family: 'DejaVu Sans', 'Liberation Sans', 'Noto Sans', 'FreeSans', sans-serif; text-anchor: end; fill: #ffffff" x="25.130625" y="218.13951" transform="rotate(-0 25.130625 218.13951)">4</text>
     </g>
    </g>
    <g id="ytick_4">
     <g id="line2d_13">
      <g>
       <use xlink:href="#m75617d11d1" x="32.130625" y="168.654539" style="fill: #ffffff; stroke: #ffffff; stroke-width: 0.8"/>
      </g>
     </g>
     <g id="text_14">
      <text style="font-size: 9px; font-family: 'DejaVu Sans', 'Liberation Sans', 'Noto Sans', 'FreeSans', sans-serif; text-anchor: end; fill: #ffffff" x="25.130625" y="172.073836" transform="rotate(-0 25.130625 172.073836)">6</text>
     </g>
    </g>
    <g id="ytick_5">
     <g id="line2d_14">
      <g>
       <use xlink:href="#m75617d11d1" x="32.130625" y="122.588864" style="fill: #ffffff; stroke: #ffffff; stroke-width: 0.8"/>
      </g>
     </g>
     <g id="text_15">
      <text style="font-size: 9px; font-family: 'DejaVu Sans', 'Liberation Sans', 'Noto Sans', 'FreeSans', sans-serif; text-anchor: end; fill: #ffffff" x="25.130625" y="126.008161" transform="rotate(-0 25.130625 126.008161)">8</text>
     </g>
    </g>
    <g id="ytick_6">
     <g id="line2d_15">
      <g>
       <use xlink:href="#m75617d11d1" x="32.130625" y="76.523189" style="fill: #ffffff; stroke: #ffffff; stroke-width: 0.8"/>
      </g>
     </g>
     <g id="text_16">
      <text style="font-size: 9px; font-family: 'DejaVu Sans', 'Liberation Sans', 'Noto Sans', 'FreeSans', sans-serif; text-anchor: end; fill: #ffffff" x="25.130625" y="79.942486" transform="rotate(-0 25.130625 79.942486)">10</text>
     </g>
    </g>
    <g id="ytick_7">
     <g id="line2d_16">
      <g>
       <use xlink:href="#m75617d11d1" x="32.130625" y="30.457515" style="fill: #ffffff; stroke: #ffffff; stroke-width: 0.8"/>
      </g>
     </g>
     <g id="text_17">
      <text style="font-size: 9px; font-family: 'DejaVu Sans', 'Liberation Sans', 'Noto Sans', 'FreeSans', sans-serif; text-anchor: end; fill: #ffffff" x="25.130625" y="33.876812" transform="rotate(-0 25.130625 33.876812)">12</text>
     </g>
    </g>
    <g id="text_18">
     <text style="font-size: 10px; font-family: 'DejaVu Sans', 'Liberation Sans', 'Noto Sans', 'FreeSans', sans-serif; text-anchor: middle; fill: #ffffff" x="7.598438" y="161.744687" transform="rotate(-90 7.598438 161.744687)">Papers</text>
    </g>
   </g>
   <g id="line2d_17">
    <path d="M 70.158122 306.851562 
L 77.44109 306.851562 
L 81.082573 301.093353 
L 84.724057 302.244995 
L 88.365541 303.012756 
L 92.007025 303.561157 
L 95.648509 303.972458 
L 99.289993 299.17395 
L 102.931477 299.941711 
L 106.572961 300.56988 
L 110.214445 299.17395 
L 113.855929 293.415741 
L 117.497413 289.576935 
L 121.138897 289.576935 
L 124.780381 281.899322 
L 132.063349 281.899322 
L 135.704833 279.979919 
L 139.346317 279.979919 
L 142.987801 278.060516 
L 146.629285 272.302307 
L 153.912252 268.4635 
L 161.19522 276.141113 
L 164.836704 274.22171 
L 168.478188 278.060516 
L 172.119672 278.060516 
L 175.761156 268.4635 
L 179.40264 270.382903 
L 183.044124 270.382903 
L 186.685608 274.22171 
L 190.327092 276.141113 
L 193.968576 276.141113 
L 197.61006 266.544097 
L 201.251544 262.705291 
L 204.893028 260.785888 
L 208.534512 260.785888 
L 212.175996 266.544097 
L 215.817479 262.705291 
L 219.458963 266.544097 
L 223.100447 262.705291 
L 230.383415 262.705291 
L 234.024899 266.544097 
L 237.666383 262.705291 
L 241.307867 274.22171 
L 244.949351 276.141113 
L 252.232319 272.302307 
L 255.873803 262.705291 
L 259.515287 251.188872 
L 263.156771 251.188872 
L 266.798255 255.027679 
L 274.081223 255.027679 
L 277.722707 251.188872 
L 281.364191 245.430663 
L 285.005674 241.591857 
L 288.647158 239.672454 
L 292.288642 241.591857 
L 295.930126 239.672454 
L 299.57161 243.51126 
L 303.213094 255.027679 
L 306.854578 258.866485 
L 310.496062 255.027679 
L 314.137546 253.108275 
L 317.77903 247.350066 
L 321.420514 251.188872 
L 325.061998 260.785888 
L 328.703482 260.785888 
L 332.344966 262.705291 
L 335.98645 258.866485 
L 339.627934 264.624694 
L 343.269418 264.624694 
L 346.910902 258.866485 
L 350.552386 256.947082 
L 354.193869 260.785888 
L 357.835353 258.866485 
L 361.476837 258.866485 
L 365.118321 253.108275 
L 368.759805 243.51126 
L 372.401289 235.833647 
L 376.042773 235.833647 
L 379.684257 233.914244 
L 383.325741 222.397826 
L 386.967225 214.720213 
L 390.608709 224.317229 
L 394.250193 212.80081 
L 397.891677 208.962004 
L 401.533161 210.881407 
L 405.174645 216.639616 
L 408.816129 216.639616 
L 412.457613 224.317229 
L 416.099097 228.156035 
L 419.74058 230.075438 
L 423.382064 235.833647 
L 427.023548 233.914244 
L 430.665032 245.430663 
L 434.306516 239.672454 
L 437.948 243.51126 
L 441.589484 237.753051 
L 445.230968 235.833647 
L 448.872452 220.478423 
L 452.513936 224.317229 
L 456.15542 218.55902 
L 459.796904 216.639616 
L 463.438388 218.55902 
L 467.079872 207.042601 
L 470.721356 210.881407 
L 474.36284 212.80081 
L 478.004324 207.042601 
L 481.645808 212.80081 
L 485.287292 207.042601 
L 488.928775 208.962004 
L 492.570259 220.478423 
L 496.211743 220.478423 
L 499.853227 224.317229 
L 503.494711 230.075438 
L 507.136195 218.55902 
L 510.777679 224.317229 
L 514.419163 228.156035 
L 518.060647 224.317229 
L 521.702131 231.994841 
L 525.343615 228.156035 
L 528.985099 241.591857 
L 532.626583 243.51126 
L 536.268067 235.833647 
L 539.909551 226.236632 
L 543.551035 226.236632 
L 547.192519 218.55902 
L 550.834003 224.317229 
L 554.475487 220.478423 
L 558.11697 218.55902 
L 561.758454 214.720213 
L 565.399938 214.720213 
L 569.041422 207.042601 
L 572.682906 197.445585 
L 576.32439 191.687376 
L 579.965874 195.526182 
L 583.607358 191.687376 
L 587.248842 185.929167 
L 594.53181 189.767973 
L 598.173294 201.284392 
L 601.814778 195.526182 
L 609.097746 187.84857 
L 612.73923 193.606779 
L 616.380714 201.284392 
L 620.022198 205.123198 
L 623.663681 207.042601 
L 627.305165 220.478423 
L 634.588133 220.478423 
L 638.229617 205.123198 
L 641.871101 203.203795 
L 645.512585 212.80081 
L 649.154069 212.80081 
L 652.795553 205.123198 
L 656.437037 207.042601 
L 660.078521 203.203795 
L 663.720005 195.526182 
L 667.361489 189.767973 
L 671.002973 182.09036 
L 674.644457 182.09036 
L 678.285941 187.84857 
L 681.927425 189.767973 
L 685.568909 182.09036 
L 689.210393 162.896329 
L 692.851876 160.976926 
L 696.49336 168.654539 
L 700.134844 170.573942 
L 703.776328 166.735136 
L 707.417812 168.654539 
L 711.059296 180.170957 
L 714.70078 184.009764 
L 718.342264 193.606779 
L 721.983748 199.364988 
L 725.625232 210.881407 
L 729.266716 214.720213 
L 732.9082 228.156035 
L 736.549684 235.833647 
L 740.191168 228.156035 
L 743.832652 228.156035 
L 747.474136 237.753051 
L 751.11562 235.833647 
L 754.757104 228.156035 
L 758.398588 216.639616 
L 762.040071 212.80081 
L 765.681555 191.687376 
L 769.323039 180.170957 
L 772.964523 180.170957 
L 776.606007 176.332151 
L 780.247491 178.251554 
L 783.888975 184.009764 
L 787.530459 180.170957 
L 794.813427 164.815732 
L 798.454911 162.896329 
L 802.096395 166.735136 
L 802.096395 166.735136 
" clip-path="url(#pbed1259297)" style="fill: none; stroke: #f72585; stroke-width: 2; stroke-linecap: square"/>
   </g>
   <g id="patch_205">
    <path d="M 32.130625 306.851562 
L 32.130625 16.637812 
" style="fill: none; stroke: #ffffff; stroke-width: 0.8; stroke-linejoin: miter; stroke-linecap: square"/>
   </g>
   <g id="patch_206">
    <path d="M 32.130625 306.851562 
L 840.123892 306.851562 
" style="fill: none; stroke: #ffffff; stroke-width: 0.8; stroke-linejoin: miter; stroke-linecap: square"/>
   </g>
   <g id="text_19">
    <text style="font-size: 14px; font-family: 'DejaVu Sans', 'Liberation Sans', 'Noto Sans', 'FreeSans', sans-serif; text-anchor: middle; fill: #ffffff" x="436.127258" y="10.637812" transform="rotate(-0 436.127258 10.637812)">Papers shared per week</text>
   </g>
   <g id="legend_1">
    <g id="line2d_18">
     <path d="M 40.230625 28.426406 
L 49.230625 28.426406 
L 58.230625 28.426406 
" style="fill: none; stroke: #f72585; stroke-width: 2; stroke-linecap: square"/>
    </g>
    <g id="text_20">
     <text style="font-size: 9px; font-family: 'DejaVu Sans', 'Liberation Sans', 'Noto Sans', 'FreeSans', sans-serif; text-anchor: start; fill: #ffffff" x="65.430625" y="31.576406" transform="rotate(-0 65.430625 31.576406)">3-month average</text>
    </g>
    <g id="patch_207">
     <path d="M 40.230625 44.786719 
L 58.230625 44.786719 
L 58.230625 38.486719 
L 40.230625 38.486719 
z
" style="fill: #4361ee; opacity: 0.45"/>
    </g>
    <g id="text_21">
     <text style="font-size: 9px; font-family: 'DejaVu Sans', 'Liberation Sans', 'Noto Sans', 'FreeSans', sans-serif; text-anchor: start; fill: #ffffff" x="65.430625" y="44.786719" transform="rotate(-0 65.430625 44.786719)">Papers per week</text>
    </g>
   </g>
  </g>
 </g>
 <defs>
  <clipPath id="pbed1259297">
   <rect x="32.130625" y="16.637812" width="807.993267" height="290.21375"/>
  </clipPath>
 </defs>
</svg>
