<?xml version="1.0" encoding="utf-8" standalone="no"?>
<!DOCTYPE svg PUBLIC "-//W3C//DTD SVG 1.1//EN"
  "http://www.w3.org/Graphics/SVG/1.1/DTD/svg11.dtd">
<svg xmlns:xlink="http://www.w3.org/1999/xlink" width="840.24pt" height="336.24pt" viewBox="0 0 840.24 336.24" xmlns="http://www.w3.org/2000/svg" version="1.1">
 <metadata>
  <rdf:RDF xmlns:dc="http://purl.org/dc/elements/1.1/" xmlns:cc="http://creativecommons.org/ns#" xmlns:rdf="http://www.w3.org/1999/02/22-rdf-syntax-ns#">
   <cc:Work>
    <dc:type rdf:resource="http://purl.org/dc/dcmitype/StillImage"/>
    <dc:date>2026-06-15T13:07:26.976158</dc:date>
    <dc:format>image/svg+xml</dc:format>
    <dc:creator>
     <cc:Agent>
      <dc:title>Matplotlib v3.10.9, https://matplotlib.org/</dc:title>
     </cc:Agent>
    </dc:creator>
   </cc:Work>
  </rdf:RDF>
 </metadata>
 <defs>
  <style type="text/css">*{stroke-linejoin: round; stroke-linecap: butt}</style>
 </defs>
 <g id="figure_1">
  <g id="patch_1">
   <path d="M 0 336.24 
L 840.24 336.24 
L 840.24 0 
L 0 0 
L 0 336.24 
z
" style="fill: none"/>
  </g>
  <g id="axes_1">
   <g id="patch_2">
    <path d="M 32.130625 306.851562 
L 840.24 306.851562 
L 840.24 14.358281 
L 32.130625 14.358281 
L 32.130625 306.851562 
z
" style="fill: none"/>
   </g>
   <g id="patch_3">
    <path d="M 68.862869 306.851562 
L 71.438763 306.851562 
L 71.438763 306.851562 
L 68.862869 306.851562 
z
" clip-path="url(#pb3ea5ea113)" style="fill: #4361ee; opacity: 0.45"/>
   </g>
   <g id="patch_4">
    <path d="M 72.469121 306.851562 
L 75.045014 306.851562 
L 75.045014 306.851562 
L 72.469121 306.851562 
z
" clip-path="url(#pb3ea5ea113)" style="fill: #4361ee; opacity: 0.45"/>
   </g>
   <g id="patch_5">
    <path d="M 76.075372 306.851562 
L 78.651265 306.851562 
L 78.651265 306.851562 
L 76.075372 306.851562 
z
" clip-path="url(#pb3ea5ea113)" style="fill: #4361ee; opacity: 0.45"/>
   </g>
   <g id="patch_6">
    <path d="M 79.681623 306.851562 
L 82.257517 306.851562 
L 82.257517 283.63781 
L 79.681623 283.63781 
z
" clip-path="url(#pb3ea5ea113)" style="fill: #4361ee; opacity: 0.45"/>
   </g>
   <g id="patch_7">
    <path d="M 83.287874 306.851562 
L 85.863768 306.851562 
L 85.863768 306.851562 
L 83.287874 306.851562 
z
" clip-path="url(#pb3ea5ea113)" style="fill: #4361ee; opacity: 0.45"/>
   </g>
   <g id="patch_8">
    <path d="M 86.894125 306.851562 
L 89.470019 306.851562 
L 89.470019 306.851562 
L 86.894125 306.851562 
z
" clip-path="url(#pb3ea5ea113)" style="fill: #4361ee; opacity: 0.45"/>
   </g>
   <g id="patch_9">
    <path d="M 90.500376 306.851562 
L 93.07627 306.851562 
L 93.07627 306.851562 
L 90.500376 306.851562 
z
" clip-path="url(#pb3ea5ea113)" style="fill: #4361ee; opacity: 0.45"/>
   </g>
   <g id="patch_10">
    <path d="M 94.106628 306.851562 
L 96.682521 306.851562 
L 96.682521 306.851562 
L 94.106628 306.851562 
z
" clip-path="url(#pb3ea5ea113)" style="fill: #4361ee; opacity: 0.45"/>
   </g>
   <g id="patch_11">
    <path d="M 97.712879 306.851562 
L 100.288773 306.851562 
L 100.288773 260.424058 
L 97.712879 260.424058 
z
" clip-path="url(#pb3ea5ea113)" style="fill: #4361ee; opacity: 0.45"/>
   </g>
   <g id="patch_12">
    <path d="M 101.31913 306.851562 
L 103.895024 306.851562 
L 103.895024 306.851562 
L 101.31913 306.851562 
z
" clip-path="url(#pb3ea5ea113)" style="fill: #4361ee; opacity: 0.45"/>
   </g>
   <g id="patch_13">
    <path d="M 104.925381 306.851562 
L 107.501275 306.851562 
L 107.501275 306.851562 
L 104.925381 306.851562 
z
" clip-path="url(#pb3ea5ea113)" style="fill: #4361ee; opacity: 0.45"/>
   </g>
   <g id="patch_14">
    <path d="M 108.531632 306.851562 
L 111.107526 306.851562 
L 111.107526 283.63781 
L 108.531632 283.63781 
z
" clip-path="url(#pb3ea5ea113)" style="fill: #4361ee; opacity: 0.45"/>
   </g>
   <g id="patch_15">
    <path d="M 112.137884 306.851562 
L 114.713777 306.851562 
L 114.713777 237.210305 
L 112.137884 237.210305 
z
" clip-path="url(#pb3ea5ea113)" style="fill: #4361ee; opacity: 0.45"/>
   </g>
   <g id="patch_16">
    <path d="M 115.744135 306.851562 
L 118.320029 306.851562 
L 118.320029 260.424058 
L 115.744135 260.424058 
z
" clip-path="url(#pb3ea5ea113)" style="fill: #4361ee; opacity: 0.45"/>
   </g>
   <g id="patch_17">
    <path d="M 119.350386 306.851562 
L 121.92628 306.851562 
L 121.92628 306.851562 
L 119.350386 306.851562 
z
" clip-path="url(#pb3ea5ea113)" style="fill: #4361ee; opacity: 0.45"/>
   </g>
   <g id="patch_18">
    <path d="M 122.956637 306.851562 
L 125.532531 306.851562 
L 125.532531 190.7828 
L 122.956637 190.7828 
z
" clip-path="url(#pb3ea5ea113)" style="fill: #4361ee; opacity: 0.45"/>
   </g>
   <g id="patch_19">
    <path d="M 126.562888 306.851562 
L 129.138782 306.851562 
L 129.138782 306.851562 
L 126.562888 306.851562 
z
" clip-path="url(#pb3ea5ea113)" style="fill: #4361ee; opacity: 0.45"/>
   </g>
   <g id="patch_20">
    <path d="M 130.16914 306.851562 
L 132.745033 306.851562 
L 132.745033 306.851562 
L 130.16914 306.851562 
z
" clip-path="url(#pb3ea5ea113)" style="fill: #4361ee; opacity: 0.45"/>
   </g>
   <g id="patch_21">
    <path d="M 133.775391 306.851562 
L 136.351285 306.851562 
L 136.351285 283.63781 
L 133.775391 283.63781 
z
" clip-path="url(#pb3ea5ea113)" style="fill: #4361ee; opacity: 0.45"/>
   </g>
   <g id="patch_22">
    <path d="M 137.381642 306.851562 
L 139.957536 306.851562 
L 139.957536 306.851562 
L 137.381642 306.851562 
z
" clip-path="url(#pb3ea5ea113)" style="fill: #4361ee; opacity: 0.45"/>
   </g>
   <g id="patch_23">
    <path d="M 140.987893 306.851562 
L 143.563787 306.851562 
L 143.563787 237.210305 
L 140.987893 237.210305 
z
" clip-path="url(#pb3ea5ea113)" style="fill: #4361ee; opacity: 0.45"/>
   </g>
   <g id="patch_24">
    <path d="M 144.594144 306.851562 
L 147.170038 306.851562 
L 147.170038 237.210305 
L 144.594144 237.210305 
z
" clip-path="url(#pb3ea5ea113)" style="fill: #4361ee; opacity: 0.45"/>
   </g>
   <g id="patch_25">
    <path d="M 148.200396 306.851562 
L 150.776289 306.851562 
L 150.776289 283.63781 
L 148.200396 283.63781 
z
" clip-path="url(#pb3ea5ea113)" style="fill: #4361ee; opacity: 0.45"/>
   </g>
   <g id="patch_26">
    <path d="M 151.806647 306.851562 
L 154.382541 306.851562 
L 154.382541 260.424058 
L 151.806647 260.424058 
z
" clip-path="url(#pb3ea5ea113)" style="fill: #4361ee; opacity: 0.45"/>
   </g>
   <g id="patch_27">
    <path d="M 155.412898 306.851562 
L 157.988792 306.851562 
L 157.988792 283.63781 
L 155.412898 283.63781 
z
" clip-path="url(#pb3ea5ea113)" style="fill: #4361ee; opacity: 0.45"/>
   </g>
   <g id="patch_28">
    <path d="M 159.019149 306.851562 
L 161.595043 306.851562 
L 161.595043 306.851562 
L 159.019149 306.851562 
z
" clip-path="url(#pb3ea5ea113)" style="fill: #4361ee; opacity: 0.45"/>
   </g>
   <g id="patch_29">
    <path d="M 162.6254 306.851562 
L 165.201294 306.851562 
L 165.201294 283.63781 
L 162.6254 283.63781 
z
" clip-path="url(#pb3ea5ea113)" style="fill: #4361ee; opacity: 0.45"/>
   </g>
   <g id="patch_30">
    <path d="M 166.231652 306.851562 
L 168.807545 306.851562 
L 168.807545 213.996553 
L 166.231652 213.996553 
z
" clip-path="url(#pb3ea5ea113)" style="fill: #4361ee; opacity: 0.45"/>
   </g>
   <g id="patch_31">
    <path d="M 169.837903 306.851562 
L 172.413796 306.851562 
L 172.413796 306.851562 
L 169.837903 306.851562 
z
" clip-path="url(#pb3ea5ea113)" style="fill: #4361ee; opacity: 0.45"/>
   </g>
   <g id="patch_32">
    <path d="M 173.444154 306.851562 
L 176.020048 306.851562 
L 176.020048 190.7828 
L 173.444154 190.7828 
z
" clip-path="url(#pb3ea5ea113)" style="fill: #4361ee; opacity: 0.45"/>
   </g>
   <g id="patch_33">
    <path d="M 177.050405 306.851562 
L 179.626299 306.851562 
L 179.626299 306.851562 
L 177.050405 306.851562 
z
" clip-path="url(#pb3ea5ea113)" style="fill: #4361ee; opacity: 0.45"/>
   </g>
   <g id="patch_34">
    <path d="M 180.656656 306.851562 
L 183.23255 306.851562 
L 183.23255 306.851562 
L 180.656656 306.851562 
z
" clip-path="url(#pb3ea5ea113)" style="fill: #4361ee; opacity: 0.45"/>
   </g>
   <g id="patch_35">
    <path d="M 184.262908 306.851562 
L 186.838801 306.851562 
L 186.838801 283.63781 
L 184.262908 283.63781 
z
" clip-path="url(#pb3ea5ea113)" style="fill: #4361ee; opacity: 0.45"/>
   </g>
   <g id="patch_36">
    <path d="M 187.869159 306.851562 
L 190.445052 306.851562 
L 190.445052 260.424058 
L 187.869159 260.424058 
z
" clip-path="url(#pb3ea5ea113)" style="fill: #4361ee; opacity: 0.45"/>
   </g>
   <g id="patch_37">
    <path d="M 191.47541 306.851562 
L 194.051304 306.851562 
L 194.051304 283.63781 
L 191.47541 283.63781 
z
" clip-path="url(#pb3ea5ea113)" style="fill: #4361ee; opacity: 0.45"/>
   </g>
   <g id="patch_38">
    <path d="M 195.081661 306.851562 
L 197.657555 306.851562 
L 197.657555 144.355295 
L 195.081661 144.355295 
z
" clip-path="url(#pb3ea5ea113)" style="fill: #4361ee; opacity: 0.45"/>
   </g>
   <g id="patch_39">
    <path d="M 198.687912 306.851562 
L 201.263806 306.851562 
L 201.263806 237.210305 
L 198.687912 237.210305 
z
" clip-path="url(#pb3ea5ea113)" style="fill: #4361ee; opacity: 0.45"/>
   </g>
   <g id="patch_40">
    <path d="M 202.294164 306.851562 
L 204.870057 306.851562 
L 204.870057 283.63781 
L 202.294164 283.63781 
z
" clip-path="url(#pb3ea5ea113)" style="fill: #4361ee; opacity: 0.45"/>
   </g>
   <g id="patch_41">
    <path d="M 205.900415 306.851562 
L 208.476308 306.851562 
L 208.476308 283.63781 
L 205.900415 283.63781 
z
" clip-path="url(#pb3ea5ea113)" style="fill: #4361ee; opacity: 0.45"/>
   </g>
   <g id="patch_42">
    <path d="M 209.506666 306.851562 
L 212.08256 306.851562 
L 212.08256 306.851562 
L 209.506666 306.851562 
z
" clip-path="url(#pb3ea5ea113)" style="fill: #4361ee; opacity: 0.45"/>
   </g>
   <g id="patch_43">
    <path d="M 213.112917 306.851562 
L 215.688811 306.851562 
L 215.688811 260.424058 
L 213.112917 260.424058 
z
" clip-path="url(#pb3ea5ea113)" style="fill: #4361ee; opacity: 0.45"/>
   </g>
   <g id="patch_44">
    <path d="M 216.719168 306.851562 
L 219.295062 306.851562 
L 219.295062 213.996553 
L 216.719168 213.996553 
z
" clip-path="url(#pb3ea5ea113)" style="fill: #4361ee; opacity: 0.45"/>
   </g>
   <g id="patch_45">
    <path d="M 220.32542 306.851562 
L 222.901313 306.851562 
L 222.901313 260.424058 
L 220.32542 260.424058 
z
" clip-path="url(#pb3ea5ea113)" style="fill: #4361ee; opacity: 0.45"/>
   </g>
   <g id="patch_46">
    <path d="M 223.931671 306.851562 
L 226.507564 306.851562 
L 226.507564 306.851562 
L 223.931671 306.851562 
z
" clip-path="url(#pb3ea5ea113)" style="fill: #4361ee; opacity: 0.45"/>
   </g>
   <g id="patch_47">
    <path d="M 227.537922 306.851562 
L 230.113816 306.851562 
L 230.113816 283.63781 
L 227.537922 283.63781 
z
" clip-path="url(#pb3ea5ea113)" style="fill: #4361ee; opacity: 0.45"/>
   </g>
   <g id="patch_48">
    <path d="M 231.144173 306.851562 
L 233.720067 306.851562 
L 233.720067 306.851562 
L 231.144173 306.851562 
z
" clip-path="url(#pb3ea5ea113)" style="fill: #4361ee; opacity: 0.45"/>
   </g>
   <g id="patch_49">
    <path d="M 234.750424 306.851562 
L 237.326318 306.851562 
L 237.326318 237.210305 
L 234.750424 237.210305 
z
" clip-path="url(#pb3ea5ea113)" style="fill: #4361ee; opacity: 0.45"/>
   </g>
   <g id="patch_50">
    <path d="M 238.356675 306.851562 
L 240.932569 306.851562 
L 240.932569 283.63781 
L 238.356675 283.63781 
z
" clip-path="url(#pb3ea5ea113)" style="fill: #4361ee; opacity: 0.45"/>
   </g>
   <g id="patch_51">
    <path d="M 241.962927 306.851562 
L 244.53882 306.851562 
L 244.53882 260.424058 
L 241.962927 260.424058 
z
" clip-path="url(#pb3ea5ea113)" style="fill: #4361ee; opacity: 0.45"/>
   </g>
   <g id="patch_52">
    <path d="M 245.569178 306.851562 
L 248.145072 306.851562 
L 248.145072 260.424058 
L 245.569178 260.424058 
z
" clip-path="url(#pb3ea5ea113)" style="fill: #4361ee; opacity: 0.45"/>
   </g>
   <g id="patch_53">
    <path d="M 249.175429 306.851562 
L 251.751323 306.851562 
L 251.751323 260.424058 
L 249.175429 260.424058 
z
" clip-path="url(#pb3ea5ea113)" style="fill: #4361ee; opacity: 0.45"/>
   </g>
   <g id="patch_54">
    <path d="M 252.78168 306.851562 
L 255.357574 306.851562 
L 255.357574 190.7828 
L 252.78168 190.7828 
z
" clip-path="url(#pb3ea5ea113)" style="fill: #4361ee; opacity: 0.45"/>
   </g>
   <g id="patch_55">
    <path d="M 256.387931 306.851562 
L 258.963825 306.851562 
L 258.963825 121.141543 
L 256.387931 121.141543 
z
" clip-path="url(#pb3ea5ea113)" style="fill: #4361ee; opacity: 0.45"/>
   </g>
   <g id="patch_56">
    <path d="M 259.994183 306.851562 
L 262.570076 306.851562 
L 262.570076 237.210305 
L 259.994183 237.210305 
z
" clip-path="url(#pb3ea5ea113)" style="fill: #4361ee; opacity: 0.45"/>
   </g>
   <g id="patch_57">
    <path d="M 263.600434 306.851562 
L 266.176328 306.851562 
L 266.176328 306.851562 
L 263.600434 306.851562 
z
" clip-path="url(#pb3ea5ea113)" style="fill: #4361ee; opacity: 0.45"/>
   </g>
   <g id="patch_58">
    <path d="M 267.206685 306.851562 
L 269.782579 306.851562 
L 269.782579 306.851562 
L 267.206685 306.851562 
z
" clip-path="url(#pb3ea5ea113)" style="fill: #4361ee; opacity: 0.45"/>
   </g>
   <g id="patch_59">
    <path d="M 270.812936 306.851562 
L 273.38883 306.851562 
L 273.38883 283.63781 
L 270.812936 283.63781 
z
" clip-path="url(#pb3ea5ea113)" style="fill: #4361ee; opacity: 0.45"/>
   </g>
   <g id="patch_60">
    <path d="M 274.419187 306.851562 
L 276.995081 306.851562 
L 276.995081 260.424058 
L 274.419187 260.424058 
z
" clip-path="url(#pb3ea5ea113)" style="fill: #4361ee; opacity: 0.45"/>
   </g>
   <g id="patch_61">
    <path d="M 278.025439 306.851562 
L 280.601332 306.851562 
L 280.601332 167.569048 
L 278.025439 167.569048 
z
" clip-path="url(#pb3ea5ea113)" style="fill: #4361ee; opacity: 0.45"/>
   </g>
   <g id="patch_62">
    <path d="M 281.63169 306.851562 
L 284.207584 306.851562 
L 284.207584 237.210305 
L 281.63169 237.210305 
z
" clip-path="url(#pb3ea5ea113)" style="fill: #4361ee; opacity: 0.45"/>
   </g>
   <g id="patch_63">
    <path d="M 285.237941 306.851562 
L 287.813835 306.851562 
L 287.813835 237.210305 
L 285.237941 237.210305 
z
" clip-path="url(#pb3ea5ea113)" style="fill: #4361ee; opacity: 0.45"/>
   </g>
   <g id="patch_64">
    <path d="M 288.844192 306.851562 
L 291.420086 306.851562 
L 291.420086 283.63781 
L 288.844192 283.63781 
z
" clip-path="url(#pb3ea5ea113)" style="fill: #4361ee; opacity: 0.45"/>
   </g>
   <g id="patch_65">
    <path d="M 292.450443 306.851562 
L 295.026337 306.851562 
L 295.026337 237.210305 
L 292.450443 237.210305 
z
" clip-path="url(#pb3ea5ea113)" style="fill: #4361ee; opacity: 0.45"/>
   </g>
   <g id="patch_66">
    <path d="M 296.056695 306.851562 
L 298.632588 306.851562 
L 298.632588 237.210305 
L 296.056695 237.210305 
z
" clip-path="url(#pb3ea5ea113)" style="fill: #4361ee; opacity: 0.45"/>
   </g>
   <g id="patch_67">
    <path d="M 299.662946 306.851562 
L 302.23884 306.851562 
L 302.23884 260.424058 
L 299.662946 260.424058 
z
" clip-path="url(#pb3ea5ea113)" style="fill: #4361ee; opacity: 0.45"/>
   </g>
   <g id="patch_68">
    <path d="M 303.269197 306.851562 
L 305.845091 306.851562 
L 305.845091 283.63781 
L 303.269197 283.63781 
z
" clip-path="url(#pb3ea5ea113)" style="fill: #4361ee; opacity: 0.45"/>
   </g>
   <g id="patch_69">
    <path d="M 306.875448 306.851562 
L 309.451342 306.851562 
L 309.451342 260.424058 
L 306.875448 260.424058 
z
" clip-path="url(#pb3ea5ea113)" style="fill: #4361ee; opacity: 0.45"/>
   </g>
   <g id="patch_70">
    <path d="M 310.481699 306.851562 
L 313.057593 306.851562 
L 313.057593 283.63781 
L 310.481699 283.63781 
z
" clip-path="url(#pb3ea5ea113)" style="fill: #4361ee; opacity: 0.45"/>
   </g>
   <g id="patch_71">
    <path d="M 314.087951 306.851562 
L 316.663844 306.851562 
L 316.663844 213.996553 
L 314.087951 213.996553 
z
" clip-path="url(#pb3ea5ea113)" style="fill: #4361ee; opacity: 0.45"/>
   </g>
   <g id="patch_72">
    <path d="M 317.694202 306.851562 
L 320.270096 306.851562 
L 320.270096 306.851562 
L 317.694202 306.851562 
z
" clip-path="url(#pb3ea5ea113)" style="fill: #4361ee; opacity: 0.45"/>
   </g>
   <g id="patch_73">
    <path d="M 321.300453 306.851562 
L 323.876347 306.851562 
L 323.876347 283.63781 
L 321.300453 283.63781 
z
" clip-path="url(#pb3ea5ea113)" style="fill: #4361ee; opacity: 0.45"/>
   </g>
   <g id="patch_74">
    <path d="M 324.906704 306.851562 
L 327.482598 306.851562 
L 327.482598 237.210305 
L 324.906704 237.210305 
z
" clip-path="url(#pb3ea5ea113)" style="fill: #4361ee; opacity: 0.45"/>
   </g>
   <g id="patch_75">
    <path d="M 328.512955 306.851562 
L 331.088849 306.851562 
L 331.088849 260.424058 
L 328.512955 260.424058 
z
" clip-path="url(#pb3ea5ea113)" style="fill: #4361ee; opacity: 0.45"/>
   </g>
   <g id="patch_76">
    <path d="M 332.119207 306.851562 
L 334.6951 306.851562 
L 334.6951 237.210305 
L 332.119207 237.210305 
z
" clip-path="url(#pb3ea5ea113)" style="fill: #4361ee; opacity: 0.45"/>
   </g>
   <g id="patch_77">
    <path d="M 335.725458 306.851562 
L 338.301351 306.851562 
L 338.301351 306.851562 
L 335.725458 306.851562 
z
" clip-path="url(#pb3ea5ea113)" style="fill: #4361ee; opacity: 0.45"/>
   </g>
   <g id="patch_78">
    <path d="M 339.331709 306.851562 
L 341.907603 306.851562 
L 341.907603 237.210305 
L 339.331709 237.210305 
z
" clip-path="url(#pb3ea5ea113)" style="fill: #4361ee; opacity: 0.45"/>
   </g>
   <g id="patch_79">
    <path d="M 342.93796 306.851562 
L 345.513854 306.851562 
L 345.513854 190.7828 
L 342.93796 190.7828 
z
" clip-path="url(#pb3ea5ea113)" style="fill: #4361ee; opacity: 0.45"/>
   </g>
   <g id="patch_80">
    <path d="M 346.544211 306.851562 
L 349.120105 306.851562 
L 349.120105 260.424058 
L 346.544211 260.424058 
z
" clip-path="url(#pb3ea5ea113)" style="fill: #4361ee; opacity: 0.45"/>
   </g>
   <g id="patch_81">
    <path d="M 350.150463 306.851562 
L 352.726356 306.851562 
L 352.726356 306.851562 
L 350.150463 306.851562 
z
" clip-path="url(#pb3ea5ea113)" style="fill: #4361ee; opacity: 0.45"/>
   </g>
   <g id="patch_82">
    <path d="M 353.756714 306.851562 
L 356.332607 306.851562 
L 356.332607 260.424058 
L 353.756714 260.424058 
z
" clip-path="url(#pb3ea5ea113)" style="fill: #4361ee; opacity: 0.45"/>
   </g>
   <g id="patch_83">
    <path d="M 357.362965 306.851562 
L 359.938859 306.851562 
L 359.938859 213.996553 
L 357.362965 213.996553 
z
" clip-path="url(#pb3ea5ea113)" style="fill: #4361ee; opacity: 0.45"/>
   </g>
   <g id="patch_84">
    <path d="M 360.969216 306.851562 
L 363.54511 306.851562 
L 363.54511 237.210305 
L 360.969216 237.210305 
z
" clip-path="url(#pb3ea5ea113)" style="fill: #4361ee; opacity: 0.45"/>
   </g>
   <g id="patch_85">
    <path d="M 364.575467 306.851562 
L 367.151361 306.851562 
L 367.151361 167.569048 
L 364.575467 167.569048 
z
" clip-path="url(#pb3ea5ea113)" style="fill: #4361ee; opacity: 0.45"/>
   </g>
   <g id="patch_86">
    <path d="M 368.181719 306.851562 
L 370.757612 306.851562 
L 370.757612 144.355295 
L 368.181719 144.355295 
z
" clip-path="url(#pb3ea5ea113)" style="fill: #4361ee; opacity: 0.45"/>
   </g>
   <g id="patch_87">
    <path d="M 371.78797 306.851562 
L 374.363863 306.851562 
L 374.363863 260.424058 
L 371.78797 260.424058 
z
" clip-path="url(#pb3ea5ea113)" style="fill: #4361ee; opacity: 0.45"/>
   </g>
   <g id="patch_88">
    <path d="M 375.394221 306.851562 
L 377.970115 306.851562 
L 377.970115 213.996553 
L 375.394221 213.996553 
z
" clip-path="url(#pb3ea5ea113)" style="fill: #4361ee; opacity: 0.45"/>
   </g>
   <g id="patch_89">
    <path d="M 379.000472 306.851562 
L 381.576366 306.851562 
L 381.576366 167.569048 
L 379.000472 167.569048 
z
" clip-path="url(#pb3ea5ea113)" style="fill: #4361ee; opacity: 0.45"/>
   </g>
   <g id="patch_90">
    <path d="M 382.606723 306.851562 
L 385.182617 306.851562 
L 385.182617 144.355295 
L 382.606723 144.355295 
z
" clip-path="url(#pb3ea5ea113)" style="fill: #4361ee; opacity: 0.45"/>
   </g>
   <g id="patch_91">
    <path d="M 386.212975 306.851562 
L 388.788868 306.851562 
L 388.788868 306.851562 
L 386.212975 306.851562 
z
" clip-path="url(#pb3ea5ea113)" style="fill: #4361ee; opacity: 0.45"/>
   </g>
   <g id="patch_92">
    <path d="M 389.819226 306.851562 
L 392.395119 306.851562 
L 392.395119 121.141543 
L 389.819226 121.141543 
z
" clip-path="url(#pb3ea5ea113)" style="fill: #4361ee; opacity: 0.45"/>
   </g>
   <g id="patch_93">
    <path d="M 393.425477 306.851562 
L 396.001371 306.851562 
L 396.001371 260.424058 
L 393.425477 260.424058 
z
" clip-path="url(#pb3ea5ea113)" style="fill: #4361ee; opacity: 0.45"/>
   </g>
   <g id="patch_94">
    <path d="M 397.031728 306.851562 
L 399.607622 306.851562 
L 399.607622 283.63781 
L 397.031728 283.63781 
z
" clip-path="url(#pb3ea5ea113)" style="fill: #4361ee; opacity: 0.45"/>
   </g>
   <g id="patch_95">
    <path d="M 400.637979 306.851562 
L 403.213873 306.851562 
L 403.213873 283.63781 
L 400.637979 283.63781 
z
" clip-path="url(#pb3ea5ea113)" style="fill: #4361ee; opacity: 0.45"/>
   </g>
   <g id="patch_96">
    <path d="M 404.24423 306.851562 
L 406.820124 306.851562 
L 406.820124 237.210305 
L 404.24423 237.210305 
z
" clip-path="url(#pb3ea5ea113)" style="fill: #4361ee; opacity: 0.45"/>
   </g>
   <g id="patch_97">
    <path d="M 407.850482 306.851562 
L 410.426375 306.851562 
L 410.426375 260.424058 
L 407.850482 260.424058 
z
" clip-path="url(#pb3ea5ea113)" style="fill: #4361ee; opacity: 0.45"/>
   </g>
   <g id="patch_98">
    <path d="M 411.456733 306.851562 
L 414.032627 306.851562 
L 414.032627 190.7828 
L 411.456733 190.7828 
z
" clip-path="url(#pb3ea5ea113)" style="fill: #4361ee; opacity: 0.45"/>
   </g>
   <g id="patch_99">
    <path d="M 415.062984 306.851562 
L 417.638878 306.851562 
L 417.638878 283.63781 
L 415.062984 283.63781 
z
" clip-path="url(#pb3ea5ea113)" style="fill: #4361ee; opacity: 0.45"/>
   </g>
   <g id="patch_100">
    <path d="M 418.669235 306.851562 
L 421.245129 306.851562 
L 421.245129 283.63781 
L 418.669235 283.63781 
z
" clip-path="url(#pb3ea5ea113)" style="fill: #4361ee; opacity: 0.45"/>
   </g>
   <g id="patch_101">
    <path d="M 422.275486 306.851562 
L 424.85138 306.851562 
L 424.85138 144.355295 
L 422.275486 144.355295 
z
" clip-path="url(#pb3ea5ea113)" style="fill: #4361ee; opacity: 0.45"/>
   </g>
   <g id="patch_102">
    <path d="M 425.881738 306.851562 
L 428.457631 306.851562 
L 428.457631 283.63781 
L 425.881738 283.63781 
z
" clip-path="url(#pb3ea5ea113)" style="fill: #4361ee; opacity: 0.45"/>
   </g>
   <g id="patch_103">
    <path d="M 429.487989 306.851562 
L 432.063883 306.851562 
L 432.063883 237.210305 
L 429.487989 237.210305 
z
" clip-path="url(#pb3ea5ea113)" style="fill: #4361ee; opacity: 0.45"/>
   </g>
   <g id="patch_104">
    <path d="M 433.09424 306.851562 
L 435.670134 306.851562 
L 435.670134 167.569048 
L 433.09424 167.569048 
z
" clip-path="url(#pb3ea5ea113)" style="fill: #4361ee; opacity: 0.45"/>
   </g>
   <g id="patch_105">
    <path d="M 436.700491 306.851562 
L 439.276385 306.851562 
L 439.276385 190.7828 
L 436.700491 190.7828 
z
" clip-path="url(#pb3ea5ea113)" style="fill: #4361ee; opacity: 0.45"/>
   </g>
   <g id="patch_106">
    <path d="M 440.306742 306.851562 
L 442.882636 306.851562 
L 442.882636 260.424058 
L 440.306742 260.424058 
z
" clip-path="url(#pb3ea5ea113)" style="fill: #4361ee; opacity: 0.45"/>
   </g>
   <g id="patch_107">
    <path d="M 443.912994 306.851562 
L 446.488887 306.851562 
L 446.488887 97.92779 
L 443.912994 97.92779 
z
" clip-path="url(#pb3ea5ea113)" style="fill: #4361ee; opacity: 0.45"/>
   </g>
   <g id="patch_108">
    <path d="M 447.519245 306.851562 
L 450.095139 306.851562 
L 450.095139 283.63781 
L 447.519245 283.63781 
z
" clip-path="url(#pb3ea5ea113)" style="fill: #4361ee; opacity: 0.45"/>
   </g>
   <g id="patch_109">
    <path d="M 451.125496 306.851562 
L 453.70139 306.851562 
L 453.70139 190.7828 
L 451.125496 190.7828 
z
" clip-path="url(#pb3ea5ea113)" style="fill: #4361ee; opacity: 0.45"/>
   </g>
   <g id="patch_110">
    <path d="M 454.731747 306.851562 
L 457.307641 306.851562 
L 457.307641 167.569048 
L 454.731747 167.569048 
z
" clip-path="url(#pb3ea5ea113)" style="fill: #4361ee; opacity: 0.45"/>
   </g>
   <g id="patch_111">
    <path d="M 458.337998 306.851562 
L 460.913892 306.851562 
L 460.913892 306.851562 
L 458.337998 306.851562 
z
" clip-path="url(#pb3ea5ea113)" style="fill: #4361ee; opacity: 0.45"/>
   </g>
   <g id="patch_112">
    <path d="M 461.94425 306.851562 
L 464.520143 306.851562 
L 464.520143 144.355295 
L 461.94425 144.355295 
z
" clip-path="url(#pb3ea5ea113)" style="fill: #4361ee; opacity: 0.45"/>
   </g>
   <g id="patch_113">
    <path d="M 465.550501 306.851562 
L 468.126395 306.851562 
L 468.126395 190.7828 
L 465.550501 190.7828 
z
" clip-path="url(#pb3ea5ea113)" style="fill: #4361ee; opacity: 0.45"/>
   </g>
   <g id="patch_114">
    <path d="M 469.156752 306.851562 
L 471.732646 306.851562 
L 471.732646 306.851562 
L 469.156752 306.851562 
z
" clip-path="url(#pb3ea5ea113)" style="fill: #4361ee; opacity: 0.45"/>
   </g>
   <g id="patch_115">
    <path d="M 472.763003 306.851562 
L 475.338897 306.851562 
L 475.338897 167.569048 
L 472.763003 167.569048 
z
" clip-path="url(#pb3ea5ea113)" style="fill: #4361ee; opacity: 0.45"/>
   </g>
   <g id="patch_116">
    <path d="M 476.369254 306.851562 
L 478.945148 306.851562 
L 478.945148 237.210305 
L 476.369254 237.210305 
z
" clip-path="url(#pb3ea5ea113)" style="fill: #4361ee; opacity: 0.45"/>
   </g>
   <g id="patch_117">
    <path d="M 479.975506 306.851562 
L 482.551399 306.851562 
L 482.551399 121.141543 
L 479.975506 121.141543 
z
" clip-path="url(#pb3ea5ea113)" style="fill: #4361ee; opacity: 0.45"/>
   </g>
   <g id="patch_118">
    <path d="M 483.581757 306.851562 
L 486.15765 306.851562 
L 486.15765 283.63781 
L 483.581757 283.63781 
z
" clip-path="url(#pb3ea5ea113)" style="fill: #4361ee; opacity: 0.45"/>
   </g>
   <g id="patch_119">
    <path d="M 487.188008 306.851562 
L 489.763902 306.851562 
L 489.763902 237.210305 
L 487.188008 237.210305 
z
" clip-path="url(#pb3ea5ea113)" style="fill: #4361ee; opacity: 0.45"/>
   </g>
   <g id="patch_120">
    <path d="M 490.794259 306.851562 
L 493.370153 306.851562 
L 493.370153 283.63781 
L 490.794259 283.63781 
z
" clip-path="url(#pb3ea5ea113)" style="fill: #4361ee; opacity: 0.45"/>
   </g>
   <g id="patch_121">
    <path d="M 494.40051 306.851562 
L 496.976404 306.851562 
L 496.976404 237.210305 
L 494.40051 237.210305 
z
" clip-path="url(#pb3ea5ea113)" style="fill: #4361ee; opacity: 0.45"/>
   </g>
   <g id="patch_122">
    <path d="M 498.006762 306.851562 
L 500.582655 306.851562 
L 500.582655 237.210305 
L 498.006762 237.210305 
z
" clip-path="url(#pb3ea5ea113)" style="fill: #4361ee; opacity: 0.45"/>
   </g>
   <g id="patch_123">
    <path d="M 501.613013 306.851562 
L 504.188906 306.851562 
L 504.188906 167.569048 
L 501.613013 167.569048 
z
" clip-path="url(#pb3ea5ea113)" style="fill: #4361ee; opacity: 0.45"/>
   </g>
   <g id="patch_124">
    <path d="M 505.219264 306.851562 
L 507.795158 306.851562 
L 507.795158 213.996553 
L 505.219264 213.996553 
z
" clip-path="url(#pb3ea5ea113)" style="fill: #4361ee; opacity: 0.45"/>
   </g>
   <g id="patch_125">
    <path d="M 508.825515 306.851562 
L 511.401409 306.851562 
L 511.401409 237.210305 
L 508.825515 237.210305 
z
" clip-path="url(#pb3ea5ea113)" style="fill: #4361ee; opacity: 0.45"/>
   </g>
   <g id="patch_126">
    <path d="M 512.431766 306.851562 
L 515.00766 306.851562 
L 515.00766 260.424058 
L 512.431766 260.424058 
z
" clip-path="url(#pb3ea5ea113)" style="fill: #4361ee; opacity: 0.45"/>
   </g>
   <g id="patch_127">
    <path d="M 516.038018 306.851562 
L 518.613911 306.851562 
L 518.613911 260.424058 
L 516.038018 260.424058 
z
" clip-path="url(#pb3ea5ea113)" style="fill: #4361ee; opacity: 0.45"/>
   </g>
   <g id="patch_128">
    <path d="M 519.644269 306.851562 
L 522.220162 306.851562 
L 522.220162 190.7828 
L 519.644269 190.7828 
z
" clip-path="url(#pb3ea5ea113)" style="fill: #4361ee; opacity: 0.45"/>
   </g>
   <g id="patch_129">
    <path d="M 523.25052 306.851562 
L 525.826414 306.851562 
L 525.826414 283.63781 
L 523.25052 283.63781 
z
" clip-path="url(#pb3ea5ea113)" style="fill: #4361ee; opacity: 0.45"/>
   </g>
   <g id="patch_130">
    <path d="M 526.856771 306.851562 
L 529.432665 306.851562 
L 529.432665 306.851562 
L 526.856771 306.851562 
z
" clip-path="url(#pb3ea5ea113)" style="fill: #4361ee; opacity: 0.45"/>
   </g>
   <g id="patch_131">
    <path d="M 530.463022 306.851562 
L 533.038916 306.851562 
L 533.038916 144.355295 
L 530.463022 144.355295 
z
" clip-path="url(#pb3ea5ea113)" style="fill: #4361ee; opacity: 0.45"/>
   </g>
   <g id="patch_132">
    <path d="M 534.069274 306.851562 
L 536.645167 306.851562 
L 536.645167 167.569048 
L 534.069274 167.569048 
z
" clip-path="url(#pb3ea5ea113)" style="fill: #4361ee; opacity: 0.45"/>
   </g>
   <g id="patch_133">
    <path d="M 537.675525 306.851562 
L 540.251418 306.851562 
L 540.251418 237.210305 
L 537.675525 237.210305 
z
" clip-path="url(#pb3ea5ea113)" style="fill: #4361ee; opacity: 0.45"/>
   </g>
   <g id="patch_134">
    <path d="M 541.281776 306.851562 
L 543.85767 306.851562 
L 543.85767 144.355295 
L 541.281776 144.355295 
z
" clip-path="url(#pb3ea5ea113)" style="fill: #4361ee; opacity: 0.45"/>
   </g>
   <g id="patch_135">
    <path d="M 544.888027 306.851562 
L 547.463921 306.851562 
L 547.463921 237.210305 
L 544.888027 237.210305 
z
" clip-path="url(#pb3ea5ea113)" style="fill: #4361ee; opacity: 0.45"/>
   </g>
   <g id="patch_136">
    <path d="M 548.494278 306.851562 
L 551.070172 306.851562 
L 551.070172 167.569048 
L 548.494278 167.569048 
z
" clip-path="url(#pb3ea5ea113)" style="fill: #4361ee; opacity: 0.45"/>
   </g>
   <g id="patch_137">
    <path d="M 552.100529 306.851562 
L 554.676423 306.851562 
L 554.676423 213.996553 
L 552.100529 213.996553 
z
" clip-path="url(#pb3ea5ea113)" style="fill: #4361ee; opacity: 0.45"/>
   </g>
   <g id="patch_138">
    <path d="M 555.706781 306.851562 
L 558.282674 306.851562 
L 558.282674 213.996553 
L 555.706781 213.996553 
z
" clip-path="url(#pb3ea5ea113)" style="fill: #4361ee; opacity: 0.45"/>
   </g>
   <g id="patch_139">
    <path d="M 559.313032 306.851562 
L 561.888926 306.851562 
L 561.888926 260.424058 
L 559.313032 260.424058 
z
" clip-path="url(#pb3ea5ea113)" style="fill: #4361ee; opacity: 0.45"/>
   </g>
   <g id="patch_140">
    <path d="M 562.919283 306.851562 
L 565.495177 306.851562 
L 565.495177 97.92779 
L 562.919283 97.92779 
z
" clip-path="url(#pb3ea5ea113)" style="fill: #4361ee; opacity: 0.45"/>
   </g>
   <g id="patch_141">
    <path d="M 566.525534 306.851562 
L 569.101428 306.851562 
L 569.101428 167.569048 
L 566.525534 167.569048 
z
" clip-path="url(#pb3ea5ea113)" style="fill: #4361ee; opacity: 0.45"/>
   </g>
   <g id="patch_142">
    <path d="M 570.131785 306.851562 
L 572.707679 306.851562 
L 572.707679 237.210305 
L 570.131785 237.210305 
z
" clip-path="url(#pb3ea5ea113)" style="fill: #4361ee; opacity: 0.45"/>
   </g>
   <g id="patch_143">
    <path d="M 573.738037 306.851562 
L 576.31393 306.851562 
L 576.31393 190.7828 
L 573.738037 190.7828 
z
" clip-path="url(#pb3ea5ea113)" style="fill: #4361ee; opacity: 0.45"/>
   </g>
   <g id="patch_144">
    <path d="M 577.344288 306.851562 
L 579.920182 306.851562 
L 579.920182 121.141543 
L 577.344288 121.141543 
z
" clip-path="url(#pb3ea5ea113)" style="fill: #4361ee; opacity: 0.45"/>
   </g>
   <g id="patch_145">
    <path d="M 580.950539 306.851562 
L 583.526433 306.851562 
L 583.526433 167.569048 
L 580.950539 167.569048 
z
" clip-path="url(#pb3ea5ea113)" style="fill: #4361ee; opacity: 0.45"/>
   </g>
   <g id="patch_146">
    <path d="M 584.55679 306.851562 
L 587.132684 306.851562 
L 587.132684 167.569048 
L 584.55679 167.569048 
z
" clip-path="url(#pb3ea5ea113)" style="fill: #4361ee; opacity: 0.45"/>
   </g>
   <g id="patch_147">
    <path d="M 588.163041 306.851562 
L 590.738935 306.851562 
L 590.738935 260.424058 
L 588.163041 260.424058 
z
" clip-path="url(#pb3ea5ea113)" style="fill: #4361ee; opacity: 0.45"/>
   </g>
   <g id="patch_148">
    <path d="M 591.769293 306.851562 
L 594.345186 306.851562 
L 594.345186 306.851562 
L 591.769293 306.851562 
z
" clip-path="url(#pb3ea5ea113)" style="fill: #4361ee; opacity: 0.45"/>
   </g>
   <g id="patch_149">
    <path d="M 595.375544 306.851562 
L 597.951438 306.851562 
L 597.951438 144.355295 
L 595.375544 144.355295 
z
" clip-path="url(#pb3ea5ea113)" style="fill: #4361ee; opacity: 0.45"/>
   </g>
   <g id="patch_150">
    <path d="M 598.981795 306.851562 
L 601.557689 306.851562 
L 601.557689 167.569048 
L 598.981795 167.569048 
z
" clip-path="url(#pb3ea5ea113)" style="fill: #4361ee; opacity: 0.45"/>
   </g>
   <g id="patch_151">
    <path d="M 602.588046 306.851562 
L 605.16394 306.851562 
L 605.16394 213.996553 
L 602.588046 213.996553 
z
" clip-path="url(#pb3ea5ea113)" style="fill: #4361ee; opacity: 0.45"/>
   </g>
   <g id="patch_152">
    <path d="M 606.194297 306.851562 
L 608.770191 306.851562 
L 608.770191 167.569048 
L 606.194297 167.569048 
z
" clip-path="url(#pb3ea5ea113)" style="fill: #4361ee; opacity: 0.45"/>
   </g>
   <g id="patch_153">
    <path d="M 609.800549 306.851562 
L 612.376442 306.851562 
L 612.376442 260.424058 
L 609.800549 260.424058 
z
" clip-path="url(#pb3ea5ea113)" style="fill: #4361ee; opacity: 0.45"/>
   </g>
   <g id="patch_154">
    <path d="M 613.4068 306.851562 
L 615.982694 306.851562 
L 615.982694 283.63781 
L 613.4068 283.63781 
z
" clip-path="url(#pb3ea5ea113)" style="fill: #4361ee; opacity: 0.45"/>
   </g>
   <g id="patch_155">
    <path d="M 617.013051 306.851562 
L 619.588945 306.851562 
L 619.588945 213.996553 
L 617.013051 213.996553 
z
" clip-path="url(#pb3ea5ea113)" style="fill: #4361ee; opacity: 0.45"/>
   </g>
   <g id="patch_156">
    <path d="M 620.619302 306.851562 
L 623.195196 306.851562 
L 623.195196 283.63781 
L 620.619302 283.63781 
z
" clip-path="url(#pb3ea5ea113)" style="fill: #4361ee; opacity: 0.45"/>
   </g>
   <g id="patch_157">
    <path d="M 624.225553 306.851562 
L 626.801447 306.851562 
L 626.801447 167.569048 
L 624.225553 167.569048 
z
" clip-path="url(#pb3ea5ea113)" style="fill: #4361ee; opacity: 0.45"/>
   </g>
   <g id="patch_158">
    <path d="M 627.831805 306.851562 
L 630.407698 306.851562 
L 630.407698 167.569048 
L 627.831805 167.569048 
z
" clip-path="url(#pb3ea5ea113)" style="fill: #4361ee; opacity: 0.45"/>
   </g>
   <g id="patch_159">
    <path d="M 631.438056 306.851562 
L 634.01395 306.851562 
L 634.01395 74.714038 
L 631.438056 74.714038 
z
" clip-path="url(#pb3ea5ea113)" style="fill: #4361ee; opacity: 0.45"/>
   </g>
   <g id="patch_160">
    <path d="M 635.044307 306.851562 
L 637.620201 306.851562 
L 637.620201 283.63781 
L 635.044307 283.63781 
z
" clip-path="url(#pb3ea5ea113)" style="fill: #4361ee; opacity: 0.45"/>
   </g>
   <g id="patch_161">
    <path d="M 638.650558 306.851562 
L 641.226452 306.851562 
L 641.226452 260.424058 
L 638.650558 260.424058 
z
" clip-path="url(#pb3ea5ea113)" style="fill: #4361ee; opacity: 0.45"/>
   </g>
   <g id="patch_162">
    <path d="M 642.256809 306.851562 
L 644.832703 306.851562 
L 644.832703 167.569048 
L 642.256809 167.569048 
z
" clip-path="url(#pb3ea5ea113)" style="fill: #4361ee; opacity: 0.45"/>
   </g>
   <g id="patch_163">
    <path d="M 645.863061 306.851562 
L 648.438954 306.851562 
L 648.438954 121.141543 
L 645.863061 121.141543 
z
" clip-path="url(#pb3ea5ea113)" style="fill: #4361ee; opacity: 0.45"/>
   </g>
   <g id="patch_164">
    <path d="M 649.469312 306.851562 
L 652.045205 306.851562 
L 652.045205 190.7828 
L 649.469312 190.7828 
z
" clip-path="url(#pb3ea5ea113)" style="fill: #4361ee; opacity: 0.45"/>
   </g>
   <g id="patch_165">
    <path d="M 653.075563 306.851562 
L 655.651457 306.851562 
L 655.651457 213.996553 
L 653.075563 213.996553 
z
" clip-path="url(#pb3ea5ea113)" style="fill: #4361ee; opacity: 0.45"/>
   </g>
   <g id="patch_166">
    <path d="M 656.681814 306.851562 
L 659.257708 306.851562 
L 659.257708 190.7828 
L 656.681814 190.7828 
z
" clip-path="url(#pb3ea5ea113)" style="fill: #4361ee; opacity: 0.45"/>
   </g>
   <g id="patch_167">
    <path d="M 660.288065 306.851562 
L 662.863959 306.851562 
L 662.863959 144.355295 
L 660.288065 144.355295 
z
" clip-path="url(#pb3ea5ea113)" style="fill: #4361ee; opacity: 0.45"/>
   </g>
   <g id="patch_168">
    <path d="M 663.894317 306.851562 
L 666.47021 306.851562 
L 666.47021 190.7828 
L 663.894317 190.7828 
z
" clip-path="url(#pb3ea5ea113)" style="fill: #4361ee; opacity: 0.45"/>
   </g>
   <g id="patch_169">
    <path d="M 667.500568 306.851562 
L 670.076461 306.851562 
L 670.076461 167.569048 
L 667.500568 167.569048 
z
" clip-path="url(#pb3ea5ea113)" style="fill: #4361ee; opacity: 0.45"/>
   </g>
   <g id="patch_170">
    <path d="M 671.106819 306.851562 
L 673.682713 306.851562 
L 673.682713 237.210305 
L 671.106819 237.210305 
z
" clip-path="url(#pb3ea5ea113)" style="fill: #4361ee; opacity: 0.45"/>
   </g>
   <g id="patch_171">
    <path d="M 674.71307 306.851562 
L 677.288964 306.851562 
L 677.288964 97.92779 
L 674.71307 97.92779 
z
" clip-path="url(#pb3ea5ea113)" style="fill: #4361ee; opacity: 0.45"/>
   </g>
   <g id="patch_172">
    <path d="M 678.319321 306.851562 
L 680.895215 306.851562 
L 680.895215 190.7828 
L 678.319321 190.7828 
z
" clip-path="url(#pb3ea5ea113)" style="fill: #4361ee; opacity: 0.45"/>
   </g>
   <g id="patch_173">
    <path d="M 681.925573 306.851562 
L 684.501466 306.851562 
L 684.501466 28.286533 
L 681.925573 28.286533 
z
" clip-path="url(#pb3ea5ea113)" style="fill: #4361ee; opacity: 0.45"/>
   </g>
   <g id="patch_174">
    <path d="M 685.531824 306.851562 
L 688.107717 306.851562 
L 688.107717 144.355295 
L 685.531824 144.355295 
z
" clip-path="url(#pb3ea5ea113)" style="fill: #4361ee; opacity: 0.45"/>
   </g>
   <g id="patch_175">
    <path d="M 689.138075 306.851562 
L 691.713969 306.851562 
L 691.713969 213.996553 
L 689.138075 213.996553 
z
" clip-path="url(#pb3ea5ea113)" style="fill: #4361ee; opacity: 0.45"/>
   </g>
   <g id="patch_176">
    <path d="M 692.744326 306.851562 
L 695.32022 306.851562 
L 695.32022 213.996553 
L 692.744326 213.996553 
z
" clip-path="url(#pb3ea5ea113)" style="fill: #4361ee; opacity: 0.45"/>
   </g>
   <g id="patch_177">
    <path d="M 696.350577 306.851562 
L 698.926471 306.851562 
L 698.926471 167.569048 
L 696.350577 167.569048 
z
" clip-path="url(#pb3ea5ea113)" style="fill: #4361ee; opacity: 0.45"/>
   </g>
   <g id="patch_178">
    <path d="M 699.956829 306.851562 
L 702.532722 306.851562 
L 702.532722 213.996553 
L 699.956829 213.996553 
z
" clip-path="url(#pb3ea5ea113)" style="fill: #4361ee; opacity: 0.45"/>
   </g>
   <g id="patch_179">
    <path d="M 703.56308 306.851562 
L 706.138973 306.851562 
L 706.138973 283.63781 
L 703.56308 283.63781 
z
" clip-path="url(#pb3ea5ea113)" style="fill: #4361ee; opacity: 0.45"/>
   </g>
   <g id="patch_180">
    <path d="M 707.169331 306.851562 
L 709.745225 306.851562 
L 709.745225 237.210305 
L 707.169331 237.210305 
z
" clip-path="url(#pb3ea5ea113)" style="fill: #4361ee; opacity: 0.45"/>
   </g>
   <g id="patch_181">
    <path d="M 710.775582 306.851562 
L 713.351476 306.851562 
L 713.351476 283.63781 
L 710.775582 283.63781 
z
" clip-path="url(#pb3ea5ea113)" style="fill: #4361ee; opacity: 0.45"/>
   </g>
   <g id="patch_182">
    <path d="M 714.381833 306.851562 
L 716.957727 306.851562 
L 716.957727 306.851562 
L 714.381833 306.851562 
z
" clip-path="url(#pb3ea5ea113)" style="fill: #4361ee; opacity: 0.45"/>
   </g>
   <g id="patch_183">
    <path d="M 717.988084 306.851562 
L 720.563978 306.851562 
L 720.563978 237.210305 
L 717.988084 237.210305 
z
" clip-path="url(#pb3ea5ea113)" style="fill: #4361ee; opacity: 0.45"/>
   </g>
   <g id="patch_184">
    <path d="M 721.594336 306.851562 
L 724.170229 306.851562 
L 724.170229 237.210305 
L 721.594336 237.210305 
z
" clip-path="url(#pb3ea5ea113)" style="fill: #4361ee; opacity: 0.45"/>
   </g>
   <g id="patch_185">
    <path d="M 725.200587 306.851562 
L 727.776481 306.851562 
L 727.776481 190.7828 
L 725.200587 190.7828 
z
" clip-path="url(#pb3ea5ea113)" style="fill: #4361ee; opacity: 0.45"/>
   </g>
   <g id="patch_186">
    <path d="M 728.806838 306.851562 
L 731.382732 306.851562 
L 731.382732 237.210305 
L 728.806838 237.210305 
z
" clip-path="url(#pb3ea5ea113)" style="fill: #4361ee; opacity: 0.45"/>
   </g>
   <g id="patch_187">
    <path d="M 732.413089 306.851562 
L 734.988983 306.851562 
L 734.988983 121.141543 
L 732.413089 121.141543 
z
" clip-path="url(#pb3ea5ea113)" style="fill: #4361ee; opacity: 0.45"/>
   </g>
   <g id="patch_188">
    <path d="M 736.01934 306.851562 
L 738.595234 306.851562 
L 738.595234 213.996553 
L 736.01934 213.996553 
z
" clip-path="url(#pb3ea5ea113)" style="fill: #4361ee; opacity: 0.45"/>
   </g>
   <g id="patch_189">
    <path d="M 739.625592 306.851562 
L 742.201485 306.851562 
L 742.201485 283.63781 
L 739.625592 283.63781 
z
" clip-path="url(#pb3ea5ea113)" style="fill: #4361ee; opacity: 0.45"/>
   </g>
   <g id="patch_190">
    <path d="M 743.231843 306.851562 
L 745.807737 306.851562 
L 745.807737 190.7828 
L 743.231843 190.7828 
z
" clip-path="url(#pb3ea5ea113)" style="fill: #4361ee; opacity: 0.45"/>
   </g>
   <g id="patch_191">
    <path d="M 746.838094 306.851562 
L 749.413988 306.851562 
L 749.413988 190.7828 
L 746.838094 190.7828 
z
" clip-path="url(#pb3ea5ea113)" style="fill: #4361ee; opacity: 0.45"/>
   </g>
   <g id="patch_192">
    <path d="M 750.444345 306.851562 
L 753.020239 306.851562 
L 753.020239 97.92779 
L 750.444345 97.92779 
z
" clip-path="url(#pb3ea5ea113)" style="fill: #4361ee; opacity: 0.45"/>
   </g>
   <g id="patch_193">
    <path d="M 754.050596 306.851562 
L 756.62649 306.851562 
L 756.62649 237.210305 
L 754.050596 237.210305 
z
" clip-path="url(#pb3ea5ea113)" style="fill: #4361ee; opacity: 0.45"/>
   </g>
   <g id="patch_194">
    <path d="M 757.656848 306.851562 
L 760.232741 306.851562 
L 760.232741 51.500285 
L 757.656848 51.500285 
z
" clip-path="url(#pb3ea5ea113)" style="fill: #4361ee; opacity: 0.45"/>
   </g>
   <g id="patch_195">
    <path d="M 761.263099 306.851562 
L 763.838993 306.851562 
L 763.838993 97.92779 
L 761.263099 97.92779 
z
" clip-path="url(#pb3ea5ea113)" style="fill: #4361ee; opacity: 0.45"/>
   </g>
   <g id="patch_196">
    <path d="M 764.86935 306.851562 
L 767.445244 306.851562 
L 767.445244 237.210305 
L 764.86935 237.210305 
z
" clip-path="url(#pb3ea5ea113)" style="fill: #4361ee; opacity: 0.45"/>
   </g>
   <g id="patch_197">
    <path d="M 768.475601 306.851562 
L 771.051495 306.851562 
L 771.051495 144.355295 
L 768.475601 144.355295 
z
" clip-path="url(#pb3ea5ea113)" style="fill: #4361ee; opacity: 0.45"/>
   </g>
   <g id="patch_198">
    <path d="M 772.081852 306.851562 
L 774.657746 306.851562 
L 774.657746 260.424058 
L 772.081852 260.424058 
z
" clip-path="url(#pb3ea5ea113)" style="fill: #4361ee; opacity: 0.45"/>
   </g>
   <g id="patch_199">
    <path d="M 775.688104 306.851562 
L 778.263997 306.851562 
L 778.263997 190.7828 
L 775.688104 190.7828 
z
" clip-path="url(#pb3ea5ea113)" style="fill: #4361ee; opacity: 0.45"/>
   </g>
   <g id="patch_200">
    <path d="M 779.294355 306.851562 
L 781.870249 306.851562 
L 781.870249 167.569048 
L 779.294355 167.569048 
z
" clip-path="url(#pb3ea5ea113)" style="fill: #4361ee; opacity: 0.45"/>
   </g>
   <g id="patch_201">
    <path d="M 782.900606 306.851562 
L 785.4765 306.851562 
L 785.4765 190.7828 
L 782.900606 190.7828 
z
" clip-path="url(#pb3ea5ea113)" style="fill: #4361ee; opacity: 0.45"/>
   </g>
   <g id="patch_202">
    <path d="M 786.506857 306.851562 
L 789.082751 306.851562 
L 789.082751 97.92779 
L 786.506857 97.92779 
z
" clip-path="url(#pb3ea5ea113)" style="fill: #4361ee; opacity: 0.45"/>
   </g>
   <g id="patch_203">
    <path d="M 790.113108 306.851562 
L 792.689002 306.851562 
L 792.689002 167.569048 
L 790.113108 167.569048 
z
" clip-path="url(#pb3ea5ea113)" style="fill: #4361ee; opacity: 0.45"/>
   </g>
   <g id="patch_204">
    <path d="M 793.71936 306.851562 
L 796.295253 306.851562 
L 796.295253 144.355295 
L 793.71936 144.355295 
z
" clip-path="url(#pb3ea5ea113)" style="fill: #4361ee; opacity: 0.45"/>
   </g>
   <g id="patch_205">
    <path d="M 797.325611 306.851562 
L 799.901504 306.851562 
L 799.901504 237.210305 
L 797.325611 237.210305 
z
" clip-path="url(#pb3ea5ea113)" style="fill: #4361ee; opacity: 0.45"/>
   </g>
   <g id="patch_206">
    <path d="M 800.931862 306.851562 
L 803.507756 306.851562 
L 803.507756 237.210305 
L 800.931862 237.210305 
z
" clip-path="url(#pb3ea5ea113)" style="fill: #4361ee; opacity: 0.45"/>
   </g>
   <g id="matplotlib.axis_1">
    <g id="xtick_1">
     <g id="line2d_1">
      <defs>
       <path id="mf272ca26bb" d="M 0 0 
L 0 3.5 
" style="stroke: #000000; stroke-width: 0.8"/>
      </defs>
      <g>
       <use xlink:href="#mf272ca26bb" x="57.660671" y="306.851562" style="stroke: #000000; stroke-width: 0.8"/>
      </g>
     </g>
     <g id="text_1">
      <text style="font-size: 9px; font-family: 'DejaVu Sans', 'Liberation Sans', 'Noto Sans', 'FreeSans', sans-serif; text-anchor: middle" x="57.660671" y="320.690156" transform="rotate(-0 57.660671 320.690156)">2022-07</text>
     </g>
    </g>
    <g id="xtick_2">
     <g id="line2d_2">
      <g>
       <use xlink:href="#mf272ca26bb" x="152.45356" y="306.851562" style="stroke: #000000; stroke-width: 0.8"/>
      </g>
     </g>
     <g id="text_2">
      <text style="font-size: 9px; font-family: 'DejaVu Sans', 'Liberation Sans', 'Noto Sans', 'FreeSans', sans-serif; text-anchor: middle" x="152.45356" y="320.690156" transform="rotate(-0 152.45356 320.690156)">2023-01</text>
     </g>
    </g>
    <g id="xtick_3">
     <g id="line2d_3">
      <g>
       <use xlink:href="#mf272ca26bb" x="245.700912" y="306.851562" style="stroke: #000000; stroke-width: 0.8"/>
      </g>
     </g>
     <g id="text_3">
      <text style="font-size: 9px; font-family: 'DejaVu Sans', 'Liberation Sans', 'Noto Sans', 'FreeSans', sans-serif; text-anchor: middle" x="245.700912" y="320.690156" transform="rotate(-0 245.700912 320.690156)">2023-07</text>
     </g>
    </g>
    <g id="xtick_4">
     <g id="line2d_4">
      <g>
       <use xlink:href="#mf272ca26bb" x="340.493801" y="306.851562" style="stroke: #000000; stroke-width: 0.8"/>
      </g>
     </g>
     <g id="text_4">
      <text style="font-size: 9px; font-family: 'DejaVu Sans', 'Liberation Sans', 'Noto Sans', 'FreeSans', sans-serif; text-anchor: middle" x="340.493801" y="320.690156" transform="rotate(-0 340.493801 320.690156)">2024-01</text>
     </g>
    </g>
    <g id="xtick_5">
     <g id="line2d_5">
      <g>
       <use xlink:href="#mf272ca26bb" x="434.256332" y="306.851562" style="stroke: #000000; stroke-width: 0.8"/>
      </g>
     </g>
     <g id="text_5">
      <text style="font-size: 9px; font-family: 'DejaVu Sans', 'Liberation Sans', 'Noto Sans', 'FreeSans', sans-serif; text-anchor: middle" x="434.256332" y="320.690156" transform="rotate(-0 434.256332 320.690156)">2024-07</text>
     </g>
    </g>
    <g id="xtick_6">
     <g id="line2d_6">
      <g>
       <use xlink:href="#mf272ca26bb" x="529.04922" y="306.851562" style="stroke: #000000; stroke-width: 0.8"/>
      </g>
     </g>
     <g id="text_6">
      <text style="font-size: 9px; font-family: 'DejaVu Sans', 'Liberation Sans', 'Noto Sans', 'FreeSans', sans-serif; text-anchor: middle" x="529.04922" y="320.690156" transform="rotate(-0 529.04922 320.690156)">2025-01</text>
     </g>
    </g>
    <g id="xtick_7">
     <g id="line2d_7">
      <g>
       <use xlink:href="#mf272ca26bb" x="622.296573" y="306.851562" style="stroke: #000000; stroke-width: 0.8"/>
      </g>
     </g>
     <g id="text_7">
      <text style="font-size: 9px; font-family: 'DejaVu Sans', 'Liberation Sans', 'Noto Sans', 'FreeSans', sans-serif; text-anchor: middle" x="622.296573" y="320.690156" transform="rotate(-0 622.296573 320.690156)">2025-07</text>
     </g>
    </g>
    <g id="xtick_8">
     <g id="line2d_8">
      <g>
       <use xlink:href="#mf272ca26bb" x="717.089461" y="306.851562" style="stroke: #000000; stroke-width: 0.8"/>
      </g>
     </g>
     <g id="text_8">
      <text style="font-size: 9px; font-family: 'DejaVu Sans', 'Liberation Sans', 'Noto Sans', 'FreeSans', sans-serif; text-anchor: middle" x="717.089461" y="320.690156" transform="rotate(-0 717.089461 320.690156)">2026-01</text>
     </g>
    </g>
    <g id="xtick_9">
     <g id="line2d_9">
      <g>
       <use xlink:href="#mf272ca26bb" x="810.336814" y="306.851562" style="stroke: #000000; stroke-width: 0.8"/>
      </g>
     </g>
     <g id="text_9">
      <text style="font-size: 9px; font-family: 'DejaVu Sans', 'Liberation Sans', 'Noto Sans', 'FreeSans', sans-serif; text-anchor: middle" x="810.336814" y="320.690156" transform="rotate(-0 810.336814 320.690156)">2026-07</text>
     </g>
    </g>
    <g id="text_10">
     <text style="font-size: 10px; font-family: 'DejaVu Sans', 'Liberation Sans', 'Noto Sans', 'FreeSans', sans-serif; text-anchor: middle" x="436.185312" y="334.160312" transform="rotate(-0 436.185312 334.160312)">Date</text>
    </g>
   </g>
   <g id="matplotlib.axis_2">
    <g id="ytick_1">
     <g id="line2d_10">
      <defs>
       <path id="m6797a2a14d" d="M 0 0 
L -3.5 0 
" style="stroke: #000000; stroke-width: 0.8"/>
      </defs>
      <g>
       <use xlink:href="#m6797a2a14d" x="32.130625" y="306.851562" style="stroke: #000000; stroke-width: 0.8"/>
      </g>
     </g>
     <g id="text_11">
      <text style="font-size: 9px; font-family: 'DejaVu Sans', 'Liberation Sans', 'Noto Sans', 'FreeSans', sans-serif; text-anchor: end" x="25.130625" y="310.270859" transform="rotate(-0 25.130625 310.270859)">0</text>
     </g>
    </g>
    <g id="ytick_2">
     <g id="line2d_11">
      <g>
       <use xlink:href="#m6797a2a14d" x="32.130625" y="260.424058" style="stroke: #000000; stroke-width: 0.8"/>
      </g>
     </g>
     <g id="text_12">
      <text style="font-size: 9px; font-family: 'DejaVu Sans', 'Liberation Sans', 'Noto Sans', 'FreeSans', sans-serif; text-anchor: end" x="25.130625" y="263.843354" transform="rotate(-0 25.130625 263.843354)">2</text>
     </g>
    </g>
    <g id="ytick_3">
     <g id="line2d_12">
      <g>
       <use xlink:href="#m6797a2a14d" x="32.130625" y="213.996553" style="stroke: #000000; stroke-width: 0.8"/>
      </g>
     </g>
     <g id="text_13">
      <text style="font-size: 9px; font-family: 'DejaVu Sans', 'Liberation Sans', 'Noto Sans', 'FreeSans', sans-serif; text-anchor: end" x="25.130625" y="217.415849" transform="rotate(-0 25.130625 217.415849)">4</text>
     </g>
    </g>
    <g id="ytick_4">
     <g id="line2d_13">
      <g>
       <use xlink:href="#m6797a2a14d" x="32.130625" y="167.569048" style="stroke: #000000; stroke-width: 0.8"/>
      </g>
     </g>
     <g id="text_14">
      <text style="font-size: 9px; font-family: 'DejaVu Sans', 'Liberation Sans', 'Noto Sans', 'FreeSans', sans-serif; text-anchor: end" x="25.130625" y="170.988344" transform="rotate(-0 25.130625 170.988344)">6</text>
     </g>
    </g>
    <g id="ytick_5">
     <g id="line2d_14">
      <g>
       <use xlink:href="#m6797a2a14d" x="32.130625" y="121.141543" style="stroke: #000000; stroke-width: 0.8"/>
      </g>
     </g>
     <g id="text_15">
      <text style="font-size: 9px; font-family: 'DejaVu Sans', 'Liberation Sans', 'Noto Sans', 'FreeSans', sans-serif; text-anchor: end" x="25.130625" y="124.56084" transform="rotate(-0 25.130625 124.56084)">8</text>
     </g>
    </g>
    <g id="ytick_6">
     <g id="line2d_15">
      <g>
       <use xlink:href="#m6797a2a14d" x="32.130625" y="74.714038" style="stroke: #000000; stroke-width: 0.8"/>
      </g>
     </g>
     <g id="text_16">
      <text style="font-size: 9px; font-family: 'DejaVu Sans', 'Liberation Sans', 'Noto Sans', 'FreeSans', sans-serif; text-anchor: end" x="25.130625" y="78.133335" transform="rotate(-0 25.130625 78.133335)">10</text>
     </g>
    </g>
    <g id="ytick_7">
     <g id="line2d_16">
      <g>
       <use xlink:href="#m6797a2a14d" x="32.130625" y="28.286533" style="stroke: #000000; stroke-width: 0.8"/>
      </g>
     </g>
     <g id="text_17">
      <text style="font-size: 9px; font-family: 'DejaVu Sans', 'Liberation Sans', 'Noto Sans', 'FreeSans', sans-serif; text-anchor: end" x="25.130625" y="31.70583" transform="rotate(-0 25.130625 31.70583)">12</text>
     </g>
    </g>
    <g id="text_18">
     <text style="font-size: 10px; font-family: 'DejaVu Sans', 'Liberation Sans', 'Noto Sans', 'FreeSans', sans-serif; text-anchor: middle" x="7.598438" y="160.604922" transform="rotate(-90 7.598438 160.604922)">Papers</text>
    </g>
   </g>
   <g id="line2d_17">
    <path d="M 70.150816 306.851562 
L 77.363319 306.851562 
L 80.96957 301.048124 
L 84.575821 302.208812 
L 88.182072 302.982604 
L 91.788323 303.535312 
L 95.394575 303.949843 
L 99.000826 299.113645 
L 102.607077 299.887437 
L 106.213328 300.520539 
L 109.819579 299.113645 
L 113.425831 293.310207 
L 117.032082 289.441248 
L 120.638333 289.441248 
L 124.244584 281.703331 
L 131.457086 281.703331 
L 135.063338 279.768851 
L 138.669589 279.768851 
L 142.27584 277.834372 
L 145.882091 272.030934 
L 153.094594 268.161975 
L 160.307096 275.899893 
L 163.913347 273.965413 
L 167.519598 275.899893 
L 171.12585 275.899893 
L 174.732101 266.227496 
L 178.338352 268.161975 
L 181.944603 268.161975 
L 185.550854 272.030934 
L 189.157106 273.965413 
L 192.763357 273.965413 
L 196.369608 264.293016 
L 199.975859 260.424058 
L 203.58211 258.489578 
L 207.188362 258.489578 
L 210.794613 266.227496 
L 214.400864 262.358537 
L 218.007115 264.293016 
L 221.613366 260.424058 
L 228.825869 260.424058 
L 232.43212 264.293016 
L 236.038371 260.424058 
L 239.644622 272.030934 
L 243.250874 273.965413 
L 250.463376 270.096454 
L 254.069627 260.424058 
L 257.675878 248.817181 
L 261.28213 250.751661 
L 264.888381 254.620619 
L 272.100883 254.620619 
L 275.707134 250.751661 
L 279.313386 244.948223 
L 282.919637 241.079264 
L 286.525888 239.144784 
L 290.132139 241.079264 
L 293.73839 239.144784 
L 297.344641 243.013743 
L 300.950893 254.620619 
L 304.557144 258.489578 
L 308.163395 254.620619 
L 311.769646 252.68614 
L 315.375897 246.882702 
L 318.982149 250.751661 
L 322.5884 260.424058 
L 326.194651 260.424058 
L 329.800902 262.358537 
L 333.407153 258.489578 
L 337.013405 264.293016 
L 340.619656 264.293016 
L 344.225907 258.489578 
L 347.832158 256.555099 
L 351.438409 260.424058 
L 355.044661 258.489578 
L 358.650912 258.489578 
L 362.257163 252.68614 
L 365.863414 243.013743 
L 369.469665 235.275826 
L 373.075917 235.275826 
L 376.682168 233.341346 
L 380.288419 221.73447 
L 383.89467 213.996553 
L 387.500921 223.668949 
L 391.107173 212.062073 
L 394.713424 208.193114 
L 398.319675 210.127594 
L 401.925926 215.931032 
L 405.532177 215.931032 
L 409.138429 223.668949 
L 412.74468 227.537908 
L 416.350931 229.472388 
L 419.957182 235.275826 
L 423.563433 233.341346 
L 427.169685 244.948223 
L 430.775936 239.144784 
L 434.382187 243.013743 
L 437.988438 237.210305 
L 441.594689 235.275826 
L 445.20094 219.799991 
L 448.807192 223.668949 
L 452.413443 217.865511 
L 456.019694 215.931032 
L 459.625945 217.865511 
L 463.232196 206.258635 
L 466.838448 210.127594 
L 470.444699 212.062073 
L 474.05095 206.258635 
L 477.657201 212.062073 
L 481.263452 206.258635 
L 484.869704 208.193114 
L 488.475955 219.799991 
L 492.082206 219.799991 
L 495.688457 223.668949 
L 499.294708 229.472388 
L 502.90096 217.865511 
L 506.507211 223.668949 
L 510.113462 227.537908 
L 513.719713 223.668949 
L 517.325964 231.406867 
L 520.932216 227.537908 
L 524.538467 241.079264 
L 528.144718 243.013743 
L 531.750969 235.275826 
L 535.35722 225.603429 
L 538.963472 225.603429 
L 542.569723 217.865511 
L 546.175974 223.668949 
L 549.782225 219.799991 
L 553.388476 217.865511 
L 556.994728 213.996553 
L 560.600979 213.996553 
L 564.20723 206.258635 
L 567.813481 196.586238 
L 571.419732 190.7828 
L 575.025984 194.651759 
L 578.632235 190.7828 
L 582.238486 184.979362 
L 589.450988 188.848321 
L 593.057239 200.455197 
L 596.663491 194.651759 
L 603.875993 186.913841 
L 607.482244 192.717279 
L 611.088495 200.455197 
L 614.694747 204.324156 
L 618.300998 206.258635 
L 621.907249 219.799991 
L 629.119751 219.799991 
L 632.726003 204.324156 
L 636.332254 202.389676 
L 639.938505 212.062073 
L 643.544756 212.062073 
L 647.151007 204.324156 
L 650.757259 206.258635 
L 654.36351 202.389676 
L 657.969761 194.651759 
L 661.576012 188.848321 
L 665.182263 181.110403 
L 668.788515 181.110403 
L 672.394766 186.913841 
L 676.001017 188.848321 
L 679.607268 181.110403 
L 683.213519 161.765609 
L 686.819771 159.83113 
L 690.426022 167.569048 
L 694.032273 169.503527 
L 697.638524 165.634568 
L 701.244775 167.569048 
L 704.851027 179.175924 
L 708.457278 183.044883 
L 712.063529 192.717279 
L 715.66978 198.520718 
L 719.276031 210.127594 
L 722.882283 213.996553 
L 726.488534 227.537908 
L 730.094785 235.275826 
L 733.701036 227.537908 
L 737.307287 227.537908 
L 740.913539 237.210305 
L 744.51979 235.275826 
L 748.126041 227.537908 
L 751.732292 215.931032 
L 755.338543 212.062073 
L 758.944794 190.7828 
L 762.551046 179.175924 
L 766.157297 179.175924 
L 769.763548 175.306965 
L 773.369799 177.241444 
L 776.97605 183.044883 
L 780.582302 179.175924 
L 787.794804 163.700089 
L 791.401055 161.765609 
L 795.007306 165.634568 
L 798.613558 165.634568 
L 802.219809 181.110403 
L 802.219809 181.110403 
" clip-path="url(#pb3ea5ea113)" style="fill: none; stroke: #d90429; stroke-width: 2; stroke-linecap: square"/>
   </g>
   <g id="patch_207">
    <path d="M 32.130625 306.851562 
L 32.130625 14.358281 
" style="fill: none; stroke: #000000; stroke-width: 0.8; stroke-linejoin: miter; stroke-linecap: square"/>
   </g>
   <g id="patch_208">
    <path d="M 32.130625 306.851562 
L 840.24 306.851562 
" style="fill: none; stroke: #000000; stroke-width: 0.8; stroke-linejoin: miter; stroke-linecap: square"/>
   </g>
   <g id="text_19">
    <text style="font-size: 11px; font-family: 'DejaVu Sans', 'Liberation Sans', 'Noto Sans', 'FreeSans', sans-serif; text-anchor: middle" x="436.185312" y="8.358281" transform="rotate(-0 436.185312 8.358281)">Papers shared per week</text>
   </g>
   <g id="legend_1">
    <g id="line2d_18">
     <path d="M 40.230625 26.146875 
L 49.230625 26.146875 
L 58.230625 26.146875 
" style="fill: none; stroke: #d90429; stroke-width: 2; stroke-linecap: square"/>
    </g>
    <g id="text_20">
     <text style="font-size: 9px; font-family: 'DejaVu Sans', 'Liberation Sans', 'Noto Sans', 'FreeSans', sans-serif; text-anchor: start" x="65.430625" y="29.296875" transform="rotate(-0 65.430625 29.296875)">3-month average</text>
    </g>
    <g id="patch_209">
     <path d="M 40.230625 42.507187 
L 58.230625 42.507187 
L 58.230625 36.207187 
L 40.230625 36.207187 
z
" style="fill: #4361ee; opacity: 0.45"/>
    </g>
    <g id="text_21">
     <text style="font-size: 9px; font-family: 'DejaVu Sans', 'Liberation Sans', 'Noto Sans', 'FreeSans', sans-serif; text-anchor: start" x="65.430625" y="42.507187" transform="rotate(-0 65.430625 42.507187)">Papers per week</text>
    </g>
   </g>
  </g>
 </g>
 <defs>
  <clipPath id="pb3ea5ea113">
   <rect x="32.130625" y="14.358281" width="808.109375" height="292.493281"/>
  </clipPath>
 </defs>
</svg>
