<?xml version="1.0" encoding="utf-8" standalone="no"?>
<!DOCTYPE svg PUBLIC "-//W3C//DTD SVG 1.1//EN"
  "http://www.w3.org/Graphics/SVG/1.1/DTD/svg11.dtd">
<svg xmlns:xlink="http://www.w3.org/1999/xlink" width="696.24pt" height="264.24pt" viewBox="0 0 696.24 264.24" xmlns="http://www.w3.org/2000/svg" version="1.1">
 <metadata>
  <rdf:RDF xmlns:dc="http://purl.org/dc/elements/1.1/" xmlns:cc="http://creativecommons.org/ns#" xmlns:rdf="http://www.w3.org/1999/02/22-rdf-syntax-ns#">
   <cc:Work>
    <dc:type rdf:resource="http://purl.org/dc/dcmitype/StillImage"/>
    <dc:date>2026-07-15T23:27:49.672276</dc:date>
    <dc:format>image/svg+xml</dc:format>
    <dc:creator>
     <cc:Agent>
      <dc:title>Matplotlib v3.10.9, https://matplotlib.org/</dc:title>
     </cc:Agent>
    </dc:creator>
   </cc:Work>
  </rdf:RDF>
 </metadata>
 <defs>
  <style type="text/css">*{stroke-linejoin: round; stroke-linecap: butt}</style>
 </defs>
 <g id="figure_1">
  <g id="patch_1">
   <path d="M 0 264.24 
L 696.24 264.24 
L 696.24 0 
L 0 0 
L 0 264.24 
z
" style="fill: none"/>
  </g>
  <g id="axes_1">
   <g id="patch_2">
    <path d="M 26.404375 234.851562 
L 696.24 234.851562 
L 696.24 14.358281 
L 26.404375 14.358281 
L 26.404375 234.851562 
z
" style="fill: none"/>
   </g>
   <g id="patch_3">
    <path d="M 56.851449 234.851562 
L 65.619505 234.851562 
L 65.619505 182.353162 
L 56.851449 182.353162 
z
" clip-path="url(#p6479a0c915)" style="fill: #4361ee; opacity: 0.45"/>
   </g>
   <g id="patch_4">
    <path d="M 70.441935 234.851562 
L 79.209991 234.851562 
L 79.209991 208.602362 
L 70.441935 208.602362 
z
" clip-path="url(#p6479a0c915)" style="fill: #4361ee; opacity: 0.45"/>
   </g>
   <g id="patch_5">
    <path d="M 83.594019 234.851562 
L 92.362075 234.851562 
L 92.362075 234.851562 
L 83.594019 234.851562 
z
" clip-path="url(#p6479a0c915)" style="fill: #4361ee; opacity: 0.45"/>
   </g>
   <g id="patch_6">
    <path d="M 97.184506 234.851562 
L 105.952562 234.851562 
L 105.952562 234.851562 
L 97.184506 234.851562 
z
" clip-path="url(#p6479a0c915)" style="fill: #4361ee; opacity: 0.45"/>
   </g>
   <g id="patch_7">
    <path d="M 110.774992 234.851562 
L 119.543048 234.851562 
L 119.543048 234.851562 
L 110.774992 234.851562 
z
" clip-path="url(#p6479a0c915)" style="fill: #4361ee; opacity: 0.45"/>
   </g>
   <g id="patch_8">
    <path d="M 123.05027 234.851562 
L 131.818326 234.851562 
L 131.818326 234.851562 
L 123.05027 234.851562 
z
" clip-path="url(#p6479a0c915)" style="fill: #4361ee; opacity: 0.45"/>
   </g>
   <g id="patch_9">
    <path d="M 136.640757 234.851562 
L 145.408813 234.851562 
L 145.408813 234.851562 
L 136.640757 234.851562 
z
" clip-path="url(#p6479a0c915)" style="fill: #4361ee; opacity: 0.45"/>
   </g>
   <g id="patch_10">
    <path d="M 149.792841 234.851562 
L 158.560896 234.851562 
L 158.560896 234.851562 
L 149.792841 234.851562 
z
" clip-path="url(#p6479a0c915)" style="fill: #4361ee; opacity: 0.45"/>
   </g>
   <g id="patch_11">
    <path d="M 163.383327 234.851562 
L 172.151383 234.851562 
L 172.151383 234.851562 
L 163.383327 234.851562 
z
" clip-path="url(#p6479a0c915)" style="fill: #4361ee; opacity: 0.45"/>
   </g>
   <g id="patch_12">
    <path d="M 176.535411 234.851562 
L 185.303467 234.851562 
L 185.303467 234.851562 
L 176.535411 234.851562 
z
" clip-path="url(#p6479a0c915)" style="fill: #4361ee; opacity: 0.45"/>
   </g>
   <g id="patch_13">
    <path d="M 190.125897 234.851562 
L 198.893953 234.851562 
L 198.893953 234.851562 
L 190.125897 234.851562 
z
" clip-path="url(#p6479a0c915)" style="fill: #4361ee; opacity: 0.45"/>
   </g>
   <g id="patch_14">
    <path d="M 203.716384 234.851562 
L 212.48444 234.851562 
L 212.48444 156.103962 
L 203.716384 156.103962 
z
" clip-path="url(#p6479a0c915)" style="fill: #4361ee; opacity: 0.45"/>
   </g>
   <g id="patch_15">
    <path d="M 216.868468 234.851562 
L 225.636524 234.851562 
L 225.636524 182.353162 
L 216.868468 182.353162 
z
" clip-path="url(#p6479a0c915)" style="fill: #4361ee; opacity: 0.45"/>
   </g>
   <g id="patch_16">
    <path d="M 230.458954 234.851562 
L 239.22701 234.851562 
L 239.22701 208.602362 
L 230.458954 208.602362 
z
" clip-path="url(#p6479a0c915)" style="fill: #4361ee; opacity: 0.45"/>
   </g>
   <g id="patch_17">
    <path d="M 243.611038 234.851562 
L 252.379094 234.851562 
L 252.379094 234.851562 
L 243.611038 234.851562 
z
" clip-path="url(#p6479a0c915)" style="fill: #4361ee; opacity: 0.45"/>
   </g>
   <g id="patch_18">
    <path d="M 257.201525 234.851562 
L 265.96958 234.851562 
L 265.96958 208.602362 
L 257.201525 208.602362 
z
" clip-path="url(#p6479a0c915)" style="fill: #4361ee; opacity: 0.45"/>
   </g>
   <g id="patch_19">
    <path d="M 270.792011 234.851562 
L 279.560067 234.851562 
L 279.560067 208.602362 
L 270.792011 208.602362 
z
" clip-path="url(#p6479a0c915)" style="fill: #4361ee; opacity: 0.45"/>
   </g>
   <g id="patch_20">
    <path d="M 283.505692 234.851562 
L 292.273748 234.851562 
L 292.273748 156.103962 
L 283.505692 156.103962 
z
" clip-path="url(#p6479a0c915)" style="fill: #4361ee; opacity: 0.45"/>
   </g>
   <g id="patch_21">
    <path d="M 297.096179 234.851562 
L 305.864234 234.851562 
L 305.864234 208.602362 
L 297.096179 208.602362 
z
" clip-path="url(#p6479a0c915)" style="fill: #4361ee; opacity: 0.45"/>
   </g>
   <g id="patch_22">
    <path d="M 310.248262 234.851562 
L 319.016318 234.851562 
L 319.016318 208.602362 
L 310.248262 208.602362 
z
" clip-path="url(#p6479a0c915)" style="fill: #4361ee; opacity: 0.45"/>
   </g>
   <g id="patch_23">
    <path d="M 323.838749 234.851562 
L 332.606805 234.851562 
L 332.606805 208.602362 
L 323.838749 208.602362 
z
" clip-path="url(#p6479a0c915)" style="fill: #4361ee; opacity: 0.45"/>
   </g>
   <g id="patch_24">
    <path d="M 336.990833 234.851562 
L 345.758888 234.851562 
L 345.758888 234.851562 
L 336.990833 234.851562 
z
" clip-path="url(#p6479a0c915)" style="fill: #4361ee; opacity: 0.45"/>
   </g>
   <g id="patch_25">
    <path d="M 350.581319 234.851562 
L 359.349375 234.851562 
L 359.349375 208.602362 
L 350.581319 208.602362 
z
" clip-path="url(#p6479a0c915)" style="fill: #4361ee; opacity: 0.45"/>
   </g>
   <g id="patch_26">
    <path d="M 364.171806 234.851562 
L 372.939861 234.851562 
L 372.939861 156.103962 
L 364.171806 156.103962 
z
" clip-path="url(#p6479a0c915)" style="fill: #4361ee; opacity: 0.45"/>
   </g>
   <g id="patch_27">
    <path d="M 377.323889 234.851562 
L 386.091945 234.851562 
L 386.091945 103.605562 
L 377.323889 103.605562 
z
" clip-path="url(#p6479a0c915)" style="fill: #4361ee; opacity: 0.45"/>
   </g>
   <g id="patch_28">
    <path d="M 390.914376 234.851562 
L 399.682432 234.851562 
L 399.682432 51.107161 
L 390.914376 51.107161 
z
" clip-path="url(#p6479a0c915)" style="fill: #4361ee; opacity: 0.45"/>
   </g>
   <g id="patch_29">
    <path d="M 404.06646 234.851562 
L 412.834515 234.851562 
L 412.834515 129.854762 
L 404.06646 129.854762 
z
" clip-path="url(#p6479a0c915)" style="fill: #4361ee; opacity: 0.45"/>
   </g>
   <g id="patch_30">
    <path d="M 417.656946 234.851562 
L 426.425002 234.851562 
L 426.425002 156.103962 
L 417.656946 156.103962 
z
" clip-path="url(#p6479a0c915)" style="fill: #4361ee; opacity: 0.45"/>
   </g>
   <g id="patch_31">
    <path d="M 431.247433 234.851562 
L 440.015489 234.851562 
L 440.015489 208.602362 
L 431.247433 208.602362 
z
" clip-path="url(#p6479a0c915)" style="fill: #4361ee; opacity: 0.45"/>
   </g>
   <g id="patch_32">
    <path d="M 443.522711 234.851562 
L 452.290767 234.851562 
L 452.290767 208.602362 
L 443.522711 208.602362 
z
" clip-path="url(#p6479a0c915)" style="fill: #4361ee; opacity: 0.45"/>
   </g>
   <g id="patch_33">
    <path d="M 457.113197 234.851562 
L 465.881253 234.851562 
L 465.881253 234.851562 
L 457.113197 234.851562 
z
" clip-path="url(#p6479a0c915)" style="fill: #4361ee; opacity: 0.45"/>
   </g>
   <g id="patch_34">
    <path d="M 470.265281 234.851562 
L 479.033337 234.851562 
L 479.033337 234.851562 
L 470.265281 234.851562 
z
" clip-path="url(#p6479a0c915)" style="fill: #4361ee; opacity: 0.45"/>
   </g>
   <g id="patch_35">
    <path d="M 483.855768 234.851562 
L 492.623824 234.851562 
L 492.623824 129.854762 
L 483.855768 129.854762 
z
" clip-path="url(#p6479a0c915)" style="fill: #4361ee; opacity: 0.45"/>
   </g>
   <g id="patch_36">
    <path d="M 497.007851 234.851562 
L 505.775907 234.851562 
L 505.775907 129.854762 
L 497.007851 129.854762 
z
" clip-path="url(#p6479a0c915)" style="fill: #4361ee; opacity: 0.45"/>
   </g>
   <g id="patch_37">
    <path d="M 510.598338 234.851562 
L 519.366394 234.851562 
L 519.366394 156.103962 
L 510.598338 156.103962 
z
" clip-path="url(#p6479a0c915)" style="fill: #4361ee; opacity: 0.45"/>
   </g>
   <g id="patch_38">
    <path d="M 524.188825 234.851562 
L 532.95688 234.851562 
L 532.95688 24.857961 
L 524.188825 24.857961 
z
" clip-path="url(#p6479a0c915)" style="fill: #4361ee; opacity: 0.45"/>
   </g>
   <g id="patch_39">
    <path d="M 537.340908 234.851562 
L 546.108964 234.851562 
L 546.108964 77.356362 
L 537.340908 77.356362 
z
" clip-path="url(#p6479a0c915)" style="fill: #4361ee; opacity: 0.45"/>
   </g>
   <g id="patch_40">
    <path d="M 550.931395 234.851562 
L 559.699451 234.851562 
L 559.699451 129.854762 
L 550.931395 129.854762 
z
" clip-path="url(#p6479a0c915)" style="fill: #4361ee; opacity: 0.45"/>
   </g>
   <g id="patch_41">
    <path d="M 564.083479 234.851562 
L 572.851534 234.851562 
L 572.851534 182.353162 
L 564.083479 182.353162 
z
" clip-path="url(#p6479a0c915)" style="fill: #4361ee; opacity: 0.45"/>
   </g>
   <g id="patch_42">
    <path d="M 577.673965 234.851562 
L 586.442021 234.851562 
L 586.442021 182.353162 
L 577.673965 182.353162 
z
" clip-path="url(#p6479a0c915)" style="fill: #4361ee; opacity: 0.45"/>
   </g>
   <g id="patch_43">
    <path d="M 591.264452 234.851562 
L 600.032507 234.851562 
L 600.032507 208.602362 
L 591.264452 208.602362 
z
" clip-path="url(#p6479a0c915)" style="fill: #4361ee; opacity: 0.45"/>
   </g>
   <g id="patch_44">
    <path d="M 603.53973 234.851562 
L 612.307786 234.851562 
L 612.307786 182.353162 
L 603.53973 182.353162 
z
" clip-path="url(#p6479a0c915)" style="fill: #4361ee; opacity: 0.45"/>
   </g>
   <g id="patch_45">
    <path d="M 617.130216 234.851562 
L 625.898272 234.851562 
L 625.898272 156.103962 
L 617.130216 156.103962 
z
" clip-path="url(#p6479a0c915)" style="fill: #4361ee; opacity: 0.45"/>
   </g>
   <g id="patch_46">
    <path d="M 630.2823 234.851562 
L 639.050356 234.851562 
L 639.050356 208.602362 
L 630.2823 208.602362 
z
" clip-path="url(#p6479a0c915)" style="fill: #4361ee; opacity: 0.45"/>
   </g>
   <g id="patch_47">
    <path d="M 643.872787 234.851562 
L 652.640842 234.851562 
L 652.640842 234.851562 
L 643.872787 234.851562 
z
" clip-path="url(#p6479a0c915)" style="fill: #4361ee; opacity: 0.45"/>
   </g>
   <g id="patch_48">
    <path d="M 657.02487 234.851562 
L 665.792926 234.851562 
L 665.792926 182.353162 
L 657.02487 182.353162 
z
" clip-path="url(#p6479a0c915)" style="fill: #4361ee; opacity: 0.45"/>
   </g>
   <g id="matplotlib.axis_1">
    <g id="xtick_1">
     <g id="line2d_1">
      <defs>
       <path id="mce8e19a08a" d="M 0 0 
L 0 3.5 
" style="stroke: #ffffff; stroke-width: 0.8"/>
      </defs>
      <g>
       <use xlink:href="#mce8e19a08a" x="101.568534" y="234.851562" style="fill: #ffffff; stroke: #ffffff; stroke-width: 0.8"/>
      </g>
     </g>
     <g id="text_1">
      <text style="font-size: 9px; font-family: 'DejaVu Sans', 'Liberation Sans', 'Noto Sans', 'FreeSans', sans-serif; text-anchor: middle; fill: #ffffff" x="101.568534" y="248.690156" transform="rotate(-0 101.568534 248.690156)">2023-01</text>
     </g>
    </g>
    <g id="xtick_2">
     <g id="line2d_2">
      <g>
       <use xlink:href="#mce8e19a08a" x="180.919439" y="234.851562" style="fill: #ffffff; stroke: #ffffff; stroke-width: 0.8"/>
      </g>
     </g>
     <g id="text_2">
      <text style="font-size: 9px; font-family: 'DejaVu Sans', 'Liberation Sans', 'Noto Sans', 'FreeSans', sans-serif; text-anchor: middle; fill: #ffffff" x="180.919439" y="248.690156" transform="rotate(-0 180.919439 248.690156)">2023-07</text>
     </g>
    </g>
    <g id="xtick_3">
     <g id="line2d_3">
      <g>
       <use xlink:href="#mce8e19a08a" x="261.585552" y="234.851562" style="fill: #ffffff; stroke: #ffffff; stroke-width: 0.8"/>
      </g>
     </g>
     <g id="text_3">
      <text style="font-size: 9px; font-family: 'DejaVu Sans', 'Liberation Sans', 'Noto Sans', 'FreeSans', sans-serif; text-anchor: middle; fill: #ffffff" x="261.585552" y="248.690156" transform="rotate(-0 261.585552 248.690156)">2024-01</text>
     </g>
    </g>
    <g id="xtick_4">
     <g id="line2d_4">
      <g>
       <use xlink:href="#mce8e19a08a" x="341.37486" y="234.851562" style="fill: #ffffff; stroke: #ffffff; stroke-width: 0.8"/>
      </g>
     </g>
     <g id="text_4">
      <text style="font-size: 9px; font-family: 'DejaVu Sans', 'Liberation Sans', 'Noto Sans', 'FreeSans', sans-serif; text-anchor: middle; fill: #ffffff" x="341.37486" y="248.690156" transform="rotate(-0 341.37486 248.690156)">2024-07</text>
     </g>
    </g>
    <g id="xtick_5">
     <g id="line2d_5">
      <g>
       <use xlink:href="#mce8e19a08a" x="422.040974" y="234.851562" style="fill: #ffffff; stroke: #ffffff; stroke-width: 0.8"/>
      </g>
     </g>
     <g id="text_5">
      <text style="font-size: 9px; font-family: 'DejaVu Sans', 'Liberation Sans', 'Noto Sans', 'FreeSans', sans-serif; text-anchor: middle; fill: #ffffff" x="422.040974" y="248.690156" transform="rotate(-0 422.040974 248.690156)">2025-01</text>
     </g>
    </g>
    <g id="xtick_6">
     <g id="line2d_6">
      <g>
       <use xlink:href="#mce8e19a08a" x="501.391879" y="234.851562" style="fill: #ffffff; stroke: #ffffff; stroke-width: 0.8"/>
      </g>
     </g>
     <g id="text_6">
      <text style="font-size: 9px; font-family: 'DejaVu Sans', 'Liberation Sans', 'Noto Sans', 'FreeSans', sans-serif; text-anchor: middle; fill: #ffffff" x="501.391879" y="248.690156" transform="rotate(-0 501.391879 248.690156)">2025-07</text>
     </g>
    </g>
    <g id="xtick_7">
     <g id="line2d_7">
      <g>
       <use xlink:href="#mce8e19a08a" x="582.057993" y="234.851562" style="fill: #ffffff; stroke: #ffffff; stroke-width: 0.8"/>
      </g>
     </g>
     <g id="text_7">
      <text style="font-size: 9px; font-family: 'DejaVu Sans', 'Liberation Sans', 'Noto Sans', 'FreeSans', sans-serif; text-anchor: middle; fill: #ffffff" x="582.057993" y="248.690156" transform="rotate(-0 582.057993 248.690156)">2026-01</text>
     </g>
    </g>
    <g id="xtick_8">
     <g id="line2d_8">
      <g>
       <use xlink:href="#mce8e19a08a" x="661.408898" y="234.851562" style="fill: #ffffff; stroke: #ffffff; stroke-width: 0.8"/>
      </g>
     </g>
     <g id="text_8">
      <text style="font-size: 9px; font-family: 'DejaVu Sans', 'Liberation Sans', 'Noto Sans', 'FreeSans', sans-serif; text-anchor: middle; fill: #ffffff" x="661.408898" y="248.690156" transform="rotate(-0 661.408898 248.690156)">2026-07</text>
     </g>
    </g>
    <g id="text_9">
     <text style="font-size: 10px; font-family: 'DejaVu Sans', 'Liberation Sans', 'Noto Sans', 'FreeSans', sans-serif; text-anchor: middle; fill: #ffffff" x="361.322187" y="262.160313" transform="rotate(-0 361.322187 262.160313)">Date</text>
    </g>
   </g>
   <g id="matplotlib.axis_2">
    <g id="ytick_1">
     <g id="line2d_9">
      <defs>
       <path id="m46f265dc6b" d="M 0 0 
L -3.5 0 
" style="stroke: #ffffff; stroke-width: 0.8"/>
      </defs>
      <g>
       <use xlink:href="#m46f265dc6b" x="26.404375" y="234.851562" style="fill: #ffffff; stroke: #ffffff; stroke-width: 0.8"/>
      </g>
     </g>
     <g id="text_10">
      <text style="font-size: 9px; font-family: 'DejaVu Sans', 'Liberation Sans', 'Noto Sans', 'FreeSans', sans-serif; text-anchor: end; fill: #ffffff" x="19.404375" y="238.270859" transform="rotate(-0 19.404375 238.270859)">0</text>
     </g>
    </g>
    <g id="ytick_2">
     <g id="line2d_10">
      <g>
       <use xlink:href="#m46f265dc6b" x="26.404375" y="208.602362" style="fill: #ffffff; stroke: #ffffff; stroke-width: 0.8"/>
      </g>
     </g>
     <g id="text_11">
      <text style="font-size: 9px; font-family: 'DejaVu Sans', 'Liberation Sans', 'Noto Sans', 'FreeSans', sans-serif; text-anchor: end; fill: #ffffff" x="19.404375" y="212.021659" transform="rotate(-0 19.404375 212.021659)">1</text>
     </g>
    </g>
    <g id="ytick_3">
     <g id="line2d_11">
      <g>
       <use xlink:href="#m46f265dc6b" x="26.404375" y="182.353162" style="fill: #ffffff; stroke: #ffffff; stroke-width: 0.8"/>
      </g>
     </g>
     <g id="text_12">
      <text style="font-size: 9px; font-family: 'DejaVu Sans', 'Liberation Sans', 'Noto Sans', 'FreeSans', sans-serif; text-anchor: end; fill: #ffffff" x="19.404375" y="185.772459" transform="rotate(-0 19.404375 185.772459)">2</text>
     </g>
    </g>
    <g id="ytick_4">
     <g id="line2d_12">
      <g>
       <use xlink:href="#m46f265dc6b" x="26.404375" y="156.103962" style="fill: #ffffff; stroke: #ffffff; stroke-width: 0.8"/>
      </g>
     </g>
     <g id="text_13">
      <text style="font-size: 9px; font-family: 'DejaVu Sans', 'Liberation Sans', 'Noto Sans', 'FreeSans', sans-serif; text-anchor: end; fill: #ffffff" x="19.404375" y="159.523259" transform="rotate(-0 19.404375 159.523259)">3</text>
     </g>
    </g>
    <g id="ytick_5">
     <g id="line2d_13">
      <g>
       <use xlink:href="#m46f265dc6b" x="26.404375" y="129.854762" style="fill: #ffffff; stroke: #ffffff; stroke-width: 0.8"/>
      </g>
     </g>
     <g id="text_14">
      <text style="font-size: 9px; font-family: 'DejaVu Sans', 'Liberation Sans', 'Noto Sans', 'FreeSans', sans-serif; text-anchor: end; fill: #ffffff" x="19.404375" y="133.274059" transform="rotate(-0 19.404375 133.274059)">4</text>
     </g>
    </g>
    <g id="ytick_6">
     <g id="line2d_14">
      <g>
       <use xlink:href="#m46f265dc6b" x="26.404375" y="103.605562" style="fill: #ffffff; stroke: #ffffff; stroke-width: 0.8"/>
      </g>
     </g>
     <g id="text_15">
      <text style="font-size: 9px; font-family: 'DejaVu Sans', 'Liberation Sans', 'Noto Sans', 'FreeSans', sans-serif; text-anchor: end; fill: #ffffff" x="19.404375" y="107.024859" transform="rotate(-0 19.404375 107.024859)">5</text>
     </g>
    </g>
    <g id="ytick_7">
     <g id="line2d_15">
      <g>
       <use xlink:href="#m46f265dc6b" x="26.404375" y="77.356362" style="fill: #ffffff; stroke: #ffffff; stroke-width: 0.8"/>
      </g>
     </g>
     <g id="text_16">
      <text style="font-size: 9px; font-family: 'DejaVu Sans', 'Liberation Sans', 'Noto Sans', 'FreeSans', sans-serif; text-anchor: end; fill: #ffffff" x="19.404375" y="80.775658" transform="rotate(-0 19.404375 80.775658)">6</text>
     </g>
    </g>
    <g id="ytick_8">
     <g id="line2d_16">
      <g>
       <use xlink:href="#m46f265dc6b" x="26.404375" y="51.107161" style="fill: #ffffff; stroke: #ffffff; stroke-width: 0.8"/>
      </g>
     </g>
     <g id="text_17">
      <text style="font-size: 9px; font-family: 'DejaVu Sans', 'Liberation Sans', 'Noto Sans', 'FreeSans', sans-serif; text-anchor: end; fill: #ffffff" x="19.404375" y="54.526458" transform="rotate(-0 19.404375 54.526458)">7</text>
     </g>
    </g>
    <g id="ytick_9">
     <g id="line2d_17">
      <g>
       <use xlink:href="#m46f265dc6b" x="26.404375" y="24.857961" style="fill: #ffffff; stroke: #ffffff; stroke-width: 0.8"/>
      </g>
     </g>
     <g id="text_18">
      <text style="font-size: 9px; font-family: 'DejaVu Sans', 'Liberation Sans', 'Noto Sans', 'FreeSans', sans-serif; text-anchor: end; fill: #ffffff" x="19.404375" y="28.277258" transform="rotate(-0 19.404375 28.277258)">8</text>
     </g>
    </g>
    <g id="text_19">
     <text style="font-size: 10px; font-family: 'DejaVu Sans', 'Liberation Sans', 'Noto Sans', 'FreeSans', sans-serif; text-anchor: middle; fill: #ffffff" x="7.598438" y="124.604922" transform="rotate(-90 7.598438 124.604922)">Items</text>
    </g>
   </g>
   <g id="line2d_18">
    <path d="M 61.235477 182.353162 
L 74.825963 195.477762 
L 87.978047 208.602362 
L 101.568534 226.101829 
L 115.15902 234.851562 
L 127.434298 234.851562 
L 141.024785 234.851562 
L 154.176869 234.851562 
L 167.767355 234.851562 
L 180.919439 234.851562 
L 194.509925 234.851562 
L 208.100412 208.602362 
L 221.252496 191.102896 
L 234.842982 182.353162 
L 247.995066 208.602362 
L 261.585552 217.352096 
L 275.176039 217.352096 
L 287.88972 191.102896 
L 301.480206 191.102896 
L 314.63229 191.102896 
L 328.222777 208.602362 
L 341.37486 217.352096 
L 354.965347 217.352096 
L 368.555834 199.852629 
L 381.707917 156.103962 
L 395.298404 103.605562 
L 408.450488 94.855828 
L 422.040974 112.355295 
L 435.631461 164.853695 
L 447.906739 191.102896 
L 461.497225 217.352096 
L 474.649309 226.101829 
L 488.239796 199.852629 
L 501.391879 164.853695 
L 514.982366 138.604495 
L 528.572852 103.605562 
L 541.724936 86.106095 
L 555.315423 77.356362 
L 568.467506 129.854762 
L 582.057993 164.853695 
L 595.64848 191.102896 
L 607.923758 191.102896 
L 621.514244 182.353162 
L 634.666328 182.353162 
L 648.256814 199.852629 
L 661.408898 208.602362 
" clip-path="url(#p6479a0c915)" style="fill: none; stroke: #f72585; stroke-width: 2; stroke-linecap: square"/>
   </g>
   <g id="patch_49">
    <path d="M 26.404375 234.851562 
L 26.404375 14.358281 
" style="fill: none; stroke: #ffffff; stroke-width: 0.8; stroke-linejoin: miter; stroke-linecap: square"/>
   </g>
   <g id="patch_50">
    <path d="M 26.404375 234.851562 
L 696.24 234.851562 
" style="fill: none; stroke: #ffffff; stroke-width: 0.8; stroke-linejoin: miter; stroke-linecap: square"/>
   </g>
   <g id="text_20">
    <text style="font-size: 11px; font-family: 'DejaVu Sans', 'Liberation Sans', 'Noto Sans', 'FreeSans', sans-serif; text-anchor: middle; fill: #ffffff" x="361.322187" y="8.358281" transform="rotate(-0 361.322187 8.358281)">News items per month</text>
   </g>
   <g id="legend_1">
    <g id="line2d_19">
     <path d="M 34.504375 26.146875 
L 43.504375 26.146875 
L 52.504375 26.146875 
" style="fill: none; stroke: #f72585; stroke-width: 2; stroke-linecap: square"/>
    </g>
    <g id="text_21">
     <text style="font-size: 9px; font-family: 'DejaVu Sans', 'Liberation Sans', 'Noto Sans', 'FreeSans', sans-serif; text-anchor: start; fill: #ffffff" x="59.704375" y="29.296875" transform="rotate(-0 59.704375 29.296875)">3-month average</text>
    </g>
    <g id="patch_51">
     <path d="M 34.504375 42.507188 
L 52.504375 42.507188 
L 52.504375 36.207188 
L 34.504375 36.207188 
z
" style="fill: #4361ee; opacity: 0.45"/>
    </g>
    <g id="text_22">
     <text style="font-size: 9px; font-family: 'DejaVu Sans', 'Liberation Sans', 'Noto Sans', 'FreeSans', sans-serif; text-anchor: start; fill: #ffffff" x="59.704375" y="42.507188" transform="rotate(-0 59.704375 42.507188)">Items per month</text>
    </g>
   </g>
  </g>
 </g>
 <defs>
  <clipPath id="p6479a0c915">
   <rect x="26.404375" y="14.358281" width="669.835625" height="220.493281"/>
  </clipPath>
 </defs>
</svg>
