<?xml version="1.0" encoding="utf-8" standalone="no"?>
<!DOCTYPE svg PUBLIC "-//W3C//DTD SVG 1.1//EN"
  "http://www.w3.org/Graphics/SVG/1.1/DTD/svg11.dtd">
<svg xmlns:xlink="http://www.w3.org/1999/xlink" width="696.24pt" height="480.24pt" viewBox="0 0 696.24 480.24" xmlns="http://www.w3.org/2000/svg" version="1.1">
 <metadata>
  <rdf:RDF xmlns:dc="http://purl.org/dc/elements/1.1/" xmlns:cc="http://creativecommons.org/ns#" xmlns:rdf="http://www.w3.org/1999/02/22-rdf-syntax-ns#">
   <cc:Work>
    <dc:type rdf:resource="http://purl.org/dc/dcmitype/StillImage"/>
    <dc:date>2026-06-08T09:19:54.644755</dc:date>
    <dc:format>image/svg+xml</dc:format>
    <dc:creator>
     <cc:Agent>
      <dc:title>Matplotlib v3.10.9, https://matplotlib.org/</dc:title>
     </cc:Agent>
    </dc:creator>
   </cc:Work>
  </rdf:RDF>
 </metadata>
 <defs>
  <style type="text/css">*{stroke-linejoin: round; stroke-linecap: butt}</style>
 </defs>
 <g id="figure_1">
  <g id="patch_1">
   <path d="M 0 480.24 
L 696.24 480.24 
L 696.24 0 
L 0 0 
L 0 480.24 
z
" style="fill: none"/>
  </g>
  <g id="axes_1">
   <g id="patch_2">
    <path d="M 33.946094 450.851563 
L 696.24 450.851563 
L 696.24 16.637812 
L 33.946094 16.637812 
L 33.946094 450.851563 
z
" style="fill: none"/>
   </g>
   <g id="PathCollection_1">
    <defs>
     <path id="C0_0_93cbc0ddbc" d="M 0 2.738613 
C 0.726289 2.738613 1.422928 2.450055 1.936492 1.936492 
C 2.450055 1.422928 2.738613 0.726289 2.738613 -0 
C 2.738613 -0.726289 2.450055 -1.422928 1.936492 -1.936492 
C 1.422928 -2.450055 0.726289 -2.738613 0 -2.738613 
C -0.726289 -2.738613 -1.422928 -2.450055 -1.936492 -1.936492 
C -2.450055 -1.422928 -2.738613 -0.726289 -2.738613 0 
C -2.738613 0.726289 -2.450055 1.422928 -1.936492 1.936492 
C -1.422928 2.450055 -0.726289 2.738613 0 2.738613 
z
"/>
    </defs>
    <g clip-path="url(#p5d4ddf213a)">
     <use xlink:href="#C0_0_93cbc0ddbc" x="615.787798" y="284.583655" style="fill: #1f77b4; fill-opacity: 0.7"/>
    </g>
    <g clip-path="url(#p5d4ddf213a)">
     <use xlink:href="#C0_0_93cbc0ddbc" x="103.53954" y="364.480307" style="fill: #1f77b4; fill-opacity: 0.7"/>
    </g>
    <g clip-path="url(#p5d4ddf213a)">
     <use xlink:href="#C0_0_93cbc0ddbc" x="95.517556" y="369.599187" style="fill: #1f77b4; fill-opacity: 0.7"/>
    </g>
    <g clip-path="url(#p5d4ddf213a)">
     <use xlink:href="#C0_0_93cbc0ddbc" x="205.364363" y="379.363485" style="fill: #1f77b4; fill-opacity: 0.7"/>
    </g>
   </g>
   <g id="PathCollection_2">
    <defs>
     <path id="C1_0_18810aea71" d="M 0 2.738613 
C 0.726289 2.738613 1.422928 2.450055 1.936492 1.936492 
C 2.450055 1.422928 2.738613 0.726289 2.738613 -0 
C 2.738613 -0.726289 2.450055 -1.422928 1.936492 -1.936492 
C 1.422928 -2.450055 0.726289 -2.738613 0 -2.738613 
C -0.726289 -2.738613 -1.422928 -2.450055 -1.936492 -1.936492 
C -2.450055 -1.422928 -2.738613 -0.726289 -2.738613 0 
C -2.738613 0.726289 -2.450055 1.422928 -1.936492 1.936492 
C -1.422928 2.450055 -0.726289 2.738613 0 2.738613 
z
"/>
    </defs>
    <g clip-path="url(#p5d4ddf213a)">
     <use xlink:href="#C1_0_18810aea71" x="343.533178" y="284.169088" style="fill: #aec7e8; fill-opacity: 0.7"/>
    </g>
    <g clip-path="url(#p5d4ddf213a)">
     <use xlink:href="#C1_0_18810aea71" x="525.428581" y="285.19736" style="fill: #aec7e8; fill-opacity: 0.7"/>
    </g>
    <g clip-path="url(#p5d4ddf213a)">
     <use xlink:href="#C1_0_18810aea71" x="534.39713" y="251.881059" style="fill: #aec7e8; fill-opacity: 0.7"/>
    </g>
    <g clip-path="url(#p5d4ddf213a)">
     <use xlink:href="#C1_0_18810aea71" x="324.909173" y="297.813437" style="fill: #aec7e8; fill-opacity: 0.7"/>
    </g>
    <g clip-path="url(#p5d4ddf213a)">
     <use xlink:href="#C1_0_18810aea71" x="260.983802" y="265.035581" style="fill: #aec7e8; fill-opacity: 0.7"/>
    </g>
    <g clip-path="url(#p5d4ddf213a)">
     <use xlink:href="#C1_0_18810aea71" x="378.022567" y="226.331773" style="fill: #aec7e8; fill-opacity: 0.7"/>
    </g>
    <g clip-path="url(#p5d4ddf213a)">
     <use xlink:href="#C1_0_18810aea71" x="540.759767" y="303.138135" style="fill: #aec7e8; fill-opacity: 0.7"/>
    </g>
    <g clip-path="url(#p5d4ddf213a)">
     <use xlink:href="#C1_0_18810aea71" x="413.246027" y="234.291822" style="fill: #aec7e8; fill-opacity: 0.7"/>
    </g>
    <g clip-path="url(#p5d4ddf213a)">
     <use xlink:href="#C1_0_18810aea71" x="375.072954" y="269.886647" style="fill: #aec7e8; fill-opacity: 0.7"/>
    </g>
    <g clip-path="url(#p5d4ddf213a)">
     <use xlink:href="#C1_0_18810aea71" x="225.58613" y="335.224091" style="fill: #aec7e8; fill-opacity: 0.7"/>
    </g>
    <g clip-path="url(#p5d4ddf213a)">
     <use xlink:href="#C1_0_18810aea71" x="349.573901" y="310.703224" style="fill: #aec7e8; fill-opacity: 0.7"/>
    </g>
    <g clip-path="url(#p5d4ddf213a)">
     <use xlink:href="#C1_0_18810aea71" x="195.562721" y="270.966028" style="fill: #aec7e8; fill-opacity: 0.7"/>
    </g>
    <g clip-path="url(#p5d4ddf213a)">
     <use xlink:href="#C1_0_18810aea71" x="362.031618" y="246.946408" style="fill: #aec7e8; fill-opacity: 0.7"/>
    </g>
    <g clip-path="url(#p5d4ddf213a)">
     <use xlink:href="#C1_0_18810aea71" x="354.490602" y="214.458567" style="fill: #aec7e8; fill-opacity: 0.7"/>
    </g>
   </g>
   <g id="PathCollection_3">
    <defs>
     <path id="C2_0_e3249f9f0c" d="M 0 2.738613 
C 0.726289 2.738613 1.422928 2.450055 1.936492 1.936492 
C 2.450055 1.422928 2.738613 0.726289 2.738613 -0 
C 2.738613 -0.726289 2.450055 -1.422928 1.936492 -1.936492 
C 1.422928 -2.450055 0.726289 -2.738613 0 -2.738613 
C -0.726289 -2.738613 -1.422928 -2.450055 -1.936492 -1.936492 
C -2.450055 -1.422928 -2.738613 -0.726289 -2.738613 0 
C -2.738613 0.726289 -2.450055 1.422928 -1.936492 1.936492 
C -1.422928 2.450055 -0.726289 2.738613 0 2.738613 
z
"/>
    </defs>
    <g clip-path="url(#p5d4ddf213a)">
     <use xlink:href="#C2_0_e3249f9f0c" x="563.246673" y="56.997525" style="fill: #ff7f0e; fill-opacity: 0.7"/>
    </g>
    <g clip-path="url(#p5d4ddf213a)">
     <use xlink:href="#C2_0_e3249f9f0c" x="358.951012" y="164.580652" style="fill: #ff7f0e; fill-opacity: 0.7"/>
    </g>
    <g clip-path="url(#p5d4ddf213a)">
     <use xlink:href="#C2_0_e3249f9f0c" x="415.293348" y="69.214625" style="fill: #ff7f0e; fill-opacity: 0.7"/>
    </g>
    <g clip-path="url(#p5d4ddf213a)">
     <use xlink:href="#C2_0_e3249f9f0c" x="503.94845" y="56.305548" style="fill: #ff7f0e; fill-opacity: 0.7"/>
    </g>
    <g clip-path="url(#p5d4ddf213a)">
     <use xlink:href="#C2_0_e3249f9f0c" x="458.209052" y="52.805586" style="fill: #ff7f0e; fill-opacity: 0.7"/>
    </g>
    <g clip-path="url(#p5d4ddf213a)">
     <use xlink:href="#C2_0_e3249f9f0c" x="454.60144" y="36.374801" style="fill: #ff7f0e; fill-opacity: 0.7"/>
    </g>
    <g clip-path="url(#p5d4ddf213a)">
     <use xlink:href="#C2_0_e3249f9f0c" x="334.630055" y="117.319734" style="fill: #ff7f0e; fill-opacity: 0.7"/>
    </g>
    <g clip-path="url(#p5d4ddf213a)">
     <use xlink:href="#C2_0_e3249f9f0c" x="522.835218" y="47.000765" style="fill: #ff7f0e; fill-opacity: 0.7"/>
    </g>
    <g clip-path="url(#p5d4ddf213a)">
     <use xlink:href="#C2_0_e3249f9f0c" x="243.759765" y="212.224295" style="fill: #ff7f0e; fill-opacity: 0.7"/>
    </g>
    <g clip-path="url(#p5d4ddf213a)">
     <use xlink:href="#C2_0_e3249f9f0c" x="465.537361" y="132.533555" style="fill: #ff7f0e; fill-opacity: 0.7"/>
    </g>
    <g clip-path="url(#p5d4ddf213a)">
     <use xlink:href="#C2_0_e3249f9f0c" x="528.34266" y="87.29642" style="fill: #ff7f0e; fill-opacity: 0.7"/>
    </g>
    <g clip-path="url(#p5d4ddf213a)">
     <use xlink:href="#C2_0_e3249f9f0c" x="359.913653" y="158.035743" style="fill: #ff7f0e; fill-opacity: 0.7"/>
    </g>
    <g clip-path="url(#p5d4ddf213a)">
     <use xlink:href="#C2_0_e3249f9f0c" x="277.375346" y="151.63856" style="fill: #ff7f0e; fill-opacity: 0.7"/>
    </g>
    <g clip-path="url(#p5d4ddf213a)">
     <use xlink:href="#C2_0_e3249f9f0c" x="218.218621" y="174.047216" style="fill: #ff7f0e; fill-opacity: 0.7"/>
    </g>
    <g clip-path="url(#p5d4ddf213a)">
     <use xlink:href="#C2_0_e3249f9f0c" x="428.324956" y="129.737427" style="fill: #ff7f0e; fill-opacity: 0.7"/>
    </g>
    <g clip-path="url(#p5d4ddf213a)">
     <use xlink:href="#C2_0_e3249f9f0c" x="216.385557" y="159.006711" style="fill: #ff7f0e; fill-opacity: 0.7"/>
    </g>
    <g clip-path="url(#p5d4ddf213a)">
     <use xlink:href="#C2_0_e3249f9f0c" x="413.668196" y="83.341745" style="fill: #ff7f0e; fill-opacity: 0.7"/>
    </g>
    <g clip-path="url(#p5d4ddf213a)">
     <use xlink:href="#C2_0_e3249f9f0c" x="556.662517" y="110.32248" style="fill: #ff7f0e; fill-opacity: 0.7"/>
    </g>
    <g clip-path="url(#p5d4ddf213a)">
     <use xlink:href="#C2_0_e3249f9f0c" x="538.234298" y="71.798361" style="fill: #ff7f0e; fill-opacity: 0.7"/>
    </g>
    <g clip-path="url(#p5d4ddf213a)">
     <use xlink:href="#C2_0_e3249f9f0c" x="287.230464" y="138.551621" style="fill: #ff7f0e; fill-opacity: 0.7"/>
    </g>
    <g clip-path="url(#p5d4ddf213a)">
     <use xlink:href="#C2_0_e3249f9f0c" x="293.203928" y="95.518537" style="fill: #ff7f0e; fill-opacity: 0.7"/>
    </g>
    <g clip-path="url(#p5d4ddf213a)">
     <use xlink:href="#C2_0_e3249f9f0c" x="593.40305" y="92.550854" style="fill: #ff7f0e; fill-opacity: 0.7"/>
    </g>
    <g clip-path="url(#p5d4ddf213a)">
     <use xlink:href="#C2_0_e3249f9f0c" x="384.613914" y="123.138174" style="fill: #ff7f0e; fill-opacity: 0.7"/>
    </g>
    <g clip-path="url(#p5d4ddf213a)">
     <use xlink:href="#C2_0_e3249f9f0c" x="595.080445" y="66.499585" style="fill: #ff7f0e; fill-opacity: 0.7"/>
    </g>
   </g>
   <g id="PathCollection_4">
    <defs>
     <path id="C3_0_e5759a1dbe" d="M 0 2.738613 
C 0.726289 2.738613 1.422928 2.450055 1.936492 1.936492 
C 2.450055 1.422928 2.738613 0.726289 2.738613 -0 
C 2.738613 -0.726289 2.450055 -1.422928 1.936492 -1.936492 
C 1.422928 -2.450055 0.726289 -2.738613 0 -2.738613 
C -0.726289 -2.738613 -1.422928 -2.450055 -1.936492 -1.936492 
C -2.450055 -1.422928 -2.738613 -0.726289 -2.738613 0 
C -2.738613 0.726289 -2.450055 1.422928 -1.936492 1.936492 
C -1.422928 2.450055 -0.726289 2.738613 0 2.738613 
z
"/>
    </defs>
    <g clip-path="url(#p5d4ddf213a)">
     <use xlink:href="#C3_0_e5759a1dbe" x="614.692048" y="127.740276" style="fill: #ffbb78; fill-opacity: 0.7"/>
    </g>
    <g clip-path="url(#p5d4ddf213a)">
     <use xlink:href="#C3_0_e5759a1dbe" x="463.682935" y="357.820997" style="fill: #ffbb78; fill-opacity: 0.7"/>
    </g>
    <g clip-path="url(#p5d4ddf213a)">
     <use xlink:href="#C3_0_e5759a1dbe" x="650.819985" y="227.569894" style="fill: #ffbb78; fill-opacity: 0.7"/>
    </g>
    <g clip-path="url(#p5d4ddf213a)">
     <use xlink:href="#C3_0_e5759a1dbe" x="507.038644" y="228.391166" style="fill: #ffbb78; fill-opacity: 0.7"/>
    </g>
    <g clip-path="url(#p5d4ddf213a)">
     <use xlink:href="#C3_0_e5759a1dbe" x="612.744417" y="252.175232" style="fill: #ffbb78; fill-opacity: 0.7"/>
    </g>
    <g clip-path="url(#p5d4ddf213a)">
     <use xlink:href="#C3_0_e5759a1dbe" x="421.92319" y="321.968414" style="fill: #ffbb78; fill-opacity: 0.7"/>
    </g>
    <g clip-path="url(#p5d4ddf213a)">
     <use xlink:href="#C3_0_e5759a1dbe" x="184.69205" y="195.84937" style="fill: #ffbb78; fill-opacity: 0.7"/>
    </g>
    <g clip-path="url(#p5d4ddf213a)">
     <use xlink:href="#C3_0_e5759a1dbe" x="509.056848" y="346.621753" style="fill: #ffbb78; fill-opacity: 0.7"/>
    </g>
    <g clip-path="url(#p5d4ddf213a)">
     <use xlink:href="#C3_0_e5759a1dbe" x="597.899345" y="431.114574" style="fill: #ffbb78; fill-opacity: 0.7"/>
    </g>
    <g clip-path="url(#p5d4ddf213a)">
     <use xlink:href="#C3_0_e5759a1dbe" x="183.327827" y="233.468125" style="fill: #ffbb78; fill-opacity: 0.7"/>
    </g>
    <g clip-path="url(#p5d4ddf213a)">
     <use xlink:href="#C3_0_e5759a1dbe" x="527.527862" y="173.264547" style="fill: #ffbb78; fill-opacity: 0.7"/>
    </g>
    <g clip-path="url(#p5d4ddf213a)">
     <use xlink:href="#C3_0_e5759a1dbe" x="178.027698" y="257.534583" style="fill: #ffbb78; fill-opacity: 0.7"/>
    </g>
    <g clip-path="url(#p5d4ddf213a)">
     <use xlink:href="#C3_0_e5759a1dbe" x="638.527314" y="253.753763" style="fill: #ffbb78; fill-opacity: 0.7"/>
    </g>
    <g clip-path="url(#p5d4ddf213a)">
     <use xlink:href="#C3_0_e5759a1dbe" x="666.135732" y="237.830075" style="fill: #ffbb78; fill-opacity: 0.7"/>
    </g>
    <g clip-path="url(#p5d4ddf213a)">
     <use xlink:href="#C3_0_e5759a1dbe" x="181.419431" y="277.433783" style="fill: #ffbb78; fill-opacity: 0.7"/>
    </g>
    <g clip-path="url(#p5d4ddf213a)">
     <use xlink:href="#C3_0_e5759a1dbe" x="437.163428" y="278.486437" style="fill: #ffbb78; fill-opacity: 0.7"/>
    </g>
    <g clip-path="url(#p5d4ddf213a)">
     <use xlink:href="#C3_0_e5759a1dbe" x="599.496086" y="147.135258" style="fill: #ffbb78; fill-opacity: 0.7"/>
    </g>
    <g clip-path="url(#p5d4ddf213a)">
     <use xlink:href="#C3_0_e5759a1dbe" x="590.250179" y="203.825785" style="fill: #ffbb78; fill-opacity: 0.7"/>
    </g>
    <g clip-path="url(#p5d4ddf213a)">
     <use xlink:href="#C3_0_e5759a1dbe" x="484.231798" y="334.376709" style="fill: #ffbb78; fill-opacity: 0.7"/>
    </g>
   </g>
   <g id="PathCollection_5">
    <defs>
     <path id="C4_0_691599dad9" d="M 0 2.738613 
C 0.726289 2.738613 1.422928 2.450055 1.936492 1.936492 
C 2.450055 1.422928 2.738613 0.726289 2.738613 -0 
C 2.738613 -0.726289 2.450055 -1.422928 1.936492 -1.936492 
C 1.422928 -2.450055 0.726289 -2.738613 0 -2.738613 
C -0.726289 -2.738613 -1.422928 -2.450055 -1.936492 -1.936492 
C -2.450055 -1.422928 -2.738613 -0.726289 -2.738613 0 
C -2.738613 0.726289 -2.450055 1.422928 -1.936492 1.936492 
C -1.422928 2.450055 -0.726289 2.738613 0 2.738613 
z
"/>
    </defs>
    <g clip-path="url(#p5d4ddf213a)">
     <use xlink:href="#C4_0_691599dad9" x="167.150117" y="350.260767" style="fill: #2ca02c; fill-opacity: 0.7"/>
    </g>
    <g clip-path="url(#p5d4ddf213a)">
     <use xlink:href="#C4_0_691599dad9" x="126.709474" y="308.249871" style="fill: #2ca02c; fill-opacity: 0.7"/>
    </g>
    <g clip-path="url(#p5d4ddf213a)">
     <use xlink:href="#C4_0_691599dad9" x="76.290614" y="378.571888" style="fill: #2ca02c; fill-opacity: 0.7"/>
    </g>
    <g clip-path="url(#p5d4ddf213a)">
     <use xlink:href="#C4_0_691599dad9" x="392.011033" y="327.209704" style="fill: #2ca02c; fill-opacity: 0.7"/>
    </g>
    <g clip-path="url(#p5d4ddf213a)">
     <use xlink:href="#C4_0_691599dad9" x="138.586885" y="403.284415" style="fill: #2ca02c; fill-opacity: 0.7"/>
    </g>
    <g clip-path="url(#p5d4ddf213a)">
     <use xlink:href="#C4_0_691599dad9" x="142.241451" y="282.398944" style="fill: #2ca02c; fill-opacity: 0.7"/>
    </g>
    <g clip-path="url(#p5d4ddf213a)">
     <use xlink:href="#C4_0_691599dad9" x="64.050362" y="391.183455" style="fill: #2ca02c; fill-opacity: 0.7"/>
    </g>
    <g clip-path="url(#p5d4ddf213a)">
     <use xlink:href="#C4_0_691599dad9" x="108.608844" y="390.428199" style="fill: #2ca02c; fill-opacity: 0.7"/>
    </g>
    <g clip-path="url(#p5d4ddf213a)">
     <use xlink:href="#C4_0_691599dad9" x="422.915865" y="393.144711" style="fill: #2ca02c; fill-opacity: 0.7"/>
    </g>
    <g clip-path="url(#p5d4ddf213a)">
     <use xlink:href="#C4_0_691599dad9" x="451.71662" y="395.162561" style="fill: #2ca02c; fill-opacity: 0.7"/>
    </g>
    <g clip-path="url(#p5d4ddf213a)">
     <use xlink:href="#C4_0_691599dad9" x="490.805519" y="428.295204" style="fill: #2ca02c; fill-opacity: 0.7"/>
    </g>
    <g clip-path="url(#p5d4ddf213a)">
     <use xlink:href="#C4_0_691599dad9" x="474.451412" y="424.314303" style="fill: #2ca02c; fill-opacity: 0.7"/>
    </g>
    <g clip-path="url(#p5d4ddf213a)">
     <use xlink:href="#C4_0_691599dad9" x="460.83675" y="416.001139" style="fill: #2ca02c; fill-opacity: 0.7"/>
    </g>
   </g>
   <g id="PathCollection_6">
    <defs>
     <path id="C5_0_57786acef5" d="M 0 2.738613 
C 0.726289 2.738613 1.422928 2.450055 1.936492 1.936492 
C 2.450055 1.422928 2.738613 0.726289 2.738613 -0 
C 2.738613 -0.726289 2.450055 -1.422928 1.936492 -1.936492 
C 1.422928 -2.450055 0.726289 -2.738613 0 -2.738613 
C -0.726289 -2.738613 -1.422928 -2.450055 -1.936492 -1.936492 
C -2.450055 -1.422928 -2.738613 -0.726289 -2.738613 0 
C -2.738613 0.726289 -2.450055 1.422928 -1.936492 1.936492 
C -1.422928 2.450055 -0.726289 2.738613 0 2.738613 
z
"/>
    </defs>
    <g clip-path="url(#p5d4ddf213a)">
     <use xlink:href="#C5_0_57786acef5" x="591.27317" y="384.917287" style="fill: #98df8a; fill-opacity: 0.7"/>
    </g>
    <g clip-path="url(#p5d4ddf213a)">
     <use xlink:href="#C5_0_57786acef5" x="577.370364" y="418.447893" style="fill: #98df8a; fill-opacity: 0.7"/>
    </g>
    <g clip-path="url(#p5d4ddf213a)">
     <use xlink:href="#C5_0_57786acef5" x="380.746712" y="346.44015" style="fill: #98df8a; fill-opacity: 0.7"/>
    </g>
    <g clip-path="url(#p5d4ddf213a)">
     <use xlink:href="#C5_0_57786acef5" x="556.847657" y="400.891729" style="fill: #98df8a; fill-opacity: 0.7"/>
    </g>
    <g clip-path="url(#p5d4ddf213a)">
     <use xlink:href="#C5_0_57786acef5" x="548.753479" y="366.763435" style="fill: #98df8a; fill-opacity: 0.7"/>
    </g>
    <g clip-path="url(#p5d4ddf213a)">
     <use xlink:href="#C5_0_57786acef5" x="347.969899" y="361.50212" style="fill: #98df8a; fill-opacity: 0.7"/>
    </g>
    <g clip-path="url(#p5d4ddf213a)">
     <use xlink:href="#C5_0_57786acef5" x="501.576183" y="382.69196" style="fill: #98df8a; fill-opacity: 0.7"/>
    </g>
    <g clip-path="url(#p5d4ddf213a)">
     <use xlink:href="#C5_0_57786acef5" x="409.61388" y="366.017062" style="fill: #98df8a; fill-opacity: 0.7"/>
    </g>
    <g clip-path="url(#p5d4ddf213a)">
     <use xlink:href="#C5_0_57786acef5" x="573.62069" y="340.925527" style="fill: #98df8a; fill-opacity: 0.7"/>
    </g>
   </g>
   <g id="matplotlib.axis_1">
    <g id="xtick_1">
     <g id="line2d_1">
      <defs>
       <path id="m2be4600fc2" d="M 0 0 
L 0 3.5 
" style="stroke: #000000; stroke-width: 0.8"/>
      </defs>
      <g>
       <use xlink:href="#m2be4600fc2" x="60.105044" y="450.851563" style="stroke: #000000; stroke-width: 0.8"/>
      </g>
     </g>
     <g id="text_1">
      <text style="font-size: 9px; font-family: 'DejaVu Sans', 'Liberation Sans', 'Noto Sans', 'FreeSans', sans-serif; text-anchor: middle" x="60.105044" y="464.690156" transform="rotate(-0 60.105044 464.690156)">3.0</text>
     </g>
    </g>
    <g id="xtick_2">
     <g id="line2d_2">
      <g>
       <use xlink:href="#m2be4600fc2" x="134.032249" y="450.851563" style="stroke: #000000; stroke-width: 0.8"/>
      </g>
     </g>
     <g id="text_2">
      <text style="font-size: 9px; font-family: 'DejaVu Sans', 'Liberation Sans', 'Noto Sans', 'FreeSans', sans-serif; text-anchor: middle" x="134.032249" y="464.690156" transform="rotate(-0 134.032249 464.690156)">3.5</text>
     </g>
    </g>
    <g id="xtick_3">
     <g id="line2d_3">
      <g>
       <use xlink:href="#m2be4600fc2" x="207.959454" y="450.851563" style="stroke: #000000; stroke-width: 0.8"/>
      </g>
     </g>
     <g id="text_3">
      <text style="font-size: 9px; font-family: 'DejaVu Sans', 'Liberation Sans', 'Noto Sans', 'FreeSans', sans-serif; text-anchor: middle" x="207.959454" y="464.690156" transform="rotate(-0 207.959454 464.690156)">4.0</text>
     </g>
    </g>
    <g id="xtick_4">
     <g id="line2d_4">
      <g>
       <use xlink:href="#m2be4600fc2" x="281.886658" y="450.851563" style="stroke: #000000; stroke-width: 0.8"/>
      </g>
     </g>
     <g id="text_4">
      <text style="font-size: 9px; font-family: 'DejaVu Sans', 'Liberation Sans', 'Noto Sans', 'FreeSans', sans-serif; text-anchor: middle" x="281.886658" y="464.690156" transform="rotate(-0 281.886658 464.690156)">4.5</text>
     </g>
    </g>
    <g id="xtick_5">
     <g id="line2d_5">
      <g>
       <use xlink:href="#m2be4600fc2" x="355.813863" y="450.851563" style="stroke: #000000; stroke-width: 0.8"/>
      </g>
     </g>
     <g id="text_5">
      <text style="font-size: 9px; font-family: 'DejaVu Sans', 'Liberation Sans', 'Noto Sans', 'FreeSans', sans-serif; text-anchor: middle" x="355.813863" y="464.690156" transform="rotate(-0 355.813863 464.690156)">5.0</text>
     </g>
    </g>
    <g id="xtick_6">
     <g id="line2d_6">
      <g>
       <use xlink:href="#m2be4600fc2" x="429.741068" y="450.851563" style="stroke: #000000; stroke-width: 0.8"/>
      </g>
     </g>
     <g id="text_6">
      <text style="font-size: 9px; font-family: 'DejaVu Sans', 'Liberation Sans', 'Noto Sans', 'FreeSans', sans-serif; text-anchor: middle" x="429.741068" y="464.690156" transform="rotate(-0 429.741068 464.690156)">5.5</text>
     </g>
    </g>
    <g id="xtick_7">
     <g id="line2d_7">
      <g>
       <use xlink:href="#m2be4600fc2" x="503.668273" y="450.851563" style="stroke: #000000; stroke-width: 0.8"/>
      </g>
     </g>
     <g id="text_7">
      <text style="font-size: 9px; font-family: 'DejaVu Sans', 'Liberation Sans', 'Noto Sans', 'FreeSans', sans-serif; text-anchor: middle" x="503.668273" y="464.690156" transform="rotate(-0 503.668273 464.690156)">6.0</text>
     </g>
    </g>
    <g id="xtick_8">
     <g id="line2d_8">
      <g>
       <use xlink:href="#m2be4600fc2" x="577.595478" y="450.851563" style="stroke: #000000; stroke-width: 0.8"/>
      </g>
     </g>
     <g id="text_8">
      <text style="font-size: 9px; font-family: 'DejaVu Sans', 'Liberation Sans', 'Noto Sans', 'FreeSans', sans-serif; text-anchor: middle" x="577.595478" y="464.690156" transform="rotate(-0 577.595478 464.690156)">6.5</text>
     </g>
    </g>
    <g id="xtick_9">
     <g id="line2d_9">
      <g>
       <use xlink:href="#m2be4600fc2" x="651.522683" y="450.851563" style="stroke: #000000; stroke-width: 0.8"/>
      </g>
     </g>
     <g id="text_9">
      <text style="font-size: 9px; font-family: 'DejaVu Sans', 'Liberation Sans', 'Noto Sans', 'FreeSans', sans-serif; text-anchor: middle" x="651.522683" y="464.690156" transform="rotate(-0 651.522683 464.690156)">7.0</text>
     </g>
    </g>
    <g id="text_10">
     <text style="font-size: 10px; font-family: 'DejaVu Sans', 'Liberation Sans', 'Noto Sans', 'FreeSans', sans-serif; text-anchor: middle" x="365.093047" y="478.160313" transform="rotate(-0 365.093047 478.160313)">UMAP 1</text>
    </g>
   </g>
   <g id="matplotlib.axis_2">
    <g id="ytick_1">
     <g id="line2d_10">
      <defs>
       <path id="mf1ba4795f9" d="M 0 0 
L -3.5 0 
" style="stroke: #000000; stroke-width: 0.8"/>
      </defs>
      <g>
       <use xlink:href="#mf1ba4795f9" x="33.946094" y="423.958768" style="stroke: #000000; stroke-width: 0.8"/>
      </g>
     </g>
     <g id="text_11">
      <text style="font-size: 9px; font-family: 'DejaVu Sans', 'Liberation Sans', 'Noto Sans', 'FreeSans', sans-serif; text-anchor: end" x="26.946094" y="427.378065" transform="rotate(-0 26.946094 427.378065)">−1</text>
     </g>
    </g>
    <g id="ytick_2">
     <g id="line2d_11">
      <g>
       <use xlink:href="#mf1ba4795f9" x="33.946094" y="344.511722" style="stroke: #000000; stroke-width: 0.8"/>
      </g>
     </g>
     <g id="text_12">
      <text style="font-size: 9px; font-family: 'DejaVu Sans', 'Liberation Sans', 'Noto Sans', 'FreeSans', sans-serif; text-anchor: end" x="26.946094" y="347.931019" transform="rotate(-0 26.946094 347.931019)">0</text>
     </g>
    </g>
    <g id="ytick_3">
     <g id="line2d_12">
      <g>
       <use xlink:href="#mf1ba4795f9" x="33.946094" y="265.064676" style="stroke: #000000; stroke-width: 0.8"/>
      </g>
     </g>
     <g id="text_13">
      <text style="font-size: 9px; font-family: 'DejaVu Sans', 'Liberation Sans', 'Noto Sans', 'FreeSans', sans-serif; text-anchor: end" x="26.946094" y="268.483973" transform="rotate(-0 26.946094 268.483973)">1</text>
     </g>
    </g>
    <g id="ytick_4">
     <g id="line2d_13">
      <g>
       <use xlink:href="#mf1ba4795f9" x="33.946094" y="185.617629" style="stroke: #000000; stroke-width: 0.8"/>
      </g>
     </g>
     <g id="text_14">
      <text style="font-size: 9px; font-family: 'DejaVu Sans', 'Liberation Sans', 'Noto Sans', 'FreeSans', sans-serif; text-anchor: end" x="26.946094" y="189.036926" transform="rotate(-0 26.946094 189.036926)">2</text>
     </g>
    </g>
    <g id="ytick_5">
     <g id="line2d_14">
      <g>
       <use xlink:href="#mf1ba4795f9" x="33.946094" y="106.170583" style="stroke: #000000; stroke-width: 0.8"/>
      </g>
     </g>
     <g id="text_15">
      <text style="font-size: 9px; font-family: 'DejaVu Sans', 'Liberation Sans', 'Noto Sans', 'FreeSans', sans-serif; text-anchor: end" x="26.946094" y="109.58988" transform="rotate(-0 26.946094 109.58988)">3</text>
     </g>
    </g>
    <g id="ytick_6">
     <g id="line2d_15">
      <g>
       <use xlink:href="#mf1ba4795f9" x="33.946094" y="26.723537" style="stroke: #000000; stroke-width: 0.8"/>
      </g>
     </g>
     <g id="text_16">
      <text style="font-size: 9px; font-family: 'DejaVu Sans', 'Liberation Sans', 'Noto Sans', 'FreeSans', sans-serif; text-anchor: end" x="26.946094" y="30.142834" transform="rotate(-0 26.946094 30.142834)">4</text>
     </g>
    </g>
    <g id="text_17">
     <text style="font-size: 10px; font-family: 'DejaVu Sans', 'Liberation Sans', 'Noto Sans', 'FreeSans', sans-serif; text-anchor: middle" x="7.598438" y="233.744688" transform="rotate(-90 7.598438 233.744688)">UMAP 2</text>
    </g>
   </g>
   <g id="patch_3">
    <path d="M 33.946094 450.851563 
L 33.946094 16.637812 
" style="fill: none; stroke: #000000; stroke-width: 0.8; stroke-linejoin: miter; stroke-linecap: square"/>
   </g>
   <g id="patch_4">
    <path d="M 33.946094 450.851563 
L 696.24 450.851563 
" style="fill: none; stroke: #000000; stroke-width: 0.8; stroke-linejoin: miter; stroke-linecap: square"/>
   </g>
   <g id="text_18">
    <text style="font-size: 14px; font-family: 'DejaVu Sans', 'Liberation Sans', 'Noto Sans', 'FreeSans', sans-serif; text-anchor: middle" x="365.093047" y="10.637812" transform="rotate(-0 365.093047 10.637812)">News topic map</text>
   </g>
   <g id="PathCollection_7">
    <path d="M 255.052288 345.034523 
L 250.580152 353.978795 
L 259.524424 353.978795 
z
" clip-path="url(#p5d4ddf213a)" style="fill: #1f77b4"/>
   </g>
   <g id="PathCollection_8">
    <path d="M 370.257071 266.673804 
L 365.784935 275.618076 
L 374.729207 275.618076 
z
" clip-path="url(#p5d4ddf213a)" style="fill: #aec7e8"/>
   </g>
   <g id="PathCollection_9">
    <path d="M 417.152992 103.312882 
L 412.680856 112.257154 
L 421.625128 112.257154 
z
" clip-path="url(#p5d4ddf213a)" style="fill: #ff7f0e"/>
   </g>
   <g id="PathCollection_10">
    <path d="M 476.245066 252.704753 
L 471.77293 261.649025 
L 480.717202 261.649025 
z
" clip-path="url(#p5d4ddf213a)" style="fill: #ffbb78"/>
   </g>
   <g id="PathCollection_11">
    <path d="M 270.490356 371.566725 
L 266.01822 380.510997 
L 274.962492 380.510997 
z
" clip-path="url(#p5d4ddf213a)" style="fill: #2ca02c"/>
   </g>
   <g id="PathCollection_12">
    <path d="M 498.641447 369.816436 
L 494.169311 378.760708 
L 503.113583 378.760708 
z
" clip-path="url(#p5d4ddf213a)" style="fill: #98df8a"/>
   </g>
   <g id="legend_1">
    <g id="PathCollection_13">
     <path d="M 47.246094 29.581496 
C 48.08474 29.581496 48.88915 29.248299 49.482162 28.655287 
C 50.075174 28.062275 50.408371 27.257865 50.408371 26.419219 
C 50.408371 25.580573 50.075174 24.776163 49.482162 24.183151 
C 48.88915 23.590139 48.08474 23.256941 47.246094 23.256941 
C 46.407448 23.256941 45.603038 23.590139 45.010026 24.183151 
C 44.417014 24.776163 44.083816 25.580573 44.083816 26.419219 
C 44.083816 27.257865 44.417014 28.062275 45.010026 28.655287 
C 45.603038 29.248299 46.407448 29.581496 47.246094 29.581496 
z
" style="fill: #1f77b4; fill-opacity: 0.7"/>
    </g>
    <g id="text_19">
     <text style="font-size: 7px; font-family: 'DejaVu Sans', 'Liberation Sans', 'Noto Sans', 'FreeSans', sans-serif; text-anchor: start" x="59.846094" y="28.256719" transform="rotate(-0 59.846094 28.256719)">sourced, open sourced, lazyslide wsidata</text>
    </g>
    <g id="PathCollection_14">
     <path d="M 47.246094 39.856184 
C 48.08474 39.856184 48.88915 39.522986 49.482162 38.929974 
C 50.075174 38.336962 50.408371 37.532552 50.408371 36.693906 
C 50.408371 35.85526 50.075174 35.05085 49.482162 34.457838 
C 48.88915 33.864826 48.08474 33.531629 47.246094 33.531629 
C 46.407448 33.531629 45.603038 33.864826 45.010026 34.457838 
C 44.417014 35.05085 44.083816 35.85526 44.083816 36.693906 
C 44.083816 37.532552 44.417014 38.336962 45.010026 38.929974 
C 45.603038 39.522986 46.407448 39.856184 47.246094 39.856184 
z
" style="fill: #aec7e8; fill-opacity: 0.7"/>
    </g>
    <g id="text_20">
     <text style="font-size: 7px; font-family: 'DejaVu Sans', 'Liberation Sans', 'Noto Sans', 'FreeSans', sans-serif; text-anchor: start" x="59.846094" y="38.531406" transform="rotate(-0 59.846094 38.531406)">welcome, cemm, congratulations</text>
    </g>
    <g id="PathCollection_15">
     <path d="M 47.246094 50.130871 
C 48.08474 50.130871 48.88915 49.797674 49.482162 49.204662 
C 50.075174 48.61165 50.408371 47.80724 50.408371 46.968594 
C 50.408371 46.129948 50.075174 45.325538 49.482162 44.732526 
C 48.88915 44.139514 48.08474 43.806316 47.246094 43.806316 
C 46.407448 43.806316 45.603038 44.139514 45.010026 44.732526 
C 44.417014 45.325538 44.083816 46.129948 44.083816 46.968594 
C 44.083816 47.80724 44.417014 48.61165 45.010026 49.204662 
C 45.603038 49.797674 46.407448 50.130871 47.246094 50.130871 
z
" style="fill: #ff7f0e; fill-opacity: 0.7"/>
    </g>
    <g id="text_21">
     <text style="font-size: 7px; font-family: 'DejaVu Sans', 'Liberation Sans', 'Noto Sans', 'FreeSans', sans-serif; text-anchor: start" x="59.846094" y="48.806094" transform="rotate(-0 59.846094 48.806094)">gave, gave talk, talk</text>
    </g>
    <g id="PathCollection_16">
     <path d="M 47.246094 60.405559 
C 48.08474 60.405559 48.88915 60.072361 49.482162 59.479349 
C 50.075174 58.886337 50.408371 58.081927 50.408371 57.243281 
C 50.408371 56.404635 50.075174 55.600225 49.482162 55.007213 
C 48.88915 54.414201 48.08474 54.081004 47.246094 54.081004 
C 46.407448 54.081004 45.603038 54.414201 45.010026 55.007213 
C 44.417014 55.600225 44.083816 56.404635 44.083816 57.243281 
C 44.083816 58.081927 44.417014 58.886337 45.010026 59.479349 
C 45.603038 60.072361 46.407448 60.405559 47.246094 60.405559 
z
" style="fill: #ffbb78; fill-opacity: 0.7"/>
    </g>
    <g id="text_22">
     <text style="font-size: 7px; font-family: 'DejaVu Sans', 'Liberation Sans', 'Noto Sans', 'FreeSans', sans-serif; text-anchor: start" x="59.846094" y="59.080781" transform="rotate(-0 59.846094 59.080781)">vienna, netmed, lbi netmed</text>
    </g>
    <g id="PathCollection_17">
     <path d="M 47.246094 70.680246 
C 48.08474 70.680246 48.88915 70.347049 49.482162 69.754037 
C 50.075174 69.161025 50.408371 68.356615 50.408371 67.517969 
C 50.408371 66.679323 50.075174 65.874913 49.482162 65.281901 
C 48.88915 64.688889 48.08474 64.355691 47.246094 64.355691 
C 46.407448 64.355691 45.603038 64.688889 45.010026 65.281901 
C 44.417014 65.874913 44.083816 66.679323 44.083816 67.517969 
C 44.083816 68.356615 44.417014 69.161025 45.010026 69.754037 
C 45.603038 70.347049 46.407448 70.680246 47.246094 70.680246 
z
" style="fill: #2ca02c; fill-opacity: 0.7"/>
    </g>
    <g id="text_23">
     <text style="font-size: 7px; font-family: 'DejaVu Sans', 'Liberation Sans', 'Noto Sans', 'FreeSans', sans-serif; text-anchor: start" x="59.846094" y="69.355469" transform="rotate(-0 59.846094 69.355469)">lazyslide, hackathon, source</text>
    </g>
    <g id="PathCollection_18">
     <path d="M 47.246094 80.954934 
C 48.08474 80.954934 48.88915 80.621736 49.482162 80.028724 
C 50.075174 79.435712 50.408371 78.631302 50.408371 77.792656 
C 50.408371 76.95401 50.075174 76.1496 49.482162 75.556588 
C 48.88915 74.963576 48.08474 74.630379 47.246094 74.630379 
C 46.407448 74.630379 45.603038 74.963576 45.010026 75.556588 
C 44.417014 76.1496 44.083816 76.95401 44.083816 77.792656 
C 44.083816 78.631302 44.417014 79.435712 45.010026 80.028724 
C 45.603038 80.621736 46.407448 80.954934 47.246094 80.954934 
z
" style="fill: #98df8a; fill-opacity: 0.7"/>
    </g>
    <g id="text_24">
     <text style="font-size: 7px; font-family: 'DejaVu Sans', 'Liberation Sans', 'Noto Sans', 'FreeSans', sans-serif; text-anchor: start" x="59.846094" y="79.630156" transform="rotate(-0 59.846094 79.630156)">lab, congratulations, video</text>
    </g>
   </g>
  </g>
 </g>
 <defs>
  <clipPath id="p5d4ddf213a">
   <rect x="33.946094" y="16.637812" width="662.293906" height="434.21375"/>
  </clipPath>
 </defs>
</svg>
