<?xml version="1.0" encoding="UTF-8"?>
<svg width="163px" height="40px" viewBox="0 0 163 40" version="1.1" xmlns="http://www.w3.org/2000/svg" xmlns:xlink="http://www.w3.org/1999/xlink">
    <title> </title>
    <g id="Symbols" stroke="none" stroke-width="1" fill="none" fill-rule="evenodd">
        <g id="Nav-/-XLarge" transform="translate(-84.000000, -24.000000)">
            <g id="Group" transform="translate(84.000000, 24.000000)">
                <g id="LB_Logo_4c" transform="translate(0.000000, 0.217524)">
                    <polyline id="Fill-1" fill="#084B8F" points="13.2048473 0.199619048 32.492642 0.199619048 22.8290878 16.7824762 13.2048473 0.199619048"></polyline>
                    <polyline id="Fill-2" fill="#084B8F" points="0 18.3504762 19.2866497 18.3504762 9.66088245 1.768 0 18.3504762"></polyline>
                    <polyline id="Fill-3" fill="#084B8F" points="45.6974893 18.3504762 26.4096945 18.3504762 36.0732488 1.768 45.6974893 18.3504762"></polyline>
                    <polyline id="Fill-4" fill="#A499A4" points="13.2048473 39.5394286 32.492642 39.5394286 22.8672565 22.9561905 13.2048473 39.5394286"></polyline>
                    <polyline id="Fill-5" fill="#084B8F" points="26.4096945 21.3874286 45.697871 21.3874286 36.0343167 37.9695238 26.4096945 21.3874286"></polyline>
                    <polyline id="Fill-6" fill="#084B8F" points="0 21.3874286 9.62424049 37.9699048 19.2866497 21.3874286 0 21.3874286"></polyline>
                    <polyline id="Fill-7" fill="#A499A4" points="52.2002926 0.14552381 52.2002926 11.2899048 59.7512087 11.2899048 59.7512087 9.52990476 53.9640687 9.52990476 53.9640687 0.14552381 52.2002926 0.14552381"></polyline>
                    <path d="M61.2153605,9.91466667 C60.8168791,9.27466667 60.6180201,7.9607619 60.6180201,5.97180952 L60.6180201,0.145142857 L62.382178,0.145142857 L62.382178,5.97904762 C62.382178,7.62780952 62.4936306,8.632 62.7169176,8.99085714 C62.9986026,9.44685714 63.8322073,9.67504762 65.2169681,9.67504762 C66.596767,9.67504762 67.4254098,9.44685714 67.7025146,8.99085714 C67.9254199,8.63657143 68.0376359,7.63771429 68.0376359,5.99352381 L68.0376359,0.145142857 L69.801412,0.145142857 L69.801412,5.99352381 C69.801412,7.97257143 69.6021713,9.28190476 69.20369,9.92190476 C68.8345986,10.5234286 68.2563426,10.9432381 67.4685404,11.1801905 C66.895628,11.3500952 66.1448495,11.4350476 65.2169681,11.4350476 C63.1760871,11.4350476 61.8420907,10.9287619 61.2153605,9.91466667" id="Fill-8" fill="#A499A4"></path>
                    <path d="M71.2598385,11.2899048 L71.2598385,0.145142857 L75.55191,0.145142857 C77.4759947,0.145142857 78.7493029,0.72 79.3718346,1.86971429 C79.7310022,2.53333333 79.9103951,3.78247619 79.9103951,5.616 L79.9103951,5.81904762 C79.9103951,7.65219048 79.7310022,8.90361905 79.3718346,9.57257143 C78.7493029,10.7177143 77.4759947,11.2899048 75.55191,11.2899048 L71.2598385,11.2899048 Z M73.0228512,9.52990476 L75.55191,9.52990476 C76.7763623,9.52990476 77.5317211,9.26209524 77.8187498,8.72914286 C78.0374565,8.32685714 78.1470007,7.35657143 78.1470007,5.81904762 L78.1470007,5.616 C78.1470007,4.08380952 78.0374565,3.11314286 77.8187498,2.70628571 C77.5317211,2.17714286 76.7763623,1.91238095 75.55191,1.91238095 L73.0228512,1.91238095 L73.0228512,9.52990476 L73.0228512,9.52990476 Z" id="Fill-9" fill="#A499A4"></path>
                    <polyline id="Fill-10" fill="#A499A4" points="93.909915 0.14552381 91.5186452 8.37980952 88.9605782 0.618285714 87.2845901 0.618285714 84.7265231 8.37980952 82.335635 0.14552381 80.4913229 0.14552381 83.7715419 11.2899048 85.6227244 11.2899048 88.1223933 3.70933333 90.6224439 11.2899048 92.4736264 11.2899048 95.753082 0.14552381 93.909915 0.14552381"></polyline>
                    <polygon id="Fill-11" fill="#A499A4" points="97.284029 11.2895238 99.0474235 11.2895238 99.0474235 0.145142857 97.284029 0.145142857"></polygon>
                    <path d="M101.110824,9.71847619 C100.751275,9.04914286 100.571882,7.79847619 100.571882,5.96495238 L100.571882,5.47009524 C100.571882,3.63657143 100.751275,2.38857143 101.110824,1.72380952 C101.732974,0.574095238 103.006282,0 104.929985,0 C106.149857,0 107.075448,0.159619048 107.707904,0.480380952 C108.557158,0.912 109.060221,1.68761905 109.21595,2.80761905 L107.467059,3.04761905 C107.404081,2.58742857 107.262857,2.28114286 107.043768,2.13180952 C106.698723,1.8887619 105.994511,1.76761905 104.929985,1.76761905 C103.710495,1.76761905 102.955136,2.03161905 102.663909,2.5607619 C102.445202,2.96838095 102.335658,3.93714286 102.335658,5.47009524 L102.335658,5.96495238 C102.335658,7.50209524 102.445202,8.47238095 102.663909,8.87428571 C102.950174,9.40838095 103.705915,9.67466667 104.929985,9.67466667 C105.970464,9.67466667 106.664371,9.55809524 107.015142,9.32571429 C107.247971,9.1752381 107.396447,8.88152381 107.459426,8.44533333 L107.459426,6.59733333 L104.900977,6.59733333 L104.900977,4.83771429 L109.22282,4.83771429 L109.21595,8.62666667 C109.060221,9.74742857 108.557158,10.5234286 107.707904,10.9546667 C107.075448,11.2754286 106.149857,11.4354286 104.929985,11.4354286 C103.006282,11.4354286 101.732974,10.863619 101.110824,9.71847619" id="Fill-12" fill="#A499A4"></path>
                    <path d="M52.2002926,25.4582857 L52.2002926,14.3139048 L57.8122382,14.3139048 C58.9248561,14.3139048 59.6729629,14.6704762 60.0569401,15.3828571 C60.2710666,15.7714286 60.3779389,16.447619 60.3779389,17.4129524 L60.3779389,17.5219048 C60.3779389,17.9729524 60.3122888,18.4022857 60.1809884,18.8095238 C60.0103743,19.3139048 59.7825071,19.5931429 59.4962417,19.6460952 C59.8599895,19.7287619 60.1344226,20.056 60.3195408,20.6278095 C60.4653453,21.0693333 60.5382475,21.559619 60.5382475,22.0971429 L60.5382475,22.2137143 C60.5382475,23.232381 60.4283216,23.9424762 60.2099966,24.3455238 C59.806935,25.087619 59.0218046,25.4582857 57.8557505,25.4582857 L52.2002926,25.4582857 Z M53.9636871,18.8457143 L57.8122382,18.8457143 C58.2252236,18.8457143 58.4557627,18.799619 58.5050003,18.7074286 C58.5725589,18.5817143 58.6065291,18.1885714 58.6065291,17.5287619 L58.6065291,17.4057143 C58.6065291,16.7462857 58.5725589,16.3531429 58.5050003,16.2274286 C58.4557627,16.1299048 58.2252236,16.0811429 57.8122382,16.0811429 L53.9636871,16.0811429 L53.9636871,18.8457143 Z M53.9636871,23.6979048 L57.8557505,23.6979048 C58.3221722,23.6979048 58.5897348,23.6342857 58.6576751,23.5089524 C58.7351576,23.3634286 58.7740897,22.9318095 58.7740897,22.2137143 L58.7740897,22.0971429 C58.7740897,21.3798095 58.7351576,20.9481905 58.6576751,20.8030476 C58.5897348,20.6765714 58.3221722,20.6137143 57.8557505,20.6137143 L53.9636871,20.6137143 L53.9636871,23.6979048 L53.9636871,23.6979048 Z" id="Fill-14" fill="#A499A4"></path>
                    <path d="M62.4256903,24.0906667 C62.0272089,23.4506667 61.82835,22.1413333 61.82835,20.1622857 L61.82835,19.6171429 C61.82835,17.6384762 62.0272089,16.3291429 62.4256903,15.6891429 C62.7997437,15.0822857 63.3806714,14.6632381 64.1677103,14.4304762 C64.7360424,14.255619 65.4868209,14.1687619 66.4200459,14.1687619 C68.4559649,14.1687619 69.7869079,14.6750476 70.4136381,15.6891429 C70.8121195,16.3291429 71.0117418,17.6430476 71.0117418,19.631619 L71.0117418,20.1405714 C71.0117418,22.1291429 70.8121195,23.4434286 70.4136381,24.0834286 C70.0395848,24.6899048 69.4594204,25.112 68.6716182,25.3485714 C68.1032861,25.5184762 67.3525075,25.6038095 66.4200459,25.6038095 C64.3841269,25.6038095 63.0524205,25.0994286 62.4256903,24.0906667 M63.9272474,16.6125714 C63.7035787,16.9668571 63.5921261,17.968 63.5921261,19.6171429 L63.5921261,20.1622857 C63.5921261,21.8064762 63.7035787,22.8053333 63.9272474,23.159619 C64.2089325,23.615619 65.0398653,23.8434286 66.4200459,23.8434286 C67.7994631,23.8434286 68.630396,23.615619 68.9128444,23.159619 C69.1357497,22.8007619 69.2479657,21.7942857 69.2479657,20.1405714 L69.2479657,19.631619 C69.2479657,17.9779048 69.1357497,16.9740952 68.9128444,16.6198095 C68.630396,16.1638095 67.7994631,15.936 66.4200459,15.936 C65.0398653,15.936 64.2089325,16.1619048 63.9272474,16.6125714" id="Fill-15" fill="#A499A4"></path>
                    <polyline id="Fill-16" fill="#A499A4" points="80.0207027 25.4582857 72.4697866 25.4582857 72.4697866 14.3139048 74.2331811 14.3139048 74.2331811 23.6979048 80.0207027 23.6979048 80.0207027 25.4582857"></polyline>
                    <polyline id="Fill-17" fill="#A499A4" points="87.1338237 16.0811429 83.686044 16.0811429 83.686044 25.4586667 81.9226496 25.4586667 81.9226496 16.0811429 78.4752516 16.0811429 78.4752516 14.3139048 87.1338237 14.3139048 87.1338237 16.0811429"></polyline>
                    <polyline id="Fill-18" fill="#A499A4" points="96.8996701 25.4582857 88.83882 25.4582857 88.1613254 24.0106667 94.334351 16.0811429 88.4235444 16.0811429 88.4235444 14.3139048 96.2294275 14.3139048 96.9073039 15.7687619 90.7335148 23.6979048 96.8996701 23.6979048 96.8996701 25.4582857"></polyline>
                    <polyline id="Fill-19" fill="#A499A4" points="100.133705 25.4582857 98.3703105 25.4582857 98.3703105 14.3139048 99.9295024 14.3139048 103.952866 23.1375238 107.982719 14.3139048 109.543056 14.3139048 109.543056 25.4582857 107.772027 25.4582857 107.772027 18.6346667 104.688759 25.4582857 103.223844 25.4582857 100.133705 18.6346667 100.133705 25.4582857"></polyline>
                    <path d="M118.109259,21.4137143 L112.985492,21.4137143 L112.985492,25.4582857 L111.222097,25.4582857 L111.222097,18.9912381 C111.222097,17.2506667 111.413704,16.0910476 111.7973,15.5139048 C112.39464,14.6171429 113.64581,14.1687619 115.550429,14.1687619 C117.450849,14.1687619 118.698966,14.6171429 119.29707,15.5139048 C119.681047,16.0910476 119.872654,17.2506667 119.872654,18.9912381 L119.872654,25.4582857 L118.109259,25.4582857 L118.109259,21.4137143 Z M112.985492,19.6460952 L118.109259,19.6460952 L118.109259,18.9912381 C118.109259,17.6041905 118.014219,16.7702857 117.824521,16.4887619 C117.576806,16.1207619 116.818775,15.936 115.550429,15.936 C114.277503,15.936 113.517182,16.1207619 113.269467,16.4887619 C113.079768,16.7702857 112.985492,17.6041905 112.985492,18.9912381 L112.985492,19.6460952 L112.985492,19.6460952 Z" id="Fill-20" fill="#A499A4"></path>
                    <polyline id="Fill-21" fill="#A499A4" points="128.662526 25.4582857 123.094475 17.8708571 123.094475 25.4582857 121.33108 25.4582857 121.33108 14.3139048 122.671565 14.3139048 128.225495 21.8864762 128.225495 14.3139048 129.996905 14.3139048 129.996905 25.4582857 128.662526 25.4582857"></polyline>
                    <polyline id="Fill-22" fill="#A499A4" points="138.786014 25.4582857 133.217962 17.8708571 133.217962 25.4582857 131.454186 25.4582857 131.454186 14.3139048 132.795053 14.3139048 138.349364 21.8864762 138.349364 14.3139048 140.120392 14.3139048 140.120392 25.4582857 138.786014 25.4582857"></polyline>
                    <path d="M52.518238,38.0655238 C52.1586887,37.3965714 51.9792958,36.1455238 51.9792958,34.312 L51.9792958,33.8175238 C51.9792958,31.984381 52.1586887,30.735619 52.518238,30.0712381 C53.140388,28.9215238 54.4136962,28.3474286 56.3373992,28.3474286 C57.5572712,28.3474286 58.4828624,28.5070476 59.1149363,28.8274286 C59.9645718,29.2590476 60.4676354,30.0346667 60.6229821,31.1546667 L58.8740917,31.3954286 C58.8111134,30.9352381 58.6698891,30.6289524 58.4511824,30.4788571 C58.1061373,30.2361905 57.4019245,30.1146667 56.3373992,30.1146667 C55.1179089,30.1146667 54.3625501,30.3794286 54.0709411,30.9078095 C53.8526161,31.3158095 53.7430719,32.2849524 53.7430719,33.8175238 L53.7430719,34.312 C53.7430719,35.8495238 53.8526161,36.8194286 54.0709411,37.2217143 C54.3572065,37.7558095 55.1133286,38.0224762 56.3373992,38.0224762 C57.3774966,38.0224762 58.0717854,37.9055238 58.4225559,37.6731429 C58.655385,37.5230476 58.8038613,37.2289524 58.8668397,36.7927619 L58.8668397,34.9447619 L56.308391,34.9447619 L56.308391,33.1847619 L60.6302341,33.1847619 L60.6229821,36.9740952 C60.4676354,38.0948571 59.9645718,38.8708571 59.1149363,39.3020952 C58.4828624,39.6224762 57.5572712,39.7824762 56.3373992,39.7824762 C54.4136962,39.7824762 53.140388,39.2106667 52.518238,38.0655238" id="Fill-23" fill="#A499A4"></path>
                    <polyline id="Fill-24" fill="#A499A4" points="62.0886606 28.4929524 62.0886606 39.6369524 68.8815461 39.6369524 68.8815461 37.8769524 63.8524367 37.8769524 63.8524367 34.792381 68.5677993 34.792381 68.5677993 33.024381 63.8524367 33.024381 63.8524367 30.2601905 68.8815461 30.2601905 68.8815461 28.4929524 62.0886606 28.4929524"></polyline>
                    <path d="M71.0819723,39.0186667 C70.7518129,38.7375238 70.5353963,38.3660952 70.4334859,37.9059048 C70.3705075,37.6293333 70.3392092,37.1977143 70.3392092,36.6106667 L70.3392092,36.4068571 L72.1026036,36.4068571 L72.1026036,36.6182857 C72.1026036,37.2533333 72.1464976,37.607619 72.233904,37.680381 C72.4965047,37.9081905 73.3247657,38.0224762 74.7190687,38.0224762 C76.1133718,38.0224762 76.9420145,37.9081905 77.2046152,37.680381 C77.2866779,37.607619 77.3279001,37.2533333 77.3279001,36.6182857 L77.3279001,36.3485714 C77.3279001,35.7139048 77.2866779,35.359619 77.2046152,35.2868571 C76.9420145,35.0590476 76.1133718,34.9447619 74.7190687,34.9447619 C72.8919325,34.9447619 71.6796943,34.6925714 71.0819723,34.1881905 C70.7518129,33.9020952 70.5353963,33.5287619 70.4334859,33.0681905 C70.3705075,32.791619 70.3392092,32.3626667 70.3392092,31.7801905 L70.3392092,31.5188571 C70.3392092,30.9321905 70.3705075,30.5005714 70.4334859,30.224 C70.5353963,29.7634286 70.7518129,29.392 71.0819723,29.111619 C71.6796943,28.6019048 72.8919325,28.3474286 74.7190687,28.3474286 C76.5458233,28.3474286 77.7584432,28.6019048 78.3557835,29.111619 C78.6867063,29.392 78.9027412,29.7634286 79.0050333,30.224 C79.0680117,30.5005714 79.09931,30.9321905 79.09931,31.5188571 L79.09931,31.5767619 L77.3279001,31.5767619 L77.3279001,31.5188571 C77.3279001,30.8784762 77.2866779,30.5219048 77.2046152,30.4491429 C76.9420145,30.2266667 76.1133718,30.1146667 74.7190687,30.1146667 C73.3247657,30.1146667 72.4965047,30.2266667 72.233904,30.4491429 C72.1464976,30.5219048 72.1026036,30.8784762 72.1026036,31.5188571 L72.1026036,31.7801905 C72.1026036,32.4209524 72.1464976,32.7775238 72.233904,32.8499048 C72.4965047,33.0727619 73.3247657,33.1847619 74.7190687,33.1847619 C76.5458233,33.1847619 77.7584432,33.4388571 78.3557835,33.9485714 C78.6867063,34.2297143 78.9027412,34.6011429 79.0050333,35.0617143 C79.0680117,35.3379048 79.09931,35.7668571 79.09931,36.3485714 L79.09931,36.6182857 C79.09931,37.200381 79.0680117,37.6293333 79.0050333,37.9059048 C78.9027412,38.3660952 78.6867063,38.7375238 78.3557835,39.0186667 C77.7584432,39.527619 76.5458233,39.7824762 74.7190687,39.7824762 C72.8919325,39.7824762 71.6796943,39.527619 71.0819723,39.0186667" id="Fill-25" fill="#A499A4"></path>
                    <polyline id="Fill-26" fill="#A499A4" points="80.5569731 28.4929524 80.5569731 39.6369524 87.350622 39.6369524 87.350622 37.8769524 82.3211309 37.8769524 82.3211309 34.792381 87.0361118 34.792381 87.0361118 33.024381 82.3211309 33.024381 82.3211309 30.2601905 87.350622 30.2601905 87.350622 28.4929524 80.5569731 28.4929524"></polyline>
                    <polyline id="Fill-27" fill="#A499A4" points="88.8079034 28.4929524 88.8079034 39.6369524 96.3584378 39.6369524 96.3584378 37.8769524 90.5716795 37.8769524 90.5716795 28.4929524 88.8079034 28.4929524"></polyline>
                    <polyline id="Fill-28" fill="#A499A4" points="97.6676246 28.4929524 97.6676246 39.6369524 105.218159 39.6369524 105.218159 37.8769524 99.4314007 37.8769524 99.4314007 28.4929524 97.6676246 28.4929524"></polyline>
                    <path d="M106.828115,39.0186667 C106.498338,38.7375238 106.281539,38.3660952 106.180011,37.9059048 C106.117032,37.6293333 106.085734,37.1977143 106.085734,36.6106667 L106.085734,36.4068571 L107.849128,36.4068571 L107.849128,36.6182857 C107.849128,37.2533333 107.892641,37.607619 107.980047,37.680381 C108.242648,37.9081905 109.070909,38.0224762 110.465212,38.0224762 C111.859515,38.0224762 112.688157,37.9081905 112.950758,37.680381 C113.033203,37.607619 113.074425,37.2533333 113.074425,36.6182857 L113.074425,36.3485714 C113.074425,35.7139048 113.033203,35.359619 112.950758,35.2868571 C112.688157,35.0590476 111.859515,34.9447619 110.465212,34.9447619 C108.638076,34.9447619 107.425837,34.6925714 106.828115,34.1881905 C106.498338,33.9020952 106.281539,33.5287619 106.180011,33.0681905 C106.117032,32.791619 106.085734,32.3626667 106.085734,31.7801905 L106.085734,31.5188571 C106.085734,30.9321905 106.117032,30.5005714 106.180011,30.224 C106.281539,29.7634286 106.498338,29.392 106.828115,29.111619 C107.425837,28.6019048 108.638076,28.3474286 110.465212,28.3474286 C112.291966,28.3474286 113.504586,28.6019048 114.101926,29.111619 C114.433231,29.392 114.648884,29.7634286 114.751558,30.224 C114.814536,30.5005714 114.845835,30.9321905 114.845835,31.5188571 L114.845835,31.5767619 L113.074425,31.5767619 L113.074425,31.5188571 C113.074425,30.8784762 113.033203,30.5219048 112.950758,30.4491429 C112.688157,30.2266667 111.859515,30.1146667 110.465212,30.1146667 C109.070909,30.1146667 108.242648,30.2266667 107.980047,30.4491429 C107.892641,30.5219048 107.849128,30.8784762 107.849128,31.5188571 L107.849128,31.7801905 C107.849128,32.4209524 107.892641,32.7775238 107.980047,32.8499048 C108.242648,33.0727619 109.070909,33.1847619 110.465212,33.1847619 C112.291966,33.1847619 113.504586,33.4388571 114.101926,33.9485714 C114.433231,34.2297143 114.648884,34.6011429 114.751558,35.0617143 C114.814536,35.3379048 114.845835,35.7668571 114.845835,36.3485714 L114.845835,36.6182857 C114.845835,37.200381 114.814536,37.6293333 114.751558,37.9059048 C114.648884,38.3660952 114.433231,38.7375238 114.101926,39.0186667 C113.504586,39.527619 112.291966,39.7824762 110.465212,39.7824762 C108.638076,39.7824762 107.425837,39.527619 106.828115,39.0186667" id="Fill-29" fill="#A499A4"></path>
                    <path d="M116.842058,38.0655238 C116.482891,37.3965714 116.303116,36.1455238 116.303116,34.312 L116.303116,33.8175238 C116.303116,31.984381 116.482891,30.735619 116.842058,30.0712381 C117.464208,28.9215238 118.739807,28.3474286 120.669235,28.3474286 C121.888725,28.3474286 122.814316,28.5070476 123.44639,28.8274286 C124.295644,29.2590476 124.796799,30.0373333 124.947184,31.1619048 L123.198294,31.3954286 C123.134934,30.944 122.996381,30.6411429 122.782636,30.4860952 C122.433011,30.2388571 121.728035,30.1146667 120.669235,30.1146667 C119.444783,30.1146667 118.68637,30.3794286 118.395143,30.9078095 C118.176436,31.3158095 118.066892,32.2849524 118.066892,33.8175238 L118.066892,34.312 C118.066892,35.8495238 118.176436,36.8194286 118.395143,37.2217143 C118.68637,37.7558095 119.444783,38.0224762 120.669235,38.0224762 C121.728035,38.0224762 122.433011,37.896 122.782636,37.6438095 C122.996381,37.4937143 123.134934,37.1931429 123.198294,36.7417143 L124.947184,36.9740952 C124.796799,38.0948571 124.295644,38.8708571 123.44639,39.3020952 C122.814316,39.6224762 121.888725,39.7824762 120.669235,39.7824762 C118.739807,39.7824762 117.464208,39.2106667 116.842058,38.0655238" id="Fill-30" fill="#A499A4"></path>
                    <polyline id="Fill-31" fill="#A499A4" points="132.943147 28.4929524 132.943147 33.1851429 128.169005 33.1851429 128.169005 28.4929524 126.40561 28.4929524 126.40561 39.6369524 128.169005 39.6369524 128.169005 34.9451429 132.943147 34.9451429 132.943147 39.6369524 134.713412 39.6369524 134.713412 28.4929524 132.943147 28.4929524"></polyline>
                    <path d="M143.059382,35.5927619 L137.935615,35.5927619 L137.935615,39.6369524 L136.17222,39.6369524 L136.17222,33.1695238 C136.17222,31.4293333 136.363827,30.2700952 136.747804,29.6925714 C137.344763,28.7958095 138.595933,28.3474286 140.500934,28.3474286 C142.400972,28.3474286 143.649471,28.7958095 144.247193,29.6925714 C144.63117,30.2700952 144.822777,31.4293333 144.822777,33.1695238 L144.822777,39.6369524 L143.059382,39.6369524 L143.059382,35.5927619 Z M137.935615,33.8247619 L143.059382,33.8247619 L143.059382,33.1695238 C143.059382,31.7828571 142.964724,30.9489524 142.775026,30.6674286 C142.526547,30.2994286 141.768898,30.1146667 140.500934,30.1146667 C139.228007,30.1146667 138.467305,30.2994286 138.21959,30.6674286 C138.029891,30.9489524 137.935615,31.7828571 137.935615,33.1695238 L137.935615,33.8247619 L137.935615,33.8247619 Z" id="Fill-32" fill="#A499A4"></path>
                    <polyline id="Fill-33" fill="#A499A4" points="146.281203 28.4929524 146.281203 39.6369524 148.044598 39.6369524 148.044598 34.792381 152.446977 34.792381 152.446977 33.024381 148.044598 33.024381 148.044598 30.2601905 152.964545 30.2601905 152.964545 28.4929524 146.281203 28.4929524"></polyline>
                    <polyline id="Fill-34" fill="#A499A4" points="154.132126 28.4929524 154.132126 30.2601905 157.579905 30.2601905 157.579905 39.6369524 159.343681 39.6369524 159.343681 30.2601905 162.790698 30.2601905 162.790698 28.4929524 154.132126 28.4929524"></polyline>
                </g>
            </g>
        </g>
    </g>
</svg>