<?xml version="1.0" encoding="UTF-8"?>
<svg id="Livello_1" xmlns="http://www.w3.org/2000/svg" viewBox="0 0 152 64" width="152" height="64"><path d="m72.61,26.23l-.97-3.74h-5.48l-.99,3.74h-3.73l4.89-16.88h5.4l4.89,16.88h-4.02Zm-5.74-6.4h4.09l-1.99-7.77h-.02l-2.08,7.77h0Z" fill="#fff"/><path d="m78.45,26.23v-11.88h3.29v1.38h.02c.82-1.18,1.91-1.76,3.71-1.76,2.45,0,4.07.97,4.07,3.43v8.84h-3.61v-7.92c0-1.28-.56-1.69-1.55-1.69-1.43,0-2.33,1.04-2.33,2.34v7.27h-3.61Z" fill="#fff"/><path d="m96.67,13.96c1.57,0,2.86.56,3.44,1.96h.03c.07-.65.14-1.04.27-1.57h3.12c-.07.82-.14,1.88-.14,3.65v8.67c0,2.83-2.25,4.15-5.84,4.15s-5.52-1.14-5.67-3.31l3.53-.12c.44.99,1.14,1.21,2.18,1.21,1.45,0,2.25-.6,2.25-2.37v-1.76h-.02c-.61,1.04-1.57,1.64-3.49,1.64-3,0-4.6-1.74-4.6-5.82s1.72-6.33,4.94-6.33h0Zm.8,9.73c1.38,0,2.38-.87,2.38-2.83v-1.57c0-1.71-.82-2.85-2.23-2.85s-2.35.92-2.35,3.81c0,2.61.8,3.43,2.2,3.43Z" fill="#fff"/><path d="m117.09,21.06h-8.04c.02,2.44.82,3.28,2.49,3.28.97,0,1.75-.22,2.13-1.26l3.2.1c-.36,2.51-2.28,3.43-5.48,3.43-4.07,0-5.79-2.25-5.79-6.23s1.89-6.42,5.77-6.42c4.17,0,5.91,2.15,5.72,7.1h0Zm-8.04-2.12h4.6c.03-2.1-.72-2.85-2.18-2.85-1.65,0-2.4,1.04-2.42,2.85h0Z" fill="#fff"/><path d="m119.42,9.23h3.61v13.4c0,1.04.1,1.3,1.28,1.3h.63l-.02,2.29c-.65.07-1.33.17-2.3.17-2.54,0-3.2-.85-3.2-2.78v-14.39h0Z" fill="#fff"/><path d="m126.97,10.71c0-1.06.75-1.83,2.06-1.83s1.99.77,1.99,1.83-.72,1.86-1.99,1.86-2.06-.77-2.06-1.86Zm.22,3.65h3.61v11.88h-3.61v-11.88Z" fill="#fff"/><path d="m133.88,26.23v-11.88h3.29v1.38h.02c.82-1.18,1.91-1.76,3.71-1.76,2.45,0,4.07.97,4.07,3.43v8.84h-3.61v-7.92c0-1.28-.56-1.69-1.55-1.69-1.43,0-2.33,1.04-2.33,2.34v7.27h-3.61Z" fill="#fff"/><path d="m147.66,10.71c0-1.06.75-1.83,2.06-1.83s1.99.77,1.99,1.83-.73,1.86-1.99,1.86-2.06-.77-2.06-1.86Zm.22,3.65h3.61v11.88h-3.61v-11.88Z" fill="#fff"/><path d="m66.91,54.53h2.66l5.47-16.76h-1.98l-4.79,14.92h-.02l-4.74-14.92h-2.06l5.47,16.76Z" fill="#fff"/><path d="m85.52,49.22h-7.94c.05,2.85.89,4.17,3.12,4.17,1.31,0,2.25-.29,2.78-1.45l1.84.07c-.46,1.95-1.96,2.87-4.65,2.87-3.65,0-5.1-2.22-5.1-6.2s1.64-6.32,5.13-6.32,5.03,2.03,4.81,6.85h0Zm-7.94-1.49h5.97c.05-3.06-1.04-3.91-2.86-3.91-2.11,0-3.07,1.52-3.12,3.91h0Z" fill="#fff"/><path d="m88.52,54.53v-11.79h1.93v1.49h.02c.75-1.2,1.84-1.86,3.6-1.86,2.08,0,3.99.87,3.99,3.4v8.75h-1.98v-8.39c0-1.83-.99-2.19-2.27-2.19-2.32,0-3.31,1.62-3.31,3.01v7.57h-1.98Z" fill="#fff"/><path d="m107.01,44.26h-2.64v7.47c0,1.09.34,1.45,1.38,1.45.46,0,.92-.02,1.26-.05l-.02,1.38c-.63.12-1.36.19-2.13.19-1.69-.02-2.47-.8-2.47-2.77v-7.67h-1.93l.02-1.52h1.96l.12-3.64,1.82-.05v3.69h2.64v1.52h0Z" fill="#fff"/><path d="m110.06,42.74h1.98v8.27c0,1.95.99,2.32,2.27,2.32,2.25,0,3.24-1.62,3.24-3.01v-7.57h1.98v9.5c0,.77.05,1.59.12,2.29h-1.76c-.07-.43-.1-.7-.17-1.57h-.02c-.75,1.2-1.96,1.93-3.75,1.93-1.98,0-3.89-.87-3.89-3.47v-8.68h0Z" fill="#fff"/><path d="m125.18,42.74c.07.89.07,1.54.07,1.91h.03c.41-1.06,1.4-2.22,3.17-2.22.34,0,.7.05,1.11.14l-.05,1.64c-.46-.02-.58-.02-.89-.02-2.66,0-3.31,1.57-3.31,4.29v6.05h-1.98v-9.7c0-.7,0-1.4-.02-2.1h1.89,0Z" fill="#fff"/><path d="m140.87,49.22h-7.93c.05,2.85.89,4.17,3.12,4.17,1.31,0,2.25-.29,2.78-1.45l1.84.07c-.46,1.95-1.96,2.87-4.65,2.87-3.65,0-5.1-2.22-5.1-6.2s1.65-6.32,5.13-6.32,5.03,2.03,4.81,6.85h0Zm-7.93-1.49h5.97c.05-3.06-1.04-3.91-2.85-3.91-2.11,0-3.07,1.52-3.12,3.91h0Z" fill="#fff"/><path d="m147.6,42.37c2.44,0,3.94.89,4.33,2.97l-1.77.07c-.43-1.18-1.33-1.64-2.64-1.64-1.77,0-2.35,1.01-2.35,1.88,0,.94.7,1.49,2.27,1.91l.99.27c1.98.53,3.56,1.18,3.56,3.47,0,2.03-1.5,3.59-4.31,3.59-2.66,0-4.31-.99-4.72-3.47l1.79-.05c.29,1.25,1.31,2.1,2.81,2.1,1.69,0,2.54-.8,2.54-2.03,0-1.11-.53-1.66-2.47-2.15l-.77-.19c-1.84-.46-3.58-1.01-3.58-3.3,0-1.83,1.14-3.42,4.31-3.42h0Z" fill="#fff"/><path d="m31.18,31.02c-.81.11-1.51.26-2.06.41-.04,0-.07.04-.04.07,1.58,3.83,3.28,8.66,3.57,12.34.15,1.84-.18,3.65-.77,5.38-3.87,11.49-17.24,13.26-28.36,11.75-.04,0-.04.04-.04.04.41.92.77,1.47,1.07,1.8.04.04.07.04.11.04,4.16.44,8.36.7,12.6.07,8.95-1.29,17.28-6.56,19.45-16.1.29-1.33.41-2.65.44-4.02.04-2.73-.55-5.38-1.47-7.92-.26-.77-.92-2.36-1.62-4.05,0-.04-.04-.04-.07-.04-.66.04-1.73.04-2.8.22Z" fill="#fff"/><path d="m37.08,23.14c-.52,0-2.91-.07-6.23.15-.07,0-.11-.04-.15-.11L20.94.78s-.07-.07-.11-.07h-3.9s-.11.04-.11.07L2.16,35.63c-.07.15-.11.29-.18.44-.07.18-.15.37-.22.55h0c-2.25,5.78-3.5,15.36,3.72,21.55.04.04.07.04.11.04.99-.04,1.77-.15,2.32-.26.04,0,.07-.07.04-.11-5.89-4.79-7.33-12.97-3.28-20.15,2.95-5.27,10.53-8.91,21.36-9.72,2.69-.22,7.55-.33,10.13-.33.04,0,.07-.04.07-.07.18-.48.33-1.03.48-1.58.26-1.11.41-1.99.48-2.73-.04-.07-.04-.11-.11-.11ZM17.78,5.35l7.92,18.27s0,.11-.07.11c-5.93.74-12.89,2.32-17.94,5.71-.04.04-.07,0-.07-.07L17.67,5.35s.07-.04.11,0Z" fill="#fff"/></svg>