<?xml version="1.0" encoding="UTF-8" standalone="no"?>
<svg
   id="Layer_1"
   data-name="Layer 1"
   viewBox="0 0 141.40001 56.690002"
   version="1.1"
   width="141.40001"
   height="56.690002"
   xmlns="http://www.w3.org/2000/svg"
   xmlns:svg="http://www.w3.org/2000/svg">
  <defs
     id="defs407">
    <style
       id="style405">
      .cls-1 {
        fill: #0047bb;
      }
    </style>
  </defs>
  <rect
     class="cls-1"
     x="74.639999"
     y="0"
     width="66.760002"
     height="3.0999999"
     id="rect409" />
  <rect
     class="cls-1"
     x="0"
     y="53.590004"
     width="74.639999"
     height="3.0999999"
     id="rect411" />
  <g
     id="g423"
     transform="translate(-14.34,-14.17)">
    <polygon
       class="cls-1"
       points="84.32,32.8 81.23,32.8 77.25,47.59 77.08,47.59 72.23,35.88 71.08,35.88 66.23,47.59 66.06,47.59 62.07,32.8 58.99,32.8 65.07,55.35 66.1,55.35 71.59,41.84 71.72,41.84 77.21,55.35 78.23,55.35 "
       id="polygon413" />
    <path
       class="cls-1"
       d="M 51.95,32.8 H 50.84 L 40.81,55.35 h 3.39 l 2.14,-4.84 h 10.12 l 2.14,4.84 h 3.39 L 51.96,32.8 Z m -4.48,15 3.82,-8.7 h 0.17 l 3.82,8.7 h -7.8 z"
       id="path415" />
    <path
       class="cls-1"
       d="m 33.87,30.57 c 1.2,0 2.1,-0.9 2.1,-2.1 0,-1.2 -0.9,-2.14 -2.1,-2.14 -1.2,0 -2.1,0.94 -2.1,2.14 0,1.2 0.9,2.1 2.1,2.1 z"
       id="path417" />
    <path
       class="cls-1"
       d="m 26.76,30.57 c 1.2,0 2.1,-0.9 2.1,-2.1 0,-1.2 -0.9,-2.14 -2.1,-2.14 -1.2,0 -2.1,0.94 -2.1,2.14 0,1.2 0.9,2.1 2.1,2.1 z"
       id="path419" />
    <path
       class="cls-1"
       d="M 30.31,32.54 C 23.94,32.54 19,37.57 19,44.11 c 0,6.54 4.94,11.49 11.31,11.49 6.37,0 11.31,-4.99 11.31,-11.49 0,-6.5 -4.94,-11.57 -11.31,-11.57 z m 0,19.9 c -4.67,0 -8.24,-3.62 -8.24,-8.33 0,-4.71 3.58,-8.42 8.24,-8.42 4.66,0 8.24,3.66 8.24,8.42 0,4.76 -3.58,8.33 -8.24,8.33 z"
       id="path421" />
  </g>
  <g
     id="g479"
     transform="translate(-14.34,-14.17)">
    <path
       class="cls-1"
       d="m 102.17,38.22 c 0.06,-0.05 0.1,-0.11 0.12,-0.17 l 0.4,-1.1 h 2.22 l 0.4,1.1 c 0.03,0.07 0.07,0.13 0.13,0.17 0.06,0.05 0.14,0.07 0.23,0.07 h 0.81 l -2.15,-5.47 v 0 c 0,0 -1.06,-0.01 -1.06,-0.01 l -2.14,5.45 v 0.03 c 0,0 0.81,0 0.81,0 0.09,0 0.17,-0.03 0.23,-0.08 z m 1.55,-4.08 c 0.03,-0.09 0.05,-0.18 0.08,-0.29 0.03,0.1 0.06,0.2 0.09,0.28 0.04,0.1 0.07,0.2 0.1,0.28 l 0.65,1.78 h -1.67 l 0.65,-1.77 c 0.03,-0.08 0.07,-0.18 0.1,-0.29 z"
       id="path425" />
    <path
       class="cls-1"
       d="m 107.5,37.94 c 0.11,0.13 0.25,0.24 0.42,0.31 0.16,0.07 0.35,0.11 0.57,0.11 0.13,0 0.25,-0.01 0.36,-0.04 0.11,-0.03 0.22,-0.06 0.32,-0.11 0.1,-0.05 0.19,-0.11 0.28,-0.17 0.08,-0.06 0.15,-0.12 0.22,-0.19 l 0.06,0.27 c 0.04,0.12 0.13,0.18 0.26,0.18 h 0.59 v -3.9 h -0.97 v 2.8 c -0.12,0.12 -0.25,0.22 -0.39,0.29 -0.14,0.07 -0.29,0.11 -0.44,0.11 -0.21,0 -0.37,-0.06 -0.48,-0.19 -0.11,-0.12 -0.16,-0.3 -0.16,-0.53 v -2.47 h -0.97 v 2.47 c 0,0.22 0.03,0.42 0.09,0.6 0.06,0.18 0.14,0.34 0.25,0.47 z"
       id="path427" />
    <path
       class="cls-1"
       d="m 111.75,38.07 c 0.1,0.06 0.21,0.11 0.33,0.15 0.12,0.04 0.24,0.08 0.37,0.1 0.13,0.02 0.26,0.04 0.39,0.04 0.25,0 0.47,-0.03 0.67,-0.1 0.19,-0.07 0.36,-0.16 0.49,-0.27 0.13,-0.12 0.23,-0.26 0.3,-0.41 0.07,-0.16 0.1,-0.33 0.1,-0.52 0,-0.16 -0.03,-0.29 -0.08,-0.41 -0.06,-0.11 -0.13,-0.21 -0.22,-0.29 -0.09,-0.08 -0.19,-0.15 -0.31,-0.2 -0.11,-0.05 -0.23,-0.1 -0.35,-0.14 -0.12,-0.04 -0.24,-0.08 -0.35,-0.11 -0.11,-0.03 -0.21,-0.07 -0.3,-0.11 -0.09,-0.04 -0.16,-0.09 -0.21,-0.14 -0.05,-0.05 -0.08,-0.12 -0.08,-0.19 0,-0.12 0.05,-0.21 0.15,-0.29 0.1,-0.07 0.24,-0.11 0.42,-0.11 0.12,0 0.22,0.01 0.3,0.04 0.08,0.02 0.16,0.05 0.23,0.08 0.07,0.03 0.13,0.06 0.18,0.08 0.11,0.05 0.21,0.05 0.27,0.01 0.03,-0.02 0.06,-0.05 0.09,-0.09 l 0.22,-0.35 h -0.01 c -0.15,-0.16 -0.33,-0.27 -0.55,-0.36 -0.22,-0.09 -0.47,-0.13 -0.73,-0.13 -0.24,0 -0.45,0.03 -0.64,0.1 -0.18,0.06 -0.34,0.15 -0.46,0.26 -0.12,0.11 -0.22,0.24 -0.28,0.38 -0.06,0.15 -0.1,0.3 -0.1,0.46 0,0.17 0.03,0.32 0.08,0.44 0.06,0.12 0.13,0.23 0.22,0.31 0.09,0.08 0.19,0.15 0.31,0.21 0.12,0.05 0.23,0.1 0.35,0.14 0.13,0.04 0.24,0.08 0.35,0.11 0.11,0.03 0.21,0.07 0.3,0.11 0.09,0.04 0.16,0.09 0.21,0.15 0.05,0.05 0.08,0.12 0.08,0.21 0,0.06 -0.01,0.11 -0.03,0.17 -0.02,0.05 -0.06,0.1 -0.11,0.14 -0.05,0.04 -0.11,0.07 -0.19,0.1 -0.08,0.03 -0.17,0.04 -0.28,0.04 -0.14,0 -0.25,-0.02 -0.34,-0.05 -0.09,-0.03 -0.17,-0.07 -0.24,-0.1 -0.07,-0.04 -0.12,-0.07 -0.18,-0.1 -0.05,-0.03 -0.11,-0.05 -0.17,-0.05 -0.06,0 -0.11,0.01 -0.15,0.04 -0.04,0.02 -0.08,0.06 -0.11,0.1 l -0.21,0.35 v 0 c 0,0 0.01,0.03 0.01,0.03 0.08,0.07 0.16,0.13 0.26,0.19 z"
       id="path429" />
    <path
       class="cls-1"
       d="m 115.26,35.13 h 0.37 v 2.13 c 0,0.34 0.09,0.61 0.28,0.8 0.18,0.19 0.45,0.29 0.79,0.29 0.19,0 0.38,-0.03 0.55,-0.09 0.18,-0.06 0.34,-0.15 0.47,-0.26 h 0.01 c 0,0 -0.29,-0.48 -0.29,-0.48 -0.02,-0.03 -0.04,-0.05 -0.06,-0.07 -0.04,-0.03 -0.1,-0.04 -0.16,0 -0.02,0.01 -0.05,0.03 -0.08,0.04 -0.03,0.02 -0.06,0.03 -0.1,0.04 -0.04,0.01 -0.08,0.02 -0.14,0.02 -0.1,0 -0.17,-0.03 -0.23,-0.09 -0.06,-0.06 -0.08,-0.15 -0.08,-0.27 v -2.07 h 1.02 v -0.7 h -1.02 v -1.21 h -0.5 c -0.06,0 -0.11,0.02 -0.15,0.05 -0.04,0.03 -0.07,0.07 -0.08,0.13 l -0.19,1.04 -0.62,0.1 v 0.39 c 0,0.07 0.02,0.13 0.06,0.16 0.04,0.04 0.09,0.05 0.14,0.05 z"
       id="path431" />
    <path
       class="cls-1"
       d="m 119.59,35.88 c 0.09,-0.2 0.21,-0.35 0.34,-0.46 0.13,-0.1 0.3,-0.16 0.48,-0.16 0.11,0 0.19,0 0.25,0.03 0.07,0.02 0.12,0.03 0.16,0.03 0.05,0 0.09,-0.01 0.11,-0.03 0.03,-0.02 0.05,-0.06 0.06,-0.11 l 0.12,-0.7 v 0 c 0,0 -0.01,-0.02 -0.01,-0.02 -0.13,-0.09 -0.29,-0.13 -0.49,-0.13 -0.23,0 -0.45,0.07 -0.64,0.21 -0.17,0.13 -0.33,0.3 -0.46,0.52 l -0.05,-0.41 c -0.01,-0.09 -0.04,-0.15 -0.08,-0.19 -0.04,-0.04 -0.11,-0.06 -0.21,-0.06 h -0.57 v 3.9 h 0.97 v -2.42 z"
       id="path433" />
    <rect
       class="cls-1"
       x="122.05"
       y="34.389999"
       width="0.97000003"
       height="3.9000001"
       id="rect435" />
    <path
       class="cls-1"
       d="m 122.11,33.72 c 0.05,0.05 0.12,0.1 0.19,0.13 0.07,0.03 0.15,0.05 0.24,0.05 0.09,0 0.17,-0.02 0.24,-0.05 0.07,-0.03 0.14,-0.08 0.2,-0.13 0.06,-0.05 0.1,-0.12 0.13,-0.19 0.03,-0.07 0.05,-0.15 0.05,-0.23 0,-0.08 -0.02,-0.17 -0.05,-0.24 -0.03,-0.07 -0.08,-0.14 -0.13,-0.19 -0.06,-0.05 -0.12,-0.1 -0.2,-0.13 -0.15,-0.06 -0.33,-0.07 -0.48,0 -0.07,0.03 -0.14,0.08 -0.19,0.13 -0.05,0.05 -0.1,0.12 -0.13,0.19 -0.03,0.08 -0.05,0.16 -0.05,0.24 0,0.08 0.02,0.16 0.05,0.23 0.03,0.07 0.08,0.14 0.13,0.19 z"
       id="path437" />
    <path
       class="cls-1"
       d="m 124.82,38.29 c 0.14,0.04 0.29,0.07 0.46,0.07 0.14,0 0.27,-0.01 0.38,-0.03 0.11,-0.02 0.22,-0.06 0.32,-0.1 0.1,-0.05 0.2,-0.1 0.29,-0.17 0.09,-0.06 0.17,-0.13 0.26,-0.21 l 0.07,0.24 c 0.03,0.09 0.07,0.14 0.12,0.17 0.05,0.03 0.13,0.04 0.22,0.04 h 0.44 v -2.46 c 0,-0.22 -0.03,-0.42 -0.1,-0.61 -0.06,-0.19 -0.16,-0.35 -0.28,-0.48 -0.12,-0.13 -0.28,-0.24 -0.46,-0.31 -0.18,-0.07 -0.38,-0.11 -0.61,-0.11 -0.63,0 -1.17,0.21 -1.62,0.61 h -0.01 c 0,0 0.18,0.32 0.18,0.32 0.03,0.05 0.07,0.09 0.11,0.13 0.05,0.04 0.11,0.05 0.17,0.05 0.08,0 0.15,-0.02 0.22,-0.05 0.06,-0.04 0.13,-0.08 0.21,-0.12 0.07,-0.04 0.16,-0.08 0.26,-0.12 0.1,-0.03 0.22,-0.05 0.37,-0.05 0.2,0 0.36,0.06 0.46,0.18 0.11,0.12 0.16,0.31 0.16,0.56 v 0.21 c -0.43,0 -0.8,0.04 -1.09,0.11 -0.3,0.08 -0.54,0.17 -0.72,0.29 -0.18,0.12 -0.31,0.25 -0.39,0.39 -0.08,0.14 -0.12,0.29 -0.12,0.44 0,0.18 0.03,0.33 0.08,0.46 0.06,0.13 0.14,0.25 0.24,0.34 0.1,0.09 0.22,0.16 0.36,0.2 z m 1.63,-1.63 v 0.62 c -0.06,0.06 -0.13,0.12 -0.19,0.17 -0.06,0.05 -0.13,0.09 -0.2,0.13 -0.07,0.03 -0.14,0.06 -0.22,0.08 -0.08,0.02 -0.17,0.03 -0.26,0.03 -0.15,0 -0.27,-0.03 -0.37,-0.1 -0.09,-0.07 -0.14,-0.18 -0.14,-0.34 0,-0.08 0.02,-0.15 0.07,-0.22 0.04,-0.07 0.12,-0.13 0.23,-0.18 0.11,-0.05 0.25,-0.1 0.43,-0.13 0.18,-0.03 0.4,-0.05 0.65,-0.05 z"
       id="path439" />
    <path
       class="cls-1"
       d="m 129.54,35.49 c 0.12,-0.12 0.25,-0.22 0.39,-0.29 0.14,-0.07 0.29,-0.11 0.44,-0.11 0.21,0 0.37,0.06 0.48,0.19 0.11,0.12 0.16,0.3 0.16,0.53 v 2.48 h 0.97 v -2.48 c 0,-0.22 -0.03,-0.42 -0.09,-0.6 -0.06,-0.18 -0.14,-0.34 -0.25,-0.47 -0.11,-0.13 -0.25,-0.23 -0.42,-0.31 -0.17,-0.07 -0.36,-0.11 -0.57,-0.11 -0.13,0 -0.25,0.01 -0.37,0.04 -0.11,0.03 -0.22,0.06 -0.32,0.11 -0.1,0.05 -0.19,0.1 -0.28,0.17 -0.08,0.06 -0.15,0.12 -0.22,0.19 l -0.06,-0.27 c -0.04,-0.12 -0.13,-0.18 -0.26,-0.18 h -0.59 v 3.9 h 0.97 v -2.8 z"
       id="path441" />
    <path
       class="cls-1"
       d="m 104.34,41.36 v 0 c 0,0 -1.06,-0.01 -1.06,-0.01 l -2.14,5.45 v 0.03 c 0,0 0.81,0 0.81,0 0.09,0 0.17,-0.03 0.23,-0.08 0.06,-0.05 0.1,-0.11 0.12,-0.17 l 0.4,-1.1 h 2.22 l 0.4,1.1 c 0.03,0.07 0.07,0.13 0.13,0.17 0.06,0.05 0.14,0.07 0.23,0.07 h 0.81 l -2.15,-5.47 z m -0.62,1.31 c 0.03,-0.09 0.05,-0.18 0.08,-0.29 0.03,0.1 0.06,0.2 0.09,0.28 0.04,0.1 0.07,0.2 0.1,0.28 l 0.65,1.78 h -1.67 l 0.65,-1.77 c 0.03,-0.08 0.07,-0.18 0.1,-0.29 z"
       id="path443" />
    <path
       class="cls-1"
       d="m 110.27,46.24 h 0.01 c 0,0 -0.28,-0.36 -0.28,-0.36 -0.04,-0.06 -0.1,-0.1 -0.19,-0.1 -0.06,0 -0.12,0.02 -0.17,0.06 -0.04,0.04 -0.1,0.07 -0.16,0.12 -0.06,0.04 -0.14,0.08 -0.23,0.12 -0.09,0.04 -0.2,0.05 -0.35,0.05 -0.15,0 -0.28,-0.03 -0.39,-0.08 -0.11,-0.05 -0.21,-0.14 -0.29,-0.24 -0.08,-0.11 -0.14,-0.24 -0.19,-0.4 -0.04,-0.16 -0.07,-0.34 -0.07,-0.54 0,-0.2 0.02,-0.37 0.06,-0.53 0.04,-0.15 0.1,-0.29 0.18,-0.39 0.08,-0.11 0.18,-0.19 0.3,-0.25 0.12,-0.06 0.26,-0.09 0.42,-0.09 0.13,0 0.23,0.01 0.32,0.04 0.08,0.03 0.16,0.06 0.22,0.1 0.06,0.04 0.12,0.07 0.16,0.1 0.05,0.03 0.1,0.05 0.15,0.05 0.05,0 0.1,-0.01 0.13,-0.03 0.03,-0.02 0.06,-0.05 0.08,-0.09 l 0.26,-0.35 h -0.01 c -0.17,-0.19 -0.37,-0.32 -0.59,-0.42 -0.22,-0.09 -0.48,-0.14 -0.77,-0.14 -0.3,0 -0.58,0.05 -0.81,0.15 -0.23,0.1 -0.43,0.24 -0.59,0.42 -0.16,0.18 -0.28,0.39 -0.36,0.64 -0.08,0.24 -0.12,0.51 -0.12,0.79 0,0.32 0.05,0.6 0.14,0.85 0.09,0.25 0.22,0.46 0.38,0.63 0.16,0.17 0.35,0.3 0.56,0.39 0.21,0.09 0.44,0.14 0.68,0.14 0.14,0 0.28,-0.01 0.41,-0.03 0.14,-0.02 0.28,-0.06 0.4,-0.1 0.13,-0.05 0.26,-0.12 0.38,-0.2 0.12,-0.08 0.24,-0.19 0.34,-0.31 z"
       id="path445" />
    <path
       class="cls-1"
       d="m 112.46,46.85 c 0.11,-0.02 0.22,-0.06 0.32,-0.1 0.1,-0.05 0.2,-0.1 0.29,-0.17 0.09,-0.06 0.17,-0.13 0.26,-0.21 l 0.07,0.24 c 0.03,0.09 0.07,0.14 0.12,0.17 0.05,0.03 0.13,0.04 0.22,0.04 h 0.44 v -2.46 c 0,-0.22 -0.03,-0.42 -0.1,-0.61 -0.06,-0.19 -0.16,-0.35 -0.28,-0.48 -0.12,-0.13 -0.28,-0.24 -0.46,-0.31 -0.18,-0.07 -0.38,-0.11 -0.61,-0.11 -0.63,0 -1.17,0.21 -1.62,0.61 h -0.01 c 0,0 0.18,0.32 0.18,0.32 0.03,0.05 0.07,0.09 0.11,0.13 0.05,0.04 0.11,0.05 0.17,0.05 0.08,0 0.15,-0.02 0.22,-0.05 0.06,-0.04 0.13,-0.08 0.21,-0.12 0.07,-0.04 0.16,-0.08 0.26,-0.12 0.1,-0.03 0.22,-0.05 0.37,-0.05 0.2,0 0.36,0.06 0.46,0.18 0.11,0.12 0.16,0.31 0.16,0.56 v 0.21 c -0.43,0 -0.8,0.04 -1.09,0.11 -0.3,0.08 -0.54,0.17 -0.72,0.29 -0.18,0.12 -0.31,0.25 -0.39,0.39 -0.08,0.14 -0.12,0.29 -0.12,0.44 0,0.18 0.03,0.33 0.08,0.46 0.06,0.13 0.14,0.25 0.24,0.33 0.1,0.09 0.22,0.16 0.36,0.2 0.14,0.04 0.29,0.07 0.46,0.07 0.14,0 0.27,-0.01 0.38,-0.03 z m 0.79,-1.66 v 0.62 c -0.06,0.06 -0.13,0.12 -0.19,0.17 -0.06,0.05 -0.13,0.09 -0.2,0.13 -0.07,0.03 -0.14,0.06 -0.22,0.08 -0.08,0.02 -0.17,0.03 -0.26,0.03 -0.15,0 -0.27,-0.03 -0.37,-0.1 -0.09,-0.07 -0.14,-0.18 -0.14,-0.34 0,-0.08 0.02,-0.15 0.07,-0.22 0.04,-0.07 0.12,-0.13 0.23,-0.18 0.11,-0.05 0.25,-0.1 0.43,-0.13 0.18,-0.03 0.4,-0.05 0.65,-0.05 z"
       id="path447" />
    <path
       class="cls-1"
       d="m 116.94,46.84 c 0.12,-0.03 0.23,-0.07 0.33,-0.12 0.1,-0.05 0.2,-0.12 0.29,-0.19 0.08,-0.06 0.15,-0.14 0.23,-0.22 l 0.07,0.33 c 0.04,0.12 0.13,0.18 0.26,0.18 h 0.59 v -5.63 h -0.97 v 2.01 c -0.11,-0.1 -0.24,-0.19 -0.38,-0.25 -0.15,-0.07 -0.34,-0.11 -0.56,-0.11 -0.26,0 -0.49,0.05 -0.69,0.15 -0.2,0.1 -0.38,0.25 -0.53,0.43 -0.15,0.18 -0.26,0.4 -0.34,0.65 -0.08,0.25 -0.12,0.52 -0.12,0.8 0,0.32 0.04,0.6 0.1,0.85 0.07,0.25 0.17,0.46 0.3,0.63 0.13,0.17 0.28,0.3 0.46,0.39 0.18,0.09 0.38,0.13 0.59,0.13 0.14,0 0.26,-0.01 0.38,-0.04 z m -0.84,-1.95 c 0,-0.22 0.02,-0.42 0.06,-0.58 0.04,-0.16 0.1,-0.3 0.18,-0.4 0.08,-0.1 0.17,-0.18 0.28,-0.23 0.11,-0.05 0.24,-0.08 0.37,-0.08 0.13,0 0.27,0.03 0.39,0.08 0.12,0.05 0.23,0.14 0.33,0.26 v 1.72 c -0.12,0.14 -0.24,0.25 -0.37,0.33 -0.13,0.08 -0.29,0.12 -0.48,0.12 -0.12,0 -0.22,-0.02 -0.32,-0.06 -0.09,-0.04 -0.17,-0.11 -0.24,-0.21 -0.07,-0.1 -0.12,-0.22 -0.15,-0.38 -0.04,-0.15 -0.05,-0.35 -0.05,-0.57 z"
       id="path449" />
    <path
       class="cls-1"
       d="m 121.62,46.88 c 0.14,0 0.28,-0.01 0.42,-0.03 0.15,-0.02 0.29,-0.06 0.43,-0.1 0.14,-0.05 0.28,-0.12 0.4,-0.2 0.13,-0.08 0.25,-0.19 0.35,-0.31 h 0.01 c 0,0 -0.28,-0.36 -0.28,-0.36 -0.02,-0.03 -0.05,-0.05 -0.08,-0.07 -0.03,-0.02 -0.07,-0.03 -0.11,-0.03 -0.06,0 -0.13,0.02 -0.19,0.06 -0.06,0.03 -0.13,0.07 -0.21,0.12 -0.08,0.04 -0.18,0.08 -0.28,0.11 -0.11,0.03 -0.24,0.05 -0.38,0.05 -0.3,0 -0.54,-0.09 -0.72,-0.27 -0.18,-0.18 -0.28,-0.46 -0.31,-0.84 h 2.36 c 0,0 0.08,0 0.11,-0.02 0.03,-0.01 0.06,-0.03 0.08,-0.06 0.02,-0.03 0.03,-0.07 0.04,-0.12 0,-0.05 0,-0.11 0,-0.18 0,-0.28 -0.04,-0.53 -0.13,-0.75 -0.08,-0.22 -0.2,-0.41 -0.35,-0.56 -0.15,-0.15 -0.33,-0.27 -0.54,-0.35 -0.21,-0.08 -0.43,-0.12 -0.68,-0.12 -0.29,0 -0.55,0.05 -0.78,0.15 -0.23,0.1 -0.43,0.24 -0.59,0.41 -0.16,0.17 -0.29,0.38 -0.37,0.61 -0.09,0.23 -0.13,0.49 -0.13,0.75 0,0.34 0.05,0.64 0.15,0.9 0.1,0.26 0.24,0.48 0.41,0.65 0.17,0.18 0.38,0.31 0.61,0.4 0.23,0.09 0.49,0.13 0.76,0.13 z m -0.93,-2.47 c 0.04,-0.26 0.14,-0.47 0.28,-0.62 0.15,-0.15 0.36,-0.22 0.62,-0.22 0.13,0 0.25,0.02 0.35,0.07 0.1,0.04 0.18,0.11 0.25,0.18 0.07,0.08 0.11,0.17 0.15,0.27 0.03,0.1 0.05,0.2 0.05,0.31 h -1.7 z"
       id="path451" />
    <path
       class="cls-1"
       d="m 129.74,46.82 v -2.48 c 0,-0.23 -0.03,-0.45 -0.09,-0.63 -0.06,-0.18 -0.15,-0.34 -0.26,-0.47 -0.11,-0.13 -0.26,-0.23 -0.42,-0.29 -0.16,-0.06 -0.36,-0.1 -0.58,-0.1 -0.12,0 -0.25,0.01 -0.37,0.04 -0.12,0.03 -0.24,0.07 -0.35,0.13 -0.11,0.06 -0.21,0.13 -0.3,0.23 -0.08,0.08 -0.15,0.18 -0.21,0.29 -0.08,-0.2 -0.19,-0.36 -0.34,-0.49 -0.16,-0.13 -0.37,-0.2 -0.61,-0.2 -0.12,0 -0.22,0.01 -0.32,0.04 -0.1,0.03 -0.19,0.06 -0.28,0.11 -0.08,0.04 -0.17,0.1 -0.24,0.16 -0.06,0.05 -0.13,0.11 -0.19,0.18 l -0.05,-0.25 c -0.04,-0.12 -0.13,-0.18 -0.26,-0.18 h -0.59 v 3.9 h 0.97 v -2.84 c 0.1,-0.11 0.2,-0.2 0.32,-0.26 0.11,-0.06 0.24,-0.1 0.36,-0.1 0.2,0 0.35,0.06 0.45,0.17 0.1,0.11 0.15,0.3 0.15,0.55 v 2.48 h 0.97 v -2.48 c 0,-0.12 0.02,-0.22 0.05,-0.31 0.03,-0.09 0.08,-0.17 0.14,-0.22 0.06,-0.06 0.13,-0.1 0.21,-0.14 0.08,-0.03 0.16,-0.05 0.26,-0.05 0.2,0 0.36,0.06 0.46,0.18 0.1,0.12 0.16,0.3 0.16,0.54 v 2.48 h 0.97 z"
       id="path453" />
    <path
       class="cls-1"
       d="m 133.36,42.98 c 0,0 -0.09,0.08 -0.11,0.13 l -0.77,2 c -0.03,0.07 -0.05,0.14 -0.08,0.21 -0.02,0.05 -0.03,0.09 -0.04,0.13 -0.01,-0.05 -0.02,-0.09 -0.04,-0.13 -0.02,-0.07 -0.04,-0.14 -0.07,-0.21 l -0.82,-2 c 0,0 -0.05,-0.09 -0.1,-0.13 -0.04,-0.04 -0.11,-0.06 -0.19,-0.06 h -0.84 l 1.57,3.59 -0.73,1.57 h 0.72 c 0.09,0 0.17,-0.02 0.21,-0.05 0.05,-0.04 0.08,-0.09 0.11,-0.16 l 2.1,-4.92 v -0.03 c 0,0 -0.76,0 -0.76,0 -0.06,0 -0.12,0.02 -0.17,0.05 z"
       id="path455" />
    <path
       class="cls-1"
       d="m 139.91,43.4 c -0.17,-0.17 -0.37,-0.31 -0.61,-0.4 -0.24,-0.09 -0.5,-0.14 -0.79,-0.14 -0.29,0 -0.56,0.05 -0.79,0.14 -0.24,0.09 -0.44,0.23 -0.61,0.4 -0.17,0.17 -0.3,0.38 -0.39,0.63 -0.09,0.25 -0.14,0.53 -0.14,0.83 0,0.3 0.05,0.59 0.14,0.83 0.09,0.25 0.22,0.46 0.39,0.63 0.17,0.17 0.37,0.31 0.61,0.4 0.24,0.09 0.5,0.14 0.79,0.14 0.29,0 0.56,-0.05 0.79,-0.14 0.24,-0.09 0.44,-0.23 0.61,-0.4 0.17,-0.17 0.3,-0.39 0.39,-0.63 0.09,-0.25 0.14,-0.53 0.14,-0.83 0,-0.3 -0.05,-0.58 -0.14,-0.83 -0.09,-0.25 -0.22,-0.46 -0.39,-0.63 z m -1.4,2.72 c -0.32,0 -0.55,-0.11 -0.7,-0.32 -0.15,-0.21 -0.23,-0.53 -0.23,-0.93 0,-0.4 0.08,-0.72 0.23,-0.94 0.15,-0.21 0.39,-0.32 0.7,-0.32 0.31,0 0.55,0.11 0.7,0.32 0.15,0.21 0.23,0.53 0.23,0.94 0,0.41 -0.08,0.72 -0.23,0.94 -0.15,0.21 -0.38,0.32 -0.7,0.32 z"
       id="path457" />
    <path
       class="cls-1"
       d="m 143.55,41.32 c -0.15,-0.05 -0.32,-0.07 -0.5,-0.07 -0.23,0 -0.43,0.03 -0.61,0.1 -0.18,0.07 -0.33,0.16 -0.46,0.29 -0.13,0.12 -0.22,0.28 -0.29,0.45 -0.07,0.18 -0.1,0.38 -0.1,0.6 v 0.26 h -0.58 v 0.4 c 0,0.07 0.02,0.13 0.07,0.17 0.05,0.04 0.11,0.07 0.19,0.08 l 0.32,0.05 v 3.16 h 0.97 v -3.16 h 0.97 v -0.7 h -1 v -0.24 c 0,-0.14 0.02,-0.26 0.05,-0.35 0.03,-0.09 0.07,-0.17 0.13,-0.22 0.06,-0.06 0.13,-0.1 0.21,-0.12 0.08,-0.02 0.18,-0.04 0.29,-0.04 0.09,0 0.16,0 0.22,-0.03 0.07,-0.02 0.11,-0.07 0.12,-0.15 l 0.02,-0.47 v -0.02 c 0,0 -0.01,0 -0.01,0 z"
       id="path459" />
    <path
       class="cls-1"
       d="m 104.56,52.64 c -0.12,-0.11 -0.26,-0.2 -0.41,-0.27 -0.15,-0.07 -0.3,-0.13 -0.46,-0.19 -0.17,-0.06 -0.32,-0.11 -0.46,-0.15 -0.15,-0.05 -0.28,-0.1 -0.4,-0.16 -0.11,-0.06 -0.21,-0.13 -0.28,-0.21 -0.07,-0.08 -0.1,-0.18 -0.1,-0.31 0,-0.1 0.02,-0.19 0.05,-0.27 0.03,-0.08 0.09,-0.15 0.15,-0.21 0.07,-0.06 0.16,-0.1 0.26,-0.14 0.1,-0.03 0.22,-0.05 0.36,-0.05 0.15,0 0.29,0.02 0.4,0.06 0.11,0.04 0.21,0.08 0.3,0.13 0.08,0.05 0.16,0.09 0.22,0.13 0.13,0.08 0.24,0.07 0.32,0.02 0.04,-0.02 0.07,-0.07 0.1,-0.12 l 0.26,-0.49 h -0.01 c -0.19,-0.19 -0.43,-0.34 -0.7,-0.44 -0.27,-0.1 -0.57,-0.15 -0.89,-0.15 -0.28,0 -0.54,0.04 -0.76,0.13 -0.22,0.09 -0.41,0.21 -0.56,0.35 -0.15,0.15 -0.27,0.32 -0.35,0.51 -0.08,0.19 -0.12,0.39 -0.12,0.59 0,0.25 0.04,0.46 0.11,0.63 0.07,0.17 0.17,0.32 0.29,0.43 0.12,0.11 0.26,0.21 0.41,0.28 0.15,0.07 0.31,0.13 0.46,0.18 0.16,0.05 0.31,0.1 0.46,0.14 0.15,0.04 0.28,0.09 0.4,0.15 0.12,0.06 0.21,0.13 0.28,0.22 0.07,0.09 0.1,0.2 0.1,0.34 0,0.25 -0.08,0.44 -0.23,0.57 -0.15,0.13 -0.37,0.2 -0.66,0.2 -0.18,0 -0.34,-0.03 -0.48,-0.08 -0.13,-0.05 -0.25,-0.11 -0.35,-0.17 -0.1,-0.06 -0.18,-0.12 -0.26,-0.17 -0.13,-0.09 -0.26,-0.1 -0.36,-0.04 -0.04,0.03 -0.08,0.06 -0.11,0.1 l -0.3,0.5 h 0.01 c 0.11,0.12 0.23,0.22 0.36,0.31 0.13,0.09 0.28,0.16 0.44,0.23 0.15,0.06 0.32,0.11 0.49,0.15 0.17,0.03 0.34,0.05 0.52,0.05 0.3,0 0.57,-0.05 0.81,-0.14 0.24,-0.09 0.44,-0.22 0.6,-0.38 0.16,-0.16 0.29,-0.35 0.37,-0.57 0.08,-0.22 0.13,-0.45 0.13,-0.7 0,-0.23 -0.04,-0.42 -0.11,-0.58 -0.07,-0.16 -0.17,-0.3 -0.29,-0.41 z"
       id="path461" />
    <path
       class="cls-1"
       d="m 108.52,54.31 c -0.06,0 -0.12,0.02 -0.17,0.06 -0.04,0.04 -0.1,0.07 -0.16,0.12 -0.06,0.04 -0.14,0.08 -0.23,0.12 -0.09,0.04 -0.2,0.05 -0.35,0.05 -0.15,0 -0.28,-0.03 -0.39,-0.08 -0.11,-0.05 -0.21,-0.14 -0.29,-0.24 -0.08,-0.11 -0.14,-0.24 -0.19,-0.4 -0.04,-0.16 -0.07,-0.34 -0.07,-0.54 0,-0.2 0.02,-0.37 0.06,-0.53 0.04,-0.15 0.1,-0.29 0.18,-0.39 0.08,-0.11 0.18,-0.19 0.3,-0.25 0.12,-0.06 0.26,-0.09 0.42,-0.09 0.13,0 0.23,0.01 0.32,0.04 0.08,0.03 0.16,0.06 0.22,0.1 0.06,0.04 0.12,0.07 0.16,0.1 0.05,0.03 0.1,0.05 0.15,0.05 0.05,0 0.1,-0.01 0.13,-0.03 0.03,-0.02 0.06,-0.05 0.08,-0.09 l 0.26,-0.35 h -0.01 c -0.17,-0.19 -0.37,-0.32 -0.59,-0.42 -0.22,-0.09 -0.48,-0.14 -0.77,-0.14 -0.3,0 -0.58,0.05 -0.81,0.15 -0.23,0.1 -0.43,0.24 -0.59,0.42 -0.16,0.18 -0.28,0.39 -0.36,0.64 -0.08,0.24 -0.12,0.51 -0.12,0.79 0,0.32 0.05,0.6 0.14,0.85 0.09,0.25 0.22,0.46 0.38,0.63 0.16,0.17 0.35,0.3 0.56,0.39 0.21,0.09 0.44,0.14 0.68,0.14 0.14,0 0.28,-0.01 0.41,-0.03 0.14,-0.02 0.28,-0.06 0.4,-0.1 0.13,-0.05 0.26,-0.12 0.38,-0.2 0.12,-0.08 0.24,-0.19 0.34,-0.31 H 109 c 0,0 -0.28,-0.36 -0.28,-0.36 -0.04,-0.06 -0.1,-0.1 -0.19,-0.1 z"
       id="path463" />
    <rect
       class="cls-1"
       x="109.89"
       y="51.450001"
       width="0.97000003"
       height="3.9000001"
       id="rect465" />
    <path
       class="cls-1"
       d="m 110.81,49.91 c -0.06,-0.05 -0.12,-0.1 -0.2,-0.13 -0.15,-0.06 -0.33,-0.07 -0.48,0 -0.07,0.03 -0.14,0.08 -0.19,0.13 -0.05,0.05 -0.1,0.12 -0.13,0.19 -0.03,0.08 -0.05,0.16 -0.05,0.24 0,0.08 0.02,0.16 0.05,0.23 0.03,0.07 0.08,0.14 0.13,0.19 0.05,0.05 0.12,0.1 0.19,0.13 0.07,0.03 0.15,0.05 0.24,0.05 0.09,0 0.17,-0.02 0.24,-0.05 0.07,-0.03 0.14,-0.08 0.2,-0.13 0.06,-0.05 0.1,-0.12 0.13,-0.19 0.03,-0.07 0.05,-0.15 0.05,-0.23 0,-0.08 -0.02,-0.17 -0.05,-0.24 -0.03,-0.07 -0.08,-0.14 -0.13,-0.19 z"
       id="path467" />
    <path
       class="cls-1"
       d="m 115,51.86 c -0.15,-0.15 -0.33,-0.27 -0.54,-0.35 -0.21,-0.08 -0.43,-0.12 -0.68,-0.12 -0.29,0 -0.55,0.05 -0.78,0.15 -0.23,0.1 -0.43,0.24 -0.59,0.41 -0.16,0.17 -0.29,0.38 -0.37,0.61 -0.09,0.23 -0.13,0.49 -0.13,0.75 0,0.34 0.05,0.64 0.15,0.9 0.1,0.26 0.24,0.48 0.41,0.65 0.17,0.18 0.38,0.31 0.61,0.4 0.23,0.09 0.49,0.13 0.76,0.13 0.14,0 0.28,-0.01 0.42,-0.03 0.15,-0.02 0.29,-0.06 0.43,-0.1 0.14,-0.05 0.28,-0.12 0.4,-0.2 0.13,-0.08 0.25,-0.19 0.35,-0.31 h 0.01 c 0,0 -0.28,-0.36 -0.28,-0.36 -0.02,-0.03 -0.05,-0.05 -0.08,-0.07 -0.08,-0.04 -0.19,-0.03 -0.3,0.03 -0.06,0.03 -0.13,0.07 -0.21,0.12 -0.08,0.04 -0.18,0.08 -0.28,0.11 -0.11,0.03 -0.24,0.05 -0.38,0.05 -0.3,0 -0.54,-0.09 -0.72,-0.27 -0.18,-0.18 -0.28,-0.46 -0.31,-0.84 h 2.36 c 0,0 0.08,0 0.11,-0.02 0.03,-0.01 0.06,-0.03 0.07,-0.06 0.02,-0.03 0.03,-0.07 0.04,-0.12 0,-0.05 0,-0.11 0,-0.18 0,-0.28 -0.04,-0.53 -0.13,-0.75 -0.08,-0.22 -0.2,-0.41 -0.35,-0.56 z m -0.4,1.08 h -1.7 c 0.04,-0.26 0.14,-0.47 0.28,-0.62 0.15,-0.15 0.36,-0.22 0.62,-0.22 0.13,0 0.25,0.02 0.35,0.07 0.1,0.04 0.18,0.11 0.25,0.18 0.07,0.08 0.11,0.17 0.15,0.27 0.03,0.1 0.05,0.2 0.05,0.31 z"
       id="path469" />
    <path
       class="cls-1"
       d="m 119.55,51.81 c -0.11,-0.13 -0.25,-0.23 -0.42,-0.31 -0.17,-0.07 -0.36,-0.11 -0.57,-0.11 -0.13,0 -0.25,0.01 -0.37,0.04 -0.11,0.03 -0.22,0.06 -0.32,0.11 -0.1,0.05 -0.19,0.1 -0.28,0.17 -0.08,0.06 -0.15,0.12 -0.22,0.19 l -0.06,-0.27 c -0.04,-0.12 -0.13,-0.18 -0.26,-0.18 h -0.59 v 3.9 h 0.97 v -2.8 c 0.12,-0.12 0.25,-0.22 0.39,-0.29 0.14,-0.07 0.29,-0.11 0.44,-0.11 0.21,0 0.37,0.06 0.48,0.19 0.11,0.12 0.16,0.3 0.16,0.53 v 2.48 h 0.97 v -2.48 c 0,-0.22 -0.03,-0.42 -0.09,-0.6 -0.06,-0.18 -0.14,-0.34 -0.25,-0.47 z"
       id="path471" />
    <path
       class="cls-1"
       d="m 123.64,54.31 c -0.06,0 -0.12,0.02 -0.17,0.06 -0.04,0.04 -0.1,0.07 -0.16,0.12 -0.06,0.04 -0.14,0.08 -0.23,0.12 -0.09,0.04 -0.2,0.05 -0.35,0.05 -0.15,0 -0.28,-0.03 -0.39,-0.08 -0.11,-0.05 -0.21,-0.14 -0.29,-0.24 -0.08,-0.11 -0.14,-0.24 -0.19,-0.4 -0.04,-0.16 -0.07,-0.34 -0.07,-0.54 0,-0.2 0.02,-0.37 0.06,-0.53 0.04,-0.15 0.1,-0.29 0.18,-0.39 0.08,-0.11 0.18,-0.19 0.3,-0.25 0.12,-0.06 0.26,-0.09 0.42,-0.09 0.13,0 0.23,0.01 0.32,0.04 0.08,0.03 0.16,0.06 0.22,0.1 0.06,0.04 0.12,0.07 0.16,0.1 0.05,0.03 0.1,0.05 0.15,0.05 0.05,0 0.1,-0.01 0.13,-0.03 0.03,-0.02 0.06,-0.05 0.08,-0.09 l 0.26,-0.35 h -0.01 c -0.17,-0.19 -0.37,-0.32 -0.59,-0.42 -0.22,-0.09 -0.48,-0.14 -0.77,-0.14 -0.3,0 -0.58,0.05 -0.81,0.15 -0.23,0.1 -0.43,0.24 -0.59,0.42 -0.16,0.18 -0.28,0.39 -0.36,0.64 -0.08,0.24 -0.12,0.51 -0.12,0.79 0,0.32 0.05,0.6 0.14,0.85 0.09,0.25 0.22,0.46 0.38,0.63 0.16,0.17 0.35,0.3 0.56,0.39 0.21,0.09 0.44,0.14 0.68,0.14 0.14,0 0.28,-0.01 0.41,-0.03 0.14,-0.02 0.28,-0.06 0.4,-0.1 0.13,-0.05 0.26,-0.12 0.38,-0.2 0.12,-0.08 0.24,-0.19 0.34,-0.31 h 0.01 c 0,0 -0.28,-0.36 -0.28,-0.36 -0.04,-0.06 -0.1,-0.1 -0.19,-0.1 z"
       id="path473" />
    <path
       class="cls-1"
       d="m 127.78,51.86 c -0.15,-0.15 -0.33,-0.27 -0.54,-0.35 -0.21,-0.08 -0.43,-0.12 -0.68,-0.12 -0.29,0 -0.55,0.05 -0.78,0.15 -0.23,0.1 -0.43,0.24 -0.59,0.41 -0.16,0.17 -0.29,0.38 -0.37,0.61 -0.09,0.23 -0.13,0.49 -0.13,0.75 0,0.34 0.05,0.64 0.15,0.9 0.1,0.26 0.24,0.48 0.41,0.65 0.17,0.18 0.38,0.31 0.61,0.4 0.23,0.09 0.49,0.13 0.76,0.13 0.14,0 0.28,-0.01 0.42,-0.03 0.15,-0.02 0.29,-0.06 0.43,-0.1 0.14,-0.05 0.28,-0.12 0.4,-0.2 0.13,-0.08 0.25,-0.19 0.35,-0.31 h 0.01 c 0,0 -0.28,-0.36 -0.28,-0.36 -0.02,-0.03 -0.05,-0.05 -0.08,-0.07 -0.03,-0.02 -0.07,-0.03 -0.11,-0.03 -0.06,0 -0.13,0.02 -0.19,0.06 -0.06,0.03 -0.13,0.07 -0.21,0.12 -0.08,0.04 -0.18,0.08 -0.28,0.11 -0.11,0.03 -0.24,0.05 -0.38,0.05 -0.3,0 -0.54,-0.09 -0.72,-0.27 -0.18,-0.18 -0.28,-0.46 -0.31,-0.84 h 2.36 c 0,0 0.08,0 0.11,-0.02 0.03,-0.01 0.06,-0.03 0.08,-0.06 0.02,-0.03 0.03,-0.07 0.04,-0.12 0,-0.05 0,-0.11 0,-0.18 0,-0.28 -0.04,-0.53 -0.13,-0.75 -0.08,-0.22 -0.2,-0.41 -0.35,-0.56 z m -0.4,1.08 h -1.7 c 0.04,-0.26 0.14,-0.47 0.28,-0.62 0.15,-0.15 0.36,-0.22 0.62,-0.22 0.13,0 0.25,0.02 0.35,0.07 0.1,0.04 0.18,0.11 0.25,0.18 0.07,0.08 0.11,0.17 0.15,0.27 0.03,0.1 0.05,0.2 0.05,0.31 z"
       id="path475" />
    <path
       class="cls-1"
       d="m 131.56,53.41 c -0.09,-0.08 -0.19,-0.15 -0.31,-0.2 -0.11,-0.05 -0.23,-0.1 -0.35,-0.14 -0.12,-0.04 -0.24,-0.08 -0.35,-0.11 -0.11,-0.03 -0.21,-0.07 -0.3,-0.11 -0.09,-0.04 -0.16,-0.09 -0.21,-0.14 -0.05,-0.05 -0.08,-0.12 -0.08,-0.19 0,-0.12 0.05,-0.21 0.15,-0.29 0.1,-0.07 0.24,-0.11 0.42,-0.11 0.12,0 0.22,0.01 0.3,0.04 0.08,0.02 0.16,0.05 0.23,0.08 0.07,0.03 0.13,0.06 0.18,0.08 0.11,0.05 0.21,0.05 0.27,0.01 0.03,-0.02 0.06,-0.05 0.09,-0.09 l 0.22,-0.35 h -0.01 c -0.15,-0.16 -0.33,-0.27 -0.55,-0.36 -0.22,-0.09 -0.47,-0.13 -0.73,-0.13 -0.24,0 -0.45,0.03 -0.64,0.1 -0.18,0.06 -0.34,0.15 -0.46,0.26 -0.12,0.11 -0.22,0.24 -0.28,0.38 -0.06,0.15 -0.1,0.3 -0.1,0.46 0,0.17 0.03,0.32 0.08,0.44 0.06,0.12 0.13,0.23 0.22,0.31 0.09,0.08 0.19,0.15 0.31,0.21 0.12,0.05 0.23,0.1 0.35,0.14 0.13,0.04 0.24,0.08 0.35,0.11 0.11,0.03 0.21,0.07 0.3,0.11 0.09,0.04 0.16,0.09 0.21,0.15 0.05,0.05 0.08,0.12 0.08,0.21 0,0.06 -0.01,0.11 -0.03,0.17 -0.02,0.05 -0.06,0.1 -0.11,0.14 -0.05,0.04 -0.11,0.07 -0.19,0.1 -0.08,0.03 -0.17,0.04 -0.28,0.04 -0.14,0 -0.25,-0.02 -0.34,-0.05 -0.09,-0.03 -0.17,-0.07 -0.24,-0.1 -0.07,-0.04 -0.12,-0.07 -0.18,-0.1 -0.05,-0.03 -0.11,-0.05 -0.17,-0.05 -0.06,0 -0.11,0.01 -0.15,0.04 -0.04,0.02 -0.08,0.06 -0.11,0.1 l -0.21,0.35 v 0 c 0,0 0.01,0.03 0.01,0.03 0.08,0.07 0.16,0.13 0.26,0.19 0.1,0.06 0.21,0.11 0.33,0.15 0.12,0.04 0.24,0.08 0.37,0.1 0.13,0.02 0.26,0.04 0.39,0.04 0.25,0 0.47,-0.03 0.67,-0.1 0.19,-0.07 0.36,-0.16 0.49,-0.27 0.13,-0.12 0.23,-0.26 0.3,-0.41 0.07,-0.16 0.1,-0.33 0.1,-0.52 0,-0.16 -0.03,-0.29 -0.08,-0.41 -0.06,-0.11 -0.13,-0.21 -0.22,-0.29 z"
       id="path477" />
  </g>
</svg>
